<svg width="266" height="306" viewBox="0 0 266 306" fill="none" xmlns="http://www.w3.org/2000/svg">
    <path
        d="M105.908 305.717C95.525 305.717 89.7676 295.843 89.7676 280.842V241.155H127.365V275.715C127.365 301.16 116.291 305.717 105.908 305.717Z"
        fill="#4287C8" />
    <path
        d="M0.379904 191.025C0.379904 191.025 -0.273307 282.042 31.8404 278.753C39.2574 277.993 44.7528 265.84 44.7528 246.852"
        fill="#4287C8" />
    <path
        d="M161.734 305.717C172.117 305.717 177.874 295.843 177.874 280.842V241.155H140.276V275.715C140.276 301.16 151.351 305.717 161.734 305.717Z"
        fill="#4287C8" />
    <path
        d="M265.982 191.025C265.982 191.025 266.635 282.042 234.522 278.753C227.105 277.993 221.609 265.84 221.609 246.852"
        fill="#4287C8" />
    <path
        d="M132.616 59.2283C132.616 59.2283 138.191 14.3617 81.7148 16.8721C81.7148 16.8721 85.9417 78.3651 132.616 59.2283Z"
        fill="#4287C8" />
    <path
        d="M135.339 61.7915C135.339 61.7915 198.329 82.6905 210.922 0.674383C210.922 0.674383 121.185 -10.8935 135.339 61.7915Z"
        fill="#4287C8" />
    <path
        d="M265.602 178.872C260.555 111.842 202.48 62.5928 142.551 57.7393C141.218 57.6329 139.912 57.2684 138.761 56.5924C136.805 55.4417 135.123 53.4782 135.123 50.1286C135.123 43.6724 137.045 27.0573 140.656 16.3894C141.488 13.9323 139.646 11.3916 137.052 11.3916H132.901H128.693C126.099 11.3916 124.261 13.9323 125.089 16.3894C128.701 27.0573 130.623 43.6724 130.623 50.1286C130.623 53.2617 129.145 55.1834 127.357 56.3607C126.111 57.1772 124.656 57.614 123.171 57.7279C63.0379 62.4485 3.02212 110.399 0.139631 178.872C-2.47702 241.034 31.7407 262.423 97.9202 262.423H167.818C233.997 262.423 270.269 240.912 265.598 178.872H265.602Z"
        fill="url(#paint0_radial_531_1876)" />
    <path
        d="M235.6 186.168C235.6 226.492 204.971 239.746 151.669 241.152C149.167 241.216 116.24 241.152 113.692 241.152C56.851 241.152 29.7617 228.384 29.7617 186.168C29.7617 143.952 82.5504 106.335 132.681 106.335C186.988 106.335 235.6 143.952 235.6 186.168Z"
        fill="#EEFBFF" />
    <mask id="mask0_531_1876" style="mask-type:luminance" maskUnits="userSpaceOnUse" x="29" y="106" width="207"
        height="136">
        <path
            d="M235.599 186.168C235.599 226.492 204.97 239.746 151.668 241.152C149.166 241.216 116.239 241.152 113.691 241.152C56.8501 241.152 29.7607 228.384 29.7607 186.168C29.7607 143.952 82.5494 106.335 132.68 106.335C186.987 106.335 235.599 143.952 235.599 186.168Z"
            fill="white" />
    </mask>
    <g mask="url(#mask0_531_1876)">
        <path
            d="M57.1057 236.219C71.7878 236.219 83.6899 224.317 83.6899 209.635C83.6899 194.952 71.7878 183.05 57.1057 183.05C42.4236 183.05 30.5215 194.952 30.5215 209.635C30.5215 224.317 42.4236 236.219 57.1057 236.219Z"
            fill="#C9D9FC" />
        <path
            d="M208.256 236.219C222.938 236.219 234.84 224.317 234.84 209.635C234.84 194.952 222.938 183.05 208.256 183.05C193.574 183.05 181.672 194.952 181.672 209.635C181.672 224.317 193.574 236.219 208.256 236.219Z"
            fill="#C9D9FC" />
        <path
            d="M45.496 213.269C45.3972 213.269 45.3023 213.231 45.2263 213.159C45.0782 213.011 45.0782 212.772 45.2263 212.624L51.7357 206.115C51.8838 205.966 52.123 205.966 52.2711 206.115C52.4192 206.263 52.4192 206.502 52.2711 206.65L45.7618 213.159C45.6858 213.235 45.5909 213.269 45.4922 213.269H45.496Z"
            fill="#EDF6F9" />
        <path
            d="M52.9276 214.192C52.8289 214.192 52.7339 214.154 52.658 214.082C52.5098 213.934 52.5098 213.695 52.658 213.547L61.013 205.192C61.1611 205.044 61.4004 205.044 61.5485 205.192C61.6966 205.34 61.6966 205.579 61.5485 205.727L53.1934 214.082C53.1175 214.158 53.0225 214.192 52.9238 214.192H52.9276Z"
            fill="#EDF6F9" />
        <path
            d="M62.2059 213.269C62.1072 213.269 62.0122 213.231 61.9363 213.159C61.7882 213.011 61.7882 212.772 61.9363 212.624L68.4456 206.115C68.5937 205.966 68.833 205.966 68.9811 206.115C69.1292 206.263 69.1292 206.502 68.9811 206.65L62.4718 213.159C62.3958 213.235 62.3009 213.269 62.2021 213.269H62.2059Z"
            fill="#EDF6F9" />
        <path
            d="M219.867 213.269C219.768 213.269 219.673 213.231 219.597 213.159L213.088 206.65C212.94 206.501 212.94 206.262 213.088 206.114C213.236 205.966 213.475 205.966 213.623 206.114L220.132 212.623C220.281 212.771 220.281 213.011 220.132 213.159C220.057 213.235 219.962 213.269 219.863 213.269H219.867Z"
            fill="#EDF6F9" />
        <path
            d="M212.434 214.192C212.335 214.192 212.24 214.154 212.164 214.082L203.809 205.727C203.661 205.579 203.661 205.339 203.809 205.191C203.957 205.043 204.197 205.043 204.345 205.191L212.7 213.546C212.848 213.694 212.848 213.934 212.7 214.082C212.624 214.158 212.529 214.192 212.43 214.192H212.434Z"
            fill="#EDF6F9" />
        <path
            d="M203.157 213.269C203.058 213.269 202.963 213.231 202.887 213.159L196.378 206.65C196.23 206.501 196.23 206.262 196.378 206.114C196.526 205.966 196.765 205.966 196.913 206.114L203.422 212.623C203.571 212.771 203.571 213.011 203.422 213.159C203.347 213.235 203.252 213.269 203.153 213.269H203.157Z"
            fill="#EDF6F9" />
    </g>
    <path
        d="M82.6868 205.457C93.5934 205.457 102.435 196.615 102.435 185.708C102.435 174.802 93.5934 165.96 82.6868 165.96C71.7801 165.96 62.9385 174.802 62.9385 185.708C62.9385 196.615 71.7801 205.457 82.6868 205.457Z"
        fill="white" />
    <path
        d="M82.6864 197.982C89.4653 197.982 94.9607 192.487 94.9607 185.708C94.9607 178.929 89.4653 173.434 82.6864 173.434C75.9075 173.434 70.4121 178.929 70.4121 185.708C70.4121 192.487 75.9075 197.982 82.6864 197.982Z"
        fill="#39393B" />
    <path
        d="M182.67 205.457C193.577 205.457 202.418 196.615 202.418 185.708C202.418 174.802 193.577 165.96 182.67 165.96C171.763 165.96 162.922 174.802 162.922 185.708C162.922 196.615 171.763 205.457 182.67 205.457Z"
        fill="white" />
    <path
        d="M182.67 197.982C189.449 197.982 194.944 192.487 194.944 185.708C194.944 178.929 189.449 173.434 182.67 173.434C175.891 173.434 170.396 178.929 170.396 185.708C170.396 192.487 175.891 197.982 182.67 197.982Z"
        fill="#39393B" />
    <path
        d="M132.682 208.114C127.285 208.114 122.314 206.094 118.683 202.425C114.977 198.681 112.934 193.417 112.934 187.607C112.934 182.362 117.183 178.112 122.428 178.112C127.673 178.112 131.922 182.362 131.922 187.607C131.922 188.469 132.093 188.921 132.169 189.054C132.226 189.076 132.386 189.126 132.682 189.126C132.978 189.126 133.138 189.076 133.195 189.054C133.274 188.921 133.441 188.469 133.441 187.607C133.441 182.362 137.691 178.112 142.936 178.112C148.18 178.112 152.43 182.362 152.43 187.607C152.43 193.417 150.387 198.681 146.68 202.425C143.05 206.094 138.078 208.114 132.682 208.114Z"
        fill="#FE91A5" />
    <path
        d="M132.682 199C126.32 199 122.048 194.42 122.048 187.607C122.048 187.398 122.219 187.227 122.428 187.227C122.637 187.227 122.807 187.398 122.807 187.607C122.807 193.968 126.776 198.241 132.682 198.241C138.587 198.241 142.556 193.968 142.556 187.607C142.556 187.398 142.727 187.227 142.935 187.227C143.144 187.227 143.315 187.398 143.315 187.607C143.315 194.42 139.043 199 132.682 199Z"
        fill="black" />
    <path
        d="M62.3873 157.306L58.8963 160.797C56.9683 162.725 56.9683 165.851 58.8963 167.779C60.8244 169.707 63.9503 169.707 65.8784 167.779L69.3694 164.288C71.2975 162.36 71.2975 159.234 69.3694 157.306C67.4414 155.378 64.3154 155.378 62.3873 157.306Z"
        fill="#39393B" />
    <path
        d="M202.975 157.304C201.047 155.376 197.921 155.376 195.993 157.304C194.065 159.232 194.065 162.358 195.993 164.286L199.484 167.777C201.412 169.705 204.538 169.705 206.466 167.777C208.394 165.849 208.394 162.723 206.466 160.795L202.975 157.304Z"
        fill="#39393B" />
    <defs>
        <radialGradient id="paint0_radial_531_1876" cx="0" cy="0" r="1" gradientUnits="userSpaceOnUse"
            gradientTransform="translate(198.5 69.5) rotate(124.798) scale(193.627 205.173)">
            <stop stop-color="#D5DEFF" />
            <stop offset="1" stop-color="#599EDE" />
        </radialGradient>
    </defs>
</svg>