<svg width="390" height="844" viewBox="0 0 390 844" fill="none" xmlns="http://www.w3.org/2000/svg">
<g clip-path="url(#clip0_531_364)">
<rect width="390" height="844" fill="white"/>
<path d="M0 0H390V844H0V0Z" fill="url(#paint0_linear_531_364)"/>
<path fill-rule="evenodd" clip-rule="evenodd" d="M323.929 20.98H325.313C325.688 20.98 326.005 21.4163 326.005 21.9318V25.7391C326.005 26.2547 325.688 26.6909 325.313 26.6909H323.929C323.554 26.6909 323.236 26.2547 323.236 25.7391V21.9318C323.236 21.4163 323.554 20.98 323.929 20.98ZM328.082 19.0764H329.466C329.841 19.0764 330.159 19.5126 330.159 20.0282V25.7391C330.159 26.2547 329.841 26.6909 329.466 26.6909H328.082C327.707 26.6909 327.39 26.2547 327.39 25.7391V20.0282C327.39 19.5126 327.707 19.0764 328.082 19.0764ZM332.235 16.5382H333.62C333.995 16.5382 334.312 16.9744 334.312 17.49V25.7391C334.312 26.2547 333.995 26.6909 333.62 26.6909H332.235C331.86 26.6909 331.543 26.2547 331.543 25.7391V17.5297C331.543 17.0141 331.86 16.5778 332.235 16.5778V16.5382ZM336.389 14H337.773C338.148 14 338.465 14.4363 338.465 14.9518V25.6994C338.465 26.215 338.148 26.6513 337.773 26.6513H336.389C336.014 26.6513 335.696 26.215 335.696 25.6994V14.9915C335.696 14.4759 336.014 14.0397 336.389 14.0397V14Z" fill="#F9F6F3"/>
<path d="M349.959 23.3477C349.959 23.3477 349.735 23.5716 349.735 23.7208C349.735 23.87 349.773 24.0192 349.885 24.1311L351.824 26.0709C351.824 26.0709 352.048 26.2201 352.197 26.2201C352.347 26.2201 352.459 26.1828 352.57 26.0709L354.51 24.1311C354.51 24.1311 354.659 23.87 354.659 23.7208C354.659 23.5716 354.548 23.4223 354.436 23.3477C353.13 22.4524 351.302 22.4524 349.959 23.3477Z" fill="#F9F6F3"/>
<path d="M352.161 18.4985C350.258 18.4985 348.393 19.17 346.938 20.401C346.827 20.5129 346.752 20.6248 346.752 20.774C346.752 20.9233 346.789 21.0725 346.901 21.1844L347.946 22.2289C348.132 22.4154 348.431 22.4154 348.654 22.2289C349.662 21.4082 350.855 20.9979 352.161 20.9979C353.467 20.9979 354.698 21.4455 355.667 22.2662C355.779 22.3408 355.891 22.3781 356.003 22.3781C356.152 22.3781 356.264 22.3408 356.376 22.2289L357.421 21.1844C357.421 21.1844 357.57 20.9233 357.57 20.774C357.57 20.6248 357.495 20.4756 357.383 20.401C355.929 19.17 354.063 18.4985 352.124 18.4985H352.161Z" fill="#F9F6F3"/>
<path d="M360.294 17.5659C358.056 15.5515 355.184 14.4697 352.199 14.4697C349.215 14.4697 346.305 15.5888 344.104 17.5659C343.993 17.6778 343.918 17.7897 343.918 17.939C343.918 18.0882 343.955 18.2374 344.067 18.312L345.112 19.3565C345.112 19.3565 345.335 19.5057 345.485 19.5057C345.597 19.5057 345.746 19.4684 345.82 19.3565C347.574 17.827 349.812 16.9691 352.162 16.9691C354.512 16.9691 356.75 17.827 358.504 19.3565C358.727 19.543 359.026 19.543 359.212 19.3565L360.257 18.312C360.257 18.312 360.406 18.0509 360.406 17.939C360.406 17.7897 360.332 17.6405 360.22 17.5659H360.294Z" fill="#F9F6F3"/>
<path d="M18.9192 25.5718H17.6128V17.3227C17.3142 17.6213 16.9036 17.9199 16.3811 18.2185C15.8585 18.5172 15.4106 18.7411 15 18.8904V17.6213C15.7092 17.2854 16.3437 16.8748 16.9036 16.3896C17.4635 15.9043 17.8368 15.4191 18.0607 14.9712H18.8819V25.5718H18.9192Z" fill="#F9F6F3"/>
<path d="M22.2432 20.3459C22.2432 19.1141 22.3551 18.1063 22.6164 17.3225C22.8777 16.5759 23.251 15.9787 23.7735 15.5681C24.2961 15.1575 24.9306 14.9336 25.6772 14.9336C26.237 14.9336 26.7596 15.0456 27.1702 15.2695C27.5808 15.4935 27.954 15.8294 28.2153 16.24C28.4766 16.6506 28.7006 17.1732 28.8872 17.8077C29.0365 18.4049 29.1111 19.2634 29.1111 20.3085C29.1111 21.5403 28.9992 22.5481 28.7379 23.2946C28.4766 24.0411 28.1033 24.6383 27.5808 25.0489C27.0582 25.4595 26.4237 25.6835 25.6772 25.6835C24.6693 25.6835 23.8482 25.3102 23.2883 24.601C22.5791 23.7052 22.2432 22.2868 22.2432 20.3085V20.3459ZM23.5869 20.3459C23.5869 22.0628 23.7735 23.22 24.1841 23.8172C24.5947 24.3771 25.0799 24.6757 25.6772 24.6757C26.2744 24.6757 26.7596 24.3771 27.1702 23.8172C27.5808 23.2573 27.7674 22.1002 27.7674 20.3459C27.7674 18.5915 27.5808 17.4344 27.1702 16.8745C26.7596 16.3147 26.2744 16.016 25.6398 16.016C25.0053 16.016 24.5574 16.2773 24.2214 16.7626C23.7735 17.3971 23.5496 18.5915 23.5496 20.3459H23.5869Z" fill="#F9F6F3"/>
<path d="M31.1631 19.413V17.9199H32.6561V19.413H31.1631ZM31.1631 25.5717V24.0787H32.6561V25.5717H31.1631Z" fill="#F9F6F3"/>
<path d="M34.5586 22.7723L35.865 22.5857C36.0143 23.3322 36.2756 23.8548 36.6115 24.1907C36.9475 24.5266 37.3954 24.6759 37.9179 24.6759C38.5151 24.6759 39.0377 24.452 39.4483 24.0414C39.8589 23.6308 40.0828 23.1082 40.0828 22.4737C40.0828 21.8392 39.8962 21.3913 39.4856 21.018C39.1124 20.6447 38.5898 20.4208 37.9926 20.4208C37.7313 20.4208 37.4327 20.4581 37.0594 20.5701L37.2087 19.4503C37.2087 19.4503 37.358 19.4503 37.4327 19.4503C37.9926 19.4503 38.4778 19.301 38.9257 19.0024C39.3736 18.7038 39.5976 18.2559 39.5976 17.6587C39.5976 17.1734 39.4483 16.8002 39.1124 16.4642C38.7764 16.1656 38.3658 16.0163 37.8806 16.0163C37.3954 16.0163 36.9475 16.1656 36.6115 16.5016C36.2756 16.8002 36.0516 17.2854 35.977 17.9199L34.6706 17.696C34.8199 16.8375 35.1931 16.1656 35.753 15.6804C36.3129 15.1951 37.0221 14.9712 37.8433 14.9712C38.4032 14.9712 38.9631 15.0832 39.4483 15.3445C39.9335 15.6057 40.3068 15.9417 40.5681 16.3523C40.8294 16.7628 40.9413 17.2481 40.9413 17.696C40.9413 18.1439 40.8294 18.5545 40.5681 18.9277C40.3068 19.301 39.9709 19.5996 39.4856 19.8236C40.1202 19.9729 40.6054 20.2715 40.9413 20.7194C41.2773 21.1673 41.4639 21.7272 41.4639 22.4364C41.4639 23.3695 41.128 24.1534 40.4561 24.7879C39.7842 25.4225 38.9257 25.7584 37.9179 25.7584C36.9848 25.7584 36.2383 25.4971 35.6037 24.9372C35.0065 24.3773 34.6332 23.6681 34.5586 22.7723Z" fill="#F9F6F3"/>
<path d="M42.7725 20.3459C42.7725 19.1141 42.8844 18.1063 43.1457 17.3225C43.407 16.5759 43.7803 15.9787 44.3028 15.5681C44.8254 15.1575 45.4599 14.9336 46.2064 14.9336C46.7663 14.9336 47.2889 15.0456 47.6995 15.2695C48.1101 15.4935 48.4833 15.8294 48.7446 16.24C49.0059 16.6879 49.2298 17.1732 49.4165 17.8077C49.5658 18.4049 49.6404 19.2634 49.6404 20.3085C49.6404 21.5403 49.5285 22.5481 49.2672 23.2946C49.0059 24.0411 48.6326 24.6383 48.1101 25.0489C47.5875 25.4595 46.953 25.6835 46.2064 25.6835C45.1986 25.6835 44.3775 25.3102 43.8176 24.601C43.1084 23.7052 42.7725 22.2868 42.7725 20.3085V20.3459ZM44.1162 20.3459C44.1162 22.0628 44.3028 23.22 44.7134 23.8172C45.124 24.3771 45.6092 24.6757 46.2064 24.6757C46.8037 24.6757 47.2889 24.3771 47.6995 23.8172C48.1101 23.2573 48.2967 22.1002 48.2967 20.3459C48.2967 18.5915 48.1101 17.4344 47.6995 16.8745C47.2889 16.3147 46.8037 16.016 46.1691 16.016C45.5346 16.016 45.0867 16.2773 44.7507 16.7626C44.3028 17.3971 44.0789 18.5915 44.0789 20.3459H44.1162Z" fill="#F9F6F3"/>
<path d="M366.386 21.6143H374V24.6906C374 25.7952 373.105 26.6906 372 26.6906H368.386C367.281 26.6906 366.386 25.7952 366.386 24.6906V21.6143Z" fill="#F9F6F3"/>
<path d="M368 16C368 15.4477 368.448 15 369 15H371C371.552 15 372 15.4477 372 16V17H368V16Z" fill="#F9F6F3"/>
<rect x="366.886" y="17.0381" width="6.61455" height="9.15273" rx="0.5" stroke="#F9F6F3"/>
<path d="M20 157C20 140.431 33.4315 127 50 127H340C356.569 127 370 140.431 370 157V665C370 681.569 356.569 695 340 695H50C33.4315 695 20 681.569 20 665V157Z" fill="#F9F6F3"/>
<path d="M173 432.251C164.569 432.251 159.894 424.233 159.894 412.052V379.825H190.424V407.889C190.424 428.551 181.431 432.251 173 432.251Z" fill="#29544A"/>
<path d="M87.3084 339.118C87.3084 339.118 86.778 413.027 112.855 410.356C118.878 409.739 123.341 399.871 123.341 384.451" fill="#29544A"/>
<path d="M218.332 432.251C226.763 432.251 231.439 424.233 231.439 412.052V379.825H200.908V407.889C200.908 428.551 209.901 432.251 218.332 432.251Z" fill="#29544A"/>
<path d="M302.985 339.118C302.985 339.118 303.516 413.027 277.438 410.356C271.416 409.739 266.953 399.871 266.953 384.451" fill="#29544A"/>
<path d="M194.688 232.095C194.688 232.095 199.215 195.662 153.354 197.701C153.354 197.701 156.787 247.635 194.688 232.095Z" fill="#295444"/>
<path d="M196.899 234.177C196.899 234.177 248.049 251.147 258.275 184.548C258.275 184.548 185.406 175.154 196.899 234.177Z" fill="#295444"/>
<path d="M302.677 329.25C298.578 274.819 251.42 234.827 202.756 230.886C201.673 230.8 200.613 230.504 199.678 229.955C198.09 229.02 196.724 227.426 196.724 224.706C196.724 219.463 198.284 205.972 201.217 197.309C201.892 195.314 200.397 193.25 198.29 193.25H194.92H191.503C189.397 193.25 187.904 195.314 188.576 197.309C191.509 205.972 193.069 219.463 193.069 224.706C193.069 227.25 191.87 228.811 190.417 229.767C189.406 230.43 188.225 230.784 187.019 230.877C138.189 234.71 89.4541 273.647 87.1134 329.25C84.9886 379.727 112.774 397.095 166.514 397.095H223.273C277.013 397.095 306.467 379.628 302.674 329.25H302.677Z" fill="url(#paint1_radial_531_364)"/>
<path d="M278.313 335.174C278.313 367.919 253.442 378.681 210.16 379.822C208.127 379.875 181.39 379.822 179.321 379.822C133.164 379.822 111.167 369.454 111.167 335.174C111.167 300.894 154.033 270.348 194.74 270.348C238.84 270.348 278.313 300.894 278.313 335.174Z" fill="#D6EBDD"/>
<mask id="mask0_531_364" style="mask-type:luminance" maskUnits="userSpaceOnUse" x="111" y="270" width="168" height="110">
<path d="M278.312 335.173C278.312 367.918 253.441 378.681 210.159 379.822C208.126 379.874 181.389 379.822 179.32 379.822C133.163 379.822 111.166 369.454 111.166 335.173C111.166 300.893 154.032 270.347 194.739 270.347C238.839 270.347 278.312 300.893 278.312 335.173Z" fill="white"/>
</mask>
<g mask="url(#mask0_531_364)">
<path d="M133.371 375.816C145.294 375.816 154.959 366.152 154.959 354.229C154.959 342.307 145.294 332.642 133.371 332.642C121.449 332.642 111.784 342.307 111.784 354.229C111.784 366.152 121.449 375.816 133.371 375.816Z" fill="#A8D9B8"/>
<path d="M256.111 375.816C268.033 375.816 277.698 366.152 277.698 354.229C277.698 342.307 268.033 332.642 256.111 332.642C244.188 332.642 234.523 342.307 234.523 354.229C234.523 366.152 244.188 375.816 256.111 375.816Z" fill="#A8D9B8"/>
<path d="M123.944 357.181C123.864 357.181 123.787 357.15 123.725 357.092C123.605 356.971 123.605 356.777 123.725 356.657L129.011 351.371C129.131 351.251 129.325 351.251 129.446 351.371C129.566 351.491 129.566 351.686 129.446 351.806L124.16 357.092C124.098 357.153 124.021 357.181 123.941 357.181H123.944Z" fill="#D5F1E4"/>
<path d="M129.979 357.93C129.899 357.93 129.822 357.899 129.76 357.841C129.64 357.721 129.64 357.526 129.76 357.406L136.545 350.621C136.665 350.501 136.859 350.501 136.979 350.621C137.1 350.742 137.1 350.936 136.979 351.056L130.195 357.841C130.133 357.903 130.056 357.93 129.976 357.93H129.979Z" fill="#D5F1E4"/>
<path d="M137.513 357.181C137.433 357.181 137.356 357.15 137.294 357.092C137.174 356.971 137.174 356.777 137.294 356.657L142.58 351.371C142.7 351.251 142.895 351.251 143.015 351.371C143.135 351.491 143.135 351.686 143.015 351.806L137.729 357.092C137.667 357.153 137.59 357.181 137.51 357.181H137.513Z" fill="#D5F1E4"/>
<path d="M265.539 357.181C265.459 357.181 265.382 357.15 265.32 357.091L260.035 351.805C259.914 351.685 259.914 351.491 260.035 351.37C260.155 351.25 260.349 351.25 260.469 351.37L265.755 356.656C265.875 356.777 265.875 356.971 265.755 357.091C265.693 357.153 265.616 357.181 265.536 357.181H265.539Z" fill="#D5F1E4"/>
<path d="M259.504 357.93C259.424 357.93 259.347 357.899 259.285 357.84L252.5 351.056C252.38 350.936 252.38 350.741 252.5 350.621C252.621 350.501 252.815 350.501 252.935 350.621L259.72 357.406C259.84 357.526 259.84 357.72 259.72 357.84C259.658 357.902 259.581 357.93 259.501 357.93H259.504Z" fill="#D5F1E4"/>
<path d="M251.97 357.181C251.89 357.181 251.813 357.15 251.751 357.091L246.465 351.805C246.345 351.685 246.345 351.491 246.465 351.37C246.585 351.25 246.78 351.25 246.9 351.37L252.186 356.656C252.306 356.777 252.306 356.971 252.186 357.091C252.124 357.153 252.047 357.181 251.967 357.181H251.97Z" fill="#D5F1E4"/>
</g>
<g filter="url(#filter0_i_531_364)">
<path d="M278.313 335.174C278.313 367.919 253.442 378.681 210.16 379.822C208.127 379.875 181.39 379.822 179.321 379.822C133.164 379.822 111.167 369.454 111.167 335.174C111.167 300.894 154.033 270.348 194.74 270.348C238.84 270.348 278.313 300.894 278.313 335.174Z" fill="#F2F9ED" fill-opacity="0.01"/>
</g>
<path d="M154.144 350.837C163 350.837 170.18 343.657 170.18 334.801C170.18 325.944 163 318.765 154.144 318.765C145.287 318.765 138.107 325.944 138.107 334.801C138.107 343.657 145.287 350.837 154.144 350.837Z" fill="white"/>
<path d="M154.143 344.768C159.648 344.768 164.11 340.305 164.11 334.801C164.11 329.296 159.648 324.833 154.143 324.833C148.638 324.833 144.176 329.296 144.176 334.801C144.176 340.305 148.638 344.768 154.143 344.768Z" fill="#39393B"/>
<path d="M235.333 350.837C244.19 350.837 251.369 343.657 251.369 334.801C251.369 325.944 244.19 318.765 235.333 318.765C226.477 318.765 219.297 325.944 219.297 334.801C219.297 343.657 226.477 350.837 235.333 350.837Z" fill="white"/>
<path d="M235.333 344.768C240.838 344.768 245.3 340.305 245.3 334.801C245.3 329.296 240.838 324.833 235.333 324.833C229.829 324.833 225.366 329.296 225.366 334.801C225.366 340.305 229.829 344.768 235.333 344.768Z" fill="#39393B"/>
<path d="M194.742 352.995C190.36 352.995 186.323 351.355 183.375 348.376C180.365 345.335 178.706 341.061 178.706 336.343C178.706 332.084 182.157 328.633 186.416 328.633C190.675 328.633 194.125 332.084 194.125 336.343C194.125 337.043 194.264 337.41 194.326 337.517C194.372 337.536 194.502 337.576 194.742 337.576C194.983 337.576 195.112 337.536 195.159 337.517C195.223 337.41 195.359 337.043 195.359 336.343C195.359 332.084 198.81 328.633 203.069 328.633C207.328 328.633 210.778 332.084 210.778 336.343C210.778 341.061 209.119 345.335 206.109 348.376C203.161 351.355 199.124 352.995 194.742 352.995Z" fill="#EE868C"/>
<path d="M194.742 345.594C189.577 345.594 186.107 341.875 186.107 336.343C186.107 336.173 186.246 336.034 186.416 336.034C186.585 336.034 186.724 336.173 186.724 336.343C186.724 341.508 189.947 344.977 194.742 344.977C199.538 344.977 202.76 341.508 202.76 336.343C202.76 336.173 202.899 336.034 203.069 336.034C203.238 336.034 203.377 336.173 203.377 336.343C203.377 341.875 199.908 345.594 194.742 345.594Z" fill="black"/>
<path d="M137.66 311.737L134.825 314.572C133.259 316.138 133.259 318.676 134.825 320.242C136.391 321.807 138.929 321.807 140.495 320.242L143.33 317.407C144.895 315.841 144.895 313.303 143.33 311.737C141.764 310.171 139.226 310.171 137.66 311.737Z" fill="#39393B"/>
<path d="M251.821 311.735C250.255 310.169 247.717 310.169 246.151 311.735C244.586 313.301 244.586 315.839 246.151 317.405L248.986 320.239C250.552 321.805 253.09 321.805 254.656 320.239C256.221 318.674 256.221 316.135 254.656 314.57L251.821 311.735Z" fill="#39393B"/>
<path d="M61.36 85.288C56.248 85.288 52.936 81.736 52.936 76.24C52.936 70.792 56.368 67.168 61.504 67.168C65.656 67.168 68.752 69.592 69.352 73.36H66.112C65.512 71.32 63.76 70.12 61.432 70.12C58.192 70.12 56.152 72.472 56.152 76.216C56.152 79.936 58.216 82.336 61.432 82.336C63.808 82.336 65.632 81.088 66.208 79.144H69.4C68.728 82.84 65.512 85.288 61.36 85.288ZM79.7629 73.144H82.6909V85H79.9789L79.7629 83.416C79.0429 84.544 77.5069 85.312 75.9229 85.312C73.1869 85.312 71.5789 83.464 71.5789 80.56V73.144H74.5069V79.528C74.5069 81.784 75.3949 82.696 77.0269 82.696C78.8749 82.696 79.7629 81.616 79.7629 79.36V73.144ZM84.5688 81.4H87.3528C87.3768 82.432 88.1448 83.08 89.4888 83.08C90.8568 83.08 91.6008 82.528 91.6008 81.664C91.6008 81.064 91.2888 80.632 90.2328 80.392L88.0968 79.888C85.9608 79.408 84.9288 78.4 84.9288 76.504C84.9288 74.176 86.8968 72.784 89.6328 72.784C92.2968 72.784 94.0968 74.32 94.1208 76.624H91.3368C91.3128 75.616 90.6408 74.968 89.5128 74.968C88.3608 74.968 87.6888 75.496 87.6888 76.384C87.6888 77.056 88.2168 77.488 89.2248 77.728L91.3608 78.232C93.3528 78.688 94.3608 79.6 94.3608 81.424C94.3608 83.824 92.3208 85.312 89.3928 85.312C86.4408 85.312 84.5688 83.728 84.5688 81.4ZM100.622 85H97.6941V75.592H95.4141V73.144H97.6941V69.448H100.622V73.144H102.926V75.592H100.622V85ZM103.933 79.048C103.933 75.352 106.597 72.808 110.269 72.808C113.941 72.808 116.605 75.352 116.605 79.048C116.605 82.744 113.941 85.288 110.269 85.288C106.597 85.288 103.933 82.744 103.933 79.048ZM106.861 79.048C106.861 81.208 108.253 82.672 110.269 82.672C112.285 82.672 113.677 81.208 113.677 79.048C113.677 76.888 112.285 75.424 110.269 75.424C108.253 75.424 106.861 76.888 106.861 79.048ZM121.854 85H118.926V73.144H121.614L121.854 74.536C122.454 73.552 123.654 72.784 125.358 72.784C127.158 72.784 128.406 73.672 129.03 75.04C129.63 73.672 131.022 72.784 132.822 72.784C135.702 72.784 137.286 74.512 137.286 77.248V85H134.382V78.016C134.382 76.312 133.47 75.424 132.078 75.424C130.662 75.424 129.582 76.336 129.582 78.28V85H126.654V77.992C126.654 76.336 125.766 75.448 124.374 75.448C122.982 75.448 121.854 76.36 121.854 78.28V85ZM141.624 70.768C140.616 70.768 139.824 69.976 139.824 68.992C139.824 68.008 140.616 67.24 141.624 67.24C142.584 67.24 143.376 68.008 143.376 68.992C143.376 69.976 142.584 70.768 141.624 70.768ZM140.16 85V73.144H143.088V85H140.16ZM155.066 85H145.49V82.6L151.394 75.592H145.49V73.144H155.066V75.568L149.066 82.552H155.066V85ZM162.621 85.312C159.093 85.312 156.621 82.744 156.621 79.072C156.621 75.352 159.045 72.784 162.525 72.784C166.077 72.784 168.333 75.16 168.333 78.856V79.744L159.405 79.768C159.621 81.856 160.725 82.912 162.669 82.912C164.277 82.912 165.333 82.288 165.669 81.16H168.381C167.877 83.752 165.717 85.312 162.621 85.312ZM162.549 75.184C160.821 75.184 159.765 76.12 159.477 77.896H165.429C165.429 76.264 164.301 75.184 162.549 75.184ZM176.113 90.496V88.048H177.865C179.017 88.048 179.737 87.784 180.241 86.392L180.577 85.504L175.801 73.144H178.897L181.945 81.784L185.161 73.144H188.185L182.377 87.64C181.489 89.848 180.241 90.76 178.297 90.76C177.481 90.76 176.761 90.664 176.113 90.496ZM188.613 79.048C188.613 75.352 191.277 72.808 194.949 72.808C198.621 72.808 201.285 75.352 201.285 79.048C201.285 82.744 198.621 85.288 194.949 85.288C191.277 85.288 188.613 82.744 188.613 79.048ZM191.541 79.048C191.541 81.208 192.933 82.672 194.949 82.672C196.965 82.672 198.357 81.208 198.357 79.048C198.357 76.888 196.965 75.424 194.949 75.424C192.933 75.424 191.541 76.888 191.541 79.048ZM211.365 73.144H214.293V85H211.581L211.365 83.416C210.645 84.544 209.109 85.312 207.525 85.312C204.789 85.312 203.181 83.464 203.181 80.56V73.144H206.109V79.528C206.109 81.784 206.997 82.696 208.629 82.696C210.477 82.696 211.365 81.616 211.365 79.36V73.144ZM224.757 73.096V75.808H223.677C221.565 75.808 220.245 76.936 220.245 79.24V85H217.317V73.168H220.077L220.245 74.896C220.749 73.72 221.877 72.928 223.461 72.928C223.869 72.928 224.277 72.976 224.757 73.096ZM232.511 79.048C232.511 75.376 234.935 72.784 238.439 72.784C241.679 72.784 243.887 74.584 244.199 77.44H241.271C240.935 76.096 239.951 75.4 238.559 75.4C236.687 75.4 235.439 76.816 235.439 79.048C235.439 81.28 236.591 82.672 238.463 82.672C239.927 82.672 240.959 81.952 241.271 80.656H244.223C243.863 83.416 241.559 85.312 238.463 85.312C234.863 85.312 232.511 82.816 232.511 79.048ZM249.331 85H246.403V67.144H249.355V74.68C250.099 73.528 251.491 72.784 253.195 72.784C256.123 72.784 257.659 74.632 257.659 77.704V85H254.731V78.4C254.731 76.408 253.747 75.448 252.259 75.448C250.411 75.448 249.331 76.744 249.331 78.52V85ZM264.063 85.312C261.543 85.312 260.007 83.848 260.007 81.616C260.007 79.432 261.591 78.064 264.399 77.848L267.951 77.584V77.32C267.951 75.712 266.991 75.064 265.503 75.064C263.775 75.064 262.815 75.784 262.815 77.032H260.319C260.319 74.464 262.431 72.784 265.647 72.784C268.839 72.784 270.807 74.512 270.807 77.8V85H268.239L268.023 83.248C267.519 84.472 265.911 85.312 264.063 85.312ZM265.023 83.104C266.823 83.104 267.975 82.024 267.975 80.2V79.576L265.503 79.768C263.679 79.936 262.983 80.536 262.983 81.496C262.983 82.576 263.703 83.104 265.023 83.104ZM281.124 73.096V75.808H280.044C277.932 75.808 276.612 76.936 276.612 79.24V85H273.684V73.168H276.444L276.612 74.896C277.116 73.72 278.244 72.928 279.828 72.928C280.236 72.928 280.644 72.976 281.124 73.096ZM286.165 85.312C283.645 85.312 282.109 83.848 282.109 81.616C282.109 79.432 283.693 78.064 286.501 77.848L290.053 77.584V77.32C290.053 75.712 289.093 75.064 287.605 75.064C285.877 75.064 284.917 75.784 284.917 77.032H282.421C282.421 74.464 284.533 72.784 287.749 72.784C290.941 72.784 292.909 74.512 292.909 77.8V85H290.341L290.125 83.248C289.621 84.472 288.013 85.312 286.165 85.312ZM287.125 83.104C288.925 83.104 290.077 82.024 290.077 80.2V79.576L287.605 79.768C285.781 79.936 285.085 80.536 285.085 81.496C285.085 82.576 285.805 83.104 287.125 83.104ZM295.089 79.048C295.089 75.376 297.513 72.784 301.017 72.784C304.257 72.784 306.465 74.584 306.777 77.44H303.849C303.513 76.096 302.529 75.4 301.137 75.4C299.265 75.4 298.017 76.816 298.017 79.048C298.017 81.28 299.169 82.672 301.041 82.672C302.505 82.672 303.537 81.952 303.849 80.656H306.801C306.441 83.416 304.137 85.312 301.041 85.312C297.441 85.312 295.089 82.816 295.089 79.048ZM313.013 85H310.085V75.592H307.805V73.144H310.085V69.448H313.013V73.144H315.317V75.592H313.013V85ZM322.324 85.312C318.796 85.312 316.324 82.744 316.324 79.072C316.324 75.352 318.748 72.784 322.228 72.784C325.78 72.784 328.036 75.16 328.036 78.856V79.744L319.108 79.768C319.324 81.856 320.428 82.912 322.372 82.912C323.98 82.912 325.036 82.288 325.372 81.16H328.084C327.58 83.752 325.42 85.312 322.324 85.312ZM322.252 75.184C320.524 75.184 319.468 76.12 319.18 77.896H325.132C325.132 76.264 324.004 75.184 322.252 75.184ZM337.819 73.096V75.808H336.739C334.627 75.808 333.307 76.936 333.307 79.24V85H330.379V73.168H333.139L333.307 74.896C333.811 73.72 334.939 72.928 336.523 72.928C336.931 72.928 337.339 72.976 337.819 73.096Z" fill="#F9F6F3"/>
<rect x="105" y="739" width="180" height="55" rx="27.5" fill="#FC976B"/>
<path d="M164.375 768.822H167.061C166.989 769.773 166.725 770.616 166.27 771.352C165.814 772.081 165.179 772.654 164.365 773.07C163.551 773.487 162.565 773.695 161.406 773.695C160.514 773.695 159.71 773.539 158.994 773.227C158.285 772.908 157.676 772.455 157.168 771.869C156.667 771.277 156.283 770.567 156.016 769.74C155.749 768.907 155.615 767.973 155.615 766.938V765.854C155.615 764.818 155.752 763.884 156.025 763.051C156.299 762.217 156.689 761.508 157.197 760.922C157.712 760.329 158.327 759.874 159.043 759.555C159.766 759.236 160.573 759.076 161.465 759.076C162.624 759.076 163.604 759.291 164.404 759.721C165.205 760.144 165.827 760.727 166.27 761.469C166.712 762.211 166.979 763.064 167.07 764.027H164.385C164.333 763.428 164.202 762.921 163.994 762.504C163.792 762.087 163.486 761.771 163.076 761.557C162.673 761.335 162.135 761.225 161.465 761.225C160.944 761.225 160.485 761.322 160.088 761.518C159.697 761.713 159.372 762.006 159.111 762.396C158.851 762.781 158.656 763.262 158.525 763.842C158.395 764.415 158.33 765.079 158.33 765.834V766.938C158.33 767.66 158.389 768.308 158.506 768.881C158.623 769.454 158.805 769.939 159.053 770.336C159.3 770.733 159.619 771.036 160.01 771.244C160.4 771.452 160.866 771.557 161.406 771.557C162.064 771.557 162.598 771.452 163.008 771.244C163.424 771.036 163.74 770.73 163.955 770.326C164.176 769.923 164.316 769.421 164.375 768.822ZM168.486 768.324V768.119C168.486 767.344 168.597 766.632 168.818 765.98C169.04 765.323 169.362 764.753 169.785 764.271C170.208 763.79 170.726 763.415 171.338 763.148C171.95 762.875 172.646 762.738 173.428 762.738C174.222 762.738 174.925 762.875 175.537 763.148C176.156 763.415 176.676 763.79 177.1 764.271C177.523 764.753 177.845 765.323 178.066 765.98C178.288 766.632 178.398 767.344 178.398 768.119V768.324C178.398 769.092 178.288 769.805 178.066 770.463C177.845 771.114 177.523 771.684 177.1 772.172C176.676 772.654 176.159 773.028 175.547 773.295C174.935 773.562 174.235 773.695 173.447 773.695C172.666 773.695 171.966 773.562 171.348 773.295C170.729 773.028 170.208 772.654 169.785 772.172C169.362 771.684 169.04 771.114 168.818 770.463C168.597 769.805 168.486 769.092 168.486 768.324ZM171.064 768.119V768.324C171.064 768.786 171.11 769.219 171.201 769.623C171.292 770.027 171.432 770.382 171.621 770.688C171.81 770.993 172.054 771.234 172.354 771.41C172.66 771.579 173.024 771.664 173.447 771.664C173.864 771.664 174.222 771.579 174.521 771.41C174.821 771.234 175.065 770.993 175.254 770.688C175.449 770.382 175.592 770.027 175.684 769.623C175.775 769.219 175.82 768.786 175.82 768.324V768.119C175.82 767.663 175.775 767.237 175.684 766.84C175.592 766.436 175.449 766.081 175.254 765.775C175.065 765.463 174.818 765.219 174.512 765.043C174.212 764.861 173.851 764.77 173.428 764.77C173.011 764.77 172.653 764.861 172.354 765.043C172.054 765.219 171.81 765.463 171.621 765.775C171.432 766.081 171.292 766.436 171.201 766.84C171.11 767.237 171.064 767.663 171.064 768.119ZM182.803 765.189V773.5H180.225V762.934H182.646L182.803 765.189ZM182.393 767.836H181.631C181.637 767.068 181.742 766.371 181.943 765.746C182.145 765.121 182.428 764.584 182.793 764.135C183.164 763.686 183.604 763.34 184.111 763.1C184.619 762.859 185.186 762.738 185.811 762.738C186.318 762.738 186.777 762.81 187.188 762.953C187.598 763.096 187.949 763.324 188.242 763.637C188.542 763.949 188.77 764.359 188.926 764.867C189.089 765.368 189.17 765.987 189.17 766.723V773.5H186.572V766.703C186.572 766.221 186.501 765.84 186.357 765.561C186.221 765.281 186.019 765.082 185.752 764.965C185.492 764.848 185.169 764.789 184.785 764.789C184.388 764.789 184.04 764.87 183.74 765.033C183.447 765.189 183.2 765.408 182.998 765.688C182.803 765.967 182.653 766.29 182.549 766.654C182.445 767.019 182.393 767.413 182.393 767.836ZM196.445 762.934V764.789H190.391V762.934H196.445ZM192.012 760.336H194.6V770.453C194.6 770.766 194.642 771.007 194.727 771.176C194.811 771.345 194.938 771.459 195.107 771.518C195.277 771.576 195.479 771.605 195.713 771.605C195.882 771.605 196.038 771.596 196.182 771.576C196.325 771.557 196.445 771.537 196.543 771.518L196.553 773.451C196.338 773.523 196.094 773.581 195.82 773.627C195.553 773.673 195.251 773.695 194.912 773.695C194.333 773.695 193.825 773.598 193.389 773.402C192.952 773.201 192.614 772.878 192.373 772.436C192.132 771.986 192.012 771.394 192.012 770.658V760.336ZM200.898 762.934V773.5H198.311V762.934H200.898ZM198.135 760.17C198.135 759.786 198.265 759.467 198.525 759.213C198.792 758.959 199.15 758.832 199.6 758.832C200.049 758.832 200.404 758.959 200.664 759.213C200.931 759.467 201.064 759.786 201.064 760.17C201.064 760.548 200.931 760.863 200.664 761.117C200.404 761.371 200.049 761.498 199.6 761.498C199.15 761.498 198.792 761.371 198.525 761.117C198.265 760.863 198.135 760.548 198.135 760.17ZM205.889 765.189V773.5H203.311V762.934H205.732L205.889 765.189ZM205.479 767.836H204.717C204.723 767.068 204.827 766.371 205.029 765.746C205.231 765.121 205.514 764.584 205.879 764.135C206.25 763.686 206.689 763.34 207.197 763.1C207.705 762.859 208.271 762.738 208.896 762.738C209.404 762.738 209.863 762.81 210.273 762.953C210.684 763.096 211.035 763.324 211.328 763.637C211.628 763.949 211.855 764.359 212.012 764.867C212.174 765.368 212.256 765.987 212.256 766.723V773.5H209.658V766.703C209.658 766.221 209.587 765.84 209.443 765.561C209.307 765.281 209.105 765.082 208.838 764.965C208.577 764.848 208.255 764.789 207.871 764.789C207.474 764.789 207.126 764.87 206.826 765.033C206.533 765.189 206.286 765.408 206.084 765.688C205.889 765.967 205.739 766.29 205.635 766.654C205.531 767.019 205.479 767.413 205.479 767.836ZM220.82 770.99V762.934H223.418V773.5H220.977L220.82 770.99ZM221.152 768.803L221.953 768.783C221.953 769.493 221.875 770.147 221.719 770.746C221.562 771.345 221.318 771.866 220.986 772.309C220.661 772.745 220.247 773.087 219.746 773.334C219.245 773.575 218.652 773.695 217.969 773.695C217.448 773.695 216.973 773.624 216.543 773.48C216.113 773.331 215.742 773.1 215.43 772.787C215.124 772.468 214.886 772.061 214.717 771.566C214.548 771.065 214.463 770.463 214.463 769.76V762.934H217.041V769.779C217.041 770.131 217.08 770.424 217.158 770.658C217.243 770.893 217.357 771.085 217.5 771.234C217.65 771.378 217.822 771.482 218.018 771.547C218.219 771.605 218.434 771.635 218.662 771.635C219.287 771.635 219.779 771.511 220.137 771.264C220.501 771.01 220.762 770.671 220.918 770.248C221.074 769.818 221.152 769.337 221.152 768.803ZM230.449 773.695C229.648 773.695 228.929 773.565 228.291 773.305C227.653 773.044 227.109 772.683 226.66 772.221C226.217 771.752 225.876 771.208 225.635 770.59C225.4 769.965 225.283 769.294 225.283 768.578V768.188C225.283 767.374 225.4 766.635 225.635 765.971C225.869 765.3 226.201 764.724 226.631 764.242C227.061 763.76 227.575 763.389 228.174 763.129C228.773 762.868 229.434 762.738 230.156 762.738C230.905 762.738 231.566 762.865 232.139 763.119C232.712 763.367 233.19 763.718 233.574 764.174C233.958 764.63 234.248 765.176 234.443 765.814C234.639 766.446 234.736 767.146 234.736 767.914V768.998H226.455V767.221H232.197V767.025C232.184 766.615 232.106 766.241 231.963 765.902C231.82 765.557 231.598 765.284 231.299 765.082C230.999 764.874 230.612 764.77 230.137 764.77C229.753 764.77 229.417 764.854 229.131 765.023C228.851 765.186 228.617 765.421 228.428 765.727C228.245 766.026 228.109 766.384 228.018 766.801C227.926 767.217 227.881 767.68 227.881 768.188V768.578C227.881 769.021 227.939 769.431 228.057 769.809C228.18 770.186 228.359 770.515 228.594 770.795C228.835 771.068 229.121 771.283 229.453 771.439C229.792 771.589 230.176 771.664 230.605 771.664C231.146 771.664 231.634 771.56 232.07 771.352C232.513 771.137 232.897 770.821 233.223 770.404L234.521 771.752C234.3 772.077 234.001 772.39 233.623 772.689C233.252 772.989 232.803 773.233 232.275 773.422C231.748 773.604 231.139 773.695 230.449 773.695Z" fill="#F9F6F3"/>
<path d="M46.84 475.44C46.84 472.96 48.84 471.28 51.82 471.28C54.58 471.28 56.36 472.82 56.52 475.32H54.54C54.44 473.88 53.42 473.04 51.8 473.04C49.98 473.04 48.8 473.96 48.8 475.38C48.8 476.54 49.46 477.24 50.82 477.56L53.2 478.12C55.56 478.66 56.76 479.94 56.76 481.98C56.76 484.58 54.74 486.24 51.66 486.24C48.72 486.24 46.76 484.7 46.64 482.22H48.64C48.68 483.6 49.84 484.48 51.66 484.48C53.58 484.48 54.8 483.58 54.8 482.14C54.8 481 54.18 480.28 52.8 479.96L50.42 479.42C48.06 478.88 46.84 477.52 46.84 475.44ZM63.123 486.24C60.243 486.24 58.263 484.16 58.263 481.12C58.263 478.06 60.203 475.94 63.043 475.94C65.823 475.94 67.643 477.86 67.643 480.76V481.46L60.083 481.48C60.223 483.54 61.303 484.68 63.163 484.68C64.623 484.68 65.583 484.08 65.903 482.96H67.663C67.183 485.06 65.543 486.24 63.123 486.24ZM63.043 477.52C61.403 477.52 60.363 478.5 60.123 480.22H65.763C65.763 478.6 64.703 477.52 63.043 477.52ZM71.6628 486H69.7828V471.28H71.6628V486ZM78.6503 486.24C75.7703 486.24 73.7903 484.16 73.7903 481.12C73.7903 478.06 75.7303 475.94 78.5703 475.94C81.3503 475.94 83.1703 477.86 83.1703 480.76V481.46L75.6103 481.48C75.7503 483.54 76.8303 484.68 78.6903 484.68C80.1503 484.68 81.1103 484.08 81.4303 482.96H83.1903C82.7103 485.06 81.0703 486.24 78.6503 486.24ZM78.5703 477.52C76.9303 477.52 75.8903 478.5 75.6503 480.22H81.2903C81.2903 478.6 80.2303 477.52 78.5703 477.52ZM84.6302 481.12C84.6302 478.06 86.5702 475.94 89.4302 475.94C91.8902 475.94 93.6102 477.34 93.9502 479.52H92.0702C91.7502 478.28 90.7502 477.62 89.4902 477.62C87.7102 477.62 86.4902 478.98 86.4902 481.1C86.4902 483.2 87.6302 484.56 89.4102 484.56C90.7502 484.56 91.7502 483.86 92.0902 482.7H93.9702C93.5902 484.82 91.7702 486.24 89.4102 486.24C86.5302 486.24 84.6302 484.2 84.6302 481.12ZM98.7138 486H96.8338V477.8H94.9138V476.22H96.8338V473.16H98.7138V476.22H100.634V477.8H98.7138V486ZM107.15 481.12C107.15 478.06 109.09 475.94 111.95 475.94C114.41 475.94 116.13 477.34 116.47 479.52H114.59C114.27 478.28 113.27 477.62 112.01 477.62C110.23 477.62 109.01 478.98 109.01 481.1C109.01 483.2 110.15 484.56 111.93 484.56C113.27 484.56 114.27 483.86 114.61 482.7H116.49C116.11 484.82 114.29 486.24 111.93 486.24C109.05 486.24 107.15 484.2 107.15 481.12ZM117.833 481.1C117.833 478.08 119.993 475.96 122.933 475.96C125.853 475.96 128.013 478.08 128.013 481.1C128.013 484.12 125.853 486.24 122.933 486.24C119.993 486.24 117.833 484.12 117.833 481.1ZM119.733 481.1C119.733 483.14 121.033 484.56 122.933 484.56C124.813 484.56 126.133 483.14 126.133 481.1C126.133 479.06 124.813 477.64 122.933 477.64C121.033 477.64 119.733 479.06 119.733 481.1ZM132.014 486H130.134V471.28H132.014V486ZM134.142 481.1C134.142 478.08 136.302 475.96 139.242 475.96C142.162 475.96 144.322 478.08 144.322 481.1C144.322 484.12 142.162 486.24 139.242 486.24C136.302 486.24 134.142 484.12 134.142 481.1ZM136.042 481.1C136.042 483.14 137.342 484.56 139.242 484.56C141.122 484.56 142.442 483.14 142.442 481.1C142.442 479.06 141.122 477.64 139.242 477.64C137.342 477.64 136.042 479.06 136.042 481.1ZM152.003 476.14V477.86H151.163C149.383 477.86 148.283 478.94 148.283 480.82V486H146.403V476.24H148.163L148.283 477.72C148.683 476.7 149.663 476.02 151.003 476.02C151.343 476.02 151.623 476.06 152.003 476.14Z" fill="#39393B"/>
<circle cx="65.627" cy="523.698" r="21" transform="rotate(45 65.627 523.698)" fill="url(#paint2_linear_531_364)"/>
<circle cx="132.687" cy="523.687" r="21" transform="rotate(30 132.687 523.687)" fill="url(#paint3_linear_531_364)"/>
<circle cx="132.687" cy="523.687" r="21" transform="rotate(30 132.687 523.687)" fill="#F2EBE2" fill-opacity="0.5"/>
<circle cx="197.687" cy="523.687" r="21" transform="rotate(30 197.687 523.687)" fill="url(#paint4_linear_531_364)"/>
<circle cx="197.687" cy="523.687" r="21" transform="rotate(30 197.687 523.687)" fill="#F2EBE2" fill-opacity="0.5"/>
<circle cx="262.687" cy="523.687" r="21" transform="rotate(30 262.687 523.687)" fill="url(#paint5_linear_531_364)"/>
<circle cx="262.687" cy="523.687" r="21" transform="rotate(30 262.687 523.687)" fill="#F2EBE2" fill-opacity="0.5"/>
<circle cx="326" cy="523.698" r="21" transform="rotate(45 326 523.698)" fill="url(#paint6_linear_531_364)"/>
<circle cx="326" cy="523.698" r="21" transform="rotate(45 326 523.698)" fill="#F2EBE2" fill-opacity="0.5"/>
<path d="M46.84 596.44C46.84 593.96 48.84 592.28 51.82 592.28C54.58 592.28 56.36 593.82 56.52 596.32H54.54C54.44 594.88 53.42 594.04 51.8 594.04C49.98 594.04 48.8 594.96 48.8 596.38C48.8 597.54 49.46 598.24 50.82 598.56L53.2 599.12C55.56 599.66 56.76 600.94 56.76 602.98C56.76 605.58 54.74 607.24 51.66 607.24C48.72 607.24 46.76 605.7 46.64 603.22H48.64C48.68 604.6 49.84 605.48 51.66 605.48C53.58 605.48 54.8 604.58 54.8 603.14C54.8 602 54.18 601.28 52.8 600.96L50.42 600.42C48.06 599.88 46.84 598.52 46.84 596.44ZM63.123 607.24C60.243 607.24 58.263 605.16 58.263 602.12C58.263 599.06 60.203 596.94 63.043 596.94C65.823 596.94 67.643 598.86 67.643 601.76V602.46L60.083 602.48C60.223 604.54 61.303 605.68 63.163 605.68C64.623 605.68 65.583 605.08 65.903 603.96H67.663C67.183 606.06 65.543 607.24 63.123 607.24ZM63.043 598.52C61.403 598.52 60.363 599.5 60.123 601.22H65.763C65.763 599.6 64.703 598.52 63.043 598.52ZM71.6628 607H69.7828V592.28H71.6628V607ZM78.6503 607.24C75.7703 607.24 73.7903 605.16 73.7903 602.12C73.7903 599.06 75.7303 596.94 78.5703 596.94C81.3503 596.94 83.1703 598.86 83.1703 601.76V602.46L75.6103 602.48C75.7503 604.54 76.8303 605.68 78.6903 605.68C80.1503 605.68 81.1103 605.08 81.4303 603.96H83.1903C82.7103 606.06 81.0703 607.24 78.6503 607.24ZM78.5703 598.52C76.9303 598.52 75.8903 599.5 75.6503 601.22H81.2903C81.2903 599.6 80.2303 598.52 78.5703 598.52ZM84.6302 602.12C84.6302 599.06 86.5702 596.94 89.4302 596.94C91.8902 596.94 93.6102 598.34 93.9502 600.52H92.0702C91.7502 599.28 90.7502 598.62 89.4902 598.62C87.7102 598.62 86.4902 599.98 86.4902 602.1C86.4902 604.2 87.6302 605.56 89.4102 605.56C90.7502 605.56 91.7502 604.86 92.0902 603.7H93.9702C93.5902 605.82 91.7702 607.24 89.4102 607.24C86.5302 607.24 84.6302 605.2 84.6302 602.12ZM98.7138 607H96.8338V598.8H94.9138V597.22H96.8338V594.16H98.7138V597.22H100.634V598.8H98.7138V607ZM109.67 607H107.79V597.22H109.49L109.69 598.72C110.31 597.6 111.55 596.94 112.93 596.94C115.51 596.94 116.69 598.52 116.69 601.02V607H114.81V601.44C114.81 599.46 113.89 598.66 112.45 598.66C110.69 598.66 109.67 599.92 109.67 601.82V607ZM122.154 607.24C120.054 607.24 118.814 606.06 118.814 604.28C118.814 602.48 120.154 601.36 122.454 601.18L125.534 600.94V600.66C125.534 599.02 124.554 598.44 123.234 598.44C121.654 598.44 120.754 599.14 120.754 600.32H119.114C119.114 598.28 120.794 596.94 123.314 596.94C125.734 596.94 127.374 598.22 127.374 600.86V607H125.774L125.574 605.42C125.074 606.54 123.734 607.24 122.154 607.24ZM122.694 605.78C124.474 605.78 125.554 604.62 125.554 602.78V602.26L123.054 602.46C121.394 602.62 120.714 603.26 120.714 604.22C120.714 605.26 121.474 605.78 122.694 605.78ZM131.857 607H129.977V597.22H131.657L131.837 598.5C132.337 597.58 133.377 596.94 134.757 596.94C136.277 596.94 137.357 597.7 137.857 598.92C138.317 597.7 139.497 596.94 141.017 596.94C143.257 596.94 144.617 598.34 144.617 600.6V607H142.777V601.06C142.777 599.52 141.917 598.64 140.597 598.64C139.177 598.64 138.237 599.64 138.237 601.2V607H136.377V601.04C136.377 599.5 135.537 598.66 134.217 598.66C132.797 598.66 131.857 599.64 131.857 601.2V607ZM151.443 607.24C148.563 607.24 146.583 605.16 146.583 602.12C146.583 599.06 148.523 596.94 151.363 596.94C154.143 596.94 155.963 598.86 155.963 601.76V602.46L148.403 602.48C148.543 604.54 149.623 605.68 151.483 605.68C152.943 605.68 153.903 605.08 154.223 603.96H155.983C155.503 606.06 153.863 607.24 151.443 607.24ZM151.363 598.52C149.723 598.52 148.683 599.5 148.443 601.22H154.083C154.083 599.6 153.023 598.52 151.363 598.52Z" fill="#39393B"/>
<rect x="31" y="626" width="328" height="55" rx="27.5" fill="#ECEBE8"/>
<path d="M61.0703 647.625V659H59.5547L53.8281 650.227V659H52.3203V647.625H53.8281L59.5781 656.422V647.625H61.0703ZM68.6578 657.555V653.203C68.6578 652.87 68.5901 652.581 68.4547 652.336C68.3245 652.086 68.1266 651.893 67.8609 651.758C67.5953 651.622 67.2672 651.555 66.8766 651.555C66.512 651.555 66.1917 651.617 65.9156 651.742C65.6448 651.867 65.4312 652.031 65.275 652.234C65.124 652.438 65.0484 652.656 65.0484 652.891H63.6031C63.6031 652.589 63.6812 652.289 63.8375 651.992C63.9937 651.695 64.2177 651.427 64.5094 651.188C64.8062 650.943 65.1604 650.75 65.5719 650.609C65.9885 650.464 66.4521 650.391 66.9625 650.391C67.5771 650.391 68.1187 650.495 68.5875 650.703C69.0615 650.911 69.4312 651.227 69.6969 651.648C69.9677 652.065 70.1031 652.589 70.1031 653.219V657.156C70.1031 657.438 70.1266 657.737 70.1734 658.055C70.2255 658.372 70.301 658.646 70.4 658.875V659H68.8922C68.8193 658.833 68.762 658.612 68.7203 658.336C68.6786 658.055 68.6578 657.794 68.6578 657.555ZM68.9078 653.875L68.9234 654.891H67.4625C67.051 654.891 66.6839 654.924 66.3609 654.992C66.038 655.055 65.7672 655.151 65.5484 655.281C65.3297 655.411 65.163 655.576 65.0484 655.773C64.9339 655.966 64.8766 656.193 64.8766 656.453C64.8766 656.719 64.9365 656.961 65.0562 657.18C65.176 657.398 65.3557 657.573 65.5953 657.703C65.8401 657.828 66.1396 657.891 66.4937 657.891C66.9365 657.891 67.3271 657.797 67.6656 657.609C68.0042 657.422 68.2724 657.193 68.4703 656.922C68.6734 656.651 68.7828 656.388 68.7984 656.133L69.4156 656.828C69.3792 657.047 69.2802 657.289 69.1187 657.555C68.9573 657.82 68.7411 658.076 68.4703 658.32C68.2047 658.56 67.887 658.76 67.5172 658.922C67.1526 659.078 66.7411 659.156 66.2828 659.156C65.7099 659.156 65.2073 659.044 64.775 658.82C64.3479 658.596 64.0146 658.297 63.775 657.922C63.5406 657.542 63.4234 657.117 63.4234 656.648C63.4234 656.195 63.512 655.797 63.6891 655.453C63.8661 655.104 64.1214 654.815 64.4547 654.586C64.788 654.352 65.1891 654.174 65.6578 654.055C66.1266 653.935 66.65 653.875 67.2281 653.875H68.9078ZM73.9641 652.227V659H72.5109V650.547H73.8859L73.9641 652.227ZM73.6672 654.453L72.9953 654.43C73.0005 653.852 73.076 653.318 73.2219 652.828C73.3677 652.333 73.5839 651.904 73.8703 651.539C74.1568 651.174 74.5135 650.893 74.9406 650.695C75.3677 650.492 75.8625 650.391 76.425 650.391C76.8208 650.391 77.1854 650.448 77.5187 650.562C77.8521 650.672 78.1411 650.846 78.3859 651.086C78.6307 651.326 78.8208 651.633 78.9562 652.008C79.0917 652.383 79.1594 652.836 79.1594 653.367V659H77.7141V653.438C77.7141 652.995 77.6385 652.641 77.4875 652.375C77.3417 652.109 77.1333 651.917 76.8625 651.797C76.5917 651.672 76.274 651.609 75.9094 651.609C75.4823 651.609 75.1255 651.685 74.8391 651.836C74.5526 651.987 74.3234 652.195 74.1516 652.461C73.9797 652.727 73.8547 653.031 73.7766 653.375C73.7036 653.714 73.6672 654.073 73.6672 654.453ZM79.1437 653.656L78.175 653.953C78.1802 653.49 78.2557 653.044 78.4016 652.617C78.5526 652.19 78.7687 651.81 79.05 651.477C79.3365 651.143 79.688 650.88 80.1047 650.688C80.5214 650.49 80.9979 650.391 81.5344 650.391C81.9875 650.391 82.3885 650.451 82.7375 650.57C83.0917 650.69 83.3885 650.875 83.6281 651.125C83.8729 651.37 84.0578 651.685 84.1828 652.07C84.3078 652.456 84.3703 652.914 84.3703 653.445V659H82.9172V653.43C82.9172 652.956 82.8417 652.589 82.6906 652.328C82.5448 652.062 82.3365 651.878 82.0656 651.773C81.8 651.664 81.4823 651.609 81.1125 651.609C80.7948 651.609 80.5135 651.664 80.2687 651.773C80.024 651.883 79.8182 652.034 79.6516 652.227C79.4849 652.414 79.3573 652.63 79.2687 652.875C79.1854 653.12 79.1437 653.38 79.1437 653.656ZM90.2156 659.156C89.6271 659.156 89.0932 659.057 88.6141 658.859C88.1401 658.656 87.7313 658.372 87.3875 658.008C87.049 657.643 86.7885 657.211 86.6063 656.711C86.424 656.211 86.3328 655.664 86.3328 655.07V654.742C86.3328 654.055 86.4344 653.443 86.6375 652.906C86.8406 652.365 87.1167 651.906 87.4656 651.531C87.8146 651.156 88.2104 650.872 88.6531 650.68C89.0958 650.487 89.5542 650.391 90.0281 650.391C90.6323 650.391 91.1531 650.495 91.5906 650.703C92.0333 650.911 92.3953 651.203 92.6766 651.578C92.9578 651.948 93.1661 652.385 93.3016 652.891C93.437 653.391 93.5047 653.938 93.5047 654.531V655.18H87.1922V654H92.0594V653.891C92.0385 653.516 91.9604 653.151 91.825 652.797C91.6948 652.443 91.4865 652.151 91.2 651.922C90.9135 651.693 90.5229 651.578 90.0281 651.578C89.7 651.578 89.3979 651.648 89.1219 651.789C88.8458 651.924 88.6089 652.128 88.4109 652.398C88.213 652.669 88.0594 653 87.95 653.391C87.8406 653.781 87.7859 654.232 87.7859 654.742V655.07C87.7859 655.471 87.8406 655.849 87.95 656.203C88.0646 656.552 88.2286 656.859 88.4422 657.125C88.6609 657.391 88.924 657.599 89.2313 657.75C89.5438 657.901 89.8979 657.977 90.2938 657.977C90.8042 657.977 91.2365 657.872 91.5906 657.664C91.9448 657.456 92.2547 657.177 92.5203 656.828L93.3953 657.523C93.213 657.799 92.9813 658.062 92.7 658.312C92.4188 658.562 92.0724 658.766 91.6609 658.922C91.2547 659.078 90.7729 659.156 90.2156 659.156Z" fill="#BAB4B6"/>
<path d="M65.4165 520.144H62.8565V518.304H67.3845V530H65.4165V520.144Z" fill="#F9F6F3"/>
<path d="M136.137 529.984L128.025 530V528.464L131.849 525.232C133.433 523.888 133.961 523.12 133.961 522C133.961 520.672 133.241 519.92 132.009 519.92C130.729 519.92 129.929 520.816 129.913 522.32H127.881C127.897 519.76 129.529 518.096 132.009 518.096C134.505 518.096 136.057 519.52 136.057 521.888C136.057 523.52 135.161 524.752 133.385 526.272L131.273 528.08H136.137V529.984Z" fill="#F9F6F3"/>
<path d="M197.589 524.208H196.165V522.88L199.173 520.112H194.309V518.304H201.733V519.936L198.885 522.56C200.677 522.912 202.069 524.224 202.069 526.288C202.069 528.688 200.197 530.208 197.829 530.208C195.541 530.208 193.765 528.8 193.765 526.272H195.781C195.781 527.616 196.613 528.384 197.861 528.384C199.141 528.384 199.989 527.552 199.989 526.256C199.989 525.072 199.221 524.208 197.589 524.208Z" fill="#F9F6F3"/>
<path d="M267.072 527.776H265.648V530H263.712V527.776H257.776V525.984L263.072 518.304H265.648V525.984H267.072V527.776ZM259.952 525.984H263.712V520.512L259.952 525.984Z" fill="#F9F6F3"/>
<path d="M325.923 530.192C323.475 530.192 321.859 528.624 321.859 526.256H323.891C323.891 527.584 324.675 528.368 325.971 528.368C327.347 528.368 328.227 527.472 328.227 526.048C328.227 524.688 327.411 523.76 326.003 523.76C325.107 523.76 324.291 524.208 323.875 524.816L322.067 524.432L323.507 518.304H329.603V520.192H324.979L324.355 522.624C324.915 522.256 325.619 522.048 326.419 522.048C328.755 522.048 330.307 523.632 330.307 525.936C330.307 528.464 328.531 530.192 325.923 530.192Z" fill="#F9F6F3"/>
</g>
<defs>
<filter id="filter0_i_531_364" x="111.167" y="270.348" width="167.146" height="110.498" filterUnits="userSpaceOnUse" color-interpolation-filters="sRGB">
<feFlood flood-opacity="0" result="BackgroundImageFix"/>
<feBlend mode="normal" in="SourceGraphic" in2="BackgroundImageFix" result="shape"/>
<feColorMatrix in="SourceAlpha" type="matrix" values="0 0 0 0 0 0 0 0 0 0 0 0 0 0 0 0 0 0 127 0" result="hardAlpha"/>
<feOffset dy="1"/>
<feGaussianBlur stdDeviation="5.5"/>
<feComposite in2="hardAlpha" operator="arithmetic" k2="-1" k3="1"/>
<feColorMatrix type="matrix" values="0 0 0 0 0.288889 0 0 0 0 0.541667 0 0 0 0 0.4491 0 0 0 1 0"/>
<feBlend mode="normal" in2="shape" result="effect1_innerShadow_531_364"/>
</filter>
<linearGradient id="paint0_linear_531_364" x1="195" y1="0" x2="195" y2="844" gradientUnits="userSpaceOnUse">
<stop stop-color="#2B7362"/>
<stop offset="1" stop-color="#295444"/>
</linearGradient>
<radialGradient id="paint1_radial_531_364" cx="0" cy="0" r="1" gradientUnits="userSpaceOnUse" gradientTransform="translate(248.188 240.436) rotate(124.798) scale(157.231 166.606)">
<stop stop-color="#A1E6B4"/>
<stop offset="1" stop-color="#2B7362"/>
</radialGradient>
<linearGradient id="paint2_linear_531_364" x1="65.627" y1="502.698" x2="65.627" y2="544.698" gradientUnits="userSpaceOnUse">
<stop stop-color="#A1E5B4"/>
<stop offset="1" stop-color="#2B7362"/>
</linearGradient>
<linearGradient id="paint3_linear_531_364" x1="132.687" y1="502.687" x2="132.687" y2="544.687" gradientUnits="userSpaceOnUse">
<stop stop-color="#FFEFB8"/>
<stop offset="1" stop-color="#FAB651"/>
</linearGradient>
<linearGradient id="paint4_linear_531_364" x1="197.687" y1="502.687" x2="197.687" y2="544.687" gradientUnits="userSpaceOnUse">
<stop stop-color="#F9D48C"/>
<stop offset="1" stop-color="#F27157"/>
</linearGradient>
<linearGradient id="paint5_linear_531_364" x1="262.687" y1="502.687" x2="262.687" y2="544.687" gradientUnits="userSpaceOnUse">
<stop stop-color="#D4DEFF"/>
<stop offset="1" stop-color="#599EDE"/>
</linearGradient>
<linearGradient id="paint6_linear_531_364" x1="326" y1="502.698" x2="326" y2="544.698" gradientUnits="userSpaceOnUse">
<stop stop-color="#FFD4EE"/>
<stop offset="1" stop-color="#E0667C"/>
</linearGradient>
<clipPath id="clip0_531_364">
<rect width="390" height="844" fill="white"/>
</clipPath>
</defs>
</svg>
