<svg width="390" height="844" viewBox="0 0 390 844" fill="none" xmlns="http://www.w3.org/2000/svg">
<rect width="390" height="844" fill="#F9F6F3"/>
<path d="M0 0H390V153C390 169.569 376.569 183 360 183H30C13.4315 183 0 169.569 0 153V0Z" fill="url(#paint0_linear_531_401)"/>
<path d="M146.36 679.288C141.248 679.288 137.936 675.736 137.936 670.24C137.936 664.792 141.368 661.168 146.504 661.168C150.656 661.168 153.752 663.592 154.352 667.36H151.112C150.512 665.32 148.76 664.12 146.432 664.12C143.192 664.12 141.152 666.472 141.152 670.216C141.152 673.936 143.216 676.336 146.432 676.336C148.808 676.336 150.632 675.088 151.208 673.144H154.4C153.728 676.84 150.512 679.288 146.36 679.288ZM173.163 670.216C173.163 675.544 169.659 679.288 164.619 679.288C159.603 679.288 156.147 675.568 156.147 670.216C156.147 664.888 159.627 661.144 164.643 661.144C169.659 661.144 173.163 664.864 173.163 670.216ZM169.923 670.216C169.923 666.472 167.859 664.096 164.643 664.096C161.427 664.096 159.363 666.472 159.363 670.216C159.363 673.96 161.427 676.336 164.643 676.336C167.859 676.336 169.923 673.912 169.923 670.216ZM182.118 681.4H174.774V679.888L178.638 676.672C179.598 675.88 180.03 675.184 180.03 674.272C180.03 673.072 179.454 672.424 178.374 672.424C177.27 672.424 176.622 673.168 176.622 674.488H174.654C174.726 672.112 176.142 670.624 178.374 670.624C180.63 670.624 182.022 671.968 182.022 674.152C182.022 675.544 181.326 676.696 180.006 677.8L177.846 679.6H182.118V681.4ZM193.612 679H190.684V667.144H193.372L193.612 668.536C194.212 667.552 195.412 666.784 197.116 666.784C198.916 666.784 200.164 667.672 200.788 669.04C201.388 667.672 202.78 666.784 204.58 666.784C207.46 666.784 209.044 668.512 209.044 671.248V679H206.14V672.016C206.14 670.312 205.228 669.424 203.836 669.424C202.42 669.424 201.34 670.336 201.34 672.28V679H198.412V671.992C198.412 670.336 197.524 669.448 196.132 669.448C194.74 669.448 193.612 670.36 193.612 672.28V679ZM217.222 679.312C213.694 679.312 211.222 676.744 211.222 673.072C211.222 669.352 213.646 666.784 217.126 666.784C220.678 666.784 222.934 669.16 222.934 672.856V673.744L214.006 673.768C214.222 675.856 215.326 676.912 217.27 676.912C218.878 676.912 219.934 676.288 220.27 675.16H222.982C222.478 677.752 220.318 679.312 217.222 679.312ZM217.15 669.184C215.422 669.184 214.366 670.12 214.078 671.896H220.03C220.03 670.264 218.902 669.184 217.15 669.184ZM229.192 679H226.264V669.592H223.984V667.144H226.264V663.448H229.192V667.144H231.496V669.592H229.192V679ZM238.504 679.312C234.976 679.312 232.504 676.744 232.504 673.072C232.504 669.352 234.928 666.784 238.408 666.784C241.96 666.784 244.216 669.16 244.216 672.856V673.744L235.288 673.768C235.504 675.856 236.608 676.912 238.552 676.912C240.16 676.912 241.216 676.288 241.552 675.16H244.264C243.76 677.752 241.6 679.312 238.504 679.312ZM238.432 669.184C236.704 669.184 235.648 670.12 235.36 671.896H241.312C241.312 670.264 240.184 669.184 238.432 669.184ZM253.999 667.096V669.808H252.919C250.807 669.808 249.487 670.936 249.487 673.24V679H246.559V667.168H249.319L249.487 668.896C249.991 667.72 251.119 666.928 252.703 666.928C253.111 666.928 253.519 666.976 253.999 667.096Z" fill="#39393B"/>
<rect x="22" y="698" width="344" height="42" rx="21" fill="#ECEBE8" stroke="#E4E2DE" stroke-width="2"/>
<rect x="23" y="699" width="190" height="40" rx="20" fill="#2B7362"/>
<path fill-rule="evenodd" clip-rule="evenodd" d="M323.929 20.98H325.313C325.688 20.98 326.005 21.4163 326.005 21.9318V25.7391C326.005 26.2547 325.688 26.6909 325.313 26.6909H323.929C323.554 26.6909 323.236 26.2547 323.236 25.7391V21.9318C323.236 21.4163 323.554 20.98 323.929 20.98ZM328.082 19.0764H329.466C329.841 19.0764 330.159 19.5126 330.159 20.0282V25.7391C330.159 26.2547 329.841 26.6909 329.466 26.6909H328.082C327.707 26.6909 327.39 26.2547 327.39 25.7391V20.0282C327.39 19.5126 327.707 19.0764 328.082 19.0764ZM332.235 16.5382H333.62C333.995 16.5382 334.312 16.9744 334.312 17.49V25.7391C334.312 26.2547 333.995 26.6909 333.62 26.6909H332.235C331.86 26.6909 331.543 26.2547 331.543 25.7391V17.5297C331.543 17.0141 331.86 16.5778 332.235 16.5778V16.5382ZM336.389 14H337.773C338.148 14 338.465 14.4363 338.465 14.9518V25.6994C338.465 26.215 338.148 26.6513 337.773 26.6513H336.389C336.014 26.6513 335.696 26.215 335.696 25.6994V14.9915C335.696 14.4759 336.014 14.0397 336.389 14.0397V14Z" fill="#F9F6F3"/>
<path d="M349.959 23.3477C349.959 23.3477 349.735 23.5716 349.735 23.7208C349.735 23.87 349.773 24.0192 349.885 24.1311L351.824 26.0709C351.824 26.0709 352.048 26.2201 352.197 26.2201C352.347 26.2201 352.459 26.1828 352.57 26.0709L354.51 24.1311C354.51 24.1311 354.659 23.87 354.659 23.7208C354.659 23.5716 354.548 23.4223 354.436 23.3477C353.13 22.4524 351.302 22.4524 349.959 23.3477Z" fill="#F9F6F3"/>
<path d="M352.161 18.4985C350.258 18.4985 348.393 19.17 346.938 20.401C346.827 20.5129 346.752 20.6248 346.752 20.774C346.752 20.9233 346.789 21.0725 346.901 21.1844L347.946 22.2289C348.132 22.4154 348.431 22.4154 348.654 22.2289C349.662 21.4082 350.855 20.9979 352.161 20.9979C353.467 20.9979 354.698 21.4455 355.667 22.2662C355.779 22.3408 355.891 22.3781 356.003 22.3781C356.152 22.3781 356.264 22.3408 356.376 22.2289L357.421 21.1844C357.421 21.1844 357.57 20.9233 357.57 20.774C357.57 20.6248 357.495 20.4756 357.383 20.401C355.929 19.17 354.063 18.4985 352.124 18.4985H352.161Z" fill="#F9F6F3"/>
<path d="M360.294 17.5659C358.056 15.5515 355.184 14.4697 352.199 14.4697C349.215 14.4697 346.305 15.5888 344.104 17.5659C343.993 17.6778 343.918 17.7897 343.918 17.939C343.918 18.0882 343.955 18.2374 344.067 18.312L345.112 19.3565C345.112 19.3565 345.335 19.5057 345.485 19.5057C345.597 19.5057 345.746 19.4684 345.82 19.3565C347.574 17.827 349.812 16.9691 352.162 16.9691C354.512 16.9691 356.75 17.827 358.504 19.3565C358.727 19.543 359.026 19.543 359.212 19.3565L360.257 18.312C360.257 18.312 360.406 18.0509 360.406 17.939C360.406 17.7897 360.332 17.6405 360.22 17.5659H360.294Z" fill="#F9F6F3"/>
<path d="M18.9192 25.5718H17.6128V17.3227C17.3142 17.6213 16.9036 17.9199 16.3811 18.2185C15.8585 18.5172 15.4106 18.7411 15 18.8904V17.6213C15.7092 17.2854 16.3437 16.8748 16.9036 16.3896C17.4635 15.9043 17.8368 15.4191 18.0607 14.9712H18.8819V25.5718H18.9192Z" fill="#F9F6F3"/>
<path d="M22.2432 20.3459C22.2432 19.1141 22.3551 18.1063 22.6164 17.3225C22.8777 16.5759 23.251 15.9787 23.7735 15.5681C24.2961 15.1575 24.9306 14.9336 25.6772 14.9336C26.237 14.9336 26.7596 15.0456 27.1702 15.2695C27.5808 15.4935 27.954 15.8294 28.2153 16.24C28.4766 16.6506 28.7006 17.1732 28.8872 17.8077C29.0365 18.4049 29.1111 19.2634 29.1111 20.3085C29.1111 21.5403 28.9992 22.5481 28.7379 23.2946C28.4766 24.0411 28.1033 24.6383 27.5808 25.0489C27.0582 25.4595 26.4237 25.6835 25.6772 25.6835C24.6693 25.6835 23.8482 25.3102 23.2883 24.601C22.5791 23.7052 22.2432 22.2868 22.2432 20.3085V20.3459ZM23.5869 20.3459C23.5869 22.0628 23.7735 23.22 24.1841 23.8172C24.5947 24.3771 25.0799 24.6757 25.6772 24.6757C26.2744 24.6757 26.7596 24.3771 27.1702 23.8172C27.5808 23.2573 27.7674 22.1002 27.7674 20.3459C27.7674 18.5915 27.5808 17.4344 27.1702 16.8745C26.7596 16.3147 26.2744 16.016 25.6398 16.016C25.0053 16.016 24.5574 16.2773 24.2214 16.7626C23.7735 17.3971 23.5496 18.5915 23.5496 20.3459H23.5869Z" fill="#F9F6F3"/>
<path d="M31.1631 19.413V17.9199H32.6561V19.413H31.1631ZM31.1631 25.5717V24.0787H32.6561V25.5717H31.1631Z" fill="#F9F6F3"/>
<path d="M34.5586 22.7723L35.865 22.5857C36.0143 23.3322 36.2756 23.8548 36.6115 24.1907C36.9475 24.5266 37.3954 24.6759 37.9179 24.6759C38.5151 24.6759 39.0377 24.452 39.4483 24.0414C39.8589 23.6308 40.0828 23.1082 40.0828 22.4737C40.0828 21.8392 39.8962 21.3913 39.4856 21.018C39.1124 20.6447 38.5898 20.4208 37.9926 20.4208C37.7313 20.4208 37.4327 20.4581 37.0594 20.5701L37.2087 19.4503C37.2087 19.4503 37.358 19.4503 37.4327 19.4503C37.9926 19.4503 38.4778 19.301 38.9257 19.0024C39.3736 18.7038 39.5976 18.2559 39.5976 17.6587C39.5976 17.1734 39.4483 16.8002 39.1124 16.4642C38.7764 16.1656 38.3658 16.0163 37.8806 16.0163C37.3954 16.0163 36.9475 16.1656 36.6115 16.5016C36.2756 16.8002 36.0516 17.2854 35.977 17.9199L34.6706 17.696C34.8199 16.8375 35.1931 16.1656 35.753 15.6804C36.3129 15.1951 37.0221 14.9712 37.8433 14.9712C38.4032 14.9712 38.9631 15.0832 39.4483 15.3445C39.9335 15.6057 40.3068 15.9417 40.5681 16.3523C40.8294 16.7628 40.9413 17.2481 40.9413 17.696C40.9413 18.1439 40.8294 18.5545 40.5681 18.9277C40.3068 19.301 39.9709 19.5996 39.4856 19.8236C40.1202 19.9729 40.6054 20.2715 40.9413 20.7194C41.2773 21.1673 41.4639 21.7272 41.4639 22.4364C41.4639 23.3695 41.128 24.1534 40.4561 24.7879C39.7842 25.4225 38.9257 25.7584 37.9179 25.7584C36.9848 25.7584 36.2383 25.4971 35.6037 24.9372C35.0065 24.3773 34.6332 23.6681 34.5586 22.7723Z" fill="#F9F6F3"/>
<path d="M42.7725 20.3459C42.7725 19.1141 42.8844 18.1063 43.1457 17.3225C43.407 16.5759 43.7803 15.9787 44.3028 15.5681C44.8254 15.1575 45.4599 14.9336 46.2064 14.9336C46.7663 14.9336 47.2889 15.0456 47.6995 15.2695C48.1101 15.4935 48.4833 15.8294 48.7446 16.24C49.0059 16.6879 49.2298 17.1732 49.4165 17.8077C49.5658 18.4049 49.6404 19.2634 49.6404 20.3085C49.6404 21.5403 49.5285 22.5481 49.2672 23.2946C49.0059 24.0411 48.6326 24.6383 48.1101 25.0489C47.5875 25.4595 46.953 25.6835 46.2064 25.6835C45.1986 25.6835 44.3775 25.3102 43.8176 24.601C43.1084 23.7052 42.7725 22.2868 42.7725 20.3085V20.3459ZM44.1162 20.3459C44.1162 22.0628 44.3028 23.22 44.7134 23.8172C45.124 24.3771 45.6092 24.6757 46.2064 24.6757C46.8037 24.6757 47.2889 24.3771 47.6995 23.8172C48.1101 23.2573 48.2967 22.1002 48.2967 20.3459C48.2967 18.5915 48.1101 17.4344 47.6995 16.8745C47.2889 16.3147 46.8037 16.016 46.1691 16.016C45.5346 16.016 45.0867 16.2773 44.7507 16.7626C44.3028 17.3971 44.0789 18.5915 44.0789 20.3459H44.1162Z" fill="#F9F6F3"/>
<path d="M366.386 21.6143H374V24.6906C374 25.7952 373.105 26.6906 372 26.6906H368.386C367.281 26.6906 366.386 25.7952 366.386 24.6906V21.6143Z" fill="#F9F6F3"/>
<path d="M368 16C368 15.4477 368.448 15 369 15H371C371.552 15 372 15.4477 372 16V17H368V16Z" fill="#F9F6F3"/>
<rect x="366.886" y="17.0381" width="6.61455" height="9.15273" rx="0.5" stroke="#F9F6F3"/>
<path d="M90 62H89V63V87V88H90H316C323.18 88 329 82.1797 329 75C329 67.8203 323.18 62 316 62H90Z" fill="#233E34" stroke="#295444" stroke-width="2"/>
<path d="M90 63H269C275.627 63 281 68.3726 281 75V75C281 81.6274 275.627 87 269 87H90V63Z" fill="#FC976B"/>
<path d="M171.111 77.588C171.111 76.544 171.723 75.704 172.683 75.356C171.867 75.008 171.423 74.324 171.423 73.448C171.423 72.092 172.587 71.168 174.315 71.168C176.019 71.168 177.171 72.092 177.171 73.46C177.171 74.348 176.715 75.032 175.899 75.356C176.871 75.668 177.495 76.532 177.495 77.6C177.495 79.124 176.223 80.144 174.303 80.144C172.371 80.144 171.111 79.124 171.111 77.588ZM172.503 73.52C172.503 74.372 173.211 74.924 174.291 74.924C175.383 74.924 176.067 74.384 176.067 73.544C176.067 72.716 175.383 72.188 174.291 72.188C173.211 72.188 172.503 72.716 172.503 73.52ZM172.263 77.504C172.263 78.476 173.067 79.1 174.303 79.1C175.527 79.1 176.331 78.476 176.331 77.504C176.331 76.544 175.539 75.932 174.291 75.932C173.055 75.932 172.263 76.544 172.263 77.504ZM178.635 75.668C178.635 72.98 180.027 71.156 182.211 71.156C184.383 71.156 185.775 72.98 185.775 75.668C185.775 78.368 184.443 80.156 182.211 80.156C179.967 80.156 178.635 78.368 178.635 75.668ZM179.799 75.668C179.799 77.804 180.687 79.1 182.211 79.1C183.735 79.1 184.611 77.804 184.611 75.668C184.611 73.508 183.735 72.212 182.211 72.212C180.687 72.212 179.799 73.508 179.799 75.668ZM190.764 80H189.648L193.032 71.336H194.16L190.764 80ZM199.685 72.38H197.861V71.324H200.813V80H199.685V72.38ZM202.401 75.668C202.401 72.98 203.793 71.156 205.977 71.156C208.148 71.156 209.541 72.98 209.541 75.668C209.541 78.368 208.209 80.156 205.977 80.156C203.733 80.156 202.401 78.368 202.401 75.668ZM203.565 75.668C203.565 77.804 204.453 79.1 205.977 79.1C207.501 79.1 208.377 77.804 208.377 75.668C208.377 73.508 207.501 72.212 205.977 72.212C204.453 72.212 203.565 73.508 203.565 75.668ZM210.721 75.668C210.721 72.98 212.113 71.156 214.297 71.156C216.469 71.156 217.861 72.98 217.861 75.668C217.861 78.368 216.529 80.156 214.297 80.156C212.053 80.156 210.721 78.368 210.721 75.668ZM211.885 75.668C211.885 77.804 212.773 79.1 214.297 79.1C215.821 79.1 216.697 77.804 216.697 75.668C216.697 73.508 215.821 72.212 214.297 72.212C212.773 72.212 211.885 73.508 211.885 75.668Z" fill="white"/>
<g filter="url(#filter0_d_531_401)">
<circle cx="87" cy="75" r="25" fill="#F2EBE2"/>
</g>
<path d="M102.298 76.3505C102.004 77.2796 101.613 78.2202 101.125 79.1581C101.05 79.3028 100.973 79.4475 100.893 79.5922C98.5023 83.921 94.0004 88.1597 87.0378 91C73.0102 85.3407 68.9235 73.9911 71.9305 67.5968C72.3049 66.7992 72.7756 66.0783 73.3185 65.4421C73.9083 64.7486 74.584 64.153 75.3154 63.6642C78.444 61.5713 82.6089 61.3939 85.5525 63.643C86.0728 64.0392 86.5549 64.513 86.9866 65.0636C90.9386 59.9769 99.1911 61.5139 102.052 67.5377C103.2 69.9526 103.334 73.0832 102.297 76.3514L102.298 76.3505Z" fill="url(#paint1_radial_531_401)"/>
<path d="M142.853 137.952H138.989V144H135.917V126.456H142.853C146.381 126.456 148.661 128.76 148.661 132.192C148.661 135.576 146.357 137.952 142.853 137.952ZM142.253 129.192H138.989V135.216H142.205C144.317 135.216 145.445 134.088 145.445 132.168C145.445 130.248 144.293 129.192 142.253 129.192ZM155.531 144.312C152.003 144.312 149.531 141.744 149.531 138.072C149.531 134.352 151.955 131.784 155.435 131.784C158.987 131.784 161.243 134.16 161.243 137.856V138.744L152.315 138.768C152.531 140.856 153.635 141.912 155.579 141.912C157.187 141.912 158.243 141.288 158.579 140.16H161.291C160.787 142.752 158.627 144.312 155.531 144.312ZM155.459 134.184C153.731 134.184 152.675 135.12 152.387 136.896H158.339C158.339 135.264 157.211 134.184 155.459 134.184ZM167.501 144H164.573V134.592H162.293V132.144H164.573V128.448H167.501V132.144H169.805V134.592H167.501V144ZM175.345 128.472C175.345 130.488 174.001 132.048 172.081 132.288V131.136C173.113 130.944 173.857 130.296 173.857 129.456C173.665 129.528 173.449 129.576 173.185 129.576C172.321 129.576 171.625 128.976 171.625 127.92C171.625 126.864 172.345 126.12 173.401 126.12C174.529 126.12 175.345 127.032 175.345 128.472ZM176.174 140.4H178.958C178.982 141.432 179.75 142.08 181.094 142.08C182.462 142.08 183.206 141.528 183.206 140.664C183.206 140.064 182.894 139.632 181.838 139.392L179.702 138.888C177.566 138.408 176.534 137.4 176.534 135.504C176.534 133.176 178.502 131.784 181.238 131.784C183.902 131.784 185.702 133.32 185.726 135.624H182.942C182.918 134.616 182.246 133.968 181.118 133.968C179.966 133.968 179.294 134.496 179.294 135.384C179.294 136.056 179.822 136.488 180.83 136.728L182.966 137.232C184.958 137.688 185.966 138.6 185.966 140.424C185.966 142.824 183.926 144.312 180.998 144.312C178.046 144.312 176.174 142.728 176.174 140.4ZM197.592 144H194.664V132.144H197.376L197.616 133.68C198.36 132.48 199.8 131.784 201.408 131.784C204.384 131.784 205.92 133.632 205.92 136.704V144H202.992V137.4C202.992 135.408 202.008 134.448 200.496 134.448C198.696 134.448 197.592 135.696 197.592 137.616V144ZM212.325 144.312C209.805 144.312 208.269 142.848 208.269 140.616C208.269 138.432 209.853 137.064 212.661 136.848L216.213 136.584V136.32C216.213 134.712 215.253 134.064 213.765 134.064C212.037 134.064 211.077 134.784 211.077 136.032H208.581C208.581 133.464 210.693 131.784 213.909 131.784C217.101 131.784 219.069 133.512 219.069 136.8V144H216.501L216.285 142.248C215.781 143.472 214.173 144.312 212.325 144.312ZM213.285 142.104C215.085 142.104 216.237 141.024 216.237 139.2V138.576L213.765 138.768C211.941 138.936 211.245 139.536 211.245 140.496C211.245 141.576 211.965 142.104 213.285 142.104ZM224.874 144H221.946V132.144H224.634L224.874 133.536C225.474 132.552 226.674 131.784 228.378 131.784C230.178 131.784 231.426 132.672 232.05 134.04C232.65 132.672 234.042 131.784 235.842 131.784C238.722 131.784 240.306 133.512 240.306 136.248V144H237.402V137.016C237.402 135.312 236.49 134.424 235.098 134.424C233.682 134.424 232.602 135.336 232.602 137.28V144H229.674V136.992C229.674 135.336 228.786 134.448 227.394 134.448C226.002 134.448 224.874 135.36 224.874 137.28V144ZM248.484 144.312C244.956 144.312 242.484 141.744 242.484 138.072C242.484 134.352 244.908 131.784 248.388 131.784C251.94 131.784 254.196 134.16 254.196 137.856V138.744L245.268 138.768C245.484 140.856 246.588 141.912 248.532 141.912C250.14 141.912 251.196 141.288 251.532 140.16H254.244C253.74 142.752 251.58 144.312 248.484 144.312ZM248.412 134.184C246.684 134.184 245.628 135.12 245.34 136.896H251.292C251.292 135.264 250.164 134.184 248.412 134.184Z" fill="white"/>
<circle cx="350" cy="227" r="20" fill="#ECEBE8"/>
<path d="M344.064 223.242L337.393 229.925C336.947 230.372 336.947 231.097 337.393 231.545C337.762 231.914 338.333 231.991 338.786 231.731L340.077 230.993L339.334 232.261C339.067 232.717 339.141 233.295 339.513 233.668L341.637 235.795C342.026 236.185 342.635 236.247 343.094 235.942L347.266 233.173L344.474 237.31C344.164 237.77 344.223 238.386 344.615 238.779L345.439 239.604C345.885 240.052 346.609 240.052 347.055 239.604L353.726 232.922L344.064 223.242Z" fill="#BAB4B6"/>
<path d="M356.111 228.913L354.731 227.53C353.962 226.759 354.047 225.487 354.911 224.826L360.569 220.497C361.976 219.42 362.114 217.348 360.862 216.094C359.61 214.84 357.541 214.978 356.467 216.388L352.146 222.056C351.486 222.921 350.216 223.006 349.447 222.236L348.067 220.854C347.621 220.406 346.897 220.406 346.45 220.854L344.712 222.595L354.374 232.275L356.112 230.534C356.559 230.086 356.559 229.361 356.112 228.914L356.111 228.913ZM357.526 219.475C356.901 218.849 356.901 217.834 357.526 217.207C358.151 216.581 359.165 216.581 359.79 217.207C360.416 217.833 360.415 218.849 359.79 219.475C359.165 220.102 358.152 220.101 357.526 219.475Z" fill="#BAB4B6"/>
<g filter="url(#filter1_f_531_401)">
<ellipse cx="198" cy="586" rx="116" ry="25" fill="#39393B" fill-opacity="0.4"/>
</g>
<path d="M167.908 585.717C157.525 585.717 151.768 575.843 151.768 560.842V521.155H189.365V555.715C189.365 581.16 178.291 585.717 167.908 585.717Z" fill="#29544A"/>
<path d="M62.3799 471.025C62.3799 471.025 61.7267 562.042 93.8404 558.753C101.257 557.993 106.753 545.84 106.753 526.852" fill="#29544A"/>
<path d="M223.734 585.717C234.117 585.717 239.874 575.843 239.874 560.842V521.155H202.276V555.715C202.276 581.16 213.351 585.717 223.734 585.717Z" fill="#29544A"/>
<path d="M327.982 471.025C327.982 471.025 328.635 562.042 296.522 558.753C289.105 557.993 283.609 545.84 283.609 526.852" fill="#29544A"/>
<path d="M194.616 339.228C194.616 339.228 200.191 294.362 143.715 296.872C143.715 296.872 147.942 358.365 194.616 339.228Z" fill="#295444"/>
<path d="M197.339 341.791C197.339 341.791 260.329 362.69 272.922 280.674C272.922 280.674 183.185 269.106 197.339 341.791Z" fill="#295444"/>
<path d="M327.602 458.872C322.555 391.842 264.48 342.593 204.551 337.739C203.218 337.633 201.912 337.268 200.761 336.592C198.805 335.442 197.123 333.478 197.123 330.129C197.123 323.672 199.045 307.057 202.656 296.389C203.488 293.932 201.646 291.392 199.052 291.392H194.901H190.693C188.099 291.392 186.261 293.932 187.089 296.389C190.701 307.057 192.623 323.672 192.623 330.129C192.623 333.262 191.145 335.183 189.357 336.361C188.111 337.177 186.656 337.614 185.171 337.728C125.038 342.448 65.0221 390.399 62.1396 458.872C59.523 521.034 93.7407 542.423 159.92 542.423H229.818C295.997 542.423 332.269 520.912 327.598 458.872H327.602Z" fill="url(#paint2_radial_531_401)"/>
<path d="M297.6 466.168C297.6 506.492 266.971 519.746 213.669 521.152C211.167 521.216 178.24 521.152 175.692 521.152C118.851 521.152 91.7617 508.384 91.7617 466.168C91.7617 423.952 144.55 386.335 194.681 386.335C248.988 386.335 297.6 423.952 297.6 466.168Z" fill="#D6EBDD"/>
<mask id="mask0_531_401" style="mask-type:luminance" maskUnits="userSpaceOnUse" x="91" y="386" width="207" height="136">
<path d="M297.599 466.168C297.599 506.492 266.97 519.746 213.668 521.152C211.166 521.216 178.239 521.152 175.691 521.152C118.85 521.152 91.7607 508.384 91.7607 466.168C91.7607 423.952 144.549 386.335 194.68 386.335C248.987 386.335 297.599 423.952 297.599 466.168Z" fill="white"/>
</mask>
<g mask="url(#mask0_531_401)">
<path d="M119.106 516.219C133.788 516.219 145.69 504.317 145.69 489.635C145.69 474.952 133.788 463.05 119.106 463.05C104.424 463.05 92.5215 474.952 92.5215 489.635C92.5215 504.317 104.424 516.219 119.106 516.219Z" fill="#A8D9B8"/>
<path d="M270.256 516.219C284.938 516.219 296.84 504.317 296.84 489.635C296.84 474.952 284.938 463.05 270.256 463.05C255.574 463.05 243.672 474.952 243.672 489.635C243.672 504.317 255.574 516.219 270.256 516.219Z" fill="#A8D9B8"/>
<path d="M107.496 493.269C107.397 493.269 107.302 493.231 107.226 493.159C107.078 493.011 107.078 492.772 107.226 492.624L113.736 486.115C113.884 485.966 114.123 485.966 114.271 486.115C114.419 486.263 114.419 486.502 114.271 486.65L107.762 493.159C107.686 493.235 107.591 493.269 107.492 493.269H107.496Z" fill="#D5F1E4"/>
<path d="M114.928 494.192C114.829 494.192 114.734 494.154 114.658 494.082C114.51 493.934 114.51 493.695 114.658 493.547L123.013 485.192C123.161 485.044 123.4 485.044 123.548 485.192C123.697 485.34 123.697 485.579 123.548 485.727L115.193 494.082C115.117 494.158 115.023 494.192 114.924 494.192H114.928Z" fill="#D5F1E4"/>
<path d="M124.206 493.269C124.107 493.269 124.012 493.231 123.936 493.159C123.788 493.011 123.788 492.772 123.936 492.624L130.446 486.115C130.594 485.966 130.833 485.966 130.981 486.115C131.129 486.263 131.129 486.502 130.981 486.65L124.472 493.159C124.396 493.235 124.301 493.269 124.202 493.269H124.206Z" fill="#D5F1E4"/>
<path d="M281.867 493.269C281.768 493.269 281.673 493.231 281.597 493.159L275.088 486.65C274.94 486.501 274.94 486.262 275.088 486.114C275.236 485.966 275.475 485.966 275.623 486.114L282.132 492.623C282.281 492.771 282.281 493.011 282.132 493.159C282.057 493.235 281.962 493.269 281.863 493.269H281.867Z" fill="#D5F1E4"/>
<path d="M274.434 494.192C274.335 494.192 274.24 494.154 274.164 494.082L265.809 485.727C265.661 485.579 265.661 485.339 265.809 485.191C265.957 485.043 266.197 485.043 266.345 485.191L274.7 493.546C274.848 493.694 274.848 493.934 274.7 494.082C274.624 494.158 274.529 494.192 274.43 494.192H274.434Z" fill="#D5F1E4"/>
<path d="M265.157 493.269C265.058 493.269 264.963 493.231 264.887 493.159L258.378 486.65C258.23 486.501 258.23 486.262 258.378 486.114C258.526 485.966 258.765 485.966 258.913 486.114L265.422 492.623C265.571 492.771 265.571 493.011 265.422 493.159C265.347 493.235 265.252 493.269 265.153 493.269H265.157Z" fill="#D5F1E4"/>
</g>
<g filter="url(#filter2_i_531_401)">
<path d="M297.6 466.168C297.6 506.492 266.971 519.746 213.669 521.152C211.167 521.216 178.24 521.152 175.692 521.152C118.851 521.152 91.7617 508.384 91.7617 466.168C91.7617 423.952 144.55 386.335 194.681 386.335C248.988 386.335 297.6 423.952 297.6 466.168Z" fill="#F2F9ED" fill-opacity="0.01"/>
</g>
<path d="M144.687 485.457C155.593 485.457 164.435 476.615 164.435 465.708C164.435 454.802 155.593 445.96 144.687 445.96C133.78 445.96 124.938 454.802 124.938 465.708C124.938 476.615 133.78 485.457 144.687 485.457Z" fill="white"/>
<path d="M144.686 477.982C151.465 477.982 156.961 472.487 156.961 465.708C156.961 458.929 151.465 453.434 144.686 453.434C137.908 453.434 132.412 458.929 132.412 465.708C132.412 472.487 137.908 477.982 144.686 477.982Z" fill="#39393B"/>
<path d="M244.67 485.457C255.577 485.457 264.418 476.615 264.418 465.708C264.418 454.802 255.577 445.96 244.67 445.96C233.763 445.96 224.922 454.802 224.922 465.708C224.922 476.615 233.763 485.457 244.67 485.457Z" fill="white"/>
<path d="M244.67 477.982C251.449 477.982 256.944 472.487 256.944 465.708C256.944 458.929 251.449 453.434 244.67 453.434C237.891 453.434 232.396 458.929 232.396 465.708C232.396 472.487 237.891 477.982 244.67 477.982Z" fill="#39393B"/>
<path d="M194.682 488.114C189.285 488.114 184.314 486.094 180.683 482.425C176.977 478.681 174.934 473.417 174.934 467.607C174.934 462.362 179.183 458.112 184.428 458.112C189.673 458.112 193.922 462.362 193.922 467.607C193.922 468.469 194.093 468.921 194.169 469.054C194.226 469.076 194.386 469.126 194.682 469.126C194.978 469.126 195.138 469.076 195.195 469.054C195.274 468.921 195.441 468.469 195.441 467.607C195.441 462.362 199.691 458.112 204.936 458.112C210.18 458.112 214.43 462.362 214.43 467.607C214.43 473.417 212.387 478.681 208.68 482.425C205.05 486.094 200.078 488.114 194.682 488.114Z" fill="#EE868C"/>
<path d="M194.682 479C188.32 479 184.048 474.42 184.048 467.607C184.048 467.398 184.219 467.227 184.428 467.227C184.637 467.227 184.807 467.398 184.807 467.607C184.807 473.968 188.776 478.241 194.682 478.241C200.587 478.241 204.556 473.968 204.556 467.607C204.556 467.398 204.727 467.227 204.935 467.227C205.144 467.227 205.315 467.398 205.315 467.607C205.315 474.42 201.043 479 194.682 479Z" fill="black"/>
<path d="M124.387 437.306L120.896 440.797C118.968 442.725 118.968 445.851 120.896 447.779C122.824 449.707 125.95 449.707 127.878 447.779L131.369 444.288C133.297 442.36 133.297 439.234 131.369 437.306C129.441 435.378 126.315 435.378 124.387 437.306Z" fill="#39393B"/>
<path d="M264.975 437.304C263.047 435.376 259.921 435.376 257.993 437.304C256.065 439.232 256.065 442.358 257.993 444.286L261.484 447.777C263.412 449.705 266.538 449.705 268.466 447.777C270.394 445.849 270.394 442.723 268.466 440.795L264.975 437.304Z" fill="#39393B"/>
<path d="M40 211H106C114.837 211 122 218.163 122 227V227C122 235.837 114.837 243 106 243H40V211Z" fill="#ECEBE8"/>
<mask id="mask1_531_401" style="mask-type:alpha" maskUnits="userSpaceOnUse" x="40" y="211" width="76" height="32">
<path d="M40 211H100C108.837 211 116 218.163 116 227V227C116 235.837 108.837 243 100 243H40V211Z" fill="#ECEBE8"/>
</mask>
<g mask="url(#mask1_531_401)">
<g filter="url(#filter3_d_531_401)">
<circle cx="44" cy="227" r="25" fill="#ECEBE8"/>
</g>
</g>
<circle cx="44" cy="227" r="25" fill="url(#paint3_radial_531_401)"/>
<path d="M83.8985 226.764H82.8905V225.854L85.7605 223.096H81.2105V221.878H87.4965V222.984L84.7245 225.63C86.4465 225.84 87.7485 227.002 87.7485 228.822C87.7485 230.866 86.2085 232.168 84.1505 232.168C82.1625 232.168 80.7345 230.95 80.7345 228.85H82.0925C82.0925 230.166 82.9045 230.936 84.1785 230.936C85.4945 230.936 86.3485 230.096 86.3485 228.794C86.3485 227.576 85.5085 226.764 83.8985 226.764ZM88.9575 226.946C88.9575 223.81 90.5815 221.682 93.1295 221.682C95.6635 221.682 97.2875 223.81 97.2875 226.946C97.2875 230.096 95.7335 232.182 93.1295 232.182C90.5115 232.182 88.9575 230.096 88.9575 226.946ZM90.3155 226.946C90.3155 229.438 91.3515 230.95 93.1295 230.95C94.9075 230.95 95.9295 229.438 95.9295 226.946C95.9295 224.426 94.9075 222.914 93.1295 222.914C91.3515 222.914 90.3155 224.426 90.3155 226.946ZM98.6645 226.946C98.6645 223.81 100.289 221.682 102.837 221.682C105.371 221.682 106.995 223.81 106.995 226.946C106.995 230.096 105.441 232.182 102.837 232.182C100.219 232.182 98.6645 230.096 98.6645 226.946ZM100.023 226.946C100.023 229.438 101.059 230.95 102.837 230.95C104.615 230.95 105.637 229.438 105.637 226.946C105.637 224.426 104.615 222.914 102.837 222.914C101.059 222.914 100.023 224.426 100.023 226.946Z" fill="#39393B" fill-opacity="0.5"/>
<path d="M43.093 211.953C43.4514 211.181 44.5486 211.181 44.907 211.953L48.582 219.866C48.7277 220.18 49.0252 220.396 49.3686 220.438L58.0303 221.488C58.875 221.59 59.2141 222.633 58.5909 223.213L52.2004 229.153C51.9471 229.389 51.8334 229.739 51.9 230.078L53.5782 238.64C53.7418 239.475 52.8542 240.12 52.1107 239.706L44.4862 235.464C44.1839 235.296 43.8161 235.296 43.5138 235.464L35.8893 239.706C35.1458 240.12 34.2582 239.475 34.4218 238.64L36.1 230.078C36.1666 229.739 36.0529 229.389 35.7996 229.153L29.4091 223.213C28.7859 222.633 29.125 221.59 29.9697 221.488L38.6314 220.438C38.9748 220.396 39.2723 220.18 39.418 219.866L43.093 211.953Z" fill="white"/>
<g filter="url(#filter4_d_531_401)">
<circle cx="195" cy="794" r="28" fill="#ECEBE8"/>
<path fill-rule="evenodd" clip-rule="evenodd" d="M188.833 781.494C189.072 781.186 189.455 781 189.86 781H200.14C200.545 781 200.928 781.179 201.167 781.494L204.639 785.909H209.138C210.158 785.909 211.14 786.296 211.868 786.99C212.588 787.677 213 788.614 213 789.594V804.315C213 805.288 212.595 806.225 211.868 806.919C211.148 807.606 210.166 808 209.138 808H180.862C179.842 808 178.86 807.614 178.132 806.919C177.412 806.232 177 805.295 177 804.315V789.587C177 788.614 177.405 787.677 178.132 786.983C178.852 786.296 179.834 785.902 180.862 785.902H185.361L188.833 781.494ZM201.332 796.243C201.332 799.577 198.498 802.282 195.004 802.282C191.509 802.282 188.675 799.577 188.675 796.243C188.675 792.908 191.509 790.203 195.004 790.203C198.498 790.203 201.332 792.908 201.332 796.243Z" fill="#39393B"/>
</g>
<defs>
<filter id="filter0_d_531_401" x="58" y="46" width="58" height="58" filterUnits="userSpaceOnUse" color-interpolation-filters="sRGB">
<feFlood flood-opacity="0" result="BackgroundImageFix"/>
<feColorMatrix in="SourceAlpha" type="matrix" values="0 0 0 0 0 0 0 0 0 0 0 0 0 0 0 0 0 0 127 0" result="hardAlpha"/>
<feOffset/>
<feGaussianBlur stdDeviation="2"/>
<feComposite in2="hardAlpha" operator="out"/>
<feColorMatrix type="matrix" values="0 0 0 0 0 0 0 0 0 0 0 0 0 0 0 0 0 0 0.25 0"/>
<feBlend mode="normal" in2="BackgroundImageFix" result="effect1_dropShadow_531_401"/>
<feBlend mode="normal" in="SourceGraphic" in2="effect1_dropShadow_531_401" result="shape"/>
</filter>
<filter id="filter1_f_531_401" x="48" y="527" width="300" height="118" filterUnits="userSpaceOnUse" color-interpolation-filters="sRGB">
<feFlood flood-opacity="0" result="BackgroundImageFix"/>
<feBlend mode="normal" in="SourceGraphic" in2="BackgroundImageFix" result="shape"/>
<feGaussianBlur stdDeviation="17" result="effect1_foregroundBlur_531_401"/>
</filter>
<filter id="filter2_i_531_401" x="91.7617" y="386.335" width="205.838" height="135.845" filterUnits="userSpaceOnUse" color-interpolation-filters="sRGB">
<feFlood flood-opacity="0" result="BackgroundImageFix"/>
<feBlend mode="normal" in="SourceGraphic" in2="BackgroundImageFix" result="shape"/>
<feColorMatrix in="SourceAlpha" type="matrix" values="0 0 0 0 0 0 0 0 0 0 0 0 0 0 0 0 0 0 127 0" result="hardAlpha"/>
<feOffset dy="1"/>
<feGaussianBlur stdDeviation="5.5"/>
<feComposite in2="hardAlpha" operator="arithmetic" k2="-1" k3="1"/>
<feColorMatrix type="matrix" values="0 0 0 0 0.288889 0 0 0 0 0.541667 0 0 0 0 0.4491 0 0 0 1 0"/>
<feBlend mode="normal" in2="shape" result="effect1_innerShadow_531_401"/>
</filter>
<filter id="filter3_d_531_401" x="9" y="192" width="70" height="70" filterUnits="userSpaceOnUse" color-interpolation-filters="sRGB">
<feFlood flood-opacity="0" result="BackgroundImageFix"/>
<feColorMatrix in="SourceAlpha" type="matrix" values="0 0 0 0 0 0 0 0 0 0 0 0 0 0 0 0 0 0 127 0" result="hardAlpha"/>
<feOffset/>
<feGaussianBlur stdDeviation="5"/>
<feComposite in2="hardAlpha" operator="out"/>
<feColorMatrix type="matrix" values="0 0 0 0 0.479167 0 0 0 0 0.310979 0 0 0 0 0.155729 0 0 0 0.25 0"/>
<feBlend mode="normal" in2="BackgroundImageFix" result="effect1_dropShadow_531_401"/>
<feBlend mode="normal" in="SourceGraphic" in2="effect1_dropShadow_531_401" result="shape"/>
</filter>
<filter id="filter4_d_531_401" x="160" y="761" width="70" height="70" filterUnits="userSpaceOnUse" color-interpolation-filters="sRGB">
<feFlood flood-opacity="0" result="BackgroundImageFix"/>
<feColorMatrix in="SourceAlpha" type="matrix" values="0 0 0 0 0 0 0 0 0 0 0 0 0 0 0 0 0 0 127 0" result="hardAlpha"/>
<feOffset dy="2"/>
<feGaussianBlur stdDeviation="3.5"/>
<feComposite in2="hardAlpha" operator="out"/>
<feColorMatrix type="matrix" values="0 0 0 0 0 0 0 0 0 0 0 0 0 0 0 0 0 0 0.22 0"/>
<feBlend mode="normal" in2="BackgroundImageFix" result="effect1_dropShadow_531_401"/>
<feBlend mode="normal" in="SourceGraphic" in2="effect1_dropShadow_531_401" result="shape"/>
</filter>
<linearGradient id="paint0_linear_531_401" x1="195" y1="0" x2="195" y2="183" gradientUnits="userSpaceOnUse">
<stop stop-color="#2B7362"/>
<stop offset="1" stop-color="#295444"/>
</linearGradient>
<radialGradient id="paint1_radial_531_401" cx="0" cy="0" r="1" gradientUnits="userSpaceOnUse" gradientTransform="translate(101.4 61.1944) rotate(126.994) scale(29.249 32.4376)">
<stop stop-color="#FEC868"/>
<stop offset="1" stop-color="#F27157"/>
</radialGradient>
<radialGradient id="paint2_radial_531_401" cx="0" cy="0" r="1" gradientUnits="userSpaceOnUse" gradientTransform="translate(260.5 349.5) rotate(124.798) scale(193.627 205.173)">
<stop stop-color="#A1E6B4"/>
<stop offset="1" stop-color="#2B7362"/>
</radialGradient>
<radialGradient id="paint3_radial_531_401" cx="0" cy="0" r="1" gradientUnits="userSpaceOnUse" gradientTransform="translate(49 221) rotate(133.069) scale(31.4841)">
<stop stop-color="#FBE7A1"/>
<stop offset="1" stop-color="#FAB651"/>
</radialGradient>
</defs>
</svg>
