<svg width="1900" height="600" viewBox="0 0 1900 600" fill="none" xmlns="http://www.w3.org/2000/svg">
<rect width="1900" height="600" fill="#F9F6F3"/>
<path d="M220.908 402.717C210.525 402.717 204.768 392.843 204.768 377.842V338.155H242.365V372.715C242.365 398.16 231.291 402.717 220.908 402.717Z" fill="#29544A"/>
<path d="M115.38 288.025C115.38 288.025 114.727 379.042 146.84 375.753C154.257 374.993 159.753 362.84 159.753 343.852" fill="#29544A"/>
<path d="M276.734 402.717C287.117 402.717 292.874 392.843 292.874 377.842V338.155H255.276V372.715C255.276 398.16 266.351 402.717 276.734 402.717Z" fill="#29544A"/>
<path d="M380.982 288.025C380.982 288.025 381.635 379.042 349.522 375.753C342.105 374.993 336.609 362.84 336.609 343.852" fill="#29544A"/>
<path d="M247.616 156.228C247.616 156.228 253.191 111.362 196.715 113.872C196.715 113.872 200.942 175.365 247.616 156.228Z" fill="#295444"/>
<path d="M250.339 158.791C250.339 158.791 313.329 179.69 325.922 97.6744C325.922 97.6744 236.185 86.1065 250.339 158.791Z" fill="#295444"/>
<path d="M380.602 275.872C375.555 208.842 317.48 159.593 257.551 154.739C256.218 154.633 254.912 154.268 253.761 153.592C251.805 152.442 250.123 150.478 250.123 147.129C250.123 140.672 252.045 124.057 255.656 113.389C256.488 110.932 254.646 108.392 252.052 108.392H247.901H243.693C241.099 108.392 239.261 110.932 240.089 113.389C243.701 124.057 245.623 140.672 245.623 147.129C245.623 150.262 244.145 152.183 242.357 153.361C241.111 154.177 239.656 154.614 238.171 154.728C178.038 159.448 118.022 207.399 115.14 275.872C112.523 338.034 146.741 359.423 212.92 359.423H282.818C348.997 359.423 385.269 337.912 380.598 275.872H380.602Z" fill="url(#paint0_radial_531_768)"/>
<path d="M350.6 283.168C350.6 323.492 319.971 336.746 266.669 338.152C264.167 338.216 231.24 338.152 228.692 338.152C171.851 338.152 144.762 325.384 144.762 283.168C144.762 240.952 197.55 203.335 247.681 203.335C301.988 203.335 350.6 240.952 350.6 283.168Z" fill="#D6EBDD"/>
<mask id="mask0_531_768" style="mask-type:luminance" maskUnits="userSpaceOnUse" x="144" y="203" width="207" height="136">
<path d="M350.599 283.168C350.599 323.492 319.97 336.746 266.668 338.152C264.166 338.216 231.239 338.152 228.691 338.152C171.85 338.152 144.761 325.384 144.761 283.168C144.761 240.952 197.549 203.335 247.68 203.335C301.987 203.335 350.599 240.952 350.599 283.168Z" fill="white"/>
</mask>
<g mask="url(#mask0_531_768)">
<path d="M172.106 333.219C186.788 333.219 198.69 321.317 198.69 306.635C198.69 291.952 186.788 280.05 172.106 280.05C157.424 280.05 145.521 291.952 145.521 306.635C145.521 321.317 157.424 333.219 172.106 333.219Z" fill="#A8D9B8"/>
<path d="M323.256 333.219C337.938 333.219 349.84 321.317 349.84 306.635C349.84 291.952 337.938 280.05 323.256 280.05C308.574 280.05 296.672 291.952 296.672 306.635C296.672 321.317 308.574 333.219 323.256 333.219Z" fill="#A8D9B8"/>
<path d="M160.496 310.269C160.397 310.269 160.302 310.231 160.226 310.159C160.078 310.011 160.078 309.772 160.226 309.624L166.736 303.115C166.884 302.966 167.123 302.966 167.271 303.115C167.419 303.263 167.419 303.502 167.271 303.65L160.762 310.159C160.686 310.235 160.591 310.269 160.492 310.269H160.496Z" fill="#D5F1E4"/>
<path d="M167.928 311.192C167.829 311.192 167.734 311.154 167.658 311.082C167.51 310.934 167.51 310.695 167.658 310.547L176.013 302.192C176.161 302.044 176.4 302.044 176.548 302.192C176.697 302.34 176.697 302.579 176.548 302.727L168.193 311.082C168.117 311.158 168.023 311.192 167.924 311.192H167.928Z" fill="#D5F1E4"/>
<path d="M177.206 310.269C177.107 310.269 177.012 310.231 176.936 310.159C176.788 310.011 176.788 309.772 176.936 309.624L183.446 303.115C183.594 302.966 183.833 302.966 183.981 303.115C184.129 303.263 184.129 303.502 183.981 303.65L177.472 310.159C177.396 310.235 177.301 310.269 177.202 310.269H177.206Z" fill="#D5F1E4"/>
<path d="M334.867 310.269C334.768 310.269 334.673 310.231 334.597 310.159L328.088 303.65C327.94 303.501 327.94 303.262 328.088 303.114C328.236 302.966 328.475 302.966 328.623 303.114L335.132 309.623C335.281 309.771 335.281 310.011 335.132 310.159C335.057 310.235 334.962 310.269 334.863 310.269H334.867Z" fill="#D5F1E4"/>
<path d="M327.434 311.192C327.335 311.192 327.24 311.154 327.164 311.082L318.809 302.727C318.661 302.579 318.661 302.339 318.809 302.191C318.957 302.043 319.197 302.043 319.345 302.191L327.7 310.546C327.848 310.694 327.848 310.934 327.7 311.082C327.624 311.158 327.529 311.192 327.43 311.192H327.434Z" fill="#D5F1E4"/>
<path d="M318.157 310.269C318.058 310.269 317.963 310.231 317.887 310.159L311.378 303.65C311.23 303.501 311.23 303.262 311.378 303.114C311.526 302.966 311.765 302.966 311.913 303.114L318.422 309.623C318.571 309.771 318.571 310.011 318.422 310.159C318.347 310.235 318.252 310.269 318.153 310.269H318.157Z" fill="#D5F1E4"/>
</g>
<g filter="url(#filter0_i_531_768)">
<path d="M350.6 283.168C350.6 323.492 319.971 336.746 266.669 338.152C264.167 338.216 231.24 338.152 228.692 338.152C171.851 338.152 144.762 325.384 144.762 283.168C144.762 240.952 197.55 203.335 247.681 203.335C301.988 203.335 350.6 240.952 350.6 283.168Z" fill="#F2F9ED" fill-opacity="0.01"/>
</g>
<path d="M197.687 302.457C208.593 302.457 217.435 293.615 217.435 282.708C217.435 271.802 208.593 262.96 197.687 262.96C186.78 262.96 177.938 271.802 177.938 282.708C177.938 293.615 186.78 302.457 197.687 302.457Z" fill="white"/>
<path d="M197.686 294.982C204.465 294.982 209.961 289.487 209.961 282.708C209.961 275.929 204.465 270.434 197.686 270.434C190.908 270.434 185.412 275.929 185.412 282.708C185.412 289.487 190.908 294.982 197.686 294.982Z" fill="#39393B"/>
<path d="M297.67 302.457C308.577 302.457 317.418 293.615 317.418 282.708C317.418 271.802 308.577 262.96 297.67 262.96C286.763 262.96 277.922 271.802 277.922 282.708C277.922 293.615 286.763 302.457 297.67 302.457Z" fill="white"/>
<path d="M297.67 294.982C304.449 294.982 309.944 289.487 309.944 282.708C309.944 275.929 304.449 270.434 297.67 270.434C290.891 270.434 285.396 275.929 285.396 282.708C285.396 289.487 290.891 294.982 297.67 294.982Z" fill="#39393B"/>
<path d="M247.682 305.114C242.285 305.114 237.314 303.094 233.683 299.425C229.977 295.681 227.934 290.417 227.934 284.607C227.934 279.362 232.183 275.112 237.428 275.112C242.673 275.112 246.922 279.362 246.922 284.607C246.922 285.469 247.093 285.921 247.169 286.054C247.226 286.076 247.386 286.126 247.682 286.126C247.978 286.126 248.138 286.076 248.195 286.054C248.274 285.921 248.441 285.469 248.441 284.607C248.441 279.362 252.691 275.112 257.936 275.112C263.18 275.112 267.43 279.362 267.43 284.607C267.43 290.417 265.387 295.681 261.68 299.425C258.05 303.094 253.078 305.114 247.682 305.114Z" fill="#EE868C"/>
<path d="M247.682 296C241.32 296 237.048 291.42 237.048 284.607C237.048 284.398 237.219 284.227 237.428 284.227C237.637 284.227 237.807 284.398 237.807 284.607C237.807 290.968 241.776 295.241 247.682 295.241C253.587 295.241 257.556 290.968 257.556 284.607C257.556 284.398 257.727 284.227 257.935 284.227C258.144 284.227 258.315 284.398 258.315 284.607C258.315 291.42 254.043 296 247.682 296Z" fill="black"/>
<path d="M177.387 254.306L173.896 257.797C171.968 259.725 171.968 262.851 173.896 264.779C175.824 266.707 178.95 266.707 180.878 264.779L184.369 261.288C186.297 259.36 186.297 256.234 184.369 254.306C182.441 252.378 179.315 252.378 177.387 254.306Z" fill="#39393B"/>
<path d="M317.975 254.304C316.047 252.376 312.921 252.376 310.993 254.304C309.065 256.232 309.065 259.358 310.993 261.286L314.484 264.777C316.412 266.705 319.538 266.705 321.466 264.777C323.394 262.849 323.394 259.723 321.466 257.795L317.975 254.304Z" fill="#39393B"/>
<path d="M572.908 402.717C562.525 402.717 556.768 392.843 556.768 377.842V338.155H594.365V372.715C594.365 398.16 583.291 402.717 572.908 402.717Z" fill="#F38E55"/>
<path d="M467.38 288.025C467.38 288.025 466.727 379.042 498.84 375.753C506.257 374.993 511.753 362.84 511.753 343.852" fill="#F38E55"/>
<path d="M628.734 402.717C639.117 402.717 644.874 392.843 644.874 377.842V338.155H607.276V372.715C607.276 398.16 618.351 402.717 628.734 402.717Z" fill="#F38E55"/>
<path d="M732.982 288.025C732.982 288.025 733.635 379.042 701.522 375.753C694.105 374.993 688.609 362.84 688.609 343.852" fill="#F38E55"/>
<path d="M599.616 156.228C599.616 156.228 605.191 111.362 548.715 113.872C548.715 113.872 552.942 175.365 599.616 156.228Z" fill="#F99D5A"/>
<path d="M602.339 158.791C602.339 158.791 665.329 179.69 677.922 97.6744C677.922 97.6744 588.185 86.1065 602.339 158.791Z" fill="#F99D5A"/>
<path d="M732.602 275.872C727.555 208.842 669.48 159.593 609.551 154.739C608.218 154.633 606.912 154.268 605.761 153.592C603.805 152.442 602.123 150.478 602.123 147.129C602.123 140.672 604.045 124.057 607.656 113.389C608.488 110.932 606.646 108.392 604.052 108.392H599.901H595.693C593.099 108.392 591.261 110.932 592.089 113.389C595.701 124.057 597.623 140.672 597.623 147.129C597.623 150.262 596.145 152.183 594.357 153.361C593.111 154.177 591.656 154.614 590.171 154.728C530.038 159.448 470.022 207.399 467.14 275.872C464.523 338.034 498.741 359.423 564.92 359.423H634.818C700.997 359.423 737.269 337.912 732.598 275.872H732.602Z" fill="url(#paint1_radial_531_768)"/>
<path d="M702.6 283.168C702.6 323.492 671.971 336.746 618.669 338.152C616.167 338.216 583.24 338.152 580.692 338.152C523.851 338.152 496.762 325.384 496.762 283.168C496.762 240.952 549.55 203.335 599.681 203.335C653.988 203.335 702.6 240.952 702.6 283.168Z" fill="#F9F3E3"/>
<mask id="mask1_531_768" style="mask-type:luminance" maskUnits="userSpaceOnUse" x="496" y="203" width="207" height="136">
<path d="M702.599 283.168C702.599 323.492 671.97 336.746 618.668 338.152C616.166 338.216 583.239 338.152 580.691 338.152C523.85 338.152 496.761 325.384 496.761 283.168C496.761 240.952 549.549 203.335 599.68 203.335C653.987 203.335 702.599 240.952 702.599 283.168Z" fill="white"/>
</mask>
<g mask="url(#mask1_531_768)">
<path d="M524.106 333.219C538.788 333.219 550.69 321.317 550.69 306.635C550.69 291.952 538.788 280.05 524.106 280.05C509.424 280.05 497.521 291.952 497.521 306.635C497.521 321.317 509.424 333.219 524.106 333.219Z" fill="#FDBD98"/>
<path d="M675.256 333.219C689.938 333.219 701.84 321.317 701.84 306.635C701.84 291.952 689.938 280.05 675.256 280.05C660.574 280.05 648.672 291.952 648.672 306.635C648.672 321.317 660.574 333.219 675.256 333.219Z" fill="#FDBD98"/>
<path d="M512.496 310.269C512.397 310.269 512.302 310.231 512.226 310.159C512.078 310.011 512.078 309.772 512.226 309.624L518.736 303.115C518.884 302.966 519.123 302.966 519.271 303.115C519.419 303.263 519.419 303.502 519.271 303.65L512.762 310.159C512.686 310.235 512.591 310.269 512.492 310.269H512.496Z" fill="#FFE8CA"/>
<path d="M519.928 311.192C519.829 311.192 519.734 311.154 519.658 311.082C519.51 310.934 519.51 310.695 519.658 310.547L528.013 302.192C528.161 302.044 528.4 302.044 528.548 302.192C528.697 302.34 528.697 302.579 528.548 302.727L520.193 311.082C520.117 311.158 520.023 311.192 519.924 311.192H519.928Z" fill="#FFE8CA"/>
<path d="M529.206 310.269C529.107 310.269 529.012 310.231 528.936 310.159C528.788 310.011 528.788 309.772 528.936 309.624L535.446 303.115C535.594 302.966 535.833 302.966 535.981 303.115C536.129 303.263 536.129 303.502 535.981 303.65L529.472 310.159C529.396 310.235 529.301 310.269 529.202 310.269H529.206Z" fill="#FFE8CA"/>
<path d="M686.867 310.269C686.768 310.269 686.673 310.231 686.597 310.159L680.088 303.65C679.94 303.501 679.94 303.262 680.088 303.114C680.236 302.966 680.475 302.966 680.623 303.114L687.132 309.623C687.281 309.771 687.281 310.011 687.132 310.159C687.057 310.235 686.962 310.269 686.863 310.269H686.867Z" fill="#FFE8CA"/>
<path d="M679.434 311.192C679.335 311.192 679.24 311.154 679.164 311.082L670.809 302.727C670.661 302.579 670.661 302.339 670.809 302.191C670.957 302.043 671.197 302.043 671.345 302.191L679.7 310.546C679.848 310.694 679.848 310.934 679.7 311.082C679.624 311.158 679.529 311.192 679.43 311.192H679.434Z" fill="#FFE8CA"/>
<path d="M670.157 310.269C670.058 310.269 669.963 310.231 669.887 310.159L663.378 303.65C663.23 303.501 663.23 303.262 663.378 303.114C663.526 302.966 663.765 302.966 663.913 303.114L670.422 309.623C670.571 309.771 670.571 310.011 670.422 310.159C670.347 310.235 670.252 310.269 670.153 310.269H670.157Z" fill="#FFE8CA"/>
<g filter="url(#filter1_i_531_768)">
<path d="M702.6 283.168C702.6 323.492 671.971 336.746 618.669 338.152C616.167 338.216 583.24 338.152 580.692 338.152C523.851 338.152 496.762 325.384 496.762 283.168C496.762 240.952 549.55 203.335 599.681 203.335C653.988 203.335 702.6 240.952 702.6 283.168Z" fill="#EDF6F9" fill-opacity="0.01"/>
</g>
</g>
<path d="M549.687 302.457C560.593 302.457 569.435 293.615 569.435 282.708C569.435 271.802 560.593 262.96 549.687 262.96C538.78 262.96 529.938 271.802 529.938 282.708C529.938 293.615 538.78 302.457 549.687 302.457Z" fill="white"/>
<path d="M549.686 294.982C556.465 294.982 561.961 289.487 561.961 282.708C561.961 275.929 556.465 270.434 549.686 270.434C542.908 270.434 537.412 275.929 537.412 282.708C537.412 289.487 542.908 294.982 549.686 294.982Z" fill="#39393B"/>
<path d="M649.67 302.457C660.577 302.457 669.418 293.615 669.418 282.708C669.418 271.802 660.577 262.96 649.67 262.96C638.763 262.96 629.922 271.802 629.922 282.708C629.922 293.615 638.763 302.457 649.67 302.457Z" fill="white"/>
<path d="M649.67 294.982C656.449 294.982 661.944 289.487 661.944 282.708C661.944 275.929 656.449 270.434 649.67 270.434C642.891 270.434 637.396 275.929 637.396 282.708C637.396 289.487 642.891 294.982 649.67 294.982Z" fill="#39393B"/>
<path d="M599.682 305.114C594.285 305.114 589.314 303.094 585.683 299.425C581.977 295.681 579.934 290.417 579.934 284.607C579.934 279.362 584.183 275.112 589.428 275.112C594.673 275.112 598.922 279.362 598.922 284.607C598.922 285.469 599.093 285.921 599.169 286.054C599.226 286.076 599.386 286.126 599.682 286.126C599.978 286.126 600.138 286.076 600.195 286.054C600.274 285.921 600.441 285.469 600.441 284.607C600.441 279.362 604.691 275.112 609.936 275.112C615.18 275.112 619.43 279.362 619.43 284.607C619.43 290.417 617.387 295.681 613.68 299.425C610.05 303.094 605.078 305.114 599.682 305.114Z" fill="#FC976B"/>
<path d="M599.682 296C593.32 296 589.048 291.42 589.048 284.607C589.048 284.398 589.219 284.227 589.428 284.227C589.637 284.227 589.807 284.398 589.807 284.607C589.807 290.968 593.776 295.241 599.682 295.241C605.587 295.241 609.556 290.968 609.556 284.607C609.556 284.398 609.727 284.227 609.935 284.227C610.144 284.227 610.315 284.398 610.315 284.607C610.315 291.42 606.043 296 599.682 296Z" fill="black"/>
<path d="M529.387 254.306L525.896 257.797C523.968 259.725 523.968 262.851 525.896 264.779C527.824 266.707 530.95 266.707 532.878 264.779L536.369 261.288C538.297 259.36 538.297 256.234 536.369 254.306C534.441 252.378 531.315 252.378 529.387 254.306Z" fill="#39393B"/>
<path d="M669.975 254.304C668.047 252.376 664.921 252.376 662.993 254.304C661.065 256.232 661.065 259.358 662.993 261.286L666.484 264.777C668.412 266.705 671.538 266.705 673.466 264.777C675.394 262.849 675.394 259.723 673.466 257.795L669.975 254.304Z" fill="#39393B"/>
<path d="M922.908 402.717C912.525 402.717 906.768 392.843 906.768 377.842V338.155H944.365V372.715C944.365 398.16 933.291 402.717 922.908 402.717Z" fill="#DC525A"/>
<path d="M817.38 288.025C817.38 288.025 816.727 379.042 848.84 375.753C856.257 374.993 861.753 362.84 861.753 343.852" fill="#DC525A"/>
<path d="M978.734 402.717C989.117 402.717 994.874 392.843 994.874 377.842V338.155H957.276V372.715C957.276 398.16 968.351 402.717 978.734 402.717Z" fill="#DC525A"/>
<path d="M1082.98 288.025C1082.98 288.025 1083.64 379.042 1051.52 375.753C1044.1 374.993 1038.61 362.84 1038.61 343.852" fill="#DC525A"/>
<path d="M949.616 156.228C949.616 156.228 955.191 111.362 898.715 113.872C898.715 113.872 902.942 175.365 949.616 156.228Z" fill="#F27157"/>
<path d="M952.339 158.791C952.339 158.791 1015.33 179.69 1027.92 97.6744C1027.92 97.6744 938.185 86.1065 952.339 158.791Z" fill="#F27157"/>
<path d="M1082.6 275.872C1077.55 208.842 1019.48 159.593 959.551 154.739C958.218 154.633 956.912 154.268 955.761 153.592C953.805 152.442 952.123 150.478 952.123 147.129C952.123 140.672 954.045 124.057 957.656 113.389C958.488 110.932 956.646 108.392 954.052 108.392H949.901H945.693C943.099 108.392 941.261 110.932 942.089 113.389C945.701 124.057 947.623 140.672 947.623 147.129C947.623 150.262 946.145 152.183 944.357 153.361C943.111 154.177 941.656 154.614 940.171 154.728C880.038 159.448 820.022 207.399 817.14 275.872C814.523 338.034 848.741 359.423 914.92 359.423H984.818C1051 359.423 1087.27 337.912 1082.6 275.872H1082.6Z" fill="url(#paint2_radial_531_768)"/>
<path d="M1052.6 283.168C1052.6 323.492 1021.97 336.746 968.669 338.152C966.167 338.216 933.24 338.152 930.692 338.152C873.851 338.152 846.762 325.384 846.762 283.168C846.762 240.952 899.55 203.335 949.681 203.335C1003.99 203.335 1052.6 240.952 1052.6 283.168Z" fill="#F9EFE3"/>
<mask id="mask2_531_768" style="mask-type:luminance" maskUnits="userSpaceOnUse" x="846" y="203" width="207" height="136">
<path d="M1052.6 283.168C1052.6 323.492 1021.97 336.746 968.668 338.152C966.166 338.216 933.239 338.152 930.691 338.152C873.85 338.152 846.761 325.384 846.761 283.168C846.761 240.952 899.549 203.335 949.68 203.335C1003.99 203.335 1052.6 240.952 1052.6 283.168Z" fill="white"/>
</mask>
<g mask="url(#mask2_531_768)">
<path d="M874.106 333.219C888.788 333.219 900.69 321.317 900.69 306.635C900.69 291.952 888.788 280.05 874.106 280.05C859.424 280.05 847.521 291.952 847.521 306.635C847.521 321.317 859.424 333.219 874.106 333.219Z" fill="#FDBD98"/>
<path d="M1025.26 333.219C1039.94 333.219 1051.84 321.317 1051.84 306.635C1051.84 291.952 1039.94 280.05 1025.26 280.05C1010.57 280.05 998.672 291.952 998.672 306.635C998.672 321.317 1010.57 333.219 1025.26 333.219Z" fill="#FDBD98"/>
<path d="M862.496 310.269C862.397 310.269 862.302 310.231 862.226 310.159C862.078 310.011 862.078 309.772 862.226 309.624L868.736 303.115C868.884 302.966 869.123 302.966 869.271 303.115C869.419 303.263 869.419 303.502 869.271 303.65L862.762 310.159C862.686 310.235 862.591 310.269 862.492 310.269H862.496Z" fill="#FFE8CA"/>
<path d="M869.928 311.192C869.829 311.192 869.734 311.154 869.658 311.082C869.51 310.934 869.51 310.695 869.658 310.547L878.013 302.192C878.161 302.044 878.4 302.044 878.548 302.192C878.697 302.34 878.697 302.579 878.548 302.727L870.193 311.082C870.117 311.158 870.023 311.192 869.924 311.192H869.928Z" fill="#FFE8CA"/>
<path d="M879.206 310.269C879.107 310.269 879.012 310.231 878.936 310.159C878.788 310.011 878.788 309.772 878.936 309.624L885.446 303.115C885.594 302.966 885.833 302.966 885.981 303.115C886.129 303.263 886.129 303.502 885.981 303.65L879.472 310.159C879.396 310.235 879.301 310.269 879.202 310.269H879.206Z" fill="#FFE8CA"/>
<path d="M1036.87 310.269C1036.77 310.269 1036.67 310.231 1036.6 310.159L1030.09 303.65C1029.94 303.501 1029.94 303.262 1030.09 303.114C1030.24 302.966 1030.48 302.966 1030.62 303.114L1037.13 309.623C1037.28 309.771 1037.28 310.011 1037.13 310.159C1037.06 310.235 1036.96 310.269 1036.86 310.269H1036.87Z" fill="#FFE8CA"/>
<path d="M1029.43 311.192C1029.34 311.192 1029.24 311.154 1029.16 311.082L1020.81 302.727C1020.66 302.579 1020.66 302.339 1020.81 302.191C1020.96 302.043 1021.2 302.043 1021.34 302.191L1029.7 310.546C1029.85 310.694 1029.85 310.934 1029.7 311.082C1029.62 311.158 1029.53 311.192 1029.43 311.192H1029.43Z" fill="#FFE8CA"/>
<path d="M1020.16 310.269C1020.06 310.269 1019.96 310.231 1019.89 310.159L1013.38 303.65C1013.23 303.501 1013.23 303.262 1013.38 303.114C1013.53 302.966 1013.77 302.966 1013.91 303.114L1020.42 309.623C1020.57 309.771 1020.57 310.011 1020.42 310.159C1020.35 310.235 1020.25 310.269 1020.15 310.269H1020.16Z" fill="#FFE8CA"/>
<g filter="url(#filter2_i_531_768)">
<path d="M1052.6 283.168C1052.6 323.492 1021.97 336.746 968.669 338.152C966.167 338.216 933.24 338.152 930.692 338.152C873.851 338.152 846.762 325.384 846.762 283.168C846.762 240.952 899.55 203.335 949.681 203.335C1003.99 203.335 1052.6 240.952 1052.6 283.168Z" fill="#EDF6F9" fill-opacity="0.01"/>
</g>
</g>
<path d="M899.687 302.457C910.593 302.457 919.435 293.615 919.435 282.708C919.435 271.802 910.593 262.96 899.687 262.96C888.78 262.96 879.938 271.802 879.938 282.708C879.938 293.615 888.78 302.457 899.687 302.457Z" fill="white"/>
<path d="M899.686 294.982C906.465 294.982 911.961 289.487 911.961 282.708C911.961 275.929 906.465 270.434 899.686 270.434C892.908 270.434 887.412 275.929 887.412 282.708C887.412 289.487 892.908 294.982 899.686 294.982Z" fill="#39393B"/>
<path d="M999.67 302.457C1010.58 302.457 1019.42 293.615 1019.42 282.708C1019.42 271.802 1010.58 262.96 999.67 262.96C988.763 262.96 979.922 271.802 979.922 282.708C979.922 293.615 988.763 302.457 999.67 302.457Z" fill="white"/>
<path d="M999.67 294.982C1006.45 294.982 1011.94 289.487 1011.94 282.708C1011.94 275.929 1006.45 270.434 999.67 270.434C992.891 270.434 987.396 275.929 987.396 282.708C987.396 289.487 992.891 294.982 999.67 294.982Z" fill="#39393B"/>
<path d="M949.682 305.114C944.285 305.114 939.314 303.094 935.683 299.425C931.977 295.681 929.934 290.417 929.934 284.607C929.934 279.362 934.183 275.112 939.428 275.112C944.673 275.112 948.922 279.362 948.922 284.607C948.922 285.469 949.093 285.921 949.169 286.054C949.226 286.076 949.386 286.126 949.682 286.126C949.978 286.126 950.138 286.076 950.195 286.054C950.274 285.921 950.441 285.469 950.441 284.607C950.441 279.362 954.691 275.112 959.936 275.112C965.18 275.112 969.43 279.362 969.43 284.607C969.43 290.417 967.387 295.681 963.68 299.425C960.05 303.094 955.078 305.114 949.682 305.114Z" fill="#F27358"/>
<path d="M949.682 296C943.32 296 939.048 291.42 939.048 284.607C939.048 284.398 939.219 284.227 939.428 284.227C939.637 284.227 939.807 284.398 939.807 284.607C939.807 290.968 943.776 295.241 949.682 295.241C955.587 295.241 959.556 290.968 959.556 284.607C959.556 284.398 959.727 284.227 959.935 284.227C960.144 284.227 960.315 284.398 960.315 284.607C960.315 291.42 956.043 296 949.682 296Z" fill="black"/>
<path d="M879.387 254.306L875.896 257.797C873.968 259.725 873.968 262.851 875.896 264.779C877.824 266.707 880.95 266.707 882.878 264.779L886.369 261.288C888.297 259.36 888.297 256.234 886.369 254.306C884.441 252.378 881.315 252.378 879.387 254.306Z" fill="#39393B"/>
<path d="M1019.98 254.304C1018.05 252.376 1014.92 252.376 1012.99 254.304C1011.06 256.232 1011.06 259.358 1012.99 261.286L1016.48 264.777C1018.41 266.705 1021.54 266.705 1023.47 264.777C1025.39 262.849 1025.39 259.723 1023.47 257.795L1019.98 254.304Z" fill="#39393B"/>
<path d="M1278.91 402.717C1268.52 402.717 1262.77 392.843 1262.77 377.842V338.155H1300.37V372.715C1300.37 398.16 1289.29 402.717 1278.91 402.717Z" fill="#4287C8"/>
<path d="M1173.38 288.025C1173.38 288.025 1172.73 379.042 1204.84 375.753C1212.26 374.993 1217.75 362.84 1217.75 343.852" fill="#4287C8"/>
<path d="M1334.73 402.717C1345.12 402.717 1350.87 392.843 1350.87 377.842V338.155H1313.28V372.715C1313.28 398.16 1324.35 402.717 1334.73 402.717Z" fill="#4287C8"/>
<path d="M1438.98 288.025C1438.98 288.025 1439.64 379.042 1407.52 375.753C1400.1 374.993 1394.61 362.84 1394.61 343.852" fill="#4287C8"/>
<path d="M1305.62 156.228C1305.62 156.228 1311.19 111.362 1254.71 113.872C1254.71 113.872 1258.94 175.365 1305.62 156.228Z" fill="#4287C8"/>
<path d="M1308.34 158.791C1308.34 158.791 1371.33 179.69 1383.92 97.6744C1383.92 97.6744 1294.19 86.1065 1308.34 158.791Z" fill="#4287C8"/>
<path d="M1438.6 275.872C1433.55 208.842 1375.48 159.593 1315.55 154.739C1314.22 154.633 1312.91 154.268 1311.76 153.592C1309.81 152.442 1308.12 150.478 1308.12 147.129C1308.12 140.672 1310.04 124.057 1313.66 113.389C1314.49 110.932 1312.65 108.392 1310.05 108.392H1305.9H1301.69C1299.1 108.392 1297.26 110.932 1298.09 113.389C1301.7 124.057 1303.62 140.672 1303.62 147.129C1303.62 150.262 1302.15 152.183 1300.36 153.361C1299.11 154.177 1297.66 154.614 1296.17 154.728C1236.04 159.448 1176.02 207.399 1173.14 275.872C1170.52 338.034 1204.74 359.423 1270.92 359.423H1340.82C1407 359.423 1443.27 337.912 1438.6 275.872H1438.6Z" fill="url(#paint3_radial_531_768)"/>
<path d="M1408.6 283.168C1408.6 323.492 1377.97 336.746 1324.67 338.152C1322.17 338.216 1289.24 338.152 1286.69 338.152C1229.85 338.152 1202.76 325.384 1202.76 283.168C1202.76 240.952 1255.55 203.335 1305.68 203.335C1359.99 203.335 1408.6 240.952 1408.6 283.168Z" fill="#EEFBFF"/>
<mask id="mask3_531_768" style="mask-type:luminance" maskUnits="userSpaceOnUse" x="1202" y="203" width="207" height="136">
<path d="M1408.6 283.168C1408.6 323.492 1377.97 336.746 1324.67 338.152C1322.17 338.216 1289.24 338.152 1286.69 338.152C1229.85 338.152 1202.76 325.384 1202.76 283.168C1202.76 240.952 1255.55 203.335 1305.68 203.335C1359.99 203.335 1408.6 240.952 1408.6 283.168Z" fill="white"/>
</mask>
<g mask="url(#mask3_531_768)">
<path d="M1230.11 333.219C1244.79 333.219 1256.69 321.317 1256.69 306.635C1256.69 291.952 1244.79 280.05 1230.11 280.05C1215.42 280.05 1203.52 291.952 1203.52 306.635C1203.52 321.317 1215.42 333.219 1230.11 333.219Z" fill="#C9D9FC"/>
<path d="M1381.26 333.219C1395.94 333.219 1407.84 321.317 1407.84 306.635C1407.84 291.952 1395.94 280.05 1381.26 280.05C1366.57 280.05 1354.67 291.952 1354.67 306.635C1354.67 321.317 1366.57 333.219 1381.26 333.219Z" fill="#C9D9FC"/>
<path d="M1218.5 310.269C1218.4 310.269 1218.3 310.231 1218.23 310.159C1218.08 310.011 1218.08 309.772 1218.23 309.624L1224.74 303.115C1224.88 302.966 1225.12 302.966 1225.27 303.115C1225.42 303.263 1225.42 303.502 1225.27 303.65L1218.76 310.159C1218.69 310.235 1218.59 310.269 1218.49 310.269H1218.5Z" fill="#EDF6F9"/>
<path d="M1225.93 311.192C1225.83 311.192 1225.73 311.154 1225.66 311.082C1225.51 310.934 1225.51 310.695 1225.66 310.547L1234.01 302.192C1234.16 302.044 1234.4 302.044 1234.55 302.192C1234.7 302.34 1234.7 302.579 1234.55 302.727L1226.19 311.082C1226.12 311.158 1226.02 311.192 1225.92 311.192H1225.93Z" fill="#EDF6F9"/>
<path d="M1235.21 310.269C1235.11 310.269 1235.01 310.231 1234.94 310.159C1234.79 310.011 1234.79 309.772 1234.94 309.624L1241.45 303.115C1241.59 302.966 1241.83 302.966 1241.98 303.115C1242.13 303.263 1242.13 303.502 1241.98 303.65L1235.47 310.159C1235.4 310.235 1235.3 310.269 1235.2 310.269H1235.21Z" fill="#EDF6F9"/>
<path d="M1392.87 310.269C1392.77 310.269 1392.67 310.231 1392.6 310.159L1386.09 303.65C1385.94 303.501 1385.94 303.262 1386.09 303.114C1386.24 302.966 1386.48 302.966 1386.62 303.114L1393.13 309.623C1393.28 309.771 1393.28 310.011 1393.13 310.159C1393.06 310.235 1392.96 310.269 1392.86 310.269H1392.87Z" fill="#EDF6F9"/>
<path d="M1385.43 311.192C1385.34 311.192 1385.24 311.154 1385.16 311.082L1376.81 302.727C1376.66 302.579 1376.66 302.339 1376.81 302.191C1376.96 302.043 1377.2 302.043 1377.34 302.191L1385.7 310.546C1385.85 310.694 1385.85 310.934 1385.7 311.082C1385.62 311.158 1385.53 311.192 1385.43 311.192H1385.43Z" fill="#EDF6F9"/>
<path d="M1376.16 310.269C1376.06 310.269 1375.96 310.231 1375.89 310.159L1369.38 303.65C1369.23 303.501 1369.23 303.262 1369.38 303.114C1369.53 302.966 1369.77 302.966 1369.91 303.114L1376.42 309.623C1376.57 309.771 1376.57 310.011 1376.42 310.159C1376.35 310.235 1376.25 310.269 1376.15 310.269H1376.16Z" fill="#EDF6F9"/>
</g>
<path d="M1255.69 302.457C1266.59 302.457 1275.44 293.615 1275.44 282.708C1275.44 271.802 1266.59 262.96 1255.69 262.96C1244.78 262.96 1235.94 271.802 1235.94 282.708C1235.94 293.615 1244.78 302.457 1255.69 302.457Z" fill="white"/>
<path d="M1255.69 294.982C1262.47 294.982 1267.96 289.487 1267.96 282.708C1267.96 275.929 1262.47 270.434 1255.69 270.434C1248.91 270.434 1243.41 275.929 1243.41 282.708C1243.41 289.487 1248.91 294.982 1255.69 294.982Z" fill="#39393B"/>
<path d="M1355.67 302.457C1366.58 302.457 1375.42 293.615 1375.42 282.708C1375.42 271.802 1366.58 262.96 1355.67 262.96C1344.76 262.96 1335.92 271.802 1335.92 282.708C1335.92 293.615 1344.76 302.457 1355.67 302.457Z" fill="white"/>
<path d="M1355.67 294.982C1362.45 294.982 1367.94 289.487 1367.94 282.708C1367.94 275.929 1362.45 270.434 1355.67 270.434C1348.89 270.434 1343.4 275.929 1343.4 282.708C1343.4 289.487 1348.89 294.982 1355.67 294.982Z" fill="#39393B"/>
<path d="M1305.68 305.114C1300.29 305.114 1295.31 303.094 1291.68 299.425C1287.98 295.681 1285.93 290.417 1285.93 284.607C1285.93 279.362 1290.18 275.112 1295.43 275.112C1300.67 275.112 1304.92 279.362 1304.92 284.607C1304.92 285.469 1305.09 285.921 1305.17 286.054C1305.23 286.076 1305.39 286.126 1305.68 286.126C1305.98 286.126 1306.14 286.076 1306.19 286.054C1306.27 285.921 1306.44 285.469 1306.44 284.607C1306.44 279.362 1310.69 275.112 1315.94 275.112C1321.18 275.112 1325.43 279.362 1325.43 284.607C1325.43 290.417 1323.39 295.681 1319.68 299.425C1316.05 303.094 1311.08 305.114 1305.68 305.114Z" fill="#FE91A5"/>
<path d="M1305.68 296C1299.32 296 1295.05 291.42 1295.05 284.607C1295.05 284.398 1295.22 284.227 1295.43 284.227C1295.64 284.227 1295.81 284.398 1295.81 284.607C1295.81 290.968 1299.78 295.241 1305.68 295.241C1311.59 295.241 1315.56 290.968 1315.56 284.607C1315.56 284.398 1315.73 284.227 1315.94 284.227C1316.14 284.227 1316.32 284.398 1316.32 284.607C1316.32 291.42 1312.04 296 1305.68 296Z" fill="black"/>
<path d="M1235.39 254.306L1231.9 257.797C1229.97 259.725 1229.97 262.851 1231.9 264.779C1233.82 266.707 1236.95 266.707 1238.88 264.779L1242.37 261.288C1244.3 259.36 1244.3 256.234 1242.37 254.306C1240.44 252.378 1237.32 252.378 1235.39 254.306Z" fill="#39393B"/>
<path d="M1375.98 254.304C1374.05 252.376 1370.92 252.376 1368.99 254.304C1367.06 256.232 1367.06 259.358 1368.99 261.286L1372.48 264.777C1374.41 266.705 1377.54 266.705 1379.47 264.777C1381.39 262.849 1381.39 259.723 1379.47 257.795L1375.98 254.304Z" fill="#39393B"/>
<g filter="url(#filter3_i_531_768)">
<path d="M1408.6 283.168C1408.6 323.492 1377.97 336.746 1324.67 338.152C1322.17 338.216 1289.24 338.152 1286.69 338.152C1229.85 338.152 1202.76 325.384 1202.76 283.168C1202.76 240.952 1255.55 203.335 1305.68 203.335C1359.99 203.335 1408.6 240.952 1408.6 283.168Z" fill="#EDF6F9" fill-opacity="0.01"/>
</g>
<path d="M1630.91 402.717C1620.52 402.717 1614.77 392.843 1614.77 377.842V338.155H1652.37V372.715C1652.37 398.16 1641.29 402.717 1630.91 402.717Z" fill="#CC5167"/>
<path d="M1525.38 288.025C1525.38 288.025 1524.73 379.042 1556.84 375.753C1564.26 374.993 1569.75 362.84 1569.75 343.852" fill="#CC5167"/>
<path d="M1686.73 402.717C1697.12 402.717 1702.87 392.843 1702.87 377.842V338.155H1665.28V372.715C1665.28 398.16 1676.35 402.717 1686.73 402.717Z" fill="#CC5167"/>
<path d="M1790.98 288.025C1790.98 288.025 1791.64 379.042 1759.52 375.753C1752.1 374.993 1746.61 362.84 1746.61 343.852" fill="#CC5167"/>
<path d="M1657.62 156.228C1657.62 156.228 1663.19 111.362 1606.71 113.872C1606.71 113.872 1610.94 175.365 1657.62 156.228Z" fill="#CC5167"/>
<path d="M1660.34 158.791C1660.34 158.791 1723.33 179.69 1735.92 97.6744C1735.92 97.6744 1646.19 86.1065 1660.34 158.791Z" fill="#CC5167"/>
<path d="M1790.6 275.872C1785.55 208.842 1727.48 159.593 1667.55 154.739C1666.22 154.633 1664.91 154.268 1663.76 153.592C1661.81 152.442 1660.12 150.478 1660.12 147.129C1660.12 140.672 1662.04 124.057 1665.66 113.389C1666.49 110.932 1664.65 108.392 1662.05 108.392H1657.9H1653.69C1651.1 108.392 1649.26 110.932 1650.09 113.389C1653.7 124.057 1655.62 140.672 1655.62 147.129C1655.62 150.262 1654.15 152.183 1652.36 153.361C1651.11 154.177 1649.66 154.614 1648.17 154.728C1588.04 159.448 1528.02 207.399 1525.14 275.872C1522.52 338.034 1556.74 359.423 1622.92 359.423H1692.82C1759 359.423 1795.27 337.912 1790.6 275.872H1790.6Z" fill="url(#paint4_radial_531_768)"/>
<path d="M1760.6 283.168C1760.6 323.492 1729.97 336.746 1676.67 338.152C1674.17 338.216 1641.24 338.152 1638.69 338.152C1581.85 338.152 1554.76 325.384 1554.76 283.168C1554.76 240.952 1607.55 203.335 1657.68 203.335C1711.99 203.335 1760.6 240.952 1760.6 283.168Z" fill="#FFE2E9"/>
<mask id="mask4_531_768" style="mask-type:luminance" maskUnits="userSpaceOnUse" x="1554" y="203" width="207" height="136">
<path d="M1760.6 283.168C1760.6 323.492 1729.97 336.746 1676.67 338.152C1674.17 338.216 1641.24 338.152 1638.69 338.152C1581.85 338.152 1554.76 325.384 1554.76 283.168C1554.76 240.952 1607.55 203.335 1657.68 203.335C1711.99 203.335 1760.6 240.952 1760.6 283.168Z" fill="white"/>
</mask>
<g mask="url(#mask4_531_768)">
<path d="M1582.11 333.219C1596.79 333.219 1608.69 321.317 1608.69 306.635C1608.69 291.952 1596.79 280.05 1582.11 280.05C1567.42 280.05 1555.52 291.952 1555.52 306.635C1555.52 321.317 1567.42 333.219 1582.11 333.219Z" fill="#FAC2DB"/>
<path d="M1733.26 333.219C1747.94 333.219 1759.84 321.317 1759.84 306.635C1759.84 291.952 1747.94 280.05 1733.26 280.05C1718.57 280.05 1706.67 291.952 1706.67 306.635C1706.67 321.317 1718.57 333.219 1733.26 333.219Z" fill="#FAC2DB"/>
<path d="M1570.5 310.269C1570.4 310.269 1570.3 310.231 1570.23 310.159C1570.08 310.011 1570.08 309.772 1570.23 309.624L1576.74 303.115C1576.88 302.966 1577.12 302.966 1577.27 303.115C1577.42 303.263 1577.42 303.502 1577.27 303.65L1570.76 310.159C1570.69 310.235 1570.59 310.269 1570.49 310.269H1570.5Z" fill="#FEE1E8"/>
<path d="M1577.93 311.192C1577.83 311.192 1577.73 311.154 1577.66 311.082C1577.51 310.934 1577.51 310.695 1577.66 310.547L1586.01 302.192C1586.16 302.044 1586.4 302.044 1586.55 302.192C1586.7 302.34 1586.7 302.579 1586.55 302.727L1578.19 311.082C1578.12 311.158 1578.02 311.192 1577.92 311.192H1577.93Z" fill="#FEE1E8"/>
<path d="M1587.21 310.269C1587.11 310.269 1587.01 310.231 1586.94 310.159C1586.79 310.011 1586.79 309.772 1586.94 309.624L1593.45 303.115C1593.59 302.966 1593.83 302.966 1593.98 303.115C1594.13 303.263 1594.13 303.502 1593.98 303.65L1587.47 310.159C1587.4 310.235 1587.3 310.269 1587.2 310.269H1587.21Z" fill="#FEE1E8"/>
<path d="M1744.87 310.269C1744.77 310.269 1744.67 310.231 1744.6 310.159L1738.09 303.65C1737.94 303.501 1737.94 303.262 1738.09 303.114C1738.24 302.966 1738.48 302.966 1738.62 303.114L1745.13 309.623C1745.28 309.771 1745.28 310.011 1745.13 310.159C1745.06 310.235 1744.96 310.269 1744.86 310.269H1744.87Z" fill="#FEE1E8"/>
<path d="M1737.43 311.192C1737.34 311.192 1737.24 311.154 1737.16 311.082L1728.81 302.727C1728.66 302.579 1728.66 302.339 1728.81 302.191C1728.96 302.043 1729.2 302.043 1729.34 302.191L1737.7 310.546C1737.85 310.694 1737.85 310.934 1737.7 311.082C1737.62 311.158 1737.53 311.192 1737.43 311.192H1737.43Z" fill="#FEE1E8"/>
<path d="M1728.16 310.269C1728.06 310.269 1727.96 310.231 1727.89 310.159L1721.38 303.65C1721.23 303.501 1721.23 303.262 1721.38 303.114C1721.53 302.966 1721.77 302.966 1721.91 303.114L1728.42 309.623C1728.57 309.771 1728.57 310.011 1728.42 310.159C1728.35 310.235 1728.25 310.269 1728.15 310.269H1728.16Z" fill="#FEE1E8"/>
<g filter="url(#filter4_i_531_768)">
<path d="M1760.6 283.168C1760.6 323.492 1729.97 336.746 1676.67 338.152C1674.17 338.216 1641.24 338.152 1638.69 338.152C1581.85 338.152 1554.76 325.384 1554.76 283.168C1554.76 240.952 1607.55 203.335 1657.68 203.335C1711.99 203.335 1760.6 240.952 1760.6 283.168Z" fill="#EDF6F9" fill-opacity="0.01"/>
</g>
</g>
<path d="M1607.69 302.457C1618.59 302.457 1627.44 293.615 1627.44 282.708C1627.44 271.802 1618.59 262.96 1607.69 262.96C1596.78 262.96 1587.94 271.802 1587.94 282.708C1587.94 293.615 1596.78 302.457 1607.69 302.457Z" fill="white"/>
<path d="M1607.69 294.982C1614.47 294.982 1619.96 289.487 1619.96 282.708C1619.96 275.929 1614.47 270.434 1607.69 270.434C1600.91 270.434 1595.41 275.929 1595.41 282.708C1595.41 289.487 1600.91 294.982 1607.69 294.982Z" fill="#39393B"/>
<path d="M1707.67 302.457C1718.58 302.457 1727.42 293.615 1727.42 282.708C1727.42 271.802 1718.58 262.96 1707.67 262.96C1696.76 262.96 1687.92 271.802 1687.92 282.708C1687.92 293.615 1696.76 302.457 1707.67 302.457Z" fill="white"/>
<path d="M1707.67 294.982C1714.45 294.982 1719.94 289.487 1719.94 282.708C1719.94 275.929 1714.45 270.434 1707.67 270.434C1700.89 270.434 1695.4 275.929 1695.4 282.708C1695.4 289.487 1700.89 294.982 1707.67 294.982Z" fill="#39393B"/>
<path d="M1657.68 305.114C1652.29 305.114 1647.31 303.094 1643.68 299.425C1639.98 295.681 1637.93 290.417 1637.93 284.607C1637.93 279.362 1642.18 275.112 1647.43 275.112C1652.67 275.112 1656.92 279.362 1656.92 284.607C1656.92 285.469 1657.09 285.921 1657.17 286.054C1657.23 286.076 1657.39 286.126 1657.68 286.126C1657.98 286.126 1658.14 286.076 1658.19 286.054C1658.27 285.921 1658.44 285.469 1658.44 284.607C1658.44 279.362 1662.69 275.112 1667.94 275.112C1673.18 275.112 1677.43 279.362 1677.43 284.607C1677.43 290.417 1675.39 295.681 1671.68 299.425C1668.05 303.094 1663.08 305.114 1657.68 305.114Z" fill="#EF8296"/>
<path d="M1657.68 296C1651.32 296 1647.05 291.42 1647.05 284.607C1647.05 284.398 1647.22 284.227 1647.43 284.227C1647.64 284.227 1647.81 284.398 1647.81 284.607C1647.81 290.968 1651.78 295.241 1657.68 295.241C1663.59 295.241 1667.56 290.968 1667.56 284.607C1667.56 284.398 1667.73 284.227 1667.94 284.227C1668.14 284.227 1668.32 284.398 1668.32 284.607C1668.32 291.42 1664.04 296 1657.68 296Z" fill="black"/>
<path d="M1587.39 254.306L1583.9 257.797C1581.97 259.725 1581.97 262.851 1583.9 264.779C1585.82 266.707 1588.95 266.707 1590.88 264.779L1594.37 261.288C1596.3 259.36 1596.3 256.234 1594.37 254.306C1592.44 252.378 1589.32 252.378 1587.39 254.306Z" fill="#39393B"/>
<path d="M1727.98 254.304C1726.05 252.376 1722.92 252.376 1720.99 254.304C1719.06 256.232 1719.06 259.358 1720.99 261.286L1724.48 264.777C1726.41 266.705 1729.54 266.705 1731.47 264.777C1733.39 262.849 1733.39 259.723 1731.47 257.795L1727.98 254.304Z" fill="#39393B"/>
<path d="M208.5 522.5C216.784 522.5 223.5 515.784 223.5 507.5C223.5 499.216 216.784 492.5 208.5 492.5C200.216 492.5 193.5 499.216 193.5 507.5C193.5 515.784 200.216 522.5 208.5 522.5Z" fill="#3B6D4F"/>
<path d="M248.5 522.5C256.784 522.5 263.5 515.784 263.5 507.5C263.5 499.216 256.784 492.5 248.5 492.5C240.216 492.5 233.5 499.216 233.5 507.5C233.5 515.784 240.216 522.5 248.5 522.5Z" fill="#295444"/>
<path d="M289.5 492.5L288.5 492.5C280.216 492.5 273.5 499.216 273.5 507.5C273.5 515.784 280.216 522.5 288.5 522.5L289.5 522.5C297.784 522.5 304.5 515.784 304.5 507.5C304.5 499.216 297.784 492.5 289.5 492.5Z" fill="#0F3A35"/>
<path d="M545 506.5L545 507.5C545 515.508 551.492 522 559.5 522C567.508 522 574 515.508 574 507.5L574 506.5C574 498.492 567.508 492 559.5 492C551.492 492 545 498.492 545 506.5Z" fill="#FEC868"/>
<path d="M585 506.5L585 507.5C585 515.508 591.492 522 599.5 522C607.508 522 614 515.508 614 507.5L614 506.5C614 498.492 607.508 492 599.5 492C591.492 492 585 498.492 585 506.5Z" fill="#F7AC3D"/>
<path d="M640 522C648.284 522 655 515.284 655 507C655 498.716 648.284 492 640 492C631.716 492 625 498.716 625 507C625 515.284 631.716 522 640 522Z" fill="#F2883B"/>
<path d="M896 506.5L896 507.5C896 515.508 902.492 522 910.5 522C918.508 522 925 515.508 925 507.5L925 506.5C925 498.492 918.508 492 910.5 492C902.492 492 896 498.492 896 506.5Z" fill="#FC976B"/>
<path d="M936 506.5L936 507.5C936 515.508 942.492 522 950.5 522C958.508 522 965 515.508 965 507.5L965 506.5C965 498.492 958.508 492 950.5 492C942.492 492 936 498.492 936 506.5Z" fill="#F27157"/>
<path d="M991 522C999.284 522 1006 515.284 1006 507C1006 498.716 999.284 492 991 492C982.716 492 976 498.716 976 507C976 515.284 982.716 522 991 522Z" fill="#DD5947"/>
<path d="M1251 506.5L1251 507.5C1251 515.508 1257.49 522 1265.5 522C1273.51 522 1280 515.508 1280 507.5L1280 506.5C1280 498.492 1273.51 492 1265.5 492C1257.49 492 1251 498.492 1251 506.5Z" fill="#81C7EE"/>
<path d="M1291 506.5L1291 507.5C1291 515.508 1297.49 522 1305.5 522C1313.51 522 1320 515.508 1320 507.5L1320 506.5C1320 498.492 1313.51 492 1305.5 492C1297.49 492 1291 498.492 1291 506.5Z" fill="#59AEDE"/>
<path d="M1346 522C1354.28 522 1361 515.284 1361 507C1361 498.716 1354.28 492 1346 492C1337.72 492 1331 498.716 1331 507C1331 515.284 1337.72 522 1346 522Z" fill="#399AD0"/>
<path d="M1673 507.5L1673 506.5C1673 498.492 1666.51 492 1658.5 492C1650.49 492 1644 498.492 1644 506.5L1644 507.5C1644 515.508 1650.49 522 1658.5 522C1666.51 522 1673 515.508 1673 507.5Z" fill="#E0667C"/>
<path d="M1698 492C1689.72 492 1683 498.716 1683 507C1683 515.284 1689.72 522 1698 522C1706.28 522 1713 515.284 1713 507C1713 498.716 1706.28 492 1698 492Z" fill="#CC5167"/>
<path d="M1618 522L1619 522C1627.28 522 1634 515.284 1634 507C1634 498.716 1627.28 492 1619 492L1618 492C1609.72 492 1603 498.716 1603 507C1603 515.284 1609.72 522 1618 522Z" fill="#FA949A"/>
<circle cx="425" cy="44" r="16" transform="rotate(45 425 44)" fill="url(#paint5_linear_531_768)"/>
<circle cx="490" cy="44" r="16" transform="rotate(30 490 44)" fill="url(#paint6_linear_531_768)"/>
<circle cx="555" cy="44" r="16" transform="rotate(30 555 44)" fill="url(#paint7_linear_531_768)"/>
<circle cx="620" cy="44" r="16" transform="rotate(30 620 44)" fill="url(#paint8_linear_531_768)"/>
<circle cx="685" cy="44" r="16" transform="rotate(45 685 44)" fill="url(#paint9_linear_531_768)"/>
<defs>
<filter id="filter0_i_531_768" x="144.762" y="203.335" width="205.838" height="135.845" filterUnits="userSpaceOnUse" color-interpolation-filters="sRGB">
<feFlood flood-opacity="0" result="BackgroundImageFix"/>
<feBlend mode="normal" in="SourceGraphic" in2="BackgroundImageFix" result="shape"/>
<feColorMatrix in="SourceAlpha" type="matrix" values="0 0 0 0 0 0 0 0 0 0 0 0 0 0 0 0 0 0 127 0" result="hardAlpha"/>
<feOffset dy="1"/>
<feGaussianBlur stdDeviation="5.5"/>
<feComposite in2="hardAlpha" operator="arithmetic" k2="-1" k3="1"/>
<feColorMatrix type="matrix" values="0 0 0 0 0.288889 0 0 0 0 0.541667 0 0 0 0 0.4491 0 0 0 1 0"/>
<feBlend mode="normal" in2="shape" result="effect1_innerShadow_531_768"/>
</filter>
<filter id="filter1_i_531_768" x="496.762" y="203.335" width="205.838" height="135.845" filterUnits="userSpaceOnUse" color-interpolation-filters="sRGB">
<feFlood flood-opacity="0" result="BackgroundImageFix"/>
<feBlend mode="normal" in="SourceGraphic" in2="BackgroundImageFix" result="shape"/>
<feColorMatrix in="SourceAlpha" type="matrix" values="0 0 0 0 0 0 0 0 0 0 0 0 0 0 0 0 0 0 127 0" result="hardAlpha"/>
<feOffset dy="1"/>
<feGaussianBlur stdDeviation="5.5"/>
<feComposite in2="hardAlpha" operator="arithmetic" k2="-1" k3="1"/>
<feColorMatrix type="matrix" values="0 0 0 0 0.8375 0 0 0 0 0.625612 0 0 0 0 0.376875 0 0 0 1 0"/>
<feBlend mode="normal" in2="shape" result="effect1_innerShadow_531_768"/>
</filter>
<filter id="filter2_i_531_768" x="846.762" y="203.335" width="205.838" height="135.845" filterUnits="userSpaceOnUse" color-interpolation-filters="sRGB">
<feFlood flood-opacity="0" result="BackgroundImageFix"/>
<feBlend mode="normal" in="SourceGraphic" in2="BackgroundImageFix" result="shape"/>
<feColorMatrix in="SourceAlpha" type="matrix" values="0 0 0 0 0 0 0 0 0 0 0 0 0 0 0 0 0 0 127 0" result="hardAlpha"/>
<feOffset dy="1"/>
<feGaussianBlur stdDeviation="5.5"/>
<feComposite in2="hardAlpha" operator="arithmetic" k2="-1" k3="1"/>
<feColorMatrix type="matrix" values="0 0 0 0 0.754167 0 0 0 0 0.396 0 0 0 0 0.317378 0 0 0 1 0"/>
<feBlend mode="normal" in2="shape" result="effect1_innerShadow_531_768"/>
</filter>
<filter id="filter3_i_531_768" x="1202.76" y="203.335" width="205.838" height="135.845" filterUnits="userSpaceOnUse" color-interpolation-filters="sRGB">
<feFlood flood-opacity="0" result="BackgroundImageFix"/>
<feBlend mode="normal" in="SourceGraphic" in2="BackgroundImageFix" result="shape"/>
<feColorMatrix in="SourceAlpha" type="matrix" values="0 0 0 0 0 0 0 0 0 0 0 0 0 0 0 0 0 0 127 0" result="hardAlpha"/>
<feOffset dy="1"/>
<feGaussianBlur stdDeviation="5.5"/>
<feComposite in2="hardAlpha" operator="arithmetic" k2="-1" k3="1"/>
<feColorMatrix type="matrix" values="0 0 0 0 0.209028 0 0 0 0 0.412083 0 0 0 0 0.716667 0 0 0 1 0"/>
<feBlend mode="normal" in2="shape" result="effect1_innerShadow_531_768"/>
</filter>
<filter id="filter4_i_531_768" x="1554.76" y="203.335" width="205.838" height="135.845" filterUnits="userSpaceOnUse" color-interpolation-filters="sRGB">
<feFlood flood-opacity="0" result="BackgroundImageFix"/>
<feBlend mode="normal" in="SourceGraphic" in2="BackgroundImageFix" result="shape"/>
<feColorMatrix in="SourceAlpha" type="matrix" values="0 0 0 0 0 0 0 0 0 0 0 0 0 0 0 0 0 0 127 0" result="hardAlpha"/>
<feOffset dy="1"/>
<feGaussianBlur stdDeviation="5.5"/>
<feComposite in2="hardAlpha" operator="arithmetic" k2="-1" k3="1"/>
<feColorMatrix type="matrix" values="0 0 0 0 0.8 0 0 0 0 0.403333 0 0 0 0 0.474863 0 0 0 0.96 0"/>
<feBlend mode="normal" in2="shape" result="effect1_innerShadow_531_768"/>
</filter>
<radialGradient id="paint0_radial_531_768" cx="0" cy="0" r="1" gradientUnits="userSpaceOnUse" gradientTransform="translate(313.5 166.5) rotate(124.798) scale(193.627 205.173)">
<stop stop-color="#A1E6B4"/>
<stop offset="1" stop-color="#2B7362"/>
</radialGradient>
<radialGradient id="paint1_radial_531_768" cx="0" cy="0" r="1" gradientUnits="userSpaceOnUse" gradientTransform="translate(665.5 166.5) rotate(124.798) scale(193.627 205.173)">
<stop stop-color="#FFEFB8"/>
<stop offset="1" stop-color="#FAB651"/>
</radialGradient>
<radialGradient id="paint2_radial_531_768" cx="0" cy="0" r="1" gradientUnits="userSpaceOnUse" gradientTransform="translate(1015.5 166.5) rotate(124.798) scale(193.627 205.173)">
<stop stop-color="#F9D48C"/>
<stop offset="1" stop-color="#F27157"/>
</radialGradient>
<radialGradient id="paint3_radial_531_768" cx="0" cy="0" r="1" gradientUnits="userSpaceOnUse" gradientTransform="translate(1371.5 166.5) rotate(124.798) scale(193.627 205.173)">
<stop stop-color="#D5DEFF"/>
<stop offset="1" stop-color="#599EDE"/>
</radialGradient>
<radialGradient id="paint4_radial_531_768" cx="0" cy="0" r="1" gradientUnits="userSpaceOnUse" gradientTransform="translate(1723.5 166.5) rotate(124.798) scale(193.627 205.173)">
<stop stop-color="#FFD5EE"/>
<stop offset="1" stop-color="#E0667C"/>
</radialGradient>
<linearGradient id="paint5_linear_531_768" x1="425" y1="28" x2="425" y2="60" gradientUnits="userSpaceOnUse">
<stop stop-color="#A1E5B4"/>
<stop offset="1" stop-color="#2B7362"/>
</linearGradient>
<linearGradient id="paint6_linear_531_768" x1="490" y1="28" x2="490" y2="60" gradientUnits="userSpaceOnUse">
<stop stop-color="#FFEFB8"/>
<stop offset="1" stop-color="#FAB651"/>
</linearGradient>
<linearGradient id="paint7_linear_531_768" x1="555" y1="28" x2="555" y2="60" gradientUnits="userSpaceOnUse">
<stop stop-color="#F9D48C"/>
<stop offset="1" stop-color="#F27157"/>
</linearGradient>
<linearGradient id="paint8_linear_531_768" x1="620" y1="28" x2="620" y2="60" gradientUnits="userSpaceOnUse">
<stop stop-color="#D4DEFF"/>
<stop offset="1" stop-color="#599EDE"/>
</linearGradient>
<linearGradient id="paint9_linear_531_768" x1="685" y1="28" x2="685" y2="60" gradientUnits="userSpaceOnUse">
<stop stop-color="#FFD4EE"/>
<stop offset="1" stop-color="#E0667C"/>
</linearGradient>
</defs>
</svg>
