<svg width="390" height="844" viewBox="0 0 390 844" fill="none" xmlns="http://www.w3.org/2000/svg">
<rect width="390" height="844" fill="#F9F6F3"/>
<rect x="31" y="411" width="328" height="55" rx="27.5" fill="#F2EBE2"/>
<path d="M58.8281 432.625H60.3281V440.32C60.3281 441.174 60.138 441.885 59.7578 442.453C59.3776 443.021 58.8724 443.448 58.2422 443.734C57.6172 444.016 56.9375 444.156 56.2031 444.156C55.4323 444.156 54.7344 444.016 54.1094 443.734C53.4896 443.448 52.9974 443.021 52.6328 442.453C52.2734 441.885 52.0938 441.174 52.0938 440.32V432.625H53.5859V440.32C53.5859 440.914 53.6953 441.404 53.9141 441.789C54.1328 442.174 54.4375 442.461 54.8281 442.648C55.224 442.836 55.6823 442.93 56.2031 442.93C56.7292 442.93 57.1875 442.836 57.5781 442.648C57.974 442.461 58.2812 442.174 58.5 441.789C58.7188 441.404 58.8281 440.914 58.8281 440.32V432.625ZM67.5484 441.758C67.5484 441.549 67.5016 441.357 67.4078 441.18C67.3193 440.997 67.1344 440.833 66.8531 440.688C66.5771 440.536 66.1604 440.406 65.6031 440.297C65.1344 440.198 64.7099 440.081 64.3297 439.945C63.9547 439.81 63.6344 439.646 63.3687 439.453C63.1083 439.26 62.9078 439.034 62.7672 438.773C62.6266 438.513 62.5562 438.208 62.5562 437.859C62.5562 437.526 62.6292 437.211 62.775 436.914C62.926 436.617 63.137 436.354 63.4078 436.125C63.6839 435.896 64.0146 435.716 64.4 435.586C64.7854 435.456 65.2151 435.391 65.6891 435.391C66.3661 435.391 66.9443 435.51 67.4234 435.75C67.9026 435.99 68.2698 436.31 68.525 436.711C68.7802 437.107 68.9078 437.547 68.9078 438.031H67.4625C67.4625 437.797 67.3922 437.57 67.2516 437.352C67.1161 437.128 66.9156 436.943 66.65 436.797C66.3896 436.651 66.0693 436.578 65.6891 436.578C65.288 436.578 64.9625 436.641 64.7125 436.766C64.4677 436.885 64.288 437.039 64.1734 437.227C64.0641 437.414 64.0094 437.612 64.0094 437.82C64.0094 437.977 64.0354 438.117 64.0875 438.242C64.1448 438.362 64.2437 438.474 64.3844 438.578C64.525 438.677 64.7229 438.771 64.9781 438.859C65.2333 438.948 65.5589 439.036 65.9547 439.125C66.6474 439.281 67.2177 439.469 67.6656 439.688C68.1135 439.906 68.4469 440.174 68.6656 440.492C68.8844 440.81 68.9937 441.195 68.9937 441.648C68.9937 442.018 68.9156 442.357 68.7594 442.664C68.6083 442.971 68.387 443.237 68.0953 443.461C67.8089 443.68 67.4651 443.852 67.0641 443.977C66.6682 444.096 66.2229 444.156 65.7281 444.156C64.9833 444.156 64.3531 444.023 63.8375 443.758C63.3219 443.492 62.9312 443.148 62.6656 442.727C62.4 442.305 62.2672 441.859 62.2672 441.391H63.7203C63.7411 441.786 63.8557 442.102 64.0641 442.336C64.2724 442.565 64.5276 442.729 64.8297 442.828C65.1318 442.922 65.4312 442.969 65.7281 442.969C66.124 442.969 66.4547 442.917 66.7203 442.812C66.9911 442.708 67.1969 442.565 67.3375 442.383C67.4781 442.201 67.5484 441.992 67.5484 441.758ZM74.55 444.156C73.9615 444.156 73.4276 444.057 72.9484 443.859C72.4745 443.656 72.0656 443.372 71.7219 443.008C71.3833 442.643 71.1229 442.211 70.9406 441.711C70.7583 441.211 70.6672 440.664 70.6672 440.07V439.742C70.6672 439.055 70.7687 438.443 70.9719 437.906C71.175 437.365 71.451 436.906 71.8 436.531C72.149 436.156 72.5448 435.872 72.9875 435.68C73.4302 435.487 73.8885 435.391 74.3625 435.391C74.9667 435.391 75.4875 435.495 75.925 435.703C76.3677 435.911 76.7297 436.203 77.0109 436.578C77.2922 436.948 77.5005 437.385 77.6359 437.891C77.7714 438.391 77.8391 438.938 77.8391 439.531V440.18H71.5266V439H76.3937V438.891C76.3729 438.516 76.2948 438.151 76.1594 437.797C76.0292 437.443 75.8208 437.151 75.5344 436.922C75.2479 436.693 74.8573 436.578 74.3625 436.578C74.0344 436.578 73.7323 436.648 73.4562 436.789C73.1802 436.924 72.9432 437.128 72.7453 437.398C72.5474 437.669 72.3937 438 72.2844 438.391C72.175 438.781 72.1203 439.232 72.1203 439.742V440.07C72.1203 440.471 72.175 440.849 72.2844 441.203C72.399 441.552 72.563 441.859 72.7766 442.125C72.9953 442.391 73.2583 442.599 73.5656 442.75C73.8781 442.901 74.2323 442.977 74.6281 442.977C75.1385 442.977 75.5708 442.872 75.925 442.664C76.2792 442.456 76.5891 442.177 76.8547 441.828L77.7297 442.523C77.5474 442.799 77.3156 443.062 77.0344 443.312C76.7531 443.562 76.4068 443.766 75.9953 443.922C75.5891 444.078 75.1073 444.156 74.55 444.156ZM81.1219 436.875V444H79.6766V435.547H81.0828L81.1219 436.875ZM83.7625 435.5L83.7547 436.844C83.6349 436.818 83.5203 436.802 83.4109 436.797C83.3068 436.786 83.187 436.781 83.0516 436.781C82.7182 436.781 82.424 436.833 82.1688 436.938C81.9135 437.042 81.6974 437.188 81.5203 437.375C81.3432 437.562 81.2026 437.786 81.0984 438.047C80.9995 438.302 80.9344 438.583 80.9031 438.891L80.4969 439.125C80.4969 438.615 80.5464 438.135 80.6453 437.688C80.7495 437.24 80.9083 436.844 81.1219 436.5C81.3354 436.151 81.6063 435.88 81.9344 435.688C82.2677 435.49 82.6635 435.391 83.1219 435.391C83.226 435.391 83.3458 435.404 83.4813 435.43C83.6167 435.451 83.7104 435.474 83.7625 435.5ZM86.6937 437.352V444H85.2484V435.547H86.6156L86.6937 437.352ZM86.35 439.453L85.7484 439.43C85.7536 438.852 85.8396 438.318 86.0062 437.828C86.1729 437.333 86.4073 436.904 86.7094 436.539C87.0115 436.174 87.3708 435.893 87.7875 435.695C88.2094 435.492 88.6755 435.391 89.1859 435.391C89.6026 435.391 89.9776 435.448 90.3109 435.562C90.6443 435.672 90.9281 435.849 91.1625 436.094C91.4021 436.339 91.5844 436.656 91.7094 437.047C91.8344 437.432 91.8969 437.904 91.8969 438.461V444H90.4437V438.445C90.4437 438.003 90.3786 437.648 90.2484 437.383C90.1182 437.112 89.9281 436.917 89.6781 436.797C89.4281 436.672 89.1208 436.609 88.7562 436.609C88.3969 436.609 88.0687 436.685 87.7719 436.836C87.4802 436.987 87.2276 437.195 87.0141 437.461C86.8057 437.727 86.6417 438.031 86.5219 438.375C86.4073 438.714 86.35 439.073 86.35 439.453ZM99.2266 442.555V438.203C99.2266 437.87 99.1589 437.581 99.0234 437.336C98.8932 437.086 98.6953 436.893 98.4297 436.758C98.1641 436.622 97.8359 436.555 97.4453 436.555C97.0807 436.555 96.7604 436.617 96.4844 436.742C96.2135 436.867 96 437.031 95.8438 437.234C95.6927 437.438 95.6172 437.656 95.6172 437.891H94.1719C94.1719 437.589 94.25 437.289 94.4062 436.992C94.5625 436.695 94.7865 436.427 95.0781 436.188C95.375 435.943 95.7292 435.75 96.1406 435.609C96.5573 435.464 97.0208 435.391 97.5312 435.391C98.1458 435.391 98.6875 435.495 99.1562 435.703C99.6302 435.911 100 436.227 100.266 436.648C100.536 437.065 100.672 437.589 100.672 438.219V442.156C100.672 442.438 100.695 442.737 100.742 443.055C100.794 443.372 100.87 443.646 100.969 443.875V444H99.4609C99.388 443.833 99.3307 443.612 99.2891 443.336C99.2474 443.055 99.2266 442.794 99.2266 442.555ZM99.4766 438.875L99.4922 439.891H98.0312C97.6198 439.891 97.2526 439.924 96.9297 439.992C96.6068 440.055 96.3359 440.151 96.1172 440.281C95.8984 440.411 95.7318 440.576 95.6172 440.773C95.5026 440.966 95.4453 441.193 95.4453 441.453C95.4453 441.719 95.5052 441.961 95.625 442.18C95.7448 442.398 95.9245 442.573 96.1641 442.703C96.4089 442.828 96.7083 442.891 97.0625 442.891C97.5052 442.891 97.8958 442.797 98.2344 442.609C98.5729 442.422 98.8411 442.193 99.0391 441.922C99.2422 441.651 99.3516 441.388 99.3672 441.133L99.9844 441.828C99.9479 442.047 99.849 442.289 99.6875 442.555C99.526 442.82 99.3099 443.076 99.0391 443.32C98.7734 443.56 98.4557 443.76 98.0859 443.922C97.7214 444.078 97.3099 444.156 96.8516 444.156C96.2786 444.156 95.776 444.044 95.3438 443.82C94.9167 443.596 94.5833 443.297 94.3438 442.922C94.1094 442.542 93.9922 442.117 93.9922 441.648C93.9922 441.195 94.0807 440.797 94.2578 440.453C94.4349 440.104 94.6901 439.815 95.0234 439.586C95.3568 439.352 95.7578 439.174 96.2266 439.055C96.6953 438.935 97.2188 438.875 97.7969 438.875H99.4766ZM104.533 437.227V444H103.08V435.547H104.455L104.533 437.227ZM104.236 439.453L103.564 439.43C103.569 438.852 103.645 438.318 103.791 437.828C103.936 437.333 104.153 436.904 104.439 436.539C104.726 436.174 105.082 435.893 105.509 435.695C105.936 435.492 106.431 435.391 106.994 435.391C107.39 435.391 107.754 435.448 108.088 435.562C108.421 435.672 108.71 435.846 108.955 436.086C109.199 436.326 109.39 436.633 109.525 437.008C109.66 437.383 109.728 437.836 109.728 438.367V444H108.283V438.438C108.283 437.995 108.207 437.641 108.056 437.375C107.91 437.109 107.702 436.917 107.431 436.797C107.16 436.672 106.843 436.609 106.478 436.609C106.051 436.609 105.694 436.685 105.408 436.836C105.121 436.987 104.892 437.195 104.72 437.461C104.548 437.727 104.423 438.031 104.345 438.375C104.272 438.714 104.236 439.073 104.236 439.453ZM109.713 438.656L108.744 438.953C108.749 438.49 108.824 438.044 108.97 437.617C109.121 437.19 109.338 436.81 109.619 436.477C109.905 436.143 110.257 435.88 110.673 435.688C111.09 435.49 111.567 435.391 112.103 435.391C112.556 435.391 112.957 435.451 113.306 435.57C113.66 435.69 113.957 435.875 114.197 436.125C114.442 436.37 114.627 436.685 114.752 437.07C114.877 437.456 114.939 437.914 114.939 438.445V444H113.486V438.43C113.486 437.956 113.41 437.589 113.259 437.328C113.114 437.062 112.905 436.878 112.634 436.773C112.369 436.664 112.051 436.609 111.681 436.609C111.364 436.609 111.082 436.664 110.838 436.773C110.593 436.883 110.387 437.034 110.22 437.227C110.054 437.414 109.926 437.63 109.838 437.875C109.754 438.12 109.713 438.38 109.713 438.656ZM120.784 444.156C120.196 444.156 119.662 444.057 119.183 443.859C118.709 443.656 118.3 443.372 117.956 443.008C117.618 442.643 117.357 442.211 117.175 441.711C116.993 441.211 116.902 440.664 116.902 440.07V439.742C116.902 439.055 117.003 438.443 117.206 437.906C117.409 437.365 117.685 436.906 118.034 436.531C118.383 436.156 118.779 435.872 119.222 435.68C119.665 435.487 120.123 435.391 120.597 435.391C121.201 435.391 121.722 435.495 122.159 435.703C122.602 435.911 122.964 436.203 123.245 436.578C123.527 436.948 123.735 437.385 123.87 437.891C124.006 438.391 124.073 438.938 124.073 439.531V440.18H117.761V439H122.628V438.891C122.607 438.516 122.529 438.151 122.394 437.797C122.264 437.443 122.055 437.151 121.769 436.922C121.482 436.693 121.092 436.578 120.597 436.578C120.269 436.578 119.967 436.648 119.691 436.789C119.415 436.924 119.178 437.128 118.98 437.398C118.782 437.669 118.628 438 118.519 438.391C118.409 438.781 118.355 439.232 118.355 439.742V440.07C118.355 440.471 118.409 440.849 118.519 441.203C118.633 441.552 118.797 441.859 119.011 442.125C119.23 442.391 119.493 442.599 119.8 442.75C120.113 442.901 120.467 442.977 120.863 442.977C121.373 442.977 121.805 442.872 122.159 442.664C122.514 442.456 122.823 442.177 123.089 441.828L123.964 442.523C123.782 442.799 123.55 443.062 123.269 443.312C122.988 443.562 122.641 443.766 122.23 443.922C121.823 444.078 121.342 444.156 120.784 444.156Z" fill="#BAB4B6"/>
<rect x="31" y="336" width="328" height="55" rx="27.5" fill="#F2EBE2"/>
<path d="M59.5469 367.773V369H53.5234V367.773H59.5469ZM53.8281 357.625V369H52.3203V357.625H53.8281ZM58.75 362.516V363.742H53.5234V362.516H58.75ZM59.4688 357.625V358.859H53.5234V357.625H59.4688ZM62.7828 362.227V369H61.3297V360.547H62.7047L62.7828 362.227ZM62.4859 364.453L61.8141 364.43C61.8193 363.852 61.8948 363.318 62.0406 362.828C62.1865 362.333 62.4026 361.904 62.6891 361.539C62.9755 361.174 63.3323 360.893 63.7594 360.695C64.1865 360.492 64.6812 360.391 65.2437 360.391C65.6396 360.391 66.0042 360.448 66.3375 360.562C66.6708 360.672 66.9599 360.846 67.2047 361.086C67.4495 361.326 67.6396 361.633 67.775 362.008C67.9104 362.383 67.9781 362.836 67.9781 363.367V369H66.5328V363.438C66.5328 362.995 66.4573 362.641 66.3062 362.375C66.1604 362.109 65.9521 361.917 65.6812 361.797C65.4104 361.672 65.0927 361.609 64.7281 361.609C64.301 361.609 63.9443 361.685 63.6578 361.836C63.3714 361.987 63.1422 362.195 62.9703 362.461C62.7984 362.727 62.6734 363.031 62.5953 363.375C62.5224 363.714 62.4859 364.073 62.4859 364.453ZM67.9625 363.656L66.9937 363.953C66.999 363.49 67.0745 363.044 67.2203 362.617C67.3714 362.19 67.5875 361.81 67.8687 361.477C68.1552 361.143 68.5068 360.88 68.9234 360.688C69.3401 360.49 69.8167 360.391 70.3531 360.391C70.8062 360.391 71.2073 360.451 71.5562 360.57C71.9104 360.69 72.2073 360.875 72.4469 361.125C72.6917 361.37 72.8766 361.685 73.0016 362.07C73.1266 362.456 73.1891 362.914 73.1891 363.445V369H71.7359V363.43C71.7359 362.956 71.6604 362.589 71.5094 362.328C71.3635 362.062 71.1552 361.878 70.8844 361.773C70.6187 361.664 70.301 361.609 69.9312 361.609C69.6135 361.609 69.3323 361.664 69.0875 361.773C68.8427 361.883 68.637 362.034 68.4703 362.227C68.3036 362.414 68.176 362.63 68.0875 362.875C68.0042 363.12 67.9625 363.38 67.9625 363.656ZM80.5109 367.555V363.203C80.5109 362.87 80.4432 362.581 80.3078 362.336C80.1776 362.086 79.9797 361.893 79.7141 361.758C79.4484 361.622 79.1203 361.555 78.7297 361.555C78.3651 361.555 78.0448 361.617 77.7687 361.742C77.4979 361.867 77.2844 362.031 77.1281 362.234C76.9771 362.438 76.9016 362.656 76.9016 362.891H75.4562C75.4562 362.589 75.5344 362.289 75.6906 361.992C75.8469 361.695 76.0708 361.427 76.3625 361.188C76.6594 360.943 77.0135 360.75 77.425 360.609C77.8417 360.464 78.3052 360.391 78.8156 360.391C79.4302 360.391 79.9719 360.495 80.4406 360.703C80.9146 360.911 81.2844 361.227 81.55 361.648C81.8208 362.065 81.9562 362.589 81.9562 363.219V367.156C81.9562 367.438 81.9797 367.737 82.0266 368.055C82.0786 368.372 82.1542 368.646 82.2531 368.875V369H80.7453C80.6724 368.833 80.6151 368.612 80.5734 368.336C80.5318 368.055 80.5109 367.794 80.5109 367.555ZM80.7609 363.875L80.7766 364.891H79.3156C78.9042 364.891 78.537 364.924 78.2141 364.992C77.8911 365.055 77.6203 365.151 77.4016 365.281C77.1828 365.411 77.0161 365.576 76.9016 365.773C76.787 365.966 76.7297 366.193 76.7297 366.453C76.7297 366.719 76.7896 366.961 76.9094 367.18C77.0292 367.398 77.2089 367.573 77.4484 367.703C77.6932 367.828 77.9927 367.891 78.3469 367.891C78.7896 367.891 79.1802 367.797 79.5187 367.609C79.8573 367.422 80.1255 367.193 80.3234 366.922C80.5266 366.651 80.6359 366.388 80.6516 366.133L81.2687 366.828C81.2323 367.047 81.1333 367.289 80.9719 367.555C80.8104 367.82 80.5943 368.076 80.3234 368.32C80.0578 368.56 79.7401 368.76 79.3703 368.922C79.0057 369.078 78.5943 369.156 78.1359 369.156C77.563 369.156 77.0604 369.044 76.6281 368.82C76.201 368.596 75.8677 368.297 75.6281 367.922C75.3937 367.542 75.2766 367.117 75.2766 366.648C75.2766 366.195 75.3651 365.797 75.5422 365.453C75.7193 365.104 75.9745 364.815 76.3078 364.586C76.6411 364.352 77.0422 364.174 77.5109 364.055C77.9797 363.935 78.5031 363.875 79.0812 363.875H80.7609ZM85.95 360.547V369H84.4969V360.547H85.95ZM84.3875 358.305C84.3875 358.07 84.4578 357.872 84.5984 357.711C84.7443 357.549 84.9578 357.469 85.2391 357.469C85.5151 357.469 85.726 357.549 85.8719 357.711C86.0229 357.872 86.0984 358.07 86.0984 358.305C86.0984 358.529 86.0229 358.721 85.8719 358.883C85.726 359.039 85.5151 359.117 85.2391 359.117C84.9578 359.117 84.7443 359.039 84.5984 358.883C84.4578 358.721 84.3875 358.529 84.3875 358.305ZM89.9906 357V369H88.5375V357H89.9906Z" fill="#BAB4B6"/>
<rect x="31" y="486" width="328" height="55" rx="27.5" fill="#F2EBE2"/>
<path d="M57.5156 514.539H54.4766V513.312H57.5156C58.1042 513.312 58.5807 513.219 58.9453 513.031C59.3099 512.844 59.5755 512.583 59.7422 512.25C59.9141 511.917 60 511.536 60 511.109C60 510.719 59.9141 510.352 59.7422 510.008C59.5755 509.664 59.3099 509.388 58.9453 509.18C58.5807 508.966 58.1042 508.859 57.5156 508.859H54.8281V519H53.3203V507.625H57.5156C58.375 507.625 59.1016 507.773 59.6953 508.07C60.2891 508.367 60.7396 508.779 61.0469 509.305C61.3542 509.826 61.5078 510.422 61.5078 511.094C61.5078 511.823 61.3542 512.445 61.0469 512.961C60.7396 513.477 60.2891 513.87 59.6953 514.141C59.1016 514.406 58.375 514.539 57.5156 514.539ZM68.2359 517.555V513.203C68.2359 512.87 68.1682 512.581 68.0328 512.336C67.9026 512.086 67.7047 511.893 67.4391 511.758C67.1734 511.622 66.8453 511.555 66.4547 511.555C66.0901 511.555 65.7698 511.617 65.4937 511.742C65.2229 511.867 65.0094 512.031 64.8531 512.234C64.7021 512.438 64.6266 512.656 64.6266 512.891H63.1812C63.1812 512.589 63.2594 512.289 63.4156 511.992C63.5719 511.695 63.7958 511.427 64.0875 511.188C64.3844 510.943 64.7385 510.75 65.15 510.609C65.5667 510.464 66.0302 510.391 66.5406 510.391C67.1552 510.391 67.6969 510.495 68.1656 510.703C68.6396 510.911 69.0094 511.227 69.275 511.648C69.5458 512.065 69.6812 512.589 69.6812 513.219V517.156C69.6812 517.438 69.7047 517.737 69.7516 518.055C69.8036 518.372 69.8792 518.646 69.9781 518.875V519H68.4703C68.3974 518.833 68.3401 518.612 68.2984 518.336C68.2568 518.055 68.2359 517.794 68.2359 517.555ZM68.4859 513.875L68.5016 514.891H67.0406C66.6292 514.891 66.262 514.924 65.9391 514.992C65.6161 515.055 65.3453 515.151 65.1266 515.281C64.9078 515.411 64.7411 515.576 64.6266 515.773C64.512 515.966 64.4547 516.193 64.4547 516.453C64.4547 516.719 64.5146 516.961 64.6344 517.18C64.7542 517.398 64.9339 517.573 65.1734 517.703C65.4182 517.828 65.7177 517.891 66.0719 517.891C66.5146 517.891 66.9052 517.797 67.2437 517.609C67.5823 517.422 67.8505 517.193 68.0484 516.922C68.2516 516.651 68.3609 516.388 68.3766 516.133L68.9937 516.828C68.9573 517.047 68.8583 517.289 68.6969 517.555C68.5354 517.82 68.3193 518.076 68.0484 518.32C67.7828 518.56 67.4651 518.76 67.0953 518.922C66.7307 519.078 66.3193 519.156 65.8609 519.156C65.288 519.156 64.7854 519.044 64.3531 518.82C63.926 518.596 63.5927 518.297 63.3531 517.922C63.1187 517.542 63.0016 517.117 63.0016 516.648C63.0016 516.195 63.0901 515.797 63.2672 515.453C63.4443 515.104 63.6995 514.815 64.0328 514.586C64.3661 514.352 64.7672 514.174 65.2359 514.055C65.7047 513.935 66.2281 513.875 66.8062 513.875H68.4859ZM77.0266 516.758C77.0266 516.549 76.9797 516.357 76.8859 516.18C76.7974 515.997 76.6125 515.833 76.3312 515.688C76.0552 515.536 75.6385 515.406 75.0812 515.297C74.6125 515.198 74.188 515.081 73.8078 514.945C73.4328 514.81 73.1125 514.646 72.8469 514.453C72.5865 514.26 72.3859 514.034 72.2453 513.773C72.1047 513.513 72.0344 513.208 72.0344 512.859C72.0344 512.526 72.1073 512.211 72.2531 511.914C72.4042 511.617 72.6151 511.354 72.8859 511.125C73.162 510.896 73.4927 510.716 73.8781 510.586C74.2635 510.456 74.6932 510.391 75.1672 510.391C75.8443 510.391 76.4224 510.51 76.9016 510.75C77.3807 510.99 77.7479 511.31 78.0031 511.711C78.2583 512.107 78.3859 512.547 78.3859 513.031H76.9406C76.9406 512.797 76.8703 512.57 76.7297 512.352C76.5943 512.128 76.3937 511.943 76.1281 511.797C75.8677 511.651 75.5474 511.578 75.1672 511.578C74.7661 511.578 74.4406 511.641 74.1906 511.766C73.9458 511.885 73.7661 512.039 73.6516 512.227C73.5422 512.414 73.4875 512.612 73.4875 512.82C73.4875 512.977 73.5135 513.117 73.5656 513.242C73.6229 513.362 73.7219 513.474 73.8625 513.578C74.0031 513.677 74.201 513.771 74.4562 513.859C74.7115 513.948 75.037 514.036 75.4328 514.125C76.1255 514.281 76.6958 514.469 77.1437 514.688C77.5917 514.906 77.925 515.174 78.1437 515.492C78.3625 515.81 78.4719 516.195 78.4719 516.648C78.4719 517.018 78.3937 517.357 78.2375 517.664C78.0865 517.971 77.8651 518.237 77.5734 518.461C77.287 518.68 76.9432 518.852 76.5422 518.977C76.1464 519.096 75.701 519.156 75.2062 519.156C74.4615 519.156 73.8312 519.023 73.3156 518.758C72.8 518.492 72.4094 518.148 72.1437 517.727C71.8781 517.305 71.7453 516.859 71.7453 516.391H73.1984C73.2193 516.786 73.3339 517.102 73.5422 517.336C73.7505 517.565 74.0057 517.729 74.3078 517.828C74.6099 517.922 74.9094 517.969 75.2062 517.969C75.6021 517.969 75.9328 517.917 76.1984 517.812C76.4693 517.708 76.675 517.565 76.8156 517.383C76.9562 517.201 77.0266 516.992 77.0266 516.758ZM85.4422 516.758C85.4422 516.549 85.3953 516.357 85.3016 516.18C85.213 515.997 85.0281 515.833 84.7469 515.688C84.4708 515.536 84.0542 515.406 83.4969 515.297C83.0281 515.198 82.6036 515.081 82.2234 514.945C81.8484 514.81 81.5281 514.646 81.2625 514.453C81.0021 514.26 80.8016 514.034 80.6609 513.773C80.5203 513.513 80.45 513.208 80.45 512.859C80.45 512.526 80.5229 512.211 80.6688 511.914C80.8198 511.617 81.0307 511.354 81.3016 511.125C81.5776 510.896 81.9083 510.716 82.2938 510.586C82.6792 510.456 83.1089 510.391 83.5828 510.391C84.2599 510.391 84.838 510.51 85.3172 510.75C85.7964 510.99 86.1635 511.31 86.4188 511.711C86.674 512.107 86.8016 512.547 86.8016 513.031H85.3563C85.3563 512.797 85.2859 512.57 85.1453 512.352C85.0099 512.128 84.8094 511.943 84.5438 511.797C84.2833 511.651 83.963 511.578 83.5828 511.578C83.1818 511.578 82.8563 511.641 82.6063 511.766C82.3615 511.885 82.1818 512.039 82.0672 512.227C81.9578 512.414 81.9031 512.612 81.9031 512.82C81.9031 512.977 81.9292 513.117 81.9813 513.242C82.0385 513.362 82.1375 513.474 82.2781 513.578C82.4188 513.677 82.6167 513.771 82.8719 513.859C83.1271 513.948 83.4526 514.036 83.8484 514.125C84.5411 514.281 85.1115 514.469 85.5594 514.688C86.0073 514.906 86.3406 515.174 86.5594 515.492C86.7781 515.81 86.8875 516.195 86.8875 516.648C86.8875 517.018 86.8094 517.357 86.6531 517.664C86.5021 517.971 86.2807 518.237 85.9891 518.461C85.7026 518.68 85.3589 518.852 84.9578 518.977C84.562 519.096 84.1167 519.156 83.6219 519.156C82.8771 519.156 82.2469 519.023 81.7313 518.758C81.2156 518.492 80.825 518.148 80.5594 517.727C80.2938 517.305 80.1609 516.859 80.1609 516.391H81.6141C81.6349 516.786 81.7495 517.102 81.9578 517.336C82.1661 517.565 82.4214 517.729 82.7234 517.828C83.0255 517.922 83.325 517.969 83.6219 517.969C84.0177 517.969 84.3484 517.917 84.6141 517.812C84.8849 517.708 85.0906 517.565 85.2313 517.383C85.3719 517.201 85.4422 516.992 85.4422 516.758ZM91.0766 517.5L93.2484 510.547H94.2016L94.0141 511.93L91.8031 519H90.8734L91.0766 517.5ZM89.6156 510.547L91.4672 517.578L91.6 519H90.6234L88.1703 510.547H89.6156ZM96.2797 517.523L98.0453 510.547H99.4828L97.0297 519H96.0609L96.2797 517.523ZM94.4125 510.547L96.5375 517.383L96.7797 519H95.8578L93.5844 511.914L93.3969 510.547H94.4125ZM100.734 514.867V514.688C100.734 514.078 100.823 513.513 101 512.992C101.177 512.466 101.432 512.01 101.766 511.625C102.099 511.234 102.503 510.932 102.977 510.719C103.451 510.5 103.982 510.391 104.57 510.391C105.164 510.391 105.698 510.5 106.172 510.719C106.651 510.932 107.057 511.234 107.391 511.625C107.729 512.01 107.987 512.466 108.164 512.992C108.341 513.513 108.43 514.078 108.43 514.688V514.867C108.43 515.477 108.341 516.042 108.164 516.562C107.987 517.083 107.729 517.539 107.391 517.93C107.057 518.315 106.654 518.617 106.18 518.836C105.711 519.049 105.18 519.156 104.586 519.156C103.992 519.156 103.458 519.049 102.984 518.836C102.51 518.617 102.104 518.315 101.766 517.93C101.432 517.539 101.177 517.083 101 516.562C100.823 516.042 100.734 515.477 100.734 514.867ZM102.18 514.688V514.867C102.18 515.289 102.229 515.688 102.328 516.062C102.427 516.432 102.576 516.76 102.773 517.047C102.977 517.333 103.229 517.56 103.531 517.727C103.833 517.888 104.185 517.969 104.586 517.969C104.982 517.969 105.328 517.888 105.625 517.727C105.927 517.56 106.177 517.333 106.375 517.047C106.573 516.76 106.721 516.432 106.82 516.062C106.924 515.688 106.977 515.289 106.977 514.867V514.688C106.977 514.271 106.924 513.878 106.82 513.508C106.721 513.133 106.57 512.802 106.367 512.516C106.169 512.224 105.919 511.995 105.617 511.828C105.32 511.661 104.971 511.578 104.57 511.578C104.174 511.578 103.826 511.661 103.523 511.828C103.227 511.995 102.977 512.224 102.773 512.516C102.576 512.802 102.427 513.133 102.328 513.508C102.229 513.878 102.18 514.271 102.18 514.688ZM111.838 511.875V519H110.392V510.547H111.798L111.838 511.875ZM114.478 510.5L114.47 511.844C114.351 511.818 114.236 511.802 114.127 511.797C114.022 511.786 113.903 511.781 113.767 511.781C113.434 511.781 113.14 511.833 112.884 511.938C112.629 512.042 112.413 512.188 112.236 512.375C112.059 512.562 111.918 512.786 111.814 513.047C111.715 513.302 111.65 513.583 111.619 513.891L111.213 514.125C111.213 513.615 111.262 513.135 111.361 512.688C111.465 512.24 111.624 511.844 111.838 511.5C112.051 511.151 112.322 510.88 112.65 510.688C112.983 510.49 113.379 510.391 113.838 510.391C113.942 510.391 114.061 510.404 114.197 510.43C114.332 510.451 114.426 510.474 114.478 510.5ZM121.136 517.359V507H122.589V519H121.261L121.136 517.359ZM115.448 514.867V514.703C115.448 514.057 115.527 513.471 115.683 512.945C115.844 512.414 116.071 511.958 116.362 511.578C116.659 511.198 117.011 510.906 117.417 510.703C117.829 510.495 118.287 510.391 118.792 510.391C119.323 510.391 119.787 510.484 120.183 510.672C120.584 510.854 120.922 511.122 121.198 511.477C121.48 511.826 121.701 512.247 121.862 512.742C122.024 513.237 122.136 513.797 122.198 514.422V515.141C122.141 515.76 122.029 516.318 121.862 516.812C121.701 517.307 121.48 517.729 121.198 518.078C120.922 518.427 120.584 518.695 120.183 518.883C119.782 519.065 119.313 519.156 118.777 519.156C118.282 519.156 117.829 519.049 117.417 518.836C117.011 518.622 116.659 518.323 116.362 517.938C116.071 517.552 115.844 517.099 115.683 516.578C115.527 516.052 115.448 515.482 115.448 514.867ZM116.902 514.703V514.867C116.902 515.289 116.943 515.685 117.027 516.055C117.115 516.424 117.251 516.75 117.433 517.031C117.615 517.312 117.847 517.534 118.128 517.695C118.409 517.852 118.745 517.93 119.136 517.93C119.615 517.93 120.008 517.828 120.316 517.625C120.628 517.422 120.878 517.154 121.066 516.82C121.253 516.487 121.399 516.125 121.503 515.734V513.852C121.441 513.565 121.349 513.289 121.23 513.023C121.115 512.753 120.964 512.513 120.777 512.305C120.594 512.091 120.368 511.922 120.097 511.797C119.831 511.672 119.516 511.609 119.152 511.609C118.756 511.609 118.415 511.693 118.128 511.859C117.847 512.021 117.615 512.245 117.433 512.531C117.251 512.812 117.115 513.141 117.027 513.516C116.943 513.885 116.902 514.281 116.902 514.703Z" fill="#BAB4B6"/>
<path fill-rule="evenodd" clip-rule="evenodd" d="M331 507C326 507 321.73 510.11 320 514.5C321.73 518.89 326 522 331 522C336 522 340.27 518.89 342 514.5C340.27 510.11 336 507 331 507ZM331 519.5C328.24 519.5 326 517.26 326 514.5C326 511.74 328.24 509.5 331 509.5C333.76 509.5 336 511.74 336 514.5C336 517.26 333.76 519.5 331 519.5ZM331 511.5C329.34 511.5 328 512.84 328 514.5C328 516.16 329.34 517.5 331 517.5C332.66 517.5 334 516.16 334 514.5C334 512.84 332.66 511.5 331 511.5Z" fill="#BAB4B6"/>
<path d="M53.7344 743.953V744.672C53.7344 745.526 53.6276 746.292 53.4141 746.969C53.2005 747.646 52.8932 748.221 52.4922 748.695C52.0911 749.169 51.6094 749.531 51.0469 749.781C50.4896 750.031 49.8646 750.156 49.1719 750.156C48.5 750.156 47.8828 750.031 47.3203 749.781C46.763 749.531 46.2786 749.169 45.8672 748.695C45.4609 748.221 45.1458 747.646 44.9219 746.969C44.6979 746.292 44.5859 745.526 44.5859 744.672V743.953C44.5859 743.099 44.6953 742.336 44.9141 741.664C45.138 740.987 45.4531 740.411 45.8594 739.938C46.2656 739.458 46.7474 739.094 47.3047 738.844C47.8672 738.594 48.4844 738.469 49.1562 738.469C49.849 738.469 50.474 738.594 51.0312 738.844C51.5938 739.094 52.0755 739.458 52.4766 739.938C52.8828 740.411 53.1927 740.987 53.4062 741.664C53.625 742.336 53.7344 743.099 53.7344 743.953ZM52.2422 744.672V743.938C52.2422 743.26 52.1719 742.661 52.0312 742.141C51.8958 741.62 51.6953 741.182 51.4297 740.828C51.1641 740.474 50.8385 740.206 50.4531 740.023C50.0729 739.841 49.6406 739.75 49.1562 739.75C48.6875 739.75 48.263 739.841 47.8828 740.023C47.5078 740.206 47.1849 740.474 46.9141 740.828C46.6484 741.182 46.4427 741.62 46.2969 742.141C46.151 742.661 46.0781 743.26 46.0781 743.938V744.672C46.0781 745.354 46.151 745.958 46.2969 746.484C46.4427 747.005 46.651 747.445 46.9219 747.805C47.1979 748.159 47.5234 748.427 47.8984 748.609C48.2786 748.792 48.7031 748.883 49.1719 748.883C49.6615 748.883 50.0964 748.792 50.4766 748.609C50.8568 748.427 51.1771 748.159 51.4375 747.805C51.7031 747.445 51.9036 747.005 52.0391 746.484C52.1745 745.958 52.2422 745.354 52.2422 744.672ZM57.3687 742.875V750H55.9234V741.547H57.3297L57.3687 742.875ZM60.0094 741.5L60.0016 742.844C59.8818 742.818 59.7672 742.802 59.6578 742.797C59.5536 742.786 59.4339 742.781 59.2984 742.781C58.9651 742.781 58.6708 742.833 58.4156 742.938C58.1604 743.042 57.9443 743.188 57.7672 743.375C57.5901 743.562 57.4495 743.786 57.3453 744.047C57.2464 744.302 57.1812 744.583 57.15 744.891L56.7437 745.125C56.7437 744.615 56.7932 744.135 56.8922 743.688C56.9964 743.24 57.1552 742.844 57.3687 742.5C57.5823 742.151 57.8531 741.88 58.1812 741.688C58.5146 741.49 58.9104 741.391 59.3687 741.391C59.4729 741.391 59.5927 741.404 59.7281 741.43C59.8635 741.451 59.9573 741.474 60.0094 741.5ZM70.5359 747.758C70.5359 747.549 70.4891 747.357 70.3953 747.18C70.3068 746.997 70.1219 746.833 69.8406 746.688C69.5646 746.536 69.1479 746.406 68.5906 746.297C68.1219 746.198 67.6974 746.081 67.3172 745.945C66.9422 745.81 66.6219 745.646 66.3563 745.453C66.0958 745.26 65.8953 745.034 65.7547 744.773C65.6141 744.513 65.5438 744.208 65.5438 743.859C65.5438 743.526 65.6167 743.211 65.7625 742.914C65.9135 742.617 66.1245 742.354 66.3953 742.125C66.6714 741.896 67.0021 741.716 67.3875 741.586C67.7729 741.456 68.2026 741.391 68.6766 741.391C69.3536 741.391 69.9318 741.51 70.4109 741.75C70.8901 741.99 71.2573 742.31 71.5125 742.711C71.7677 743.107 71.8953 743.547 71.8953 744.031H70.45C70.45 743.797 70.3797 743.57 70.2391 743.352C70.1036 743.128 69.9031 742.943 69.6375 742.797C69.3771 742.651 69.0568 742.578 68.6766 742.578C68.2755 742.578 67.95 742.641 67.7 742.766C67.4552 742.885 67.2755 743.039 67.1609 743.227C67.0516 743.414 66.9969 743.612 66.9969 743.82C66.9969 743.977 67.0229 744.117 67.075 744.242C67.1323 744.362 67.2313 744.474 67.3719 744.578C67.5125 744.677 67.7104 744.771 67.9656 744.859C68.2208 744.948 68.5464 745.036 68.9422 745.125C69.6349 745.281 70.2052 745.469 70.6531 745.688C71.101 745.906 71.4344 746.174 71.6531 746.492C71.8719 746.81 71.9813 747.195 71.9813 747.648C71.9813 748.018 71.9031 748.357 71.7469 748.664C71.5958 748.971 71.3745 749.237 71.0828 749.461C70.7964 749.68 70.4526 749.852 70.0516 749.977C69.6557 750.096 69.2104 750.156 68.7156 750.156C67.9708 750.156 67.3406 750.023 66.825 749.758C66.3094 749.492 65.9188 749.148 65.6531 748.727C65.3875 748.305 65.2547 747.859 65.2547 747.391H66.7078C66.7286 747.786 66.8432 748.102 67.0516 748.336C67.2599 748.565 67.5151 748.729 67.8172 748.828C68.1193 748.922 68.4188 748.969 68.7156 748.969C69.1115 748.969 69.4422 748.917 69.7078 748.812C69.9786 748.708 70.1844 748.565 70.325 748.383C70.4656 748.201 70.5359 747.992 70.5359 747.758ZM75.6 741.547V750H74.1469V741.547H75.6ZM74.0375 739.305C74.0375 739.07 74.1078 738.872 74.2484 738.711C74.3943 738.549 74.6078 738.469 74.8891 738.469C75.1651 738.469 75.376 738.549 75.5219 738.711C75.6729 738.872 75.7484 739.07 75.7484 739.305C75.7484 739.529 75.6729 739.721 75.5219 739.883C75.376 740.039 75.1651 740.117 74.8891 740.117C74.6078 740.117 74.3943 740.039 74.2484 739.883C74.1078 739.721 74.0375 739.529 74.0375 739.305ZM83.5469 741.547H84.8594V749.82C84.8594 750.565 84.7083 751.201 84.4062 751.727C84.1042 752.253 83.6823 752.651 83.1406 752.922C82.6042 753.198 81.9844 753.336 81.2812 753.336C80.9896 753.336 80.6458 753.289 80.25 753.195C79.8594 753.107 79.474 752.953 79.0938 752.734C78.7188 752.521 78.4036 752.232 78.1484 751.867L78.9062 751.008C79.2604 751.435 79.6302 751.732 80.0156 751.898C80.4062 752.065 80.7917 752.148 81.1719 752.148C81.6302 752.148 82.026 752.062 82.3594 751.891C82.6927 751.719 82.9505 751.464 83.1328 751.125C83.3203 750.792 83.4141 750.38 83.4141 749.891V743.406L83.5469 741.547ZM77.7266 745.867V745.703C77.7266 745.057 77.8021 744.471 77.9531 743.945C78.1094 743.414 78.3307 742.958 78.6172 742.578C78.9089 742.198 79.2604 741.906 79.6719 741.703C80.0833 741.495 80.5469 741.391 81.0625 741.391C81.5938 741.391 82.0573 741.484 82.4531 741.672C82.8542 741.854 83.1927 742.122 83.4688 742.477C83.75 742.826 83.9714 743.247 84.1328 743.742C84.2943 744.237 84.4062 744.797 84.4688 745.422V746.141C84.4115 746.76 84.2995 747.318 84.1328 747.812C83.9714 748.307 83.75 748.729 83.4688 749.078C83.1927 749.427 82.8542 749.695 82.4531 749.883C82.0521 750.065 81.5833 750.156 81.0469 750.156C80.5417 750.156 80.0833 750.049 79.6719 749.836C79.2656 749.622 78.9167 749.323 78.625 748.938C78.3333 748.552 78.1094 748.099 77.9531 747.578C77.8021 747.052 77.7266 746.482 77.7266 745.867ZM79.1719 745.703V745.867C79.1719 746.289 79.2135 746.685 79.2969 747.055C79.3854 747.424 79.5182 747.75 79.6953 748.031C79.8776 748.312 80.1094 748.534 80.3906 748.695C80.6719 748.852 81.0078 748.93 81.3984 748.93C81.8776 748.93 82.2734 748.828 82.5859 748.625C82.8984 748.422 83.1458 748.154 83.3281 747.82C83.5156 747.487 83.6615 747.125 83.7656 746.734V744.852C83.7083 744.565 83.6198 744.289 83.5 744.023C83.3854 743.753 83.2344 743.513 83.0469 743.305C82.8646 743.091 82.638 742.922 82.3672 742.797C82.0964 742.672 81.7786 742.609 81.4141 742.609C81.0182 742.609 80.6771 742.693 80.3906 742.859C80.1094 743.021 79.8776 743.245 79.6953 743.531C79.5182 743.812 79.3854 744.141 79.2969 744.516C79.2135 744.885 79.1719 745.281 79.1719 745.703ZM88.65 743.352V750H87.2047V741.547H88.5719L88.65 743.352ZM88.3063 745.453L87.7047 745.43C87.7099 744.852 87.7958 744.318 87.9625 743.828C88.1292 743.333 88.3635 742.904 88.6656 742.539C88.9677 742.174 89.3271 741.893 89.7438 741.695C90.1656 741.492 90.6318 741.391 91.1422 741.391C91.5589 741.391 91.9339 741.448 92.2672 741.562C92.6005 741.672 92.8844 741.849 93.1188 742.094C93.3583 742.339 93.5406 742.656 93.6656 743.047C93.7906 743.432 93.8531 743.904 93.8531 744.461V750H92.4V744.445C92.4 744.003 92.3349 743.648 92.2047 743.383C92.0745 743.112 91.8844 742.917 91.6344 742.797C91.3844 742.672 91.0771 742.609 90.7125 742.609C90.3531 742.609 90.025 742.685 89.7281 742.836C89.4365 742.987 89.1839 743.195 88.9703 743.461C88.762 743.727 88.5979 744.031 88.4781 744.375C88.3635 744.714 88.3063 745.073 88.3063 745.453ZM105.489 748.047V741.547H106.942V750H105.559L105.489 748.047ZM105.763 746.266L106.364 746.25C106.364 746.812 106.304 747.333 106.184 747.812C106.07 748.286 105.882 748.698 105.622 749.047C105.361 749.396 105.02 749.669 104.598 749.867C104.177 750.06 103.664 750.156 103.059 750.156C102.648 750.156 102.27 750.096 101.927 749.977C101.588 749.857 101.296 749.672 101.052 749.422C100.807 749.172 100.617 748.846 100.481 748.445C100.351 748.044 100.286 747.562 100.286 747V741.547H101.731V747.016C101.731 747.396 101.773 747.711 101.856 747.961C101.945 748.206 102.062 748.401 102.208 748.547C102.359 748.688 102.526 748.786 102.708 748.844C102.895 748.901 103.088 748.93 103.286 748.93C103.901 748.93 104.388 748.812 104.747 748.578C105.106 748.339 105.364 748.018 105.52 747.617C105.682 747.211 105.763 746.76 105.763 746.266ZM110.741 743.172V753.25H109.287V741.547H110.616L110.741 743.172ZM116.436 745.703V745.867C116.436 746.482 116.363 747.052 116.217 747.578C116.071 748.099 115.858 748.552 115.577 748.938C115.301 749.323 114.959 749.622 114.553 749.836C114.147 750.049 113.681 750.156 113.155 750.156C112.618 750.156 112.144 750.068 111.733 749.891C111.321 749.714 110.972 749.456 110.686 749.117C110.399 748.779 110.17 748.372 109.998 747.898C109.832 747.424 109.717 746.891 109.655 746.297V745.422C109.717 744.797 109.834 744.237 110.006 743.742C110.178 743.247 110.405 742.826 110.686 742.477C110.972 742.122 111.319 741.854 111.725 741.672C112.131 741.484 112.6 741.391 113.131 741.391C113.662 741.391 114.134 741.495 114.545 741.703C114.957 741.906 115.303 742.198 115.584 742.578C115.866 742.958 116.077 743.414 116.217 743.945C116.363 744.471 116.436 745.057 116.436 745.703ZM114.983 745.867V745.703C114.983 745.281 114.939 744.885 114.85 744.516C114.761 744.141 114.623 743.812 114.436 743.531C114.254 743.245 114.019 743.021 113.733 742.859C113.446 742.693 113.105 742.609 112.709 742.609C112.345 742.609 112.027 742.672 111.756 742.797C111.491 742.922 111.264 743.091 111.077 743.305C110.889 743.513 110.735 743.753 110.616 744.023C110.501 744.289 110.415 744.565 110.358 744.852V746.875C110.462 747.24 110.608 747.583 110.795 747.906C110.983 748.224 111.233 748.482 111.545 748.68C111.858 748.872 112.251 748.969 112.725 748.969C113.116 748.969 113.452 748.888 113.733 748.727C114.019 748.56 114.254 748.333 114.436 748.047C114.623 747.76 114.761 747.432 114.85 747.062C114.939 746.688 114.983 746.289 114.983 745.867ZM124.689 748.5L126.861 741.547H127.814L127.627 742.93L125.416 750H124.486L124.689 748.5ZM123.228 741.547L125.08 748.578L125.213 750H124.236L121.783 741.547H123.228ZM129.892 748.523L131.658 741.547H133.095L130.642 750H129.673L129.892 748.523ZM128.025 741.547L130.15 748.383L130.392 750H129.47L127.197 742.914L127.009 741.547H128.025ZM136.3 741.547V750H134.847V741.547H136.3ZM134.738 739.305C134.738 739.07 134.808 738.872 134.948 738.711C135.094 738.549 135.308 738.469 135.589 738.469C135.865 738.469 136.076 738.549 136.222 738.711C136.373 738.872 136.448 739.07 136.448 739.305C136.448 739.529 136.373 739.721 136.222 739.883C136.076 740.039 135.865 740.117 135.589 740.117C135.308 740.117 135.094 740.039 134.948 739.883C134.808 739.721 134.738 739.529 134.738 739.305ZM142.309 741.547V742.656H137.739V741.547H142.309ZM139.286 739.492H140.731V747.906C140.731 748.193 140.776 748.409 140.864 748.555C140.953 748.701 141.067 748.797 141.208 748.844C141.348 748.891 141.499 748.914 141.661 748.914C141.781 748.914 141.906 748.904 142.036 748.883C142.171 748.857 142.273 748.836 142.341 748.82L142.348 750C142.234 750.036 142.083 750.07 141.895 750.102C141.713 750.138 141.492 750.156 141.231 750.156C140.877 750.156 140.552 750.086 140.255 749.945C139.958 749.805 139.721 749.57 139.544 749.242C139.372 748.909 139.286 748.461 139.286 747.898V739.492ZM145.6 738V750H144.155V738H145.6ZM145.256 745.453L144.655 745.43C144.66 744.852 144.746 744.318 144.912 743.828C145.079 743.333 145.314 742.904 145.616 742.539C145.918 742.174 146.277 741.893 146.694 741.695C147.116 741.492 147.582 741.391 148.092 741.391C148.509 741.391 148.884 741.448 149.217 741.562C149.551 741.672 149.834 741.849 150.069 742.094C150.308 742.339 150.491 742.656 150.616 743.047C150.741 743.432 150.803 743.904 150.803 744.461V750H149.35V744.445C149.35 744.003 149.285 743.648 149.155 743.383C149.024 743.112 148.834 742.917 148.584 742.797C148.334 742.672 148.027 742.609 147.662 742.609C147.303 742.609 146.975 742.685 146.678 742.836C146.386 742.987 146.134 743.195 145.92 743.461C145.712 743.727 145.548 744.031 145.428 744.375C145.314 744.714 145.256 745.073 145.256 745.453ZM159.611 749.125L161.963 741.547H163.509L160.119 751.305C160.041 751.513 159.936 751.737 159.806 751.977C159.681 752.221 159.52 752.453 159.322 752.672C159.124 752.891 158.884 753.068 158.603 753.203C158.327 753.344 157.996 753.414 157.611 753.414C157.496 753.414 157.351 753.398 157.173 753.367C156.996 753.336 156.871 753.31 156.798 753.289L156.791 752.117C156.832 752.122 156.897 752.128 156.986 752.133C157.08 752.143 157.145 752.148 157.181 752.148C157.509 752.148 157.788 752.104 158.017 752.016C158.246 751.932 158.439 751.789 158.595 751.586C158.757 751.388 158.895 751.115 159.009 750.766L159.611 749.125ZM157.884 741.547L160.08 748.109L160.455 749.633L159.416 750.164L156.306 741.547H157.884ZM164.456 745.867V745.688C164.456 745.078 164.545 744.513 164.722 743.992C164.899 743.466 165.154 743.01 165.488 742.625C165.821 742.234 166.224 741.932 166.698 741.719C167.172 741.5 167.704 741.391 168.292 741.391C168.886 741.391 169.42 741.5 169.894 741.719C170.373 741.932 170.779 742.234 171.113 742.625C171.451 743.01 171.709 743.466 171.886 743.992C172.063 744.513 172.152 745.078 172.152 745.688V745.867C172.152 746.477 172.063 747.042 171.886 747.562C171.709 748.083 171.451 748.539 171.113 748.93C170.779 749.315 170.376 749.617 169.902 749.836C169.433 750.049 168.902 750.156 168.308 750.156C167.714 750.156 167.18 750.049 166.706 749.836C166.232 749.617 165.826 749.315 165.488 748.93C165.154 748.539 164.899 748.083 164.722 747.562C164.545 747.042 164.456 746.477 164.456 745.867ZM165.902 745.688V745.867C165.902 746.289 165.951 746.688 166.05 747.062C166.149 747.432 166.297 747.76 166.495 748.047C166.698 748.333 166.951 748.56 167.253 748.727C167.555 748.888 167.907 748.969 168.308 748.969C168.704 748.969 169.05 748.888 169.347 748.727C169.649 748.56 169.899 748.333 170.097 748.047C170.295 747.76 170.443 747.432 170.542 747.062C170.646 746.688 170.698 746.289 170.698 745.867V745.688C170.698 745.271 170.646 744.878 170.542 744.508C170.443 744.133 170.292 743.802 170.089 743.516C169.891 743.224 169.641 742.995 169.339 742.828C169.042 742.661 168.693 742.578 168.292 742.578C167.896 742.578 167.547 742.661 167.245 742.828C166.948 742.995 166.698 743.224 166.495 743.516C166.297 743.802 166.149 744.133 166.05 744.508C165.951 744.878 165.902 745.271 165.902 745.688ZM179.286 748.047V741.547H180.739V750H179.356L179.286 748.047ZM179.559 746.266L180.161 746.25C180.161 746.812 180.101 747.333 179.981 747.812C179.867 748.286 179.679 748.698 179.419 749.047C179.158 749.396 178.817 749.669 178.395 749.867C177.973 750.06 177.46 750.156 176.856 750.156C176.445 750.156 176.067 750.096 175.723 749.977C175.385 749.857 175.093 749.672 174.848 749.422C174.604 749.172 174.414 748.846 174.278 748.445C174.148 748.044 174.083 747.562 174.083 747V741.547H175.528V747.016C175.528 747.396 175.57 747.711 175.653 747.961C175.742 748.206 175.859 748.401 176.005 748.547C176.156 748.688 176.322 748.786 176.505 748.844C176.692 748.901 176.885 748.93 177.083 748.93C177.697 748.93 178.184 748.812 178.544 748.578C178.903 748.339 179.161 748.018 179.317 747.617C179.479 747.211 179.559 746.76 179.559 746.266ZM184.538 742.875V750H183.092V741.547H184.498L184.538 742.875ZM187.178 741.5L187.17 742.844C187.051 742.818 186.936 742.802 186.827 742.797C186.722 742.786 186.603 742.781 186.467 742.781C186.134 742.781 185.84 742.833 185.584 742.938C185.329 743.042 185.113 743.188 184.936 743.375C184.759 743.562 184.618 743.786 184.514 744.047C184.415 744.302 184.35 744.583 184.319 744.891L183.913 745.125C183.913 744.615 183.962 744.135 184.061 743.688C184.165 743.24 184.324 742.844 184.538 742.5C184.751 742.151 185.022 741.88 185.35 741.688C185.683 741.49 186.079 741.391 186.538 741.391C186.642 741.391 186.761 741.404 186.897 741.43C187.032 741.451 187.126 741.474 187.178 741.5ZM197.705 747.758C197.705 747.549 197.658 747.357 197.564 747.18C197.476 746.997 197.291 746.833 197.009 746.688C196.733 746.536 196.317 746.406 195.759 746.297C195.291 746.198 194.866 746.081 194.486 745.945C194.111 745.81 193.791 745.646 193.525 745.453C193.265 745.26 193.064 745.034 192.923 744.773C192.783 744.513 192.712 744.208 192.712 743.859C192.712 743.526 192.785 743.211 192.931 742.914C193.082 742.617 193.293 742.354 193.564 742.125C193.84 741.896 194.171 741.716 194.556 741.586C194.942 741.456 195.371 741.391 195.845 741.391C196.522 741.391 197.101 741.51 197.58 741.75C198.059 741.99 198.426 742.31 198.681 742.711C198.936 743.107 199.064 743.547 199.064 744.031H197.619C197.619 743.797 197.548 743.57 197.408 743.352C197.272 743.128 197.072 742.943 196.806 742.797C196.546 742.651 196.226 742.578 195.845 742.578C195.444 742.578 195.119 742.641 194.869 742.766C194.624 742.885 194.444 743.039 194.33 743.227C194.22 743.414 194.166 743.612 194.166 743.82C194.166 743.977 194.192 744.117 194.244 744.242C194.301 744.362 194.4 744.474 194.541 744.578C194.681 744.677 194.879 744.771 195.134 744.859C195.39 744.948 195.715 745.036 196.111 745.125C196.804 745.281 197.374 745.469 197.822 745.688C198.27 745.906 198.603 746.174 198.822 746.492C199.041 746.81 199.15 747.195 199.15 747.648C199.15 748.018 199.072 748.357 198.916 748.664C198.765 748.971 198.543 749.237 198.252 749.461C197.965 749.68 197.621 749.852 197.22 749.977C196.824 750.096 196.379 750.156 195.884 750.156C195.14 750.156 194.509 750.023 193.994 749.758C193.478 749.492 193.087 749.148 192.822 748.727C192.556 748.305 192.423 747.859 192.423 747.391H193.877C193.897 747.786 194.012 748.102 194.22 748.336C194.429 748.565 194.684 748.729 194.986 748.828C195.288 748.922 195.587 748.969 195.884 748.969C196.28 748.969 196.611 748.917 196.877 748.812C197.147 748.708 197.353 748.565 197.494 748.383C197.634 748.201 197.705 747.992 197.705 747.758ZM200.816 745.867V745.688C200.816 745.078 200.904 744.513 201.081 743.992C201.258 743.466 201.514 743.01 201.847 742.625C202.18 742.234 202.584 741.932 203.058 741.719C203.532 741.5 204.063 741.391 204.652 741.391C205.245 741.391 205.779 741.5 206.253 741.719C206.732 741.932 207.139 742.234 207.472 742.625C207.81 743.01 208.068 743.466 208.245 743.992C208.422 744.513 208.511 745.078 208.511 745.688V745.867C208.511 746.477 208.422 747.042 208.245 747.562C208.068 748.083 207.81 748.539 207.472 748.93C207.139 749.315 206.735 749.617 206.261 749.836C205.792 750.049 205.261 750.156 204.667 750.156C204.073 750.156 203.54 750.049 203.066 749.836C202.592 749.617 202.185 749.315 201.847 748.93C201.514 748.539 201.258 748.083 201.081 747.562C200.904 747.042 200.816 746.477 200.816 745.867ZM202.261 745.688V745.867C202.261 746.289 202.31 746.688 202.409 747.062C202.508 747.432 202.657 747.76 202.855 748.047C203.058 748.333 203.31 748.56 203.613 748.727C203.915 748.888 204.266 748.969 204.667 748.969C205.063 748.969 205.409 748.888 205.706 748.727C206.008 748.56 206.258 748.333 206.456 748.047C206.654 747.76 206.803 747.432 206.902 747.062C207.006 746.688 207.058 746.289 207.058 745.867V745.688C207.058 745.271 207.006 744.878 206.902 744.508C206.803 744.133 206.652 743.802 206.448 743.516C206.251 743.224 206.001 742.995 205.698 742.828C205.402 742.661 205.053 742.578 204.652 742.578C204.256 742.578 203.907 742.661 203.605 742.828C203.308 742.995 203.058 743.224 202.855 743.516C202.657 743.802 202.508 744.133 202.409 744.508C202.31 744.878 202.261 745.271 202.261 745.688ZM213.856 748.969C214.2 748.969 214.518 748.898 214.809 748.758C215.101 748.617 215.341 748.424 215.528 748.18C215.716 747.93 215.822 747.646 215.848 747.328H217.223C217.197 747.828 217.028 748.294 216.716 748.727C216.408 749.154 216.005 749.5 215.505 749.766C215.005 750.026 214.455 750.156 213.856 750.156C213.221 750.156 212.666 750.044 212.192 749.82C211.723 749.596 211.333 749.289 211.02 748.898C210.713 748.508 210.481 748.06 210.325 747.555C210.174 747.044 210.098 746.505 210.098 745.938V745.609C210.098 745.042 210.174 744.505 210.325 744C210.481 743.49 210.713 743.039 211.02 742.648C211.333 742.258 211.723 741.951 212.192 741.727C212.666 741.503 213.221 741.391 213.856 741.391C214.518 741.391 215.096 741.526 215.591 741.797C216.085 742.062 216.473 742.427 216.755 742.891C217.041 743.349 217.197 743.87 217.223 744.453H215.848C215.822 744.104 215.723 743.789 215.552 743.508C215.385 743.227 215.156 743.003 214.864 742.836C214.578 742.664 214.242 742.578 213.856 742.578C213.414 742.578 213.041 742.667 212.739 742.844C212.442 743.016 212.205 743.25 212.028 743.547C211.856 743.839 211.731 744.164 211.653 744.523C211.58 744.878 211.544 745.24 211.544 745.609V745.938C211.544 746.307 211.58 746.672 211.653 747.031C211.726 747.391 211.848 747.716 212.02 748.008C212.197 748.299 212.434 748.534 212.731 748.711C213.033 748.883 213.408 748.969 213.856 748.969ZM220.569 741.547V750H219.116V741.547H220.569ZM219.006 739.305C219.006 739.07 219.077 738.872 219.217 738.711C219.363 738.549 219.577 738.469 219.858 738.469C220.134 738.469 220.345 738.549 220.491 738.711C220.642 738.872 220.717 739.07 220.717 739.305C220.717 739.529 220.642 739.721 220.491 739.883C220.345 740.039 220.134 740.117 219.858 740.117C219.577 740.117 219.363 740.039 219.217 739.883C219.077 739.721 219.006 739.529 219.006 739.305ZM228.023 748.555V744.203C228.023 743.87 227.956 743.581 227.82 743.336C227.69 743.086 227.492 742.893 227.227 742.758C226.961 742.622 226.633 742.555 226.242 742.555C225.878 742.555 225.557 742.617 225.281 742.742C225.01 742.867 224.797 743.031 224.641 743.234C224.49 743.438 224.414 743.656 224.414 743.891H222.969C222.969 743.589 223.047 743.289 223.203 742.992C223.359 742.695 223.583 742.427 223.875 742.188C224.172 741.943 224.526 741.75 224.938 741.609C225.354 741.464 225.818 741.391 226.328 741.391C226.943 741.391 227.484 741.495 227.953 741.703C228.427 741.911 228.797 742.227 229.062 742.648C229.333 743.065 229.469 743.589 229.469 744.219V748.156C229.469 748.438 229.492 748.737 229.539 749.055C229.591 749.372 229.667 749.646 229.766 749.875V750H228.258C228.185 749.833 228.128 749.612 228.086 749.336C228.044 749.055 228.023 748.794 228.023 748.555ZM228.273 744.875L228.289 745.891H226.828C226.417 745.891 226.049 745.924 225.727 745.992C225.404 746.055 225.133 746.151 224.914 746.281C224.695 746.411 224.529 746.576 224.414 746.773C224.299 746.966 224.242 747.193 224.242 747.453C224.242 747.719 224.302 747.961 224.422 748.18C224.542 748.398 224.721 748.573 224.961 748.703C225.206 748.828 225.505 748.891 225.859 748.891C226.302 748.891 226.693 748.797 227.031 748.609C227.37 748.422 227.638 748.193 227.836 747.922C228.039 747.651 228.148 747.388 228.164 747.133L228.781 747.828C228.745 748.047 228.646 748.289 228.484 748.555C228.323 748.82 228.107 749.076 227.836 749.32C227.57 749.56 227.253 749.76 226.883 749.922C226.518 750.078 226.107 750.156 225.648 750.156C225.076 750.156 224.573 750.044 224.141 749.82C223.714 749.596 223.38 749.297 223.141 748.922C222.906 748.542 222.789 748.117 222.789 747.648C222.789 747.195 222.878 746.797 223.055 746.453C223.232 746.104 223.487 745.815 223.82 745.586C224.154 745.352 224.555 745.174 225.023 745.055C225.492 744.935 226.016 744.875 226.594 744.875H228.273ZM233.462 738V750H232.009V738H233.462ZM241.489 743.227V750H240.036V741.547H241.411L241.489 743.227ZM241.192 745.453L240.52 745.43C240.526 744.852 240.601 744.318 240.747 743.828C240.893 743.333 241.109 742.904 241.395 742.539C241.682 742.174 242.039 741.893 242.466 741.695C242.893 741.492 243.387 741.391 243.95 741.391C244.346 741.391 244.71 741.448 245.044 741.562C245.377 741.672 245.666 741.846 245.911 742.086C246.156 742.326 246.346 742.633 246.481 743.008C246.617 743.383 246.684 743.836 246.684 744.367V750H245.239V744.438C245.239 743.995 245.164 743.641 245.012 743.375C244.867 743.109 244.658 742.917 244.387 742.797C244.117 742.672 243.799 742.609 243.434 742.609C243.007 742.609 242.651 742.685 242.364 742.836C242.078 742.987 241.848 743.195 241.677 743.461C241.505 743.727 241.38 744.031 241.302 744.375C241.229 744.714 241.192 745.073 241.192 745.453ZM246.669 744.656L245.7 744.953C245.705 744.49 245.781 744.044 245.927 743.617C246.078 743.19 246.294 742.81 246.575 742.477C246.861 742.143 247.213 741.88 247.63 741.688C248.046 741.49 248.523 741.391 249.059 741.391C249.512 741.391 249.914 741.451 250.262 741.57C250.617 741.69 250.914 741.875 251.153 742.125C251.398 742.37 251.583 742.685 251.708 743.07C251.833 743.456 251.895 743.914 251.895 744.445V750H250.442V744.43C250.442 743.956 250.367 743.589 250.216 743.328C250.07 743.062 249.861 742.878 249.591 742.773C249.325 742.664 249.007 742.609 248.637 742.609C248.32 742.609 248.039 742.664 247.794 742.773C247.549 742.883 247.343 743.034 247.177 743.227C247.01 743.414 246.882 743.63 246.794 743.875C246.71 744.12 246.669 744.38 246.669 744.656ZM257.741 750.156C257.152 750.156 256.618 750.057 256.139 749.859C255.665 749.656 255.256 749.372 254.913 749.008C254.574 748.643 254.314 748.211 254.131 747.711C253.949 747.211 253.858 746.664 253.858 746.07V745.742C253.858 745.055 253.959 744.443 254.163 743.906C254.366 743.365 254.642 742.906 254.991 742.531C255.34 742.156 255.735 741.872 256.178 741.68C256.621 741.487 257.079 741.391 257.553 741.391C258.157 741.391 258.678 741.495 259.116 741.703C259.558 741.911 259.92 742.203 260.202 742.578C260.483 742.948 260.691 743.385 260.827 743.891C260.962 744.391 261.03 744.938 261.03 745.531V746.18H254.717V745H259.584V744.891C259.564 744.516 259.485 744.151 259.35 743.797C259.22 743.443 259.011 743.151 258.725 742.922C258.439 742.693 258.048 742.578 257.553 742.578C257.225 742.578 256.923 742.648 256.647 742.789C256.371 742.924 256.134 743.128 255.936 743.398C255.738 743.669 255.584 744 255.475 744.391C255.366 744.781 255.311 745.232 255.311 745.742V746.07C255.311 746.471 255.366 746.849 255.475 747.203C255.59 747.552 255.754 747.859 255.967 748.125C256.186 748.391 256.449 748.599 256.756 748.75C257.069 748.901 257.423 748.977 257.819 748.977C258.329 748.977 258.761 748.872 259.116 748.664C259.47 748.456 259.78 748.177 260.045 747.828L260.92 748.523C260.738 748.799 260.506 749.062 260.225 749.312C259.944 749.562 259.597 749.766 259.186 749.922C258.78 750.078 258.298 750.156 257.741 750.156ZM268.195 748.359V738H269.648V750H268.32L268.195 748.359ZM262.508 745.867V745.703C262.508 745.057 262.586 744.471 262.742 743.945C262.904 743.414 263.13 742.958 263.422 742.578C263.719 742.198 264.07 741.906 264.477 741.703C264.888 741.495 265.346 741.391 265.852 741.391C266.383 741.391 266.846 741.484 267.242 741.672C267.643 741.854 267.982 742.122 268.258 742.477C268.539 742.826 268.76 743.247 268.922 743.742C269.083 744.237 269.195 744.797 269.258 745.422V746.141C269.201 746.76 269.089 747.318 268.922 747.812C268.76 748.307 268.539 748.729 268.258 749.078C267.982 749.427 267.643 749.695 267.242 749.883C266.841 750.065 266.372 750.156 265.836 750.156C265.341 750.156 264.888 750.049 264.477 749.836C264.07 749.622 263.719 749.323 263.422 748.938C263.13 748.552 262.904 748.099 262.742 747.578C262.586 747.052 262.508 746.482 262.508 745.867ZM263.961 745.703V745.867C263.961 746.289 264.003 746.685 264.086 747.055C264.174 747.424 264.31 747.75 264.492 748.031C264.674 748.312 264.906 748.534 265.188 748.695C265.469 748.852 265.805 748.93 266.195 748.93C266.674 748.93 267.068 748.828 267.375 748.625C267.688 748.422 267.938 748.154 268.125 747.82C268.312 747.487 268.458 747.125 268.562 746.734V744.852C268.5 744.565 268.409 744.289 268.289 744.023C268.174 743.753 268.023 743.513 267.836 743.305C267.654 743.091 267.427 742.922 267.156 742.797C266.891 742.672 266.576 742.609 266.211 742.609C265.815 742.609 265.474 742.693 265.188 742.859C264.906 743.021 264.674 743.245 264.492 743.531C264.31 743.812 264.174 744.141 264.086 744.516C264.003 744.885 263.961 745.281 263.961 745.703ZM273.619 741.547V750H272.166V741.547H273.619ZM272.056 739.305C272.056 739.07 272.127 738.872 272.267 738.711C272.413 738.549 272.627 738.469 272.908 738.469C273.184 738.469 273.395 738.549 273.541 738.711C273.692 738.872 273.767 739.07 273.767 739.305C273.767 739.529 273.692 739.721 273.541 739.883C273.395 740.039 273.184 740.117 272.908 740.117C272.627 740.117 272.413 740.039 272.267 739.883C272.127 739.721 272.056 739.529 272.056 739.305ZM281.073 748.555V744.203C281.073 743.87 281.006 743.581 280.87 743.336C280.74 743.086 280.542 742.893 280.277 742.758C280.011 742.622 279.683 742.555 279.292 742.555C278.928 742.555 278.607 742.617 278.331 742.742C278.06 742.867 277.847 743.031 277.691 743.234C277.54 743.438 277.464 743.656 277.464 743.891H276.019C276.019 743.589 276.097 743.289 276.253 742.992C276.409 742.695 276.633 742.427 276.925 742.188C277.222 741.943 277.576 741.75 277.988 741.609C278.404 741.464 278.868 741.391 279.378 741.391C279.993 741.391 280.534 741.495 281.003 741.703C281.477 741.911 281.847 742.227 282.113 742.648C282.383 743.065 282.519 743.589 282.519 744.219V748.156C282.519 748.438 282.542 748.737 282.589 749.055C282.641 749.372 282.717 749.646 282.816 749.875V750H281.308C281.235 749.833 281.178 749.612 281.136 749.336C281.094 749.055 281.073 748.794 281.073 748.555ZM281.323 744.875L281.339 745.891H279.878C279.467 745.891 279.099 745.924 278.777 745.992C278.454 746.055 278.183 746.151 277.964 746.281C277.745 746.411 277.579 746.576 277.464 746.773C277.349 746.966 277.292 747.193 277.292 747.453C277.292 747.719 277.352 747.961 277.472 748.18C277.592 748.398 277.771 748.573 278.011 748.703C278.256 748.828 278.555 748.891 278.909 748.891C279.352 748.891 279.743 748.797 280.081 748.609C280.42 748.422 280.688 748.193 280.886 747.922C281.089 747.651 281.198 747.388 281.214 747.133L281.831 747.828C281.795 748.047 281.696 748.289 281.534 748.555C281.373 748.82 281.157 749.076 280.886 749.32C280.62 749.56 280.303 749.76 279.933 749.922C279.568 750.078 279.157 750.156 278.698 750.156C278.126 750.156 277.623 750.044 277.191 749.82C276.764 749.596 276.43 749.297 276.191 748.922C275.956 748.542 275.839 748.117 275.839 747.648C275.839 747.195 275.928 746.797 276.105 746.453C276.282 746.104 276.537 745.815 276.87 745.586C277.204 745.352 277.605 745.174 278.073 745.055C278.542 744.935 279.066 744.875 279.644 744.875H281.323ZM294.045 748.555V744.203C294.045 743.87 293.978 743.581 293.842 743.336C293.712 743.086 293.514 742.893 293.248 742.758C292.983 742.622 292.655 742.555 292.264 742.555C291.899 742.555 291.579 742.617 291.303 742.742C291.032 742.867 290.819 743.031 290.663 743.234C290.511 743.438 290.436 743.656 290.436 743.891H288.991C288.991 743.589 289.069 743.289 289.225 742.992C289.381 742.695 289.605 742.427 289.897 742.188C290.194 741.943 290.548 741.75 290.959 741.609C291.376 741.464 291.84 741.391 292.35 741.391C292.965 741.391 293.506 741.495 293.975 741.703C294.449 741.911 294.819 742.227 295.084 742.648C295.355 743.065 295.491 743.589 295.491 744.219V748.156C295.491 748.438 295.514 748.737 295.561 749.055C295.613 749.372 295.689 749.646 295.788 749.875V750H294.28C294.207 749.833 294.149 749.612 294.108 749.336C294.066 749.055 294.045 748.794 294.045 748.555ZM294.295 744.875L294.311 745.891H292.85C292.439 745.891 292.071 745.924 291.748 745.992C291.426 746.055 291.155 746.151 290.936 746.281C290.717 746.411 290.551 746.576 290.436 746.773C290.321 746.966 290.264 747.193 290.264 747.453C290.264 747.719 290.324 747.961 290.444 748.18C290.564 748.398 290.743 748.573 290.983 748.703C291.228 748.828 291.527 748.891 291.881 748.891C292.324 748.891 292.715 748.797 293.053 748.609C293.392 748.422 293.66 748.193 293.858 747.922C294.061 747.651 294.17 747.388 294.186 747.133L294.803 747.828C294.767 748.047 294.668 748.289 294.506 748.555C294.345 748.82 294.129 749.076 293.858 749.32C293.592 749.56 293.274 749.76 292.905 749.922C292.54 750.078 292.129 750.156 291.67 750.156C291.097 750.156 290.595 750.044 290.163 749.82C289.735 749.596 289.402 749.297 289.163 748.922C288.928 748.542 288.811 748.117 288.811 747.648C288.811 747.195 288.899 746.797 289.077 746.453C289.254 746.104 289.509 745.815 289.842 745.586C290.176 745.352 290.577 745.174 291.045 745.055C291.514 744.935 292.038 744.875 292.616 744.875H294.295ZM301.297 748.969C301.641 748.969 301.958 748.898 302.25 748.758C302.542 748.617 302.781 748.424 302.969 748.18C303.156 747.93 303.263 747.646 303.289 747.328H304.664C304.638 747.828 304.469 748.294 304.156 748.727C303.849 749.154 303.445 749.5 302.945 749.766C302.445 750.026 301.896 750.156 301.297 750.156C300.661 750.156 300.107 750.044 299.633 749.82C299.164 749.596 298.773 749.289 298.461 748.898C298.154 748.508 297.922 748.06 297.766 747.555C297.615 747.044 297.539 746.505 297.539 745.938V745.609C297.539 745.042 297.615 744.505 297.766 744C297.922 743.49 298.154 743.039 298.461 742.648C298.773 742.258 299.164 741.951 299.633 741.727C300.107 741.503 300.661 741.391 301.297 741.391C301.958 741.391 302.536 741.526 303.031 741.797C303.526 742.062 303.914 742.427 304.195 742.891C304.482 743.349 304.638 743.87 304.664 744.453H303.289C303.263 744.104 303.164 743.789 302.992 743.508C302.826 743.227 302.596 743.003 302.305 742.836C302.018 742.664 301.682 742.578 301.297 742.578C300.854 742.578 300.482 742.667 300.18 742.844C299.883 743.016 299.646 743.25 299.469 743.547C299.297 743.839 299.172 744.164 299.094 744.523C299.021 744.878 298.984 745.24 298.984 745.609V745.938C298.984 746.307 299.021 746.672 299.094 747.031C299.167 747.391 299.289 747.716 299.461 748.008C299.638 748.299 299.875 748.534 300.172 748.711C300.474 748.883 300.849 748.969 301.297 748.969ZM309.822 748.969C310.166 748.969 310.483 748.898 310.775 748.758C311.067 748.617 311.306 748.424 311.494 748.18C311.681 747.93 311.788 747.646 311.814 747.328H313.189C313.163 747.828 312.994 748.294 312.681 748.727C312.374 749.154 311.97 749.5 311.47 749.766C310.97 750.026 310.421 750.156 309.822 750.156C309.186 750.156 308.632 750.044 308.158 749.82C307.689 749.596 307.298 749.289 306.986 748.898C306.679 748.508 306.447 748.06 306.291 747.555C306.14 747.044 306.064 746.505 306.064 745.938V745.609C306.064 745.042 306.14 744.505 306.291 744C306.447 743.49 306.679 743.039 306.986 742.648C307.298 742.258 307.689 741.951 308.158 741.727C308.632 741.503 309.186 741.391 309.822 741.391C310.483 741.391 311.061 741.526 311.556 741.797C312.051 742.062 312.439 742.427 312.72 742.891C313.007 743.349 313.163 743.87 313.189 744.453H311.814C311.788 744.104 311.689 743.789 311.517 743.508C311.351 743.227 311.121 743.003 310.83 742.836C310.543 742.664 310.207 742.578 309.822 742.578C309.379 742.578 309.007 742.667 308.705 742.844C308.408 743.016 308.171 743.25 307.994 743.547C307.822 743.839 307.697 744.164 307.619 744.523C307.546 744.878 307.509 745.24 307.509 745.609V745.938C307.509 746.307 307.546 746.672 307.619 747.031C307.692 747.391 307.814 747.716 307.986 748.008C308.163 748.299 308.4 748.534 308.697 748.711C308.999 748.883 309.374 748.969 309.822 748.969ZM314.581 745.867V745.688C314.581 745.078 314.67 744.513 314.847 743.992C315.024 743.466 315.279 743.01 315.612 742.625C315.946 742.234 316.349 741.932 316.823 741.719C317.297 741.5 317.829 741.391 318.417 741.391C319.011 741.391 319.545 741.5 320.019 741.719C320.498 741.932 320.904 742.234 321.237 742.625C321.576 743.01 321.834 743.466 322.011 743.992C322.188 744.513 322.277 745.078 322.277 745.688V745.867C322.277 746.477 322.188 747.042 322.011 747.562C321.834 748.083 321.576 748.539 321.237 748.93C320.904 749.315 320.501 749.617 320.027 749.836C319.558 750.049 319.027 750.156 318.433 750.156C317.839 750.156 317.305 750.049 316.831 749.836C316.357 749.617 315.951 749.315 315.612 748.93C315.279 748.539 315.024 748.083 314.847 747.562C314.67 747.042 314.581 746.477 314.581 745.867ZM316.027 745.688V745.867C316.027 746.289 316.076 746.688 316.175 747.062C316.274 747.432 316.422 747.76 316.62 748.047C316.823 748.333 317.076 748.56 317.378 748.727C317.68 748.888 318.032 748.969 318.433 748.969C318.829 748.969 319.175 748.888 319.472 748.727C319.774 748.56 320.024 748.333 320.222 748.047C320.42 747.76 320.568 747.432 320.667 747.062C320.771 746.688 320.823 746.289 320.823 745.867V745.688C320.823 745.271 320.771 744.878 320.667 744.508C320.568 744.133 320.417 743.802 320.214 743.516C320.016 743.224 319.766 742.995 319.464 742.828C319.167 742.661 318.818 742.578 318.417 742.578C318.021 742.578 317.672 742.661 317.37 742.828C317.073 742.995 316.823 743.224 316.62 743.516C316.422 743.802 316.274 744.133 316.175 744.508C316.076 744.878 316.027 745.271 316.027 745.688ZM329.411 748.047V741.547H330.864V750H329.481L329.411 748.047ZM329.684 746.266L330.286 746.25C330.286 746.812 330.226 747.333 330.106 747.812C329.992 748.286 329.804 748.698 329.544 749.047C329.283 749.396 328.942 749.669 328.52 749.867C328.098 750.06 327.585 750.156 326.981 750.156C326.57 750.156 326.192 750.096 325.848 749.977C325.51 749.857 325.218 749.672 324.973 749.422C324.729 749.172 324.539 748.846 324.403 748.445C324.273 748.044 324.208 747.562 324.208 747V741.547H325.653V747.016C325.653 747.396 325.695 747.711 325.778 747.961C325.867 748.206 325.984 748.401 326.13 748.547C326.281 748.688 326.447 748.786 326.63 748.844C326.817 748.901 327.01 748.93 327.208 748.93C327.822 748.93 328.309 748.812 328.669 748.578C329.028 748.339 329.286 748.018 329.442 747.617C329.604 747.211 329.684 746.76 329.684 746.266ZM334.663 743.352V750H333.217V741.547H334.584L334.663 743.352ZM334.319 745.453L333.717 745.43C333.722 744.852 333.808 744.318 333.975 743.828C334.142 743.333 334.376 742.904 334.678 742.539C334.98 742.174 335.34 741.893 335.756 741.695C336.178 741.492 336.644 741.391 337.155 741.391C337.571 741.391 337.946 741.448 338.28 741.562C338.613 741.672 338.897 741.849 339.131 742.094C339.371 742.339 339.553 742.656 339.678 743.047C339.803 743.432 339.866 743.904 339.866 744.461V750H338.413V744.445C338.413 744.003 338.347 743.648 338.217 743.383C338.087 743.112 337.897 742.917 337.647 742.797C337.397 742.672 337.09 742.609 336.725 742.609C336.366 742.609 336.038 742.685 335.741 742.836C335.449 742.987 335.196 743.195 334.983 743.461C334.774 743.727 334.61 744.031 334.491 744.375C334.376 744.714 334.319 745.073 334.319 745.453ZM345.75 741.547V742.656H341.18V741.547H345.75ZM342.727 739.492H344.172V747.906C344.172 748.193 344.216 748.409 344.305 748.555C344.393 748.701 344.508 748.797 344.648 748.844C344.789 748.891 344.94 748.914 345.102 748.914C345.221 748.914 345.346 748.904 345.477 748.883C345.612 748.857 345.714 748.836 345.781 748.82L345.789 750C345.674 750.036 345.523 750.07 345.336 750.102C345.154 750.138 344.932 750.156 344.672 750.156C344.318 750.156 343.992 750.086 343.695 749.945C343.398 749.805 343.161 749.57 342.984 749.242C342.812 748.909 342.727 748.461 342.727 747.898V739.492Z" fill="#BAB4B6"/>
<rect x="105" y="583" width="180" height="55" rx="27.5" fill="#FC976B"/>
<path d="M169.131 613.809C169.131 613.535 169.089 613.291 169.004 613.076C168.926 612.855 168.779 612.656 168.564 612.48C168.356 612.298 168.06 612.122 167.676 611.953C167.298 611.777 166.81 611.595 166.211 611.406C165.547 611.198 164.928 610.964 164.355 610.703C163.783 610.443 163.278 610.14 162.842 609.795C162.412 609.45 162.077 609.053 161.836 608.604C161.595 608.148 161.475 607.62 161.475 607.021C161.475 606.436 161.598 605.902 161.846 605.42C162.1 604.938 162.458 604.525 162.92 604.18C163.382 603.828 163.926 603.558 164.551 603.369C165.182 603.18 165.879 603.086 166.641 603.086C167.695 603.086 168.607 603.278 169.375 603.662C170.15 604.046 170.749 604.567 171.172 605.225C171.595 605.882 171.807 606.621 171.807 607.441H169.131C169.131 606.999 169.036 606.608 168.848 606.27C168.665 605.931 168.385 605.664 168.008 605.469C167.637 605.273 167.168 605.176 166.602 605.176C166.055 605.176 165.599 605.257 165.234 605.42C164.876 605.583 164.606 605.804 164.424 606.084C164.248 606.364 164.16 606.676 164.16 607.021C164.16 607.282 164.222 607.516 164.346 607.725C164.469 607.926 164.655 608.118 164.902 608.301C165.15 608.477 165.456 608.643 165.82 608.799C166.191 608.949 166.621 609.098 167.109 609.248C167.891 609.482 168.574 609.743 169.16 610.029C169.753 610.316 170.244 610.641 170.635 611.006C171.032 611.37 171.328 611.781 171.523 612.236C171.725 612.692 171.826 613.21 171.826 613.789C171.826 614.401 171.706 614.948 171.465 615.43C171.224 615.911 170.879 616.322 170.43 616.66C169.98 616.999 169.44 617.256 168.809 617.432C168.184 617.607 167.484 617.695 166.709 617.695C166.019 617.695 165.335 617.604 164.658 617.422C163.988 617.233 163.379 616.953 162.832 616.582C162.285 616.204 161.849 615.729 161.523 615.156C161.198 614.577 161.035 613.9 161.035 613.125H163.73C163.73 613.574 163.802 613.958 163.945 614.277C164.095 614.59 164.303 614.847 164.57 615.049C164.844 615.244 165.163 615.387 165.527 615.479C165.892 615.57 166.286 615.615 166.709 615.615C167.256 615.615 167.705 615.54 168.057 615.391C168.415 615.234 168.682 615.02 168.857 614.746C169.04 614.473 169.131 614.16 169.131 613.809ZM176.436 606.934V617.5H173.848V606.934H176.436ZM173.672 604.17C173.672 603.786 173.802 603.467 174.062 603.213C174.329 602.959 174.688 602.832 175.137 602.832C175.586 602.832 175.941 602.959 176.201 603.213C176.468 603.467 176.602 603.786 176.602 604.17C176.602 604.548 176.468 604.863 176.201 605.117C175.941 605.371 175.586 605.498 175.137 605.498C174.688 605.498 174.329 605.371 174.062 605.117C173.802 604.863 173.672 604.548 173.672 604.17ZM185.615 606.934H187.959V617.178C187.959 618.135 187.751 618.945 187.334 619.609C186.924 620.28 186.348 620.788 185.605 621.133C184.863 621.484 184.001 621.66 183.018 621.66C182.594 621.66 182.135 621.602 181.641 621.484C181.152 621.367 180.68 621.182 180.225 620.928C179.775 620.68 179.401 620.358 179.102 619.961L180.264 618.438C180.615 618.848 181.012 619.157 181.455 619.365C181.898 619.58 182.376 619.688 182.891 619.688C183.411 619.688 183.854 619.59 184.219 619.395C184.59 619.206 184.873 618.926 185.068 618.555C185.27 618.19 185.371 617.741 185.371 617.207V609.346L185.615 606.934ZM178.477 612.344V612.139C178.477 611.331 178.574 610.599 178.77 609.941C178.965 609.277 179.245 608.708 179.609 608.232C179.98 607.757 180.426 607.389 180.947 607.129C181.475 606.868 182.067 606.738 182.725 606.738C183.421 606.738 184.007 606.865 184.482 607.119C184.964 607.373 185.361 607.734 185.674 608.203C185.993 608.672 186.24 609.229 186.416 609.873C186.598 610.511 186.738 611.214 186.836 611.982V612.539C186.745 613.288 186.598 613.975 186.396 614.6C186.201 615.225 185.941 615.771 185.615 616.24C185.29 616.702 184.886 617.061 184.404 617.314C183.923 617.568 183.356 617.695 182.705 617.695C182.054 617.695 181.468 617.562 180.947 617.295C180.426 617.028 179.98 616.654 179.609 616.172C179.245 615.69 178.965 615.124 178.77 614.473C178.574 613.822 178.477 613.112 178.477 612.344ZM181.055 612.139V612.344C181.055 612.799 181.1 613.226 181.191 613.623C181.283 614.02 181.423 614.372 181.611 614.678C181.8 614.977 182.038 615.212 182.324 615.381C182.611 615.55 182.952 615.635 183.35 615.635C183.883 615.635 184.32 615.524 184.658 615.303C185.003 615.075 185.264 614.766 185.439 614.375C185.622 613.978 185.739 613.532 185.791 613.037V611.504C185.758 611.113 185.687 610.752 185.576 610.42C185.472 610.088 185.326 609.801 185.137 609.561C184.948 609.32 184.707 609.131 184.414 608.994C184.121 608.857 183.773 608.789 183.369 608.789C182.979 608.789 182.637 608.877 182.344 609.053C182.051 609.222 181.81 609.46 181.621 609.766C181.432 610.072 181.289 610.426 181.191 610.83C181.1 611.234 181.055 611.67 181.055 612.139ZM192.812 609.189V617.5H190.234V606.934H192.656L192.812 609.189ZM192.402 611.836H191.641C191.647 611.068 191.751 610.371 191.953 609.746C192.155 609.121 192.438 608.584 192.803 608.135C193.174 607.686 193.613 607.34 194.121 607.1C194.629 606.859 195.195 606.738 195.82 606.738C196.328 606.738 196.787 606.81 197.197 606.953C197.607 607.096 197.959 607.324 198.252 607.637C198.551 607.949 198.779 608.359 198.936 608.867C199.098 609.368 199.18 609.987 199.18 610.723V617.5H196.582V610.703C196.582 610.221 196.51 609.84 196.367 609.561C196.23 609.281 196.029 609.082 195.762 608.965C195.501 608.848 195.179 608.789 194.795 608.789C194.398 608.789 194.049 608.87 193.75 609.033C193.457 609.189 193.21 609.408 193.008 609.688C192.812 609.967 192.663 610.29 192.559 610.654C192.454 611.019 192.402 611.413 192.402 611.836ZM214.541 603.281H217.227V612.725C217.227 613.812 216.992 614.727 216.523 615.469C216.055 616.204 215.417 616.761 214.609 617.139C213.802 617.51 212.884 617.695 211.855 617.695C210.814 617.695 209.886 617.51 209.072 617.139C208.258 616.761 207.62 616.204 207.158 615.469C206.696 614.727 206.465 613.812 206.465 612.725V603.281H209.15V612.725C209.15 613.389 209.261 613.932 209.482 614.355C209.704 614.772 210.016 615.081 210.42 615.283C210.824 615.485 211.302 615.586 211.855 615.586C212.415 615.586 212.894 615.485 213.291 615.283C213.695 615.081 214.004 614.772 214.219 614.355C214.434 613.932 214.541 613.389 214.541 612.725V603.281ZM222.158 608.965V621.562H219.57V606.934H221.963L222.158 608.965ZM228.945 612.109V612.314C228.945 613.083 228.854 613.796 228.672 614.453C228.496 615.104 228.236 615.674 227.891 616.162C227.546 616.644 227.116 617.021 226.602 617.295C226.094 617.562 225.508 617.695 224.844 617.695C224.193 617.695 223.626 617.572 223.145 617.324C222.663 617.07 222.256 616.712 221.924 616.25C221.592 615.788 221.325 615.251 221.123 614.639C220.928 614.02 220.781 613.346 220.684 612.617V611.963C220.781 611.188 220.928 610.485 221.123 609.854C221.325 609.215 221.592 608.665 221.924 608.203C222.256 607.734 222.66 607.373 223.135 607.119C223.617 606.865 224.18 606.738 224.824 606.738C225.495 606.738 226.084 606.865 226.592 607.119C227.106 607.373 227.539 607.738 227.891 608.213C228.242 608.688 228.506 609.255 228.682 609.912C228.857 610.57 228.945 611.302 228.945 612.109ZM226.357 612.314V612.109C226.357 611.641 226.315 611.208 226.23 610.811C226.146 610.407 226.016 610.055 225.84 609.756C225.664 609.45 225.436 609.212 225.156 609.043C224.876 608.874 224.538 608.789 224.141 608.789C223.743 608.789 223.402 608.854 223.115 608.984C222.829 609.115 222.594 609.3 222.412 609.541C222.23 609.782 222.087 610.068 221.982 610.4C221.885 610.726 221.82 611.087 221.787 611.484V613.105C221.846 613.587 221.96 614.02 222.129 614.404C222.298 614.788 222.546 615.094 222.871 615.322C223.203 615.55 223.633 615.664 224.16 615.664C224.557 615.664 224.896 615.576 225.176 615.4C225.456 615.225 225.684 614.984 225.859 614.678C226.035 614.365 226.162 614.007 226.24 613.604C226.318 613.2 226.357 612.77 226.357 612.314Z" fill="white"/>
<path d="M0 0H390V250C390 266.569 376.569 280 360 280H30C13.4315 280 0 266.569 0 250V0Z" fill="url(#paint0_linear_531_386)"/>
<path fill-rule="evenodd" clip-rule="evenodd" d="M323.929 20.98H325.313C325.688 20.98 326.005 21.4163 326.005 21.9318V25.7391C326.005 26.2547 325.688 26.6909 325.313 26.6909H323.929C323.554 26.6909 323.236 26.2547 323.236 25.7391V21.9318C323.236 21.4163 323.554 20.98 323.929 20.98ZM328.082 19.0764H329.466C329.841 19.0764 330.159 19.5126 330.159 20.0282V25.7391C330.159 26.2547 329.841 26.6909 329.466 26.6909H328.082C327.707 26.6909 327.39 26.2547 327.39 25.7391V20.0282C327.39 19.5126 327.707 19.0764 328.082 19.0764ZM332.235 16.5382H333.62C333.995 16.5382 334.312 16.9744 334.312 17.49V25.7391C334.312 26.2547 333.995 26.6909 333.62 26.6909H332.235C331.86 26.6909 331.543 26.2547 331.543 25.7391V17.5297C331.543 17.0141 331.86 16.5778 332.235 16.5778V16.5382ZM336.389 14H337.773C338.148 14 338.465 14.4363 338.465 14.9518V25.6994C338.465 26.215 338.148 26.6513 337.773 26.6513H336.389C336.014 26.6513 335.696 26.215 335.696 25.6994V14.9915C335.696 14.4759 336.014 14.0397 336.389 14.0397V14Z" fill="#F9F6F3"/>
<path d="M349.959 23.3477C349.959 23.3477 349.735 23.5716 349.735 23.7208C349.735 23.87 349.773 24.0192 349.885 24.1311L351.824 26.0709C351.824 26.0709 352.048 26.2201 352.197 26.2201C352.347 26.2201 352.459 26.1828 352.57 26.0709L354.51 24.1311C354.51 24.1311 354.659 23.87 354.659 23.7208C354.659 23.5716 354.548 23.4223 354.436 23.3477C353.13 22.4524 351.302 22.4524 349.959 23.3477Z" fill="#F9F6F3"/>
<path d="M352.161 18.4985C350.258 18.4985 348.393 19.17 346.938 20.401C346.827 20.5129 346.752 20.6248 346.752 20.774C346.752 20.9233 346.789 21.0725 346.901 21.1844L347.946 22.2289C348.132 22.4154 348.431 22.4154 348.654 22.2289C349.662 21.4082 350.855 20.9979 352.161 20.9979C353.467 20.9979 354.698 21.4455 355.667 22.2662C355.779 22.3408 355.891 22.3781 356.003 22.3781C356.152 22.3781 356.264 22.3408 356.376 22.2289L357.421 21.1844C357.421 21.1844 357.57 20.9233 357.57 20.774C357.57 20.6248 357.495 20.4756 357.383 20.401C355.929 19.17 354.063 18.4985 352.124 18.4985H352.161Z" fill="#F9F6F3"/>
<path d="M360.294 17.5659C358.056 15.5515 355.184 14.4697 352.199 14.4697C349.215 14.4697 346.305 15.5888 344.104 17.5659C343.993 17.6778 343.918 17.7897 343.918 17.939C343.918 18.0882 343.955 18.2374 344.067 18.312L345.112 19.3565C345.112 19.3565 345.335 19.5057 345.485 19.5057C345.597 19.5057 345.746 19.4684 345.82 19.3565C347.574 17.827 349.812 16.9691 352.162 16.9691C354.512 16.9691 356.75 17.827 358.504 19.3565C358.727 19.543 359.026 19.543 359.212 19.3565L360.257 18.312C360.257 18.312 360.406 18.0509 360.406 17.939C360.406 17.7897 360.332 17.6405 360.22 17.5659H360.294Z" fill="#F9F6F3"/>
<path d="M18.9192 25.5718H17.6128V17.3227C17.3142 17.6213 16.9036 17.9199 16.3811 18.2185C15.8585 18.5172 15.4106 18.7411 15 18.8904V17.6213C15.7092 17.2854 16.3437 16.8748 16.9036 16.3896C17.4635 15.9043 17.8368 15.4191 18.0607 14.9712H18.8819V25.5718H18.9192Z" fill="#F9F6F3"/>
<path d="M22.2432 20.3459C22.2432 19.1141 22.3551 18.1063 22.6164 17.3225C22.8777 16.5759 23.251 15.9787 23.7735 15.5681C24.2961 15.1575 24.9306 14.9336 25.6772 14.9336C26.237 14.9336 26.7596 15.0456 27.1702 15.2695C27.5808 15.4935 27.954 15.8294 28.2153 16.24C28.4766 16.6506 28.7006 17.1732 28.8872 17.8077C29.0365 18.4049 29.1111 19.2634 29.1111 20.3085C29.1111 21.5403 28.9992 22.5481 28.7379 23.2946C28.4766 24.0411 28.1033 24.6383 27.5808 25.0489C27.0582 25.4595 26.4237 25.6835 25.6772 25.6835C24.6693 25.6835 23.8482 25.3102 23.2883 24.601C22.5791 23.7052 22.2432 22.2868 22.2432 20.3085V20.3459ZM23.5869 20.3459C23.5869 22.0628 23.7735 23.22 24.1841 23.8172C24.5947 24.3771 25.0799 24.6757 25.6772 24.6757C26.2744 24.6757 26.7596 24.3771 27.1702 23.8172C27.5808 23.2573 27.7674 22.1002 27.7674 20.3459C27.7674 18.5915 27.5808 17.4344 27.1702 16.8745C26.7596 16.3147 26.2744 16.016 25.6398 16.016C25.0053 16.016 24.5574 16.2773 24.2214 16.7626C23.7735 17.3971 23.5496 18.5915 23.5496 20.3459H23.5869Z" fill="#F9F6F3"/>
<path d="M31.1631 19.413V17.9199H32.6561V19.413H31.1631ZM31.1631 25.5717V24.0787H32.6561V25.5717H31.1631Z" fill="#F9F6F3"/>
<path d="M34.5586 22.7723L35.865 22.5857C36.0143 23.3322 36.2756 23.8548 36.6115 24.1907C36.9475 24.5266 37.3954 24.6759 37.9179 24.6759C38.5151 24.6759 39.0377 24.452 39.4483 24.0414C39.8589 23.6308 40.0828 23.1082 40.0828 22.4737C40.0828 21.8392 39.8962 21.3913 39.4856 21.018C39.1124 20.6447 38.5898 20.4208 37.9926 20.4208C37.7313 20.4208 37.4327 20.4581 37.0594 20.5701L37.2087 19.4503C37.2087 19.4503 37.358 19.4503 37.4327 19.4503C37.9926 19.4503 38.4778 19.301 38.9257 19.0024C39.3736 18.7038 39.5976 18.2559 39.5976 17.6587C39.5976 17.1734 39.4483 16.8002 39.1124 16.4642C38.7764 16.1656 38.3658 16.0163 37.8806 16.0163C37.3954 16.0163 36.9475 16.1656 36.6115 16.5016C36.2756 16.8002 36.0516 17.2854 35.977 17.9199L34.6706 17.696C34.8199 16.8375 35.1931 16.1656 35.753 15.6804C36.3129 15.1951 37.0221 14.9712 37.8433 14.9712C38.4032 14.9712 38.9631 15.0832 39.4483 15.3445C39.9335 15.6057 40.3068 15.9417 40.5681 16.3523C40.8294 16.7628 40.9413 17.2481 40.9413 17.696C40.9413 18.1439 40.8294 18.5545 40.5681 18.9277C40.3068 19.301 39.9709 19.5996 39.4856 19.8236C40.1202 19.9729 40.6054 20.2715 40.9413 20.7194C41.2773 21.1673 41.4639 21.7272 41.4639 22.4364C41.4639 23.3695 41.128 24.1534 40.4561 24.7879C39.7842 25.4225 38.9257 25.7584 37.9179 25.7584C36.9848 25.7584 36.2383 25.4971 35.6037 24.9372C35.0065 24.3773 34.6332 23.6681 34.5586 22.7723Z" fill="#F9F6F3"/>
<path d="M42.7725 20.3459C42.7725 19.1141 42.8844 18.1063 43.1457 17.3225C43.407 16.5759 43.7803 15.9787 44.3028 15.5681C44.8254 15.1575 45.4599 14.9336 46.2064 14.9336C46.7663 14.9336 47.2889 15.0456 47.6995 15.2695C48.1101 15.4935 48.4833 15.8294 48.7446 16.24C49.0059 16.6879 49.2298 17.1732 49.4165 17.8077C49.5658 18.4049 49.6404 19.2634 49.6404 20.3085C49.6404 21.5403 49.5285 22.5481 49.2672 23.2946C49.0059 24.0411 48.6326 24.6383 48.1101 25.0489C47.5875 25.4595 46.953 25.6835 46.2064 25.6835C45.1986 25.6835 44.3775 25.3102 43.8176 24.601C43.1084 23.7052 42.7725 22.2868 42.7725 20.3085V20.3459ZM44.1162 20.3459C44.1162 22.0628 44.3028 23.22 44.7134 23.8172C45.124 24.3771 45.6092 24.6757 46.2064 24.6757C46.8037 24.6757 47.2889 24.3771 47.6995 23.8172C48.1101 23.2573 48.2967 22.1002 48.2967 20.3459C48.2967 18.5915 48.1101 17.4344 47.6995 16.8745C47.2889 16.3147 46.8037 16.016 46.1691 16.016C45.5346 16.016 45.0867 16.2773 44.7507 16.7626C44.3028 17.3971 44.0789 18.5915 44.0789 20.3459H44.1162Z" fill="#F9F6F3"/>
<path d="M366.386 21.6143H374V24.6906C374 25.7952 373.105 26.6906 372 26.6906H368.386C367.281 26.6906 366.386 25.7952 366.386 24.6906V21.6143Z" fill="#F9F6F3"/>
<path d="M368 16C368 15.4477 368.448 15 369 15H371C371.552 15 372 15.4477 372 16V17H368V16Z" fill="#F9F6F3"/>
<rect x="366.886" y="17.0381" width="6.61455" height="9.15273" rx="0.5" stroke="#F9F6F3"/>
<path d="M179 792.671C194.617 798.732 199.038 787.645 198.905 782.171C200.173 781.825 201 780.961 201 780.075C199.952 780.626 199.405 780.469 198.881 780.075C200.009 779.307 199.952 778.212 199.952 777.456C199.425 777.733 198.449 778.416 197.333 778.504C196.587 777.338 194.714 776.409 192.095 777.456C189.476 778.504 188.952 781.298 189.476 782.694C186.124 782.694 182.143 779.202 180.571 777.456C178.688 780.144 181.071 782.809 182.143 783.742C181.428 783.956 180.571 783.742 180.048 783.218C180.048 786.209 182.667 787.409 183.714 787.933H181.619C181.619 790.028 184.063 790.901 185.286 791.075C184.448 791.913 181.071 792.671 179 792.671Z" fill="#BAB4B6"/>
<path d="M144.5 772C142.015 772 140 774.015 140 776.5V780H137.5C137.224 780 137 780.224 137 780.5V784.5C137 784.776 137.224 785 137.5 785H140V793.5C140 793.776 140.224 794 140.5 794H144.5C144.776 794 145 793.776 145 793.5V785H147.5C147.729 785 147.929 784.844 147.985 784.621L148.985 780.621C149.022 780.472 148.989 780.314 148.894 780.192C148.799 780.071 148.654 780 148.5 780H145V778.5C145 777.672 145.672 777 146.5 777H148.5C148.776 777 149 776.776 149 776.5V772.5C149 772.224 148.776 772 148.5 772H144.5Z" fill="#BAB4B6"/>
<path fill-rule="evenodd" clip-rule="evenodd" d="M233.688 777H232C231.448 777 231 777.448 231 778V778.041L242 786.071L253 778.04V778C253 777.448 252.552 777 252 777H250.312L242 782.921L233.688 777ZM247.726 777L242 781.079L236.273 777H247.726ZM253 779.898L250.25 781.905V793H252C252.552 793 253 792.552 253 792V779.898ZM248.75 793V783L242 787.929L235.25 783.001V793H248.75ZM233.75 793V781.905L231 779.898V792C231 792.552 231.448 793 232 793H233.75Z" fill="#BAB4B6"/>
<circle cx="195" cy="176" r="60" fill="#F9F6F3" fill-opacity="0.9"/>
<g filter="url(#filter0_d_531_386)">
<path d="M194.879 150.336C194.879 150.336 196.639 136.168 178.805 136.96C178.805 136.96 180.139 156.379 194.879 150.336Z" fill="#295444"/>
<path d="M195.739 151.145C195.739 151.145 215.63 157.745 219.607 131.845C219.607 131.845 191.269 128.192 195.739 151.145Z" fill="#295444"/>
<path d="M236.874 188.118C235.28 166.951 216.941 151.398 198.016 149.866C197.595 149.832 197.183 149.717 196.819 149.503C196.202 149.14 195.67 148.52 195.67 147.462C195.67 145.423 196.277 140.177 197.418 136.808C197.68 136.032 197.099 135.229 196.28 135.229H194.969H193.64C192.821 135.229 192.24 136.032 192.502 136.808C193.642 140.177 194.249 145.423 194.249 147.462C194.249 148.452 193.783 149.058 193.218 149.43C192.824 149.688 192.365 149.826 191.896 149.862C172.907 151.353 153.954 166.495 153.044 188.118C152.218 207.748 163.023 214.502 183.922 214.502H205.995C226.894 214.502 238.348 207.71 236.873 188.118H236.874Z" fill="url(#paint1_radial_531_386)"/>
<path d="M227.4 190.422C227.4 203.156 217.728 207.342 200.896 207.785C200.105 207.806 189.707 207.785 188.903 207.785C170.953 207.785 162.398 203.753 162.398 190.422C162.398 177.091 179.069 165.212 194.899 165.212C212.049 165.212 227.4 177.091 227.4 190.422Z" fill="#D6EBDD"/>
<mask id="mask0_531_386" style="mask-type:luminance" maskUnits="userSpaceOnUse" x="162" y="165" width="66" height="43">
<path d="M227.402 190.423C227.402 203.157 217.73 207.343 200.898 207.786C200.107 207.807 189.709 207.786 188.905 207.786C170.955 207.786 162.4 203.754 162.4 190.423C162.4 177.092 179.07 165.213 194.901 165.213C212.051 165.213 227.402 177.092 227.402 190.423Z" fill="white"/>
</mask>
<g mask="url(#mask0_531_386)">
<path d="M171.033 206.228C175.669 206.228 179.428 202.469 179.428 197.833C179.428 193.197 175.669 189.438 171.033 189.438C166.396 189.438 162.638 193.197 162.638 197.833C162.638 202.469 166.396 206.228 171.033 206.228Z" fill="#A8D9B8"/>
<path d="M218.765 206.228C223.402 206.228 227.16 202.469 227.16 197.833C227.16 193.197 223.402 189.438 218.765 189.438C214.129 189.438 210.37 193.197 210.37 197.833C210.37 202.469 214.129 206.228 218.765 206.228Z" fill="#A8D9B8"/>
<path d="M167.366 198.981C167.335 198.981 167.305 198.969 167.281 198.946C167.234 198.9 167.234 198.824 167.281 198.777L169.337 196.722C169.384 196.675 169.459 196.675 169.506 196.722C169.553 196.768 169.553 196.844 169.506 196.891L167.45 198.946C167.426 198.97 167.396 198.981 167.365 198.981H167.366Z" fill="#D5F1E4"/>
<path d="M169.714 199.272C169.683 199.272 169.653 199.26 169.629 199.238C169.582 199.191 169.582 199.115 169.629 199.069L172.267 196.43C172.314 196.383 172.39 196.383 172.436 196.43C172.483 196.477 172.483 196.552 172.436 196.599L169.798 199.238C169.774 199.262 169.744 199.272 169.713 199.272H169.714Z" fill="#D5F1E4"/>
<path d="M172.643 198.981C172.612 198.981 172.582 198.969 172.558 198.946C172.511 198.9 172.511 198.824 172.558 198.777L174.613 196.722C174.66 196.675 174.735 196.675 174.782 196.722C174.829 196.768 174.829 196.844 174.782 196.891L172.727 198.946C172.703 198.97 172.673 198.981 172.641 198.981H172.643Z" fill="#D5F1E4"/>
<path d="M222.43 198.98C222.399 198.98 222.369 198.968 222.345 198.945L220.289 196.889C220.242 196.842 220.242 196.767 220.289 196.72C220.336 196.673 220.411 196.673 220.458 196.72L222.514 198.776C222.56 198.822 222.56 198.898 222.514 198.945C222.49 198.969 222.46 198.98 222.429 198.98H222.43Z" fill="#D5F1E4"/>
<path d="M220.082 199.271C220.051 199.271 220.021 199.259 219.997 199.237L217.358 196.598C217.312 196.551 217.312 196.476 217.358 196.429C217.405 196.382 217.481 196.382 217.527 196.429L220.166 199.068C220.213 199.114 220.213 199.19 220.166 199.237C220.142 199.261 220.112 199.271 220.081 199.271H220.082Z" fill="#D5F1E4"/>
<path d="M217.153 198.98C217.122 198.98 217.092 198.968 217.068 198.945L215.013 196.889C214.966 196.842 214.966 196.767 215.013 196.72C215.059 196.673 215.135 196.673 215.182 196.72L217.237 198.776C217.284 198.822 217.284 198.898 217.237 198.945C217.213 198.969 217.183 198.98 217.152 198.98H217.153Z" fill="#D5F1E4"/>
</g>
<g filter="url(#filter1_i_531_386)">
<path d="M227.4 190.422C227.4 203.156 217.728 207.342 200.896 207.785C200.105 207.806 189.707 207.785 188.903 207.785C170.953 207.785 162.398 203.753 162.398 190.422C162.398 177.091 179.069 165.212 194.899 165.212C212.049 165.212 227.4 177.091 227.4 190.422Z" fill="#F2F9ED" fill-opacity="0.01"/>
</g>
<path d="M179.112 196.514C182.556 196.514 185.349 193.722 185.349 190.277C185.349 186.833 182.556 184.041 179.112 184.041C175.668 184.041 172.876 186.833 172.876 190.277C172.876 193.722 175.668 196.514 179.112 196.514Z" fill="white"/>
<path d="M179.112 194.154C181.253 194.154 182.989 192.418 182.989 190.277C182.989 188.137 181.253 186.401 179.112 186.401C176.972 186.401 175.236 188.137 175.236 190.277C175.236 192.418 176.972 194.154 179.112 194.154Z" fill="#39393B"/>
<path d="M210.686 196.514C214.131 196.514 216.923 193.722 216.923 190.277C216.923 186.833 214.131 184.041 210.686 184.041C207.242 184.041 204.45 186.833 204.45 190.277C204.45 193.722 207.242 196.514 210.686 196.514Z" fill="white"/>
<path d="M210.687 194.154C212.827 194.154 214.563 192.418 214.563 190.277C214.563 188.137 212.827 186.401 210.687 186.401C208.546 186.401 206.811 188.137 206.811 190.277C206.811 192.418 208.546 194.154 210.687 194.154Z" fill="#39393B"/>
<path d="M194.898 197.353C193.194 197.353 191.624 196.715 190.478 195.556C189.307 194.374 188.662 192.712 188.662 190.877C188.662 189.22 190.004 187.878 191.66 187.878C193.317 187.878 194.659 189.22 194.659 190.877C194.659 191.149 194.713 191.292 194.737 191.334C194.754 191.341 194.805 191.356 194.898 191.356C194.992 191.356 195.042 191.341 195.06 191.334C195.085 191.292 195.138 191.149 195.138 190.877C195.138 189.22 196.48 187.878 198.136 187.878C199.793 187.878 201.135 189.22 201.135 190.877C201.135 192.712 200.489 194.374 199.319 195.556C198.172 196.715 196.603 197.353 194.898 197.353Z" fill="#EE868C"/>
<path d="M194.898 194.475C192.889 194.475 191.54 193.028 191.54 190.877C191.54 190.811 191.594 190.757 191.66 190.757C191.726 190.757 191.78 190.811 191.78 190.877C191.78 192.886 193.033 194.235 194.898 194.235C196.763 194.235 198.016 192.886 198.016 190.877C198.016 190.811 198.07 190.757 198.136 190.757C198.202 190.757 198.256 190.811 198.256 190.877C198.256 193.028 196.907 194.475 194.898 194.475Z" fill="black"/>
<path d="M172.702 181.307L171.6 182.41C170.991 183.019 170.991 184.006 171.6 184.615C172.208 185.223 173.196 185.223 173.804 184.615L174.907 183.512C175.516 182.903 175.516 181.916 174.907 181.307C174.298 180.698 173.311 180.698 172.702 181.307Z" fill="#39393B"/>
<path d="M217.098 181.307C216.489 180.698 215.502 180.698 214.893 181.307C214.285 181.916 214.285 182.903 214.893 183.512L215.996 184.615C216.605 185.223 217.592 185.223 218.201 184.615C218.81 184.006 218.81 183.019 218.201 182.41L217.098 181.307Z" fill="#39393B"/>
</g>
<defs>
<filter id="filter0_d_531_386" x="147" y="125.632" width="96" height="94.8701" filterUnits="userSpaceOnUse" color-interpolation-filters="sRGB">
<feFlood flood-opacity="0" result="BackgroundImageFix"/>
<feColorMatrix in="SourceAlpha" type="matrix" values="0 0 0 0 0 0 0 0 0 0 0 0 0 0 0 0 0 0 127 0" result="hardAlpha"/>
<feOffset/>
<feGaussianBlur stdDeviation="3"/>
<feComposite in2="hardAlpha" operator="out"/>
<feColorMatrix type="matrix" values="0 0 0 0 0.180764 0 0 0 0 0.316667 0 0 0 0 0.266098 0 0 0 0.2 0"/>
<feBlend mode="normal" in2="BackgroundImageFix" result="effect1_dropShadow_531_386"/>
<feBlend mode="normal" in="SourceGraphic" in2="effect1_dropShadow_531_386" result="shape"/>
</filter>
<filter id="filter1_i_531_386" x="162.398" y="165.212" width="65.001" height="43.5825" filterUnits="userSpaceOnUse" color-interpolation-filters="sRGB">
<feFlood flood-opacity="0" result="BackgroundImageFix"/>
<feBlend mode="normal" in="SourceGraphic" in2="BackgroundImageFix" result="shape"/>
<feColorMatrix in="SourceAlpha" type="matrix" values="0 0 0 0 0 0 0 0 0 0 0 0 0 0 0 0 0 0 127 0" result="hardAlpha"/>
<feOffset dy="1"/>
<feGaussianBlur stdDeviation="5.5"/>
<feComposite in2="hardAlpha" operator="arithmetic" k2="-1" k3="1"/>
<feColorMatrix type="matrix" values="0 0 0 0 0.288889 0 0 0 0 0.541667 0 0 0 0 0.4491 0 0 0 1 0"/>
<feBlend mode="normal" in2="shape" result="effect1_innerShadow_531_386"/>
</filter>
<linearGradient id="paint0_linear_531_386" x1="195" y1="0" x2="195" y2="280" gradientUnits="userSpaceOnUse">
<stop stop-color="#2B7362"/>
<stop offset="1" stop-color="#295444"/>
</linearGradient>
<radialGradient id="paint1_radial_531_386" cx="0" cy="0" r="1" gradientUnits="userSpaceOnUse" gradientTransform="translate(215.684 153.58) rotate(124.798) scale(61.1452 64.7913)">
<stop stop-color="#A1E6B4"/>
<stop offset="1" stop-color="#2B7362"/>
</radialGradient>
</defs>
</svg>
