<svg width="390" height="844" viewBox="0 0 390 844" fill="none" xmlns="http://www.w3.org/2000/svg">
<g clip-path="url(#clip0_531_2466)">
<rect width="390" height="844" fill="#F9F6F3"/>
<rect width="390" height="844" fill="url(#paint0_linear_531_2466)"/>
<path fill-rule="evenodd" clip-rule="evenodd" d="M323.929 20.98H325.313C325.688 20.98 326.005 21.4163 326.005 21.9318V25.7391C326.005 26.2547 325.688 26.6909 325.313 26.6909H323.929C323.554 26.6909 323.236 26.2547 323.236 25.7391V21.9318C323.236 21.4163 323.554 20.98 323.929 20.98ZM328.082 19.0764H329.466C329.841 19.0764 330.159 19.5126 330.159 20.0282V25.7391C330.159 26.2547 329.841 26.6909 329.466 26.6909H328.082C327.707 26.6909 327.39 26.2547 327.39 25.7391V20.0282C327.39 19.5126 327.707 19.0764 328.082 19.0764ZM332.235 16.5382H333.62C333.995 16.5382 334.312 16.9744 334.312 17.49V25.7391C334.312 26.2547 333.995 26.6909 333.62 26.6909H332.235C331.86 26.6909 331.543 26.2547 331.543 25.7391V17.5297C331.543 17.0141 331.86 16.5778 332.235 16.5778V16.5382ZM336.389 14H337.773C338.148 14 338.465 14.4363 338.465 14.9518V25.6994C338.465 26.215 338.148 26.6513 337.773 26.6513H336.389C336.014 26.6513 335.696 26.215 335.696 25.6994V14.9915C335.696 14.4759 336.014 14.0397 336.389 14.0397V14Z" fill="#F9F6F3"/>
<path d="M349.959 23.3477C349.959 23.3477 349.735 23.5716 349.735 23.7208C349.735 23.87 349.773 24.0192 349.885 24.1311L351.824 26.0709C351.824 26.0709 352.048 26.2201 352.197 26.2201C352.347 26.2201 352.459 26.1828 352.57 26.0709L354.51 24.1311C354.51 24.1311 354.659 23.87 354.659 23.7208C354.659 23.5716 354.548 23.4223 354.436 23.3477C353.13 22.4524 351.302 22.4524 349.959 23.3477Z" fill="#F9F6F3"/>
<path d="M352.161 18.4985C350.258 18.4985 348.393 19.17 346.938 20.401C346.827 20.5129 346.752 20.6248 346.752 20.774C346.752 20.9233 346.789 21.0725 346.901 21.1844L347.946 22.2289C348.132 22.4154 348.431 22.4154 348.654 22.2289C349.662 21.4082 350.855 20.9979 352.161 20.9979C353.467 20.9979 354.698 21.4455 355.667 22.2662C355.779 22.3408 355.891 22.3781 356.003 22.3781C356.152 22.3781 356.264 22.3408 356.376 22.2289L357.421 21.1844C357.421 21.1844 357.57 20.9233 357.57 20.774C357.57 20.6248 357.495 20.4756 357.383 20.401C355.929 19.17 354.063 18.4985 352.124 18.4985H352.161Z" fill="#F9F6F3"/>
<path d="M360.294 17.5659C358.056 15.5515 355.184 14.4697 352.199 14.4697C349.215 14.4697 346.305 15.5888 344.104 17.5659C343.993 17.6778 343.918 17.7897 343.918 17.939C343.918 18.0882 343.955 18.2374 344.067 18.312L345.112 19.3565C345.112 19.3565 345.335 19.5057 345.485 19.5057C345.597 19.5057 345.746 19.4684 345.82 19.3565C347.574 17.827 349.812 16.9691 352.162 16.9691C354.512 16.9691 356.75 17.827 358.504 19.3565C358.727 19.543 359.026 19.543 359.212 19.3565L360.257 18.312C360.257 18.312 360.406 18.0509 360.406 17.939C360.406 17.7897 360.332 17.6405 360.22 17.5659H360.294Z" fill="#F9F6F3"/>
<path d="M18.9192 25.5718H17.6128V17.3227C17.3142 17.6213 16.9036 17.9199 16.3811 18.2185C15.8585 18.5172 15.4106 18.7411 15 18.8904V17.6213C15.7092 17.2854 16.3437 16.8748 16.9036 16.3896C17.4635 15.9043 17.8368 15.4191 18.0607 14.9712H18.8819V25.5718H18.9192Z" fill="#F9F6F3"/>
<path d="M22.2432 20.3459C22.2432 19.1141 22.3551 18.1063 22.6164 17.3225C22.8777 16.5759 23.251 15.9787 23.7735 15.5681C24.2961 15.1575 24.9306 14.9336 25.6772 14.9336C26.237 14.9336 26.7596 15.0456 27.1702 15.2695C27.5808 15.4935 27.954 15.8294 28.2153 16.24C28.4766 16.6506 28.7006 17.1732 28.8872 17.8077C29.0365 18.4049 29.1111 19.2634 29.1111 20.3085C29.1111 21.5403 28.9992 22.5481 28.7379 23.2946C28.4766 24.0411 28.1033 24.6383 27.5808 25.0489C27.0582 25.4595 26.4237 25.6835 25.6772 25.6835C24.6693 25.6835 23.8482 25.3102 23.2883 24.601C22.5791 23.7052 22.2432 22.2868 22.2432 20.3085V20.3459ZM23.5869 20.3459C23.5869 22.0628 23.7735 23.22 24.1841 23.8172C24.5947 24.3771 25.0799 24.6757 25.6772 24.6757C26.2744 24.6757 26.7596 24.3771 27.1702 23.8172C27.5808 23.2573 27.7674 22.1002 27.7674 20.3459C27.7674 18.5915 27.5808 17.4344 27.1702 16.8745C26.7596 16.3147 26.2744 16.016 25.6398 16.016C25.0053 16.016 24.5574 16.2773 24.2214 16.7626C23.7735 17.3971 23.5496 18.5915 23.5496 20.3459H23.5869Z" fill="#F9F6F3"/>
<path d="M31.1631 19.413V17.9199H32.6561V19.413H31.1631ZM31.1631 25.5717V24.0787H32.6561V25.5717H31.1631Z" fill="#F9F6F3"/>
<path d="M34.5586 22.7723L35.865 22.5857C36.0143 23.3322 36.2756 23.8548 36.6115 24.1907C36.9475 24.5266 37.3954 24.6759 37.9179 24.6759C38.5151 24.6759 39.0377 24.452 39.4483 24.0414C39.8589 23.6308 40.0828 23.1082 40.0828 22.4737C40.0828 21.8392 39.8962 21.3913 39.4856 21.018C39.1124 20.6447 38.5898 20.4208 37.9926 20.4208C37.7313 20.4208 37.4327 20.4581 37.0594 20.5701L37.2087 19.4503C37.2087 19.4503 37.358 19.4503 37.4327 19.4503C37.9926 19.4503 38.4778 19.301 38.9257 19.0024C39.3736 18.7038 39.5976 18.2559 39.5976 17.6587C39.5976 17.1734 39.4483 16.8002 39.1124 16.4642C38.7764 16.1656 38.3658 16.0163 37.8806 16.0163C37.3954 16.0163 36.9475 16.1656 36.6115 16.5016C36.2756 16.8002 36.0516 17.2854 35.977 17.9199L34.6706 17.696C34.8199 16.8375 35.1931 16.1656 35.753 15.6804C36.3129 15.1951 37.0221 14.9712 37.8433 14.9712C38.4032 14.9712 38.9631 15.0832 39.4483 15.3445C39.9335 15.6057 40.3068 15.9417 40.5681 16.3523C40.8294 16.7628 40.9413 17.2481 40.9413 17.696C40.9413 18.1439 40.8294 18.5545 40.5681 18.9277C40.3068 19.301 39.9709 19.5996 39.4856 19.8236C40.1202 19.9729 40.6054 20.2715 40.9413 20.7194C41.2773 21.1673 41.4639 21.7272 41.4639 22.4364C41.4639 23.3695 41.128 24.1534 40.4561 24.7879C39.7842 25.4225 38.9257 25.7584 37.9179 25.7584C36.9848 25.7584 36.2383 25.4971 35.6037 24.9372C35.0065 24.3773 34.6332 23.6681 34.5586 22.7723Z" fill="#F9F6F3"/>
<path d="M42.7725 20.3459C42.7725 19.1141 42.8844 18.1063 43.1457 17.3225C43.407 16.5759 43.7803 15.9787 44.3028 15.5681C44.8254 15.1575 45.4599 14.9336 46.2064 14.9336C46.7663 14.9336 47.2889 15.0456 47.6995 15.2695C48.1101 15.4935 48.4833 15.8294 48.7446 16.24C49.0059 16.6879 49.2298 17.1732 49.4165 17.8077C49.5658 18.4049 49.6404 19.2634 49.6404 20.3085C49.6404 21.5403 49.5285 22.5481 49.2672 23.2946C49.0059 24.0411 48.6326 24.6383 48.1101 25.0489C47.5875 25.4595 46.953 25.6835 46.2064 25.6835C45.1986 25.6835 44.3775 25.3102 43.8176 24.601C43.1084 23.7052 42.7725 22.2868 42.7725 20.3085V20.3459ZM44.1162 20.3459C44.1162 22.0628 44.3028 23.22 44.7134 23.8172C45.124 24.3771 45.6092 24.6757 46.2064 24.6757C46.8037 24.6757 47.2889 24.3771 47.6995 23.8172C48.1101 23.2573 48.2967 22.1002 48.2967 20.3459C48.2967 18.5915 48.1101 17.4344 47.6995 16.8745C47.2889 16.3147 46.8037 16.016 46.1691 16.016C45.5346 16.016 45.0867 16.2773 44.7507 16.7626C44.3028 17.3971 44.0789 18.5915 44.0789 20.3459H44.1162Z" fill="#F9F6F3"/>
<path d="M366.386 21.6143H374V24.6906C374 25.7952 373.105 26.6906 372 26.6906H368.386C367.281 26.6906 366.386 25.7952 366.386 24.6906V21.6143Z" fill="#F9F6F3"/>
<path d="M368 16C368 15.4477 368.448 15 369 15H371C371.552 15 372 15.4477 372 16V17H368V16Z" fill="#F9F6F3"/>
<rect x="366.886" y="17.0381" width="6.61455" height="9.15273" rx="0.5" stroke="#F9F6F3"/>
<circle cx="195" cy="278" r="75" fill="#F9F6F3" fill-opacity="0.9"/>
<g filter="url(#filter0_d_531_2466)">
<path d="M194.848 245.92C194.848 245.92 197.049 228.209 174.756 229.2C174.756 229.2 176.424 253.474 194.848 245.92Z" fill="#295444"/>
<path d="M195.924 246.932C195.924 246.932 220.788 255.182 225.759 222.807C225.759 222.807 190.337 218.24 195.924 246.932Z" fill="#295444"/>
<path d="M247.343 293.148C245.351 266.689 222.426 247.248 198.77 245.332C198.244 245.29 197.728 245.146 197.274 244.88C196.502 244.425 195.838 243.65 195.838 242.328C195.838 239.78 196.597 233.221 198.022 229.01C198.35 228.04 197.623 227.037 196.6 227.037H194.961H193.3C192.276 227.037 191.551 228.04 191.877 229.01C193.303 233.221 194.062 239.78 194.062 242.328C194.062 243.565 193.478 244.323 192.772 244.788C192.281 245.11 191.706 245.283 191.12 245.328C167.383 247.191 143.693 266.119 142.555 293.148C141.522 317.685 155.029 326.128 181.153 326.128H208.744C234.867 326.128 249.185 317.637 247.341 293.148H247.343Z" fill="url(#paint1_radial_531_2466)"/>
<path d="M235.5 296.028C235.5 311.945 223.409 317.177 202.369 317.732C201.382 317.758 188.384 317.732 187.378 317.732C164.941 317.732 154.248 312.692 154.248 296.028C154.248 279.364 175.086 264.515 194.874 264.515C216.311 264.515 235.5 279.364 235.5 296.028Z" fill="#D6EBDD"/>
<mask id="mask0_531_2466" style="mask-type:luminance" maskUnits="userSpaceOnUse" x="154" y="264" width="82" height="54">
<path d="M235.504 296.029C235.504 311.946 223.413 317.178 202.373 317.733C201.385 317.758 188.388 317.733 187.382 317.733C164.945 317.733 154.252 312.693 154.252 296.029C154.252 279.365 175.09 264.516 194.878 264.516C216.315 264.516 235.504 279.365 235.504 296.029Z" fill="white"/>
</mask>
<g mask="url(#mask0_531_2466)">
<path d="M165.043 315.785C170.838 315.785 175.536 311.087 175.536 305.292C175.536 299.496 170.838 294.798 165.043 294.798C159.247 294.798 154.549 299.496 154.549 305.292C154.549 311.087 159.247 315.785 165.043 315.785Z" fill="#A8D9B8"/>
<path d="M224.709 315.785C230.504 315.785 235.202 311.087 235.202 305.292C235.202 299.496 230.504 294.798 224.709 294.798C218.913 294.798 214.215 299.496 214.215 305.292C214.215 311.087 218.913 315.785 224.709 315.785Z" fill="#A8D9B8"/>
<path d="M160.46 306.727C160.421 306.727 160.383 306.712 160.353 306.683C160.295 306.625 160.295 306.53 160.353 306.472L162.923 303.902C162.981 303.844 163.076 303.844 163.134 303.902C163.193 303.961 163.193 304.055 163.134 304.114L160.565 306.683C160.535 306.713 160.497 306.727 160.458 306.727H160.46Z" fill="#D5F1E4"/>
<path d="M163.394 307.091C163.355 307.091 163.318 307.076 163.288 307.047C163.23 306.989 163.23 306.894 163.288 306.836L166.586 303.538C166.644 303.48 166.739 303.48 166.797 303.538C166.856 303.596 166.856 303.691 166.797 303.749L163.499 307.047C163.469 307.077 163.432 307.091 163.393 307.091H163.394Z" fill="#D5F1E4"/>
<path d="M167.056 306.727C167.017 306.727 166.979 306.712 166.949 306.683C166.891 306.625 166.891 306.53 166.949 306.472L169.519 303.902C169.577 303.844 169.672 303.844 169.73 303.902C169.788 303.961 169.788 304.055 169.73 304.114L167.16 306.683C167.131 306.713 167.093 306.727 167.054 306.727H167.056Z" fill="#D5F1E4"/>
<path d="M229.289 306.725C229.25 306.725 229.213 306.71 229.183 306.681L226.613 304.112C226.555 304.053 226.555 303.959 226.613 303.9C226.672 303.842 226.766 303.842 226.825 303.9L229.394 306.47C229.452 306.528 229.452 306.623 229.394 306.681C229.364 306.711 229.327 306.725 229.288 306.725H229.289Z" fill="#D5F1E4"/>
<path d="M226.355 307.089C226.316 307.089 226.278 307.074 226.248 307.046L222.95 303.748C222.892 303.689 222.892 303.595 222.95 303.537C223.009 303.478 223.103 303.478 223.161 303.537L226.46 306.835C226.518 306.893 226.518 306.987 226.46 307.046C226.43 307.076 226.392 307.089 226.353 307.089H226.355Z" fill="#D5F1E4"/>
<path d="M222.693 306.725C222.654 306.725 222.617 306.71 222.587 306.681L220.017 304.112C219.959 304.053 219.959 303.959 220.017 303.9C220.076 303.842 220.17 303.842 220.229 303.9L222.798 306.47C222.857 306.528 222.857 306.623 222.798 306.681C222.768 306.711 222.731 306.725 222.692 306.725H222.693Z" fill="#D5F1E4"/>
</g>
<g filter="url(#filter1_i_531_2466)">
<path d="M235.5 296.028C235.5 311.945 223.409 317.177 202.369 317.732C201.382 317.758 188.384 317.732 187.378 317.732C164.941 317.732 154.248 312.692 154.248 296.028C154.248 279.364 175.086 264.515 194.874 264.515C216.311 264.515 235.5 279.364 235.5 296.028Z" fill="#F2F9ED" fill-opacity="0.01"/>
</g>
<path d="M175.141 303.642C179.446 303.642 182.936 300.152 182.936 295.847C182.936 291.541 179.446 288.051 175.141 288.051C170.836 288.051 167.346 291.541 167.346 295.847C167.346 300.152 170.836 303.642 175.141 303.642Z" fill="white"/>
<path d="M175.141 300.692C177.817 300.692 179.986 298.523 179.986 295.847C179.986 293.171 177.817 291.002 175.141 291.002C172.465 291.002 170.296 293.171 170.296 295.847C170.296 298.523 172.465 300.692 175.141 300.692Z" fill="#39393B"/>
<path d="M214.609 303.642C218.914 303.642 222.404 300.152 222.404 295.847C222.404 291.541 218.914 288.051 214.609 288.051C210.304 288.051 206.813 291.541 206.813 295.847C206.813 300.152 210.304 303.642 214.609 303.642Z" fill="white"/>
<path d="M214.609 300.692C217.285 300.692 219.454 298.523 219.454 295.847C219.454 293.171 217.285 291.002 214.609 291.002C211.933 291.002 209.764 293.171 209.764 295.847C209.764 298.523 211.933 300.692 214.609 300.692Z" fill="#39393B"/>
<path d="M194.873 304.691C192.742 304.691 190.78 303.894 189.347 302.445C187.884 300.967 187.077 298.89 187.077 296.596C187.077 294.526 188.755 292.848 190.825 292.848C192.895 292.848 194.573 294.526 194.573 296.596C194.573 296.936 194.64 297.115 194.67 297.167C194.693 297.176 194.756 297.196 194.873 297.196C194.989 297.196 195.052 297.176 195.075 297.167C195.106 297.115 195.172 296.936 195.172 296.596C195.172 294.526 196.85 292.848 198.92 292.848C200.99 292.848 202.668 294.526 202.668 296.596C202.668 298.89 201.861 300.967 200.398 302.445C198.965 303.894 197.003 304.691 194.873 304.691Z" fill="#EE868C"/>
<path d="M194.872 301.094C192.361 301.094 190.675 299.286 190.675 296.596C190.675 296.514 190.742 296.446 190.825 296.446C190.907 296.446 190.975 296.514 190.975 296.596C190.975 299.107 192.541 300.794 194.872 300.794C197.203 300.794 198.77 299.107 198.77 296.596C198.77 296.514 198.837 296.446 198.92 296.446C199.002 296.446 199.07 296.514 199.07 296.596C199.07 299.286 197.383 301.094 194.872 301.094Z" fill="black"/>
<path d="M167.127 284.634L165.749 286.012C164.988 286.773 164.988 288.007 165.749 288.768C166.51 289.529 167.744 289.529 168.505 288.768L169.883 287.39C170.644 286.629 170.644 285.395 169.883 284.634C169.122 283.873 167.888 283.873 167.127 284.634Z" fill="#39393B"/>
<path d="M222.622 284.634C221.861 283.873 220.627 283.873 219.866 284.634C219.105 285.395 219.105 286.629 219.866 287.39L221.244 288.768C222.005 289.529 223.239 289.529 224 288.768C224.762 288.007 224.762 286.773 224 286.012L222.622 284.634Z" fill="#39393B"/>
</g>
<rect x="62" y="432" width="266" height="55" rx="27.5" fill="#FC976B"/>
<path d="M106.207 464.391V466.5H99.0586V464.391H106.207ZM99.8691 452.281V466.5H97.1836V452.281H99.8691ZM107.35 461.324V461.119C107.35 460.344 107.46 459.632 107.682 458.98C107.903 458.323 108.225 457.753 108.648 457.271C109.072 456.79 109.589 456.415 110.201 456.148C110.813 455.875 111.51 455.738 112.291 455.738C113.085 455.738 113.788 455.875 114.4 456.148C115.019 456.415 115.54 456.79 115.963 457.271C116.386 457.753 116.708 458.323 116.93 458.98C117.151 459.632 117.262 460.344 117.262 461.119V461.324C117.262 462.092 117.151 462.805 116.93 463.463C116.708 464.114 116.386 464.684 115.963 465.172C115.54 465.654 115.022 466.028 114.41 466.295C113.798 466.562 113.098 466.695 112.311 466.695C111.529 466.695 110.829 466.562 110.211 466.295C109.592 466.028 109.072 465.654 108.648 465.172C108.225 464.684 107.903 464.114 107.682 463.463C107.46 462.805 107.35 462.092 107.35 461.324ZM109.928 461.119V461.324C109.928 461.786 109.973 462.219 110.064 462.623C110.156 463.027 110.296 463.382 110.484 463.688C110.673 463.993 110.917 464.234 111.217 464.41C111.523 464.579 111.887 464.664 112.311 464.664C112.727 464.664 113.085 464.579 113.385 464.41C113.684 464.234 113.928 463.993 114.117 463.688C114.312 463.382 114.456 463.027 114.547 462.623C114.638 462.219 114.684 461.786 114.684 461.324V461.119C114.684 460.663 114.638 460.237 114.547 459.84C114.456 459.436 114.312 459.081 114.117 458.775C113.928 458.463 113.681 458.219 113.375 458.043C113.076 457.861 112.714 457.77 112.291 457.77C111.874 457.77 111.516 457.861 111.217 458.043C110.917 458.219 110.673 458.463 110.484 458.775C110.296 459.081 110.156 459.436 110.064 459.84C109.973 460.237 109.928 460.663 109.928 461.119ZM125.855 455.934H128.199V466.178C128.199 467.135 127.991 467.945 127.574 468.609C127.164 469.28 126.588 469.788 125.846 470.133C125.104 470.484 124.241 470.66 123.258 470.66C122.835 470.66 122.376 470.602 121.881 470.484C121.393 470.367 120.921 470.182 120.465 469.928C120.016 469.68 119.641 469.358 119.342 468.961L120.504 467.438C120.855 467.848 121.253 468.157 121.695 468.365C122.138 468.58 122.617 468.688 123.131 468.688C123.652 468.688 124.094 468.59 124.459 468.395C124.83 468.206 125.113 467.926 125.309 467.555C125.51 467.19 125.611 466.741 125.611 466.207V458.346L125.855 455.934ZM118.717 461.344V461.139C118.717 460.331 118.814 459.599 119.01 458.941C119.205 458.277 119.485 457.708 119.85 457.232C120.221 456.757 120.667 456.389 121.188 456.129C121.715 455.868 122.307 455.738 122.965 455.738C123.661 455.738 124.247 455.865 124.723 456.119C125.204 456.373 125.602 456.734 125.914 457.203C126.233 457.672 126.48 458.229 126.656 458.873C126.839 459.511 126.979 460.214 127.076 460.982V461.539C126.985 462.288 126.839 462.975 126.637 463.6C126.441 464.225 126.181 464.771 125.855 465.24C125.53 465.702 125.126 466.061 124.645 466.314C124.163 466.568 123.596 466.695 122.945 466.695C122.294 466.695 121.708 466.562 121.188 466.295C120.667 466.028 120.221 465.654 119.85 465.172C119.485 464.69 119.205 464.124 119.01 463.473C118.814 462.822 118.717 462.112 118.717 461.344ZM121.295 461.139V461.344C121.295 461.799 121.34 462.226 121.432 462.623C121.523 463.02 121.663 463.372 121.852 463.678C122.04 463.977 122.278 464.212 122.564 464.381C122.851 464.55 123.193 464.635 123.59 464.635C124.124 464.635 124.56 464.524 124.898 464.303C125.243 464.075 125.504 463.766 125.68 463.375C125.862 462.978 125.979 462.532 126.031 462.037V460.504C125.999 460.113 125.927 459.752 125.816 459.42C125.712 459.088 125.566 458.801 125.377 458.561C125.188 458.32 124.947 458.131 124.654 457.994C124.361 457.857 124.013 457.789 123.609 457.789C123.219 457.789 122.877 457.877 122.584 458.053C122.291 458.222 122.05 458.46 121.861 458.766C121.673 459.072 121.529 459.426 121.432 459.83C121.34 460.234 121.295 460.67 121.295 461.139ZM133.258 455.934V466.5H130.67V455.934H133.258ZM130.494 453.17C130.494 452.786 130.624 452.467 130.885 452.213C131.152 451.959 131.51 451.832 131.959 451.832C132.408 451.832 132.763 451.959 133.023 452.213C133.29 452.467 133.424 452.786 133.424 453.17C133.424 453.548 133.29 453.863 133.023 454.117C132.763 454.371 132.408 454.498 131.959 454.498C131.51 454.498 131.152 454.371 130.885 454.117C130.624 453.863 130.494 453.548 130.494 453.17ZM138.248 458.189V466.5H135.67V455.934H138.092L138.248 458.189ZM137.838 460.836H137.076C137.083 460.068 137.187 459.371 137.389 458.746C137.59 458.121 137.874 457.584 138.238 457.135C138.609 456.686 139.049 456.34 139.557 456.1C140.064 455.859 140.631 455.738 141.256 455.738C141.764 455.738 142.223 455.81 142.633 455.953C143.043 456.096 143.395 456.324 143.688 456.637C143.987 456.949 144.215 457.359 144.371 457.867C144.534 458.368 144.615 458.987 144.615 459.723V466.5H142.018V459.703C142.018 459.221 141.946 458.84 141.803 458.561C141.666 458.281 141.464 458.082 141.197 457.965C140.937 457.848 140.615 457.789 140.23 457.789C139.833 457.789 139.485 457.87 139.186 458.033C138.893 458.189 138.645 458.408 138.443 458.688C138.248 458.967 138.098 459.29 137.994 459.654C137.89 460.019 137.838 460.413 137.838 460.836ZM154.811 463.961L157.125 455.934H158.766L158.277 458.707L155.943 466.5H154.527L154.811 463.961ZM153.531 455.934L155.27 463.98L155.426 466.5H153.795L151.021 455.934H153.531ZM160.914 463.863L162.613 455.934H165.113L162.359 466.5H160.729L160.914 463.863ZM159.02 455.934L161.314 463.883L161.617 466.5H160.201L157.848 458.707L157.369 455.934H159.02ZM169.371 455.934V466.5H166.783V455.934H169.371ZM166.607 453.17C166.607 452.786 166.738 452.467 166.998 452.213C167.265 451.959 167.623 451.832 168.072 451.832C168.521 451.832 168.876 451.959 169.137 452.213C169.404 452.467 169.537 452.786 169.537 453.17C169.537 453.548 169.404 453.863 169.137 454.117C168.876 454.371 168.521 454.498 168.072 454.498C167.623 454.498 167.265 454.371 166.998 454.117C166.738 453.863 166.607 453.548 166.607 453.17ZM176.832 455.934V457.789H170.777V455.934H176.832ZM172.398 453.336H174.986V463.453C174.986 463.766 175.029 464.007 175.113 464.176C175.198 464.345 175.325 464.459 175.494 464.518C175.663 464.576 175.865 464.605 176.1 464.605C176.269 464.605 176.425 464.596 176.568 464.576C176.712 464.557 176.832 464.537 176.93 464.518L176.939 466.451C176.725 466.523 176.48 466.581 176.207 466.627C175.94 466.673 175.637 466.695 175.299 466.695C174.719 466.695 174.212 466.598 173.775 466.402C173.339 466.201 173.001 465.878 172.76 465.436C172.519 464.986 172.398 464.394 172.398 463.658V453.336ZM181.08 451.5V466.5H178.492V451.5H181.08ZM180.67 460.836H179.908C179.908 460.1 180.006 459.423 180.201 458.805C180.396 458.186 180.673 457.649 181.031 457.193C181.389 456.731 181.816 456.373 182.311 456.119C182.812 455.865 183.365 455.738 183.971 455.738C184.492 455.738 184.964 455.813 185.387 455.963C185.816 456.106 186.184 456.337 186.49 456.656C186.796 456.975 187.031 457.392 187.193 457.906C187.363 458.414 187.447 459.033 187.447 459.762V466.5H184.85V459.742C184.85 459.254 184.778 458.87 184.635 458.59C184.492 458.303 184.286 458.098 184.02 457.975C183.759 457.851 183.437 457.789 183.053 457.789C182.636 457.789 182.278 457.87 181.979 458.033C181.679 458.189 181.432 458.408 181.236 458.688C181.048 458.967 180.904 459.29 180.807 459.654C180.715 460.019 180.67 460.413 180.67 460.836ZM205.992 459.146V464.684C205.784 464.951 205.455 465.24 205.006 465.553C204.563 465.865 203.984 466.135 203.268 466.363C202.551 466.585 201.673 466.695 200.631 466.695C199.726 466.695 198.899 466.546 198.15 466.246C197.402 465.94 196.757 465.494 196.217 464.908C195.676 464.322 195.26 463.606 194.967 462.76C194.674 461.913 194.527 460.947 194.527 459.859V458.922C194.527 457.835 194.664 456.868 194.938 456.021C195.217 455.175 195.615 454.459 196.129 453.873C196.65 453.287 197.271 452.841 197.994 452.535C198.723 452.229 199.537 452.076 200.436 452.076C201.64 452.076 202.63 452.275 203.404 452.672C204.186 453.069 204.785 453.616 205.201 454.312C205.618 455.003 205.878 455.797 205.982 456.695H203.365C203.294 456.201 203.15 455.768 202.936 455.396C202.721 455.019 202.415 454.726 202.018 454.518C201.627 454.303 201.119 454.195 200.494 454.195C199.967 454.195 199.501 454.299 199.098 454.508C198.694 454.716 198.355 455.019 198.082 455.416C197.809 455.813 197.6 456.305 197.457 456.891C197.32 457.477 197.252 458.147 197.252 458.902V459.859C197.252 460.621 197.33 461.298 197.486 461.891C197.643 462.477 197.867 462.971 198.16 463.375C198.46 463.772 198.827 464.075 199.264 464.283C199.706 464.485 200.208 464.586 200.768 464.586C201.275 464.586 201.695 464.544 202.027 464.459C202.366 464.368 202.636 464.26 202.838 464.137C203.04 464.013 203.196 463.893 203.307 463.775V461.109H200.484V459.146H205.992ZM207.877 461.324V461.119C207.877 460.344 207.988 459.632 208.209 458.98C208.43 458.323 208.753 457.753 209.176 457.271C209.599 456.79 210.117 456.415 210.729 456.148C211.34 455.875 212.037 455.738 212.818 455.738C213.613 455.738 214.316 455.875 214.928 456.148C215.546 456.415 216.067 456.79 216.49 457.271C216.913 457.753 217.236 458.323 217.457 458.98C217.678 459.632 217.789 460.344 217.789 461.119V461.324C217.789 462.092 217.678 462.805 217.457 463.463C217.236 464.114 216.913 464.684 216.49 465.172C216.067 465.654 215.549 466.028 214.938 466.295C214.326 466.562 213.626 466.695 212.838 466.695C212.057 466.695 211.357 466.562 210.738 466.295C210.12 466.028 209.599 465.654 209.176 465.172C208.753 464.684 208.43 464.114 208.209 463.463C207.988 462.805 207.877 462.092 207.877 461.324ZM210.455 461.119V461.324C210.455 461.786 210.501 462.219 210.592 462.623C210.683 463.027 210.823 463.382 211.012 463.688C211.201 463.993 211.445 464.234 211.744 464.41C212.05 464.579 212.415 464.664 212.838 464.664C213.255 464.664 213.613 464.579 213.912 464.41C214.212 464.234 214.456 463.993 214.645 463.688C214.84 463.382 214.983 463.027 215.074 462.623C215.165 462.219 215.211 461.786 215.211 461.324V461.119C215.211 460.663 215.165 460.237 215.074 459.84C214.983 459.436 214.84 459.081 214.645 458.775C214.456 458.463 214.208 458.219 213.902 458.043C213.603 457.861 213.242 457.77 212.818 457.77C212.402 457.77 212.044 457.861 211.744 458.043C211.445 458.219 211.201 458.463 211.012 458.775C210.823 459.081 210.683 459.436 210.592 459.84C210.501 460.237 210.455 460.663 210.455 461.119ZM219.205 461.324V461.119C219.205 460.344 219.316 459.632 219.537 458.98C219.758 458.323 220.081 457.753 220.504 457.271C220.927 456.79 221.445 456.415 222.057 456.148C222.669 455.875 223.365 455.738 224.146 455.738C224.941 455.738 225.644 455.875 226.256 456.148C226.874 456.415 227.395 456.79 227.818 457.271C228.242 457.753 228.564 458.323 228.785 458.98C229.007 459.632 229.117 460.344 229.117 461.119V461.324C229.117 462.092 229.007 462.805 228.785 463.463C228.564 464.114 228.242 464.684 227.818 465.172C227.395 465.654 226.878 466.028 226.266 466.295C225.654 466.562 224.954 466.695 224.166 466.695C223.385 466.695 222.685 466.562 222.066 466.295C221.448 466.028 220.927 465.654 220.504 465.172C220.081 464.684 219.758 464.114 219.537 463.463C219.316 462.805 219.205 462.092 219.205 461.324ZM221.783 461.119V461.324C221.783 461.786 221.829 462.219 221.92 462.623C222.011 463.027 222.151 463.382 222.34 463.688C222.529 463.993 222.773 464.234 223.072 464.41C223.378 464.579 223.743 464.664 224.166 464.664C224.583 464.664 224.941 464.579 225.24 464.41C225.54 464.234 225.784 463.993 225.973 463.688C226.168 463.382 226.311 463.027 226.402 462.623C226.493 462.219 226.539 461.786 226.539 461.324V461.119C226.539 460.663 226.493 460.237 226.402 459.84C226.311 459.436 226.168 459.081 225.973 458.775C225.784 458.463 225.536 458.219 225.23 458.043C224.931 457.861 224.57 457.77 224.146 457.77C223.73 457.77 223.372 457.861 223.072 458.043C222.773 458.219 222.529 458.463 222.34 458.775C222.151 459.081 222.011 459.436 221.92 459.84C221.829 460.237 221.783 460.663 221.783 461.119ZM237.711 455.934H240.055V466.178C240.055 467.135 239.846 467.945 239.43 468.609C239.02 469.28 238.443 469.788 237.701 470.133C236.959 470.484 236.096 470.66 235.113 470.66C234.69 470.66 234.231 470.602 233.736 470.484C233.248 470.367 232.776 470.182 232.32 469.928C231.871 469.68 231.497 469.358 231.197 468.961L232.359 467.438C232.711 467.848 233.108 468.157 233.551 468.365C233.993 468.58 234.472 468.688 234.986 468.688C235.507 468.688 235.95 468.59 236.314 468.395C236.686 468.206 236.969 467.926 237.164 467.555C237.366 467.19 237.467 466.741 237.467 466.207V458.346L237.711 455.934ZM230.572 461.344V461.139C230.572 460.331 230.67 459.599 230.865 458.941C231.061 458.277 231.34 457.708 231.705 457.232C232.076 456.757 232.522 456.389 233.043 456.129C233.57 455.868 234.163 455.738 234.82 455.738C235.517 455.738 236.103 455.865 236.578 456.119C237.06 456.373 237.457 456.734 237.77 457.203C238.089 457.672 238.336 458.229 238.512 458.873C238.694 459.511 238.834 460.214 238.932 460.982V461.539C238.84 462.288 238.694 462.975 238.492 463.6C238.297 464.225 238.036 464.771 237.711 465.24C237.385 465.702 236.982 466.061 236.5 466.314C236.018 466.568 235.452 466.695 234.801 466.695C234.15 466.695 233.564 466.562 233.043 466.295C232.522 466.028 232.076 465.654 231.705 465.172C231.34 464.69 231.061 464.124 230.865 463.473C230.67 462.822 230.572 462.112 230.572 461.344ZM233.15 461.139V461.344C233.15 461.799 233.196 462.226 233.287 462.623C233.378 463.02 233.518 463.372 233.707 463.678C233.896 463.977 234.133 464.212 234.42 464.381C234.706 464.55 235.048 464.635 235.445 464.635C235.979 464.635 236.415 464.524 236.754 464.303C237.099 464.075 237.359 463.766 237.535 463.375C237.717 462.978 237.835 462.532 237.887 462.037V460.504C237.854 460.113 237.783 459.752 237.672 459.42C237.568 459.088 237.421 458.801 237.232 458.561C237.044 458.32 236.803 458.131 236.51 457.994C236.217 457.857 235.868 457.789 235.465 457.789C235.074 457.789 234.732 457.877 234.439 458.053C234.146 458.222 233.906 458.46 233.717 458.766C233.528 459.072 233.385 459.426 233.287 459.83C233.196 460.234 233.15 460.67 233.15 461.139ZM245.113 451.5V466.5H242.525V451.5H245.113ZM252.32 466.695C251.52 466.695 250.8 466.565 250.162 466.305C249.524 466.044 248.98 465.683 248.531 465.221C248.089 464.752 247.747 464.208 247.506 463.59C247.271 462.965 247.154 462.294 247.154 461.578V461.188C247.154 460.374 247.271 459.635 247.506 458.971C247.74 458.3 248.072 457.724 248.502 457.242C248.932 456.76 249.446 456.389 250.045 456.129C250.644 455.868 251.305 455.738 252.027 455.738C252.776 455.738 253.437 455.865 254.01 456.119C254.583 456.367 255.061 456.718 255.445 457.174C255.829 457.63 256.119 458.176 256.314 458.814C256.51 459.446 256.607 460.146 256.607 460.914V461.998H248.326V460.221H254.068V460.025C254.055 459.615 253.977 459.241 253.834 458.902C253.691 458.557 253.469 458.284 253.17 458.082C252.87 457.874 252.483 457.77 252.008 457.77C251.624 457.77 251.288 457.854 251.002 458.023C250.722 458.186 250.488 458.421 250.299 458.727C250.117 459.026 249.98 459.384 249.889 459.801C249.798 460.217 249.752 460.68 249.752 461.188V461.578C249.752 462.021 249.811 462.431 249.928 462.809C250.051 463.186 250.23 463.515 250.465 463.795C250.706 464.068 250.992 464.283 251.324 464.439C251.663 464.589 252.047 464.664 252.477 464.664C253.017 464.664 253.505 464.56 253.941 464.352C254.384 464.137 254.768 463.821 255.094 463.404L256.393 464.752C256.171 465.077 255.872 465.39 255.494 465.689C255.123 465.989 254.674 466.233 254.146 466.422C253.619 466.604 253.01 466.695 252.32 466.695Z" fill="white"/>
<path fill-rule="evenodd" clip-rule="evenodd" d="M275.188 451.5H273.5C272.948 451.5 272.5 451.948 272.5 452.5V452.541L283.5 460.571L294.5 452.54V452.5C294.5 451.948 294.052 451.5 293.5 451.5H291.812L283.5 457.421L275.188 451.5ZM289.226 451.5L283.5 455.579L277.773 451.5H289.226ZM294.5 454.398L291.75 456.405V467.5H293.5C294.052 467.5 294.5 467.052 294.5 466.5V454.398ZM290.25 467.5V457.5L283.5 462.429L276.75 457.501V467.5H290.25ZM275.25 467.5V456.405L272.5 454.398V466.5C272.5 467.052 272.948 467.5 273.5 467.5H275.25Z" fill="white"/>
</g>
<defs>
<filter id="filter0_d_531_2466" x="136.5" y="216.541" width="117" height="115.588" filterUnits="userSpaceOnUse" color-interpolation-filters="sRGB">
<feFlood flood-opacity="0" result="BackgroundImageFix"/>
<feColorMatrix in="SourceAlpha" type="matrix" values="0 0 0 0 0 0 0 0 0 0 0 0 0 0 0 0 0 0 127 0" result="hardAlpha"/>
<feOffset/>
<feGaussianBlur stdDeviation="3"/>
<feComposite in2="hardAlpha" operator="out"/>
<feColorMatrix type="matrix" values="0 0 0 0 0.180764 0 0 0 0 0.316667 0 0 0 0 0.266098 0 0 0 0.2 0"/>
<feBlend mode="normal" in2="BackgroundImageFix" result="effect1_dropShadow_531_2466"/>
<feBlend mode="normal" in="SourceGraphic" in2="effect1_dropShadow_531_2466" result="shape"/>
</filter>
<filter id="filter1_i_531_2466" x="154.248" y="264.515" width="81.252" height="54.228" filterUnits="userSpaceOnUse" color-interpolation-filters="sRGB">
<feFlood flood-opacity="0" result="BackgroundImageFix"/>
<feBlend mode="normal" in="SourceGraphic" in2="BackgroundImageFix" result="shape"/>
<feColorMatrix in="SourceAlpha" type="matrix" values="0 0 0 0 0 0 0 0 0 0 0 0 0 0 0 0 0 0 127 0" result="hardAlpha"/>
<feOffset dy="1"/>
<feGaussianBlur stdDeviation="5.5"/>
<feComposite in2="hardAlpha" operator="arithmetic" k2="-1" k3="1"/>
<feColorMatrix type="matrix" values="0 0 0 0 0.288889 0 0 0 0 0.541667 0 0 0 0 0.4491 0 0 0 1 0"/>
<feBlend mode="normal" in2="shape" result="effect1_innerShadow_531_2466"/>
</filter>
<linearGradient id="paint0_linear_531_2466" x1="195" y1="0" x2="195" y2="844" gradientUnits="userSpaceOnUse">
<stop stop-color="#2B7362"/>
<stop offset="1" stop-color="#295444"/>
</linearGradient>
<radialGradient id="paint1_radial_531_2466" cx="0" cy="0" r="1" gradientUnits="userSpaceOnUse" gradientTransform="translate(220.855 249.975) rotate(124.798) scale(76.4315 80.9892)">
<stop stop-color="#A1E6B4"/>
<stop offset="1" stop-color="#2B7362"/>
</radialGradient>
<clipPath id="clip0_531_2466">
<rect width="390" height="844" fill="white"/>
</clipPath>
</defs>
</svg>
