<svg width="390" height="844" viewBox="0 0 390 844" fill="none" xmlns="http://www.w3.org/2000/svg">
<rect width="390" height="844" fill="#F9F6F3"/>
<rect x="31" y="356" width="328" height="55" rx="27.5" fill="#ECEBE8"/>
<path d="M58.8281 377.625H60.3281V385.32C60.3281 386.174 60.138 386.885 59.7578 387.453C59.3776 388.021 58.8724 388.448 58.2422 388.734C57.6172 389.016 56.9375 389.156 56.2031 389.156C55.4323 389.156 54.7344 389.016 54.1094 388.734C53.4896 388.448 52.9974 388.021 52.6328 387.453C52.2734 386.885 52.0938 386.174 52.0938 385.32V377.625H53.5859V385.32C53.5859 385.914 53.6953 386.404 53.9141 386.789C54.1328 387.174 54.4375 387.461 54.8281 387.648C55.224 387.836 55.6823 387.93 56.2031 387.93C56.7292 387.93 57.1875 387.836 57.5781 387.648C57.974 387.461 58.2812 387.174 58.5 386.789C58.7188 386.404 58.8281 385.914 58.8281 385.32V377.625ZM67.5484 386.758C67.5484 386.549 67.5016 386.357 67.4078 386.18C67.3193 385.997 67.1344 385.833 66.8531 385.688C66.5771 385.536 66.1604 385.406 65.6031 385.297C65.1344 385.198 64.7099 385.081 64.3297 384.945C63.9547 384.81 63.6344 384.646 63.3687 384.453C63.1083 384.26 62.9078 384.034 62.7672 383.773C62.6266 383.513 62.5562 383.208 62.5562 382.859C62.5562 382.526 62.6292 382.211 62.775 381.914C62.926 381.617 63.137 381.354 63.4078 381.125C63.6839 380.896 64.0146 380.716 64.4 380.586C64.7854 380.456 65.2151 380.391 65.6891 380.391C66.3661 380.391 66.9443 380.51 67.4234 380.75C67.9026 380.99 68.2698 381.31 68.525 381.711C68.7802 382.107 68.9078 382.547 68.9078 383.031H67.4625C67.4625 382.797 67.3922 382.57 67.2516 382.352C67.1161 382.128 66.9156 381.943 66.65 381.797C66.3896 381.651 66.0693 381.578 65.6891 381.578C65.288 381.578 64.9625 381.641 64.7125 381.766C64.4677 381.885 64.288 382.039 64.1734 382.227C64.0641 382.414 64.0094 382.612 64.0094 382.82C64.0094 382.977 64.0354 383.117 64.0875 383.242C64.1448 383.362 64.2437 383.474 64.3844 383.578C64.525 383.677 64.7229 383.771 64.9781 383.859C65.2333 383.948 65.5589 384.036 65.9547 384.125C66.6474 384.281 67.2177 384.469 67.6656 384.688C68.1135 384.906 68.4469 385.174 68.6656 385.492C68.8844 385.81 68.9937 386.195 68.9937 386.648C68.9937 387.018 68.9156 387.357 68.7594 387.664C68.6083 387.971 68.387 388.237 68.0953 388.461C67.8089 388.68 67.4651 388.852 67.0641 388.977C66.6682 389.096 66.2229 389.156 65.7281 389.156C64.9833 389.156 64.3531 389.023 63.8375 388.758C63.3219 388.492 62.9312 388.148 62.6656 387.727C62.4 387.305 62.2672 386.859 62.2672 386.391H63.7203C63.7411 386.786 63.8557 387.102 64.0641 387.336C64.2724 387.565 64.5276 387.729 64.8297 387.828C65.1318 387.922 65.4312 387.969 65.7281 387.969C66.124 387.969 66.4547 387.917 66.7203 387.812C66.9911 387.708 67.1969 387.565 67.3375 387.383C67.4781 387.201 67.5484 386.992 67.5484 386.758ZM74.55 389.156C73.9615 389.156 73.4276 389.057 72.9484 388.859C72.4745 388.656 72.0656 388.372 71.7219 388.008C71.3833 387.643 71.1229 387.211 70.9406 386.711C70.7583 386.211 70.6672 385.664 70.6672 385.07V384.742C70.6672 384.055 70.7687 383.443 70.9719 382.906C71.175 382.365 71.451 381.906 71.8 381.531C72.149 381.156 72.5448 380.872 72.9875 380.68C73.4302 380.487 73.8885 380.391 74.3625 380.391C74.9667 380.391 75.4875 380.495 75.925 380.703C76.3677 380.911 76.7297 381.203 77.0109 381.578C77.2922 381.948 77.5005 382.385 77.6359 382.891C77.7714 383.391 77.8391 383.938 77.8391 384.531V385.18H71.5266V384H76.3937V383.891C76.3729 383.516 76.2948 383.151 76.1594 382.797C76.0292 382.443 75.8208 382.151 75.5344 381.922C75.2479 381.693 74.8573 381.578 74.3625 381.578C74.0344 381.578 73.7323 381.648 73.4562 381.789C73.1802 381.924 72.9432 382.128 72.7453 382.398C72.5474 382.669 72.3937 383 72.2844 383.391C72.175 383.781 72.1203 384.232 72.1203 384.742V385.07C72.1203 385.471 72.175 385.849 72.2844 386.203C72.399 386.552 72.563 386.859 72.7766 387.125C72.9953 387.391 73.2583 387.599 73.5656 387.75C73.8781 387.901 74.2323 387.977 74.6281 387.977C75.1385 387.977 75.5708 387.872 75.925 387.664C76.2792 387.456 76.5891 387.177 76.8547 386.828L77.7297 387.523C77.5474 387.799 77.3156 388.062 77.0344 388.312C76.7531 388.562 76.4068 388.766 75.9953 388.922C75.5891 389.078 75.1073 389.156 74.55 389.156ZM81.1219 381.875V389H79.6766V380.547H81.0828L81.1219 381.875ZM83.7625 380.5L83.7547 381.844C83.6349 381.818 83.5203 381.802 83.4109 381.797C83.3068 381.786 83.187 381.781 83.0516 381.781C82.7182 381.781 82.424 381.833 82.1688 381.938C81.9135 382.042 81.6974 382.188 81.5203 382.375C81.3432 382.562 81.2026 382.786 81.0984 383.047C80.9995 383.302 80.9344 383.583 80.9031 383.891L80.4969 384.125C80.4969 383.615 80.5464 383.135 80.6453 382.688C80.7495 382.24 80.9083 381.844 81.1219 381.5C81.3354 381.151 81.6063 380.88 81.9344 380.688C82.2677 380.49 82.6635 380.391 83.1219 380.391C83.226 380.391 83.3458 380.404 83.4813 380.43C83.6167 380.451 83.7104 380.474 83.7625 380.5ZM86.6937 382.352V389H85.2484V380.547H86.6156L86.6937 382.352ZM86.35 384.453L85.7484 384.43C85.7536 383.852 85.8396 383.318 86.0062 382.828C86.1729 382.333 86.4073 381.904 86.7094 381.539C87.0115 381.174 87.3708 380.893 87.7875 380.695C88.2094 380.492 88.6755 380.391 89.1859 380.391C89.6026 380.391 89.9776 380.448 90.3109 380.562C90.6443 380.672 90.9281 380.849 91.1625 381.094C91.4021 381.339 91.5844 381.656 91.7094 382.047C91.8344 382.432 91.8969 382.904 91.8969 383.461V389H90.4437V383.445C90.4437 383.003 90.3786 382.648 90.2484 382.383C90.1182 382.112 89.9281 381.917 89.6781 381.797C89.4281 381.672 89.1208 381.609 88.7562 381.609C88.3969 381.609 88.0687 381.685 87.7719 381.836C87.4802 381.987 87.2276 382.195 87.0141 382.461C86.8057 382.727 86.6417 383.031 86.5219 383.375C86.4073 383.714 86.35 384.073 86.35 384.453ZM99.2266 387.555V383.203C99.2266 382.87 99.1589 382.581 99.0234 382.336C98.8932 382.086 98.6953 381.893 98.4297 381.758C98.1641 381.622 97.8359 381.555 97.4453 381.555C97.0807 381.555 96.7604 381.617 96.4844 381.742C96.2135 381.867 96 382.031 95.8438 382.234C95.6927 382.438 95.6172 382.656 95.6172 382.891H94.1719C94.1719 382.589 94.25 382.289 94.4062 381.992C94.5625 381.695 94.7865 381.427 95.0781 381.188C95.375 380.943 95.7292 380.75 96.1406 380.609C96.5573 380.464 97.0208 380.391 97.5312 380.391C98.1458 380.391 98.6875 380.495 99.1562 380.703C99.6302 380.911 100 381.227 100.266 381.648C100.536 382.065 100.672 382.589 100.672 383.219V387.156C100.672 387.438 100.695 387.737 100.742 388.055C100.794 388.372 100.87 388.646 100.969 388.875V389H99.4609C99.388 388.833 99.3307 388.612 99.2891 388.336C99.2474 388.055 99.2266 387.794 99.2266 387.555ZM99.4766 383.875L99.4922 384.891H98.0312C97.6198 384.891 97.2526 384.924 96.9297 384.992C96.6068 385.055 96.3359 385.151 96.1172 385.281C95.8984 385.411 95.7318 385.576 95.6172 385.773C95.5026 385.966 95.4453 386.193 95.4453 386.453C95.4453 386.719 95.5052 386.961 95.625 387.18C95.7448 387.398 95.9245 387.573 96.1641 387.703C96.4089 387.828 96.7083 387.891 97.0625 387.891C97.5052 387.891 97.8958 387.797 98.2344 387.609C98.5729 387.422 98.8411 387.193 99.0391 386.922C99.2422 386.651 99.3516 386.388 99.3672 386.133L99.9844 386.828C99.9479 387.047 99.849 387.289 99.6875 387.555C99.526 387.82 99.3099 388.076 99.0391 388.32C98.7734 388.56 98.4557 388.76 98.0859 388.922C97.7214 389.078 97.3099 389.156 96.8516 389.156C96.2786 389.156 95.776 389.044 95.3438 388.82C94.9167 388.596 94.5833 388.297 94.3438 387.922C94.1094 387.542 93.9922 387.117 93.9922 386.648C93.9922 386.195 94.0807 385.797 94.2578 385.453C94.4349 385.104 94.6901 384.815 95.0234 384.586C95.3568 384.352 95.7578 384.174 96.2266 384.055C96.6953 383.935 97.2188 383.875 97.7969 383.875H99.4766ZM104.533 382.227V389H103.08V380.547H104.455L104.533 382.227ZM104.236 384.453L103.564 384.43C103.569 383.852 103.645 383.318 103.791 382.828C103.936 382.333 104.153 381.904 104.439 381.539C104.726 381.174 105.082 380.893 105.509 380.695C105.936 380.492 106.431 380.391 106.994 380.391C107.39 380.391 107.754 380.448 108.088 380.562C108.421 380.672 108.71 380.846 108.955 381.086C109.199 381.326 109.39 381.633 109.525 382.008C109.66 382.383 109.728 382.836 109.728 383.367V389H108.283V383.438C108.283 382.995 108.207 382.641 108.056 382.375C107.91 382.109 107.702 381.917 107.431 381.797C107.16 381.672 106.843 381.609 106.478 381.609C106.051 381.609 105.694 381.685 105.408 381.836C105.121 381.987 104.892 382.195 104.72 382.461C104.548 382.727 104.423 383.031 104.345 383.375C104.272 383.714 104.236 384.073 104.236 384.453ZM109.713 383.656L108.744 383.953C108.749 383.49 108.824 383.044 108.97 382.617C109.121 382.19 109.338 381.81 109.619 381.477C109.905 381.143 110.257 380.88 110.673 380.688C111.09 380.49 111.567 380.391 112.103 380.391C112.556 380.391 112.957 380.451 113.306 380.57C113.66 380.69 113.957 380.875 114.197 381.125C114.442 381.37 114.627 381.685 114.752 382.07C114.877 382.456 114.939 382.914 114.939 383.445V389H113.486V383.43C113.486 382.956 113.41 382.589 113.259 382.328C113.114 382.062 112.905 381.878 112.634 381.773C112.369 381.664 112.051 381.609 111.681 381.609C111.364 381.609 111.082 381.664 110.838 381.773C110.593 381.883 110.387 382.034 110.22 382.227C110.054 382.414 109.926 382.63 109.838 382.875C109.754 383.12 109.713 383.38 109.713 383.656ZM120.784 389.156C120.196 389.156 119.662 389.057 119.183 388.859C118.709 388.656 118.3 388.372 117.956 388.008C117.618 387.643 117.357 387.211 117.175 386.711C116.993 386.211 116.902 385.664 116.902 385.07V384.742C116.902 384.055 117.003 383.443 117.206 382.906C117.409 382.365 117.685 381.906 118.034 381.531C118.383 381.156 118.779 380.872 119.222 380.68C119.665 380.487 120.123 380.391 120.597 380.391C121.201 380.391 121.722 380.495 122.159 380.703C122.602 380.911 122.964 381.203 123.245 381.578C123.527 381.948 123.735 382.385 123.87 382.891C124.006 383.391 124.073 383.938 124.073 384.531V385.18H117.761V384H122.628V383.891C122.607 383.516 122.529 383.151 122.394 382.797C122.264 382.443 122.055 382.151 121.769 381.922C121.482 381.693 121.092 381.578 120.597 381.578C120.269 381.578 119.967 381.648 119.691 381.789C119.415 381.924 119.178 382.128 118.98 382.398C118.782 382.669 118.628 383 118.519 383.391C118.409 383.781 118.355 384.232 118.355 384.742V385.07C118.355 385.471 118.409 385.849 118.519 386.203C118.633 386.552 118.797 386.859 119.011 387.125C119.23 387.391 119.493 387.599 119.8 387.75C120.113 387.901 120.467 387.977 120.863 387.977C121.373 387.977 121.805 387.872 122.159 387.664C122.514 387.456 122.823 387.177 123.089 386.828L123.964 387.523C123.782 387.799 123.55 388.062 123.269 388.312C122.988 388.562 122.641 388.766 122.23 388.922C121.823 389.078 121.342 389.156 120.784 389.156Z" fill="#BAB4B6"/>
<rect x="31" y="431" width="328" height="55" rx="27.5" fill="#ECEBE8"/>
<path d="M57.5156 459.539H54.4766V458.312H57.5156C58.1042 458.312 58.5807 458.219 58.9453 458.031C59.3099 457.844 59.5755 457.583 59.7422 457.25C59.9141 456.917 60 456.536 60 456.109C60 455.719 59.9141 455.352 59.7422 455.008C59.5755 454.664 59.3099 454.388 58.9453 454.18C58.5807 453.966 58.1042 453.859 57.5156 453.859H54.8281V464H53.3203V452.625H57.5156C58.375 452.625 59.1016 452.773 59.6953 453.07C60.2891 453.367 60.7396 453.779 61.0469 454.305C61.3542 454.826 61.5078 455.422 61.5078 456.094C61.5078 456.823 61.3542 457.445 61.0469 457.961C60.7396 458.477 60.2891 458.87 59.6953 459.141C59.1016 459.406 58.375 459.539 57.5156 459.539ZM68.2359 462.555V458.203C68.2359 457.87 68.1682 457.581 68.0328 457.336C67.9026 457.086 67.7047 456.893 67.4391 456.758C67.1734 456.622 66.8453 456.555 66.4547 456.555C66.0901 456.555 65.7698 456.617 65.4937 456.742C65.2229 456.867 65.0094 457.031 64.8531 457.234C64.7021 457.438 64.6266 457.656 64.6266 457.891H63.1812C63.1812 457.589 63.2594 457.289 63.4156 456.992C63.5719 456.695 63.7958 456.427 64.0875 456.188C64.3844 455.943 64.7385 455.75 65.15 455.609C65.5667 455.464 66.0302 455.391 66.5406 455.391C67.1552 455.391 67.6969 455.495 68.1656 455.703C68.6396 455.911 69.0094 456.227 69.275 456.648C69.5458 457.065 69.6812 457.589 69.6812 458.219V462.156C69.6812 462.438 69.7047 462.737 69.7516 463.055C69.8036 463.372 69.8792 463.646 69.9781 463.875V464H68.4703C68.3974 463.833 68.3401 463.612 68.2984 463.336C68.2568 463.055 68.2359 462.794 68.2359 462.555ZM68.4859 458.875L68.5016 459.891H67.0406C66.6292 459.891 66.262 459.924 65.9391 459.992C65.6161 460.055 65.3453 460.151 65.1266 460.281C64.9078 460.411 64.7411 460.576 64.6266 460.773C64.512 460.966 64.4547 461.193 64.4547 461.453C64.4547 461.719 64.5146 461.961 64.6344 462.18C64.7542 462.398 64.9339 462.573 65.1734 462.703C65.4182 462.828 65.7177 462.891 66.0719 462.891C66.5146 462.891 66.9052 462.797 67.2437 462.609C67.5823 462.422 67.8505 462.193 68.0484 461.922C68.2516 461.651 68.3609 461.388 68.3766 461.133L68.9937 461.828C68.9573 462.047 68.8583 462.289 68.6969 462.555C68.5354 462.82 68.3193 463.076 68.0484 463.32C67.7828 463.56 67.4651 463.76 67.0953 463.922C66.7307 464.078 66.3193 464.156 65.8609 464.156C65.288 464.156 64.7854 464.044 64.3531 463.82C63.926 463.596 63.5927 463.297 63.3531 462.922C63.1187 462.542 63.0016 462.117 63.0016 461.648C63.0016 461.195 63.0901 460.797 63.2672 460.453C63.4443 460.104 63.6995 459.815 64.0328 459.586C64.3661 459.352 64.7672 459.174 65.2359 459.055C65.7047 458.935 66.2281 458.875 66.8062 458.875H68.4859ZM77.0266 461.758C77.0266 461.549 76.9797 461.357 76.8859 461.18C76.7974 460.997 76.6125 460.833 76.3312 460.688C76.0552 460.536 75.6385 460.406 75.0812 460.297C74.6125 460.198 74.188 460.081 73.8078 459.945C73.4328 459.81 73.1125 459.646 72.8469 459.453C72.5865 459.26 72.3859 459.034 72.2453 458.773C72.1047 458.513 72.0344 458.208 72.0344 457.859C72.0344 457.526 72.1073 457.211 72.2531 456.914C72.4042 456.617 72.6151 456.354 72.8859 456.125C73.162 455.896 73.4927 455.716 73.8781 455.586C74.2635 455.456 74.6932 455.391 75.1672 455.391C75.8443 455.391 76.4224 455.51 76.9016 455.75C77.3807 455.99 77.7479 456.31 78.0031 456.711C78.2583 457.107 78.3859 457.547 78.3859 458.031H76.9406C76.9406 457.797 76.8703 457.57 76.7297 457.352C76.5943 457.128 76.3937 456.943 76.1281 456.797C75.8677 456.651 75.5474 456.578 75.1672 456.578C74.7661 456.578 74.4406 456.641 74.1906 456.766C73.9458 456.885 73.7661 457.039 73.6516 457.227C73.5422 457.414 73.4875 457.612 73.4875 457.82C73.4875 457.977 73.5135 458.117 73.5656 458.242C73.6229 458.362 73.7219 458.474 73.8625 458.578C74.0031 458.677 74.201 458.771 74.4562 458.859C74.7115 458.948 75.037 459.036 75.4328 459.125C76.1255 459.281 76.6958 459.469 77.1437 459.688C77.5917 459.906 77.925 460.174 78.1437 460.492C78.3625 460.81 78.4719 461.195 78.4719 461.648C78.4719 462.018 78.3937 462.357 78.2375 462.664C78.0865 462.971 77.8651 463.237 77.5734 463.461C77.287 463.68 76.9432 463.852 76.5422 463.977C76.1464 464.096 75.701 464.156 75.2062 464.156C74.4615 464.156 73.8312 464.023 73.3156 463.758C72.8 463.492 72.4094 463.148 72.1437 462.727C71.8781 462.305 71.7453 461.859 71.7453 461.391H73.1984C73.2193 461.786 73.3339 462.102 73.5422 462.336C73.7505 462.565 74.0057 462.729 74.3078 462.828C74.6099 462.922 74.9094 462.969 75.2062 462.969C75.6021 462.969 75.9328 462.917 76.1984 462.812C76.4693 462.708 76.675 462.565 76.8156 462.383C76.9562 462.201 77.0266 461.992 77.0266 461.758ZM85.4422 461.758C85.4422 461.549 85.3953 461.357 85.3016 461.18C85.213 460.997 85.0281 460.833 84.7469 460.688C84.4708 460.536 84.0542 460.406 83.4969 460.297C83.0281 460.198 82.6036 460.081 82.2234 459.945C81.8484 459.81 81.5281 459.646 81.2625 459.453C81.0021 459.26 80.8016 459.034 80.6609 458.773C80.5203 458.513 80.45 458.208 80.45 457.859C80.45 457.526 80.5229 457.211 80.6688 456.914C80.8198 456.617 81.0307 456.354 81.3016 456.125C81.5776 455.896 81.9083 455.716 82.2938 455.586C82.6792 455.456 83.1089 455.391 83.5828 455.391C84.2599 455.391 84.838 455.51 85.3172 455.75C85.7964 455.99 86.1635 456.31 86.4188 456.711C86.674 457.107 86.8016 457.547 86.8016 458.031H85.3563C85.3563 457.797 85.2859 457.57 85.1453 457.352C85.0099 457.128 84.8094 456.943 84.5438 456.797C84.2833 456.651 83.963 456.578 83.5828 456.578C83.1818 456.578 82.8563 456.641 82.6063 456.766C82.3615 456.885 82.1818 457.039 82.0672 457.227C81.9578 457.414 81.9031 457.612 81.9031 457.82C81.9031 457.977 81.9292 458.117 81.9813 458.242C82.0385 458.362 82.1375 458.474 82.2781 458.578C82.4188 458.677 82.6167 458.771 82.8719 458.859C83.1271 458.948 83.4526 459.036 83.8484 459.125C84.5411 459.281 85.1115 459.469 85.5594 459.688C86.0073 459.906 86.3406 460.174 86.5594 460.492C86.7781 460.81 86.8875 461.195 86.8875 461.648C86.8875 462.018 86.8094 462.357 86.6531 462.664C86.5021 462.971 86.2807 463.237 85.9891 463.461C85.7026 463.68 85.3589 463.852 84.9578 463.977C84.562 464.096 84.1167 464.156 83.6219 464.156C82.8771 464.156 82.2469 464.023 81.7313 463.758C81.2156 463.492 80.825 463.148 80.5594 462.727C80.2938 462.305 80.1609 461.859 80.1609 461.391H81.6141C81.6349 461.786 81.7495 462.102 81.9578 462.336C82.1661 462.565 82.4214 462.729 82.7234 462.828C83.0255 462.922 83.325 462.969 83.6219 462.969C84.0177 462.969 84.3484 462.917 84.6141 462.812C84.8849 462.708 85.0906 462.565 85.2313 462.383C85.3719 462.201 85.4422 461.992 85.4422 461.758ZM91.0766 462.5L93.2484 455.547H94.2016L94.0141 456.93L91.8031 464H90.8734L91.0766 462.5ZM89.6156 455.547L91.4672 462.578L91.6 464H90.6234L88.1703 455.547H89.6156ZM96.2797 462.523L98.0453 455.547H99.4828L97.0297 464H96.0609L96.2797 462.523ZM94.4125 455.547L96.5375 462.383L96.7797 464H95.8578L93.5844 456.914L93.3969 455.547H94.4125ZM100.734 459.867V459.688C100.734 459.078 100.823 458.513 101 457.992C101.177 457.466 101.432 457.01 101.766 456.625C102.099 456.234 102.503 455.932 102.977 455.719C103.451 455.5 103.982 455.391 104.57 455.391C105.164 455.391 105.698 455.5 106.172 455.719C106.651 455.932 107.057 456.234 107.391 456.625C107.729 457.01 107.987 457.466 108.164 457.992C108.341 458.513 108.43 459.078 108.43 459.688V459.867C108.43 460.477 108.341 461.042 108.164 461.562C107.987 462.083 107.729 462.539 107.391 462.93C107.057 463.315 106.654 463.617 106.18 463.836C105.711 464.049 105.18 464.156 104.586 464.156C103.992 464.156 103.458 464.049 102.984 463.836C102.51 463.617 102.104 463.315 101.766 462.93C101.432 462.539 101.177 462.083 101 461.562C100.823 461.042 100.734 460.477 100.734 459.867ZM102.18 459.688V459.867C102.18 460.289 102.229 460.688 102.328 461.062C102.427 461.432 102.576 461.76 102.773 462.047C102.977 462.333 103.229 462.56 103.531 462.727C103.833 462.888 104.185 462.969 104.586 462.969C104.982 462.969 105.328 462.888 105.625 462.727C105.927 462.56 106.177 462.333 106.375 462.047C106.573 461.76 106.721 461.432 106.82 461.062C106.924 460.688 106.977 460.289 106.977 459.867V459.688C106.977 459.271 106.924 458.878 106.82 458.508C106.721 458.133 106.57 457.802 106.367 457.516C106.169 457.224 105.919 456.995 105.617 456.828C105.32 456.661 104.971 456.578 104.57 456.578C104.174 456.578 103.826 456.661 103.523 456.828C103.227 456.995 102.977 457.224 102.773 457.516C102.576 457.802 102.427 458.133 102.328 458.508C102.229 458.878 102.18 459.271 102.18 459.688ZM111.838 456.875V464H110.392V455.547H111.798L111.838 456.875ZM114.478 455.5L114.47 456.844C114.351 456.818 114.236 456.802 114.127 456.797C114.022 456.786 113.903 456.781 113.767 456.781C113.434 456.781 113.14 456.833 112.884 456.938C112.629 457.042 112.413 457.188 112.236 457.375C112.059 457.562 111.918 457.786 111.814 458.047C111.715 458.302 111.65 458.583 111.619 458.891L111.213 459.125C111.213 458.615 111.262 458.135 111.361 457.688C111.465 457.24 111.624 456.844 111.838 456.5C112.051 456.151 112.322 455.88 112.65 455.688C112.983 455.49 113.379 455.391 113.838 455.391C113.942 455.391 114.061 455.404 114.197 455.43C114.332 455.451 114.426 455.474 114.478 455.5ZM121.136 462.359V452H122.589V464H121.261L121.136 462.359ZM115.448 459.867V459.703C115.448 459.057 115.527 458.471 115.683 457.945C115.844 457.414 116.071 456.958 116.362 456.578C116.659 456.198 117.011 455.906 117.417 455.703C117.829 455.495 118.287 455.391 118.792 455.391C119.323 455.391 119.787 455.484 120.183 455.672C120.584 455.854 120.922 456.122 121.198 456.477C121.48 456.826 121.701 457.247 121.862 457.742C122.024 458.237 122.136 458.797 122.198 459.422V460.141C122.141 460.76 122.029 461.318 121.862 461.812C121.701 462.307 121.48 462.729 121.198 463.078C120.922 463.427 120.584 463.695 120.183 463.883C119.782 464.065 119.313 464.156 118.777 464.156C118.282 464.156 117.829 464.049 117.417 463.836C117.011 463.622 116.659 463.323 116.362 462.938C116.071 462.552 115.844 462.099 115.683 461.578C115.527 461.052 115.448 460.482 115.448 459.867ZM116.902 459.703V459.867C116.902 460.289 116.943 460.685 117.027 461.055C117.115 461.424 117.251 461.75 117.433 462.031C117.615 462.312 117.847 462.534 118.128 462.695C118.409 462.852 118.745 462.93 119.136 462.93C119.615 462.93 120.008 462.828 120.316 462.625C120.628 462.422 120.878 462.154 121.066 461.82C121.253 461.487 121.399 461.125 121.503 460.734V458.852C121.441 458.565 121.349 458.289 121.23 458.023C121.115 457.753 120.964 457.513 120.777 457.305C120.594 457.091 120.368 456.922 120.097 456.797C119.831 456.672 119.516 456.609 119.152 456.609C118.756 456.609 118.415 456.693 118.128 456.859C117.847 457.021 117.615 457.245 117.433 457.531C117.251 457.812 117.115 458.141 117.027 458.516C116.943 458.885 116.902 459.281 116.902 459.703Z" fill="#BAB4B6"/>
<path fill-rule="evenodd" clip-rule="evenodd" d="M331 452C326 452 321.73 455.11 320 459.5C321.73 463.89 326 467 331 467C336 467 340.27 463.89 342 459.5C340.27 455.11 336 452 331 452ZM331 464.5C328.24 464.5 326 462.26 326 459.5C326 456.74 328.24 454.5 331 454.5C333.76 454.5 336 456.74 336 459.5C336 462.26 333.76 464.5 331 464.5ZM331 456.5C329.34 456.5 328 457.84 328 459.5C328 461.16 329.34 462.5 331 462.5C332.66 462.5 334 461.16 334 459.5C334 457.84 332.66 456.5 331 456.5Z" fill="#BAB4B6"/>
<rect x="105" y="528" width="180" height="55" rx="27.5" fill="#FC976B"/>
<path d="M169.131 558.809C169.131 558.535 169.089 558.291 169.004 558.076C168.926 557.855 168.779 557.656 168.564 557.48C168.356 557.298 168.06 557.122 167.676 556.953C167.298 556.777 166.81 556.595 166.211 556.406C165.547 556.198 164.928 555.964 164.355 555.703C163.783 555.443 163.278 555.14 162.842 554.795C162.412 554.45 162.077 554.053 161.836 553.604C161.595 553.148 161.475 552.62 161.475 552.021C161.475 551.436 161.598 550.902 161.846 550.42C162.1 549.938 162.458 549.525 162.92 549.18C163.382 548.828 163.926 548.558 164.551 548.369C165.182 548.18 165.879 548.086 166.641 548.086C167.695 548.086 168.607 548.278 169.375 548.662C170.15 549.046 170.749 549.567 171.172 550.225C171.595 550.882 171.807 551.621 171.807 552.441H169.131C169.131 551.999 169.036 551.608 168.848 551.27C168.665 550.931 168.385 550.664 168.008 550.469C167.637 550.273 167.168 550.176 166.602 550.176C166.055 550.176 165.599 550.257 165.234 550.42C164.876 550.583 164.606 550.804 164.424 551.084C164.248 551.364 164.16 551.676 164.16 552.021C164.16 552.282 164.222 552.516 164.346 552.725C164.469 552.926 164.655 553.118 164.902 553.301C165.15 553.477 165.456 553.643 165.82 553.799C166.191 553.949 166.621 554.098 167.109 554.248C167.891 554.482 168.574 554.743 169.16 555.029C169.753 555.316 170.244 555.641 170.635 556.006C171.032 556.37 171.328 556.781 171.523 557.236C171.725 557.692 171.826 558.21 171.826 558.789C171.826 559.401 171.706 559.948 171.465 560.43C171.224 560.911 170.879 561.322 170.43 561.66C169.98 561.999 169.44 562.256 168.809 562.432C168.184 562.607 167.484 562.695 166.709 562.695C166.019 562.695 165.335 562.604 164.658 562.422C163.988 562.233 163.379 561.953 162.832 561.582C162.285 561.204 161.849 560.729 161.523 560.156C161.198 559.577 161.035 558.9 161.035 558.125H163.73C163.73 558.574 163.802 558.958 163.945 559.277C164.095 559.59 164.303 559.847 164.57 560.049C164.844 560.244 165.163 560.387 165.527 560.479C165.892 560.57 166.286 560.615 166.709 560.615C167.256 560.615 167.705 560.54 168.057 560.391C168.415 560.234 168.682 560.02 168.857 559.746C169.04 559.473 169.131 559.16 169.131 558.809ZM176.436 551.934V562.5H173.848V551.934H176.436ZM173.672 549.17C173.672 548.786 173.802 548.467 174.062 548.213C174.329 547.959 174.688 547.832 175.137 547.832C175.586 547.832 175.941 547.959 176.201 548.213C176.468 548.467 176.602 548.786 176.602 549.17C176.602 549.548 176.468 549.863 176.201 550.117C175.941 550.371 175.586 550.498 175.137 550.498C174.688 550.498 174.329 550.371 174.062 550.117C173.802 549.863 173.672 549.548 173.672 549.17ZM185.615 551.934H187.959V562.178C187.959 563.135 187.751 563.945 187.334 564.609C186.924 565.28 186.348 565.788 185.605 566.133C184.863 566.484 184.001 566.66 183.018 566.66C182.594 566.66 182.135 566.602 181.641 566.484C181.152 566.367 180.68 566.182 180.225 565.928C179.775 565.68 179.401 565.358 179.102 564.961L180.264 563.438C180.615 563.848 181.012 564.157 181.455 564.365C181.898 564.58 182.376 564.688 182.891 564.688C183.411 564.688 183.854 564.59 184.219 564.395C184.59 564.206 184.873 563.926 185.068 563.555C185.27 563.19 185.371 562.741 185.371 562.207V554.346L185.615 551.934ZM178.477 557.344V557.139C178.477 556.331 178.574 555.599 178.77 554.941C178.965 554.277 179.245 553.708 179.609 553.232C179.98 552.757 180.426 552.389 180.947 552.129C181.475 551.868 182.067 551.738 182.725 551.738C183.421 551.738 184.007 551.865 184.482 552.119C184.964 552.373 185.361 552.734 185.674 553.203C185.993 553.672 186.24 554.229 186.416 554.873C186.598 555.511 186.738 556.214 186.836 556.982V557.539C186.745 558.288 186.598 558.975 186.396 559.6C186.201 560.225 185.941 560.771 185.615 561.24C185.29 561.702 184.886 562.061 184.404 562.314C183.923 562.568 183.356 562.695 182.705 562.695C182.054 562.695 181.468 562.562 180.947 562.295C180.426 562.028 179.98 561.654 179.609 561.172C179.245 560.69 178.965 560.124 178.77 559.473C178.574 558.822 178.477 558.112 178.477 557.344ZM181.055 557.139V557.344C181.055 557.799 181.1 558.226 181.191 558.623C181.283 559.02 181.423 559.372 181.611 559.678C181.8 559.977 182.038 560.212 182.324 560.381C182.611 560.55 182.952 560.635 183.35 560.635C183.883 560.635 184.32 560.524 184.658 560.303C185.003 560.075 185.264 559.766 185.439 559.375C185.622 558.978 185.739 558.532 185.791 558.037V556.504C185.758 556.113 185.687 555.752 185.576 555.42C185.472 555.088 185.326 554.801 185.137 554.561C184.948 554.32 184.707 554.131 184.414 553.994C184.121 553.857 183.773 553.789 183.369 553.789C182.979 553.789 182.637 553.877 182.344 554.053C182.051 554.222 181.81 554.46 181.621 554.766C181.432 555.072 181.289 555.426 181.191 555.83C181.1 556.234 181.055 556.67 181.055 557.139ZM192.812 554.189V562.5H190.234V551.934H192.656L192.812 554.189ZM192.402 556.836H191.641C191.647 556.068 191.751 555.371 191.953 554.746C192.155 554.121 192.438 553.584 192.803 553.135C193.174 552.686 193.613 552.34 194.121 552.1C194.629 551.859 195.195 551.738 195.82 551.738C196.328 551.738 196.787 551.81 197.197 551.953C197.607 552.096 197.959 552.324 198.252 552.637C198.551 552.949 198.779 553.359 198.936 553.867C199.098 554.368 199.18 554.987 199.18 555.723V562.5H196.582V555.703C196.582 555.221 196.51 554.84 196.367 554.561C196.23 554.281 196.029 554.082 195.762 553.965C195.501 553.848 195.179 553.789 194.795 553.789C194.398 553.789 194.049 553.87 193.75 554.033C193.457 554.189 193.21 554.408 193.008 554.688C192.812 554.967 192.663 555.29 192.559 555.654C192.454 556.019 192.402 556.413 192.402 556.836ZM214.541 548.281H217.227V557.725C217.227 558.812 216.992 559.727 216.523 560.469C216.055 561.204 215.417 561.761 214.609 562.139C213.802 562.51 212.884 562.695 211.855 562.695C210.814 562.695 209.886 562.51 209.072 562.139C208.258 561.761 207.62 561.204 207.158 560.469C206.696 559.727 206.465 558.812 206.465 557.725V548.281H209.15V557.725C209.15 558.389 209.261 558.932 209.482 559.355C209.704 559.772 210.016 560.081 210.42 560.283C210.824 560.485 211.302 560.586 211.855 560.586C212.415 560.586 212.894 560.485 213.291 560.283C213.695 560.081 214.004 559.772 214.219 559.355C214.434 558.932 214.541 558.389 214.541 557.725V548.281ZM222.158 553.965V566.562H219.57V551.934H221.963L222.158 553.965ZM228.945 557.109V557.314C228.945 558.083 228.854 558.796 228.672 559.453C228.496 560.104 228.236 560.674 227.891 561.162C227.546 561.644 227.116 562.021 226.602 562.295C226.094 562.562 225.508 562.695 224.844 562.695C224.193 562.695 223.626 562.572 223.145 562.324C222.663 562.07 222.256 561.712 221.924 561.25C221.592 560.788 221.325 560.251 221.123 559.639C220.928 559.02 220.781 558.346 220.684 557.617V556.963C220.781 556.188 220.928 555.485 221.123 554.854C221.325 554.215 221.592 553.665 221.924 553.203C222.256 552.734 222.66 552.373 223.135 552.119C223.617 551.865 224.18 551.738 224.824 551.738C225.495 551.738 226.084 551.865 226.592 552.119C227.106 552.373 227.539 552.738 227.891 553.213C228.242 553.688 228.506 554.255 228.682 554.912C228.857 555.57 228.945 556.302 228.945 557.109ZM226.357 557.314V557.109C226.357 556.641 226.315 556.208 226.23 555.811C226.146 555.407 226.016 555.055 225.84 554.756C225.664 554.45 225.436 554.212 225.156 554.043C224.876 553.874 224.538 553.789 224.141 553.789C223.743 553.789 223.402 553.854 223.115 553.984C222.829 554.115 222.594 554.3 222.412 554.541C222.23 554.782 222.087 555.068 221.982 555.4C221.885 555.726 221.82 556.087 221.787 556.484V558.105C221.846 558.587 221.96 559.02 222.129 559.404C222.298 559.788 222.546 560.094 222.871 560.322C223.203 560.55 223.633 560.664 224.16 560.664C224.557 560.664 224.896 560.576 225.176 560.4C225.456 560.225 225.684 559.984 225.859 559.678C226.035 559.365 226.162 559.007 226.24 558.604C226.318 558.2 226.357 557.77 226.357 557.314Z" fill="white"/>
<path d="M0 0H390V250C390 266.569 376.569 280 360 280H30C13.4315 280 0 266.569 0 250V0Z" fill="url(#paint0_linear_531_593)"/>
<circle cx="195" cy="176" r="60" fill="#F9F6F3" fill-opacity="0.9"/>
<path fill-rule="evenodd" clip-rule="evenodd" d="M323.929 20.98H325.313C325.688 20.98 326.005 21.4163 326.005 21.9318V25.7391C326.005 26.2547 325.688 26.6909 325.313 26.6909H323.929C323.554 26.6909 323.236 26.2547 323.236 25.7391V21.9318C323.236 21.4163 323.554 20.98 323.929 20.98ZM328.082 19.0764H329.466C329.841 19.0764 330.159 19.5126 330.159 20.0282V25.7391C330.159 26.2547 329.841 26.6909 329.466 26.6909H328.082C327.707 26.6909 327.39 26.2547 327.39 25.7391V20.0282C327.39 19.5126 327.707 19.0764 328.082 19.0764ZM332.235 16.5382H333.62C333.995 16.5382 334.312 16.9744 334.312 17.49V25.7391C334.312 26.2547 333.995 26.6909 333.62 26.6909H332.235C331.86 26.6909 331.543 26.2547 331.543 25.7391V17.5297C331.543 17.0141 331.86 16.5778 332.235 16.5778V16.5382ZM336.389 14H337.773C338.148 14 338.465 14.4363 338.465 14.9518V25.6994C338.465 26.215 338.148 26.6513 337.773 26.6513H336.389C336.014 26.6513 335.696 26.215 335.696 25.6994V14.9915C335.696 14.4759 336.014 14.0397 336.389 14.0397V14Z" fill="#F9F6F3"/>
<path d="M349.959 23.3477C349.959 23.3477 349.735 23.5716 349.735 23.7208C349.735 23.87 349.773 24.0192 349.885 24.1311L351.824 26.0709C351.824 26.0709 352.048 26.2201 352.197 26.2201C352.347 26.2201 352.459 26.1828 352.57 26.0709L354.51 24.1311C354.51 24.1311 354.659 23.87 354.659 23.7208C354.659 23.5716 354.548 23.4223 354.436 23.3477C353.13 22.4524 351.302 22.4524 349.959 23.3477Z" fill="#F9F6F3"/>
<path d="M352.161 18.4985C350.258 18.4985 348.393 19.17 346.938 20.401C346.827 20.5129 346.752 20.6248 346.752 20.774C346.752 20.9233 346.789 21.0725 346.901 21.1844L347.946 22.2289C348.132 22.4154 348.431 22.4154 348.654 22.2289C349.662 21.4082 350.855 20.9979 352.161 20.9979C353.467 20.9979 354.698 21.4455 355.667 22.2662C355.779 22.3408 355.891 22.3781 356.003 22.3781C356.152 22.3781 356.264 22.3408 356.376 22.2289L357.421 21.1844C357.421 21.1844 357.57 20.9233 357.57 20.774C357.57 20.6248 357.495 20.4756 357.383 20.401C355.929 19.17 354.063 18.4985 352.124 18.4985H352.161Z" fill="#F9F6F3"/>
<path d="M360.294 17.5659C358.056 15.5515 355.184 14.4697 352.199 14.4697C349.215 14.4697 346.305 15.5888 344.104 17.5659C343.993 17.6778 343.918 17.7897 343.918 17.939C343.918 18.0882 343.955 18.2374 344.067 18.312L345.112 19.3565C345.112 19.3565 345.335 19.5057 345.485 19.5057C345.597 19.5057 345.746 19.4684 345.82 19.3565C347.574 17.827 349.812 16.9691 352.162 16.9691C354.512 16.9691 356.75 17.827 358.504 19.3565C358.727 19.543 359.026 19.543 359.212 19.3565L360.257 18.312C360.257 18.312 360.406 18.0509 360.406 17.939C360.406 17.7897 360.332 17.6405 360.22 17.5659H360.294Z" fill="#F9F6F3"/>
<path d="M18.9192 25.5718H17.6128V17.3227C17.3142 17.6213 16.9036 17.9199 16.3811 18.2185C15.8585 18.5172 15.4106 18.7411 15 18.8904V17.6213C15.7092 17.2854 16.3437 16.8748 16.9036 16.3896C17.4635 15.9043 17.8368 15.4191 18.0607 14.9712H18.8819V25.5718H18.9192Z" fill="#F9F6F3"/>
<path d="M22.2432 20.3459C22.2432 19.1141 22.3551 18.1063 22.6164 17.3225C22.8777 16.5759 23.251 15.9787 23.7735 15.5681C24.2961 15.1575 24.9306 14.9336 25.6772 14.9336C26.237 14.9336 26.7596 15.0456 27.1702 15.2695C27.5808 15.4935 27.954 15.8294 28.2153 16.24C28.4766 16.6506 28.7006 17.1732 28.8872 17.8077C29.0365 18.4049 29.1111 19.2634 29.1111 20.3085C29.1111 21.5403 28.9992 22.5481 28.7379 23.2946C28.4766 24.0411 28.1033 24.6383 27.5808 25.0489C27.0582 25.4595 26.4237 25.6835 25.6772 25.6835C24.6693 25.6835 23.8482 25.3102 23.2883 24.601C22.5791 23.7052 22.2432 22.2868 22.2432 20.3085V20.3459ZM23.5869 20.3459C23.5869 22.0628 23.7735 23.22 24.1841 23.8172C24.5947 24.3771 25.0799 24.6757 25.6772 24.6757C26.2744 24.6757 26.7596 24.3771 27.1702 23.8172C27.5808 23.2573 27.7674 22.1002 27.7674 20.3459C27.7674 18.5915 27.5808 17.4344 27.1702 16.8745C26.7596 16.3147 26.2744 16.016 25.6398 16.016C25.0053 16.016 24.5574 16.2773 24.2214 16.7626C23.7735 17.3971 23.5496 18.5915 23.5496 20.3459H23.5869Z" fill="#F9F6F3"/>
<path d="M31.1631 19.413V17.9199H32.6561V19.413H31.1631ZM31.1631 25.5717V24.0787H32.6561V25.5717H31.1631Z" fill="#F9F6F3"/>
<path d="M34.5586 22.7723L35.865 22.5857C36.0143 23.3322 36.2756 23.8548 36.6115 24.1907C36.9475 24.5266 37.3954 24.6759 37.9179 24.6759C38.5151 24.6759 39.0377 24.452 39.4483 24.0414C39.8589 23.6308 40.0828 23.1082 40.0828 22.4737C40.0828 21.8392 39.8962 21.3913 39.4856 21.018C39.1124 20.6447 38.5898 20.4208 37.9926 20.4208C37.7313 20.4208 37.4327 20.4581 37.0594 20.5701L37.2087 19.4503C37.2087 19.4503 37.358 19.4503 37.4327 19.4503C37.9926 19.4503 38.4778 19.301 38.9257 19.0024C39.3736 18.7038 39.5976 18.2559 39.5976 17.6587C39.5976 17.1734 39.4483 16.8002 39.1124 16.4642C38.7764 16.1656 38.3658 16.0163 37.8806 16.0163C37.3954 16.0163 36.9475 16.1656 36.6115 16.5016C36.2756 16.8002 36.0516 17.2854 35.977 17.9199L34.6706 17.696C34.8199 16.8375 35.1931 16.1656 35.753 15.6804C36.3129 15.1951 37.0221 14.9712 37.8433 14.9712C38.4032 14.9712 38.9631 15.0832 39.4483 15.3445C39.9335 15.6057 40.3068 15.9417 40.5681 16.3523C40.8294 16.7628 40.9413 17.2481 40.9413 17.696C40.9413 18.1439 40.8294 18.5545 40.5681 18.9277C40.3068 19.301 39.9709 19.5996 39.4856 19.8236C40.1202 19.9729 40.6054 20.2715 40.9413 20.7194C41.2773 21.1673 41.4639 21.7272 41.4639 22.4364C41.4639 23.3695 41.128 24.1534 40.4561 24.7879C39.7842 25.4225 38.9257 25.7584 37.9179 25.7584C36.9848 25.7584 36.2383 25.4971 35.6037 24.9372C35.0065 24.3773 34.6332 23.6681 34.5586 22.7723Z" fill="#F9F6F3"/>
<path d="M42.7725 20.3459C42.7725 19.1141 42.8844 18.1063 43.1457 17.3225C43.407 16.5759 43.7803 15.9787 44.3028 15.5681C44.8254 15.1575 45.4599 14.9336 46.2064 14.9336C46.7663 14.9336 47.2889 15.0456 47.6995 15.2695C48.1101 15.4935 48.4833 15.8294 48.7446 16.24C49.0059 16.6879 49.2298 17.1732 49.4165 17.8077C49.5658 18.4049 49.6404 19.2634 49.6404 20.3085C49.6404 21.5403 49.5285 22.5481 49.2672 23.2946C49.0059 24.0411 48.6326 24.6383 48.1101 25.0489C47.5875 25.4595 46.953 25.6835 46.2064 25.6835C45.1986 25.6835 44.3775 25.3102 43.8176 24.601C43.1084 23.7052 42.7725 22.2868 42.7725 20.3085V20.3459ZM44.1162 20.3459C44.1162 22.0628 44.3028 23.22 44.7134 23.8172C45.124 24.3771 45.6092 24.6757 46.2064 24.6757C46.8037 24.6757 47.2889 24.3771 47.6995 23.8172C48.1101 23.2573 48.2967 22.1002 48.2967 20.3459C48.2967 18.5915 48.1101 17.4344 47.6995 16.8745C47.2889 16.3147 46.8037 16.016 46.1691 16.016C45.5346 16.016 45.0867 16.2773 44.7507 16.7626C44.3028 17.3971 44.0789 18.5915 44.0789 20.3459H44.1162Z" fill="#F9F6F3"/>
<path d="M366.386 21.6143H374V24.6906C374 25.7952 373.105 26.6906 372 26.6906H368.386C367.281 26.6906 366.386 25.7952 366.386 24.6906V21.6143Z" fill="#F9F6F3"/>
<path d="M368 16C368 15.4477 368.448 15 369 15H371C371.552 15 372 15.4477 372 16V17H368V16Z" fill="#F9F6F3"/>
<rect x="366.886" y="17.0381" width="6.61455" height="9.15273" rx="0.5" stroke="#F9F6F3"/>
<path d="M51.5906 793H49.2156L49.2312 791.773H51.5906C52.4031 791.773 53.0802 791.604 53.6219 791.266C54.1635 790.922 54.5698 790.443 54.8406 789.828C55.1167 789.208 55.2547 788.484 55.2547 787.656V786.961C55.2547 786.31 55.1766 785.732 55.0203 785.227C54.8641 784.716 54.6349 784.286 54.3328 783.938C54.0307 783.583 53.6609 783.315 53.2234 783.133C52.7911 782.951 52.2937 782.859 51.7312 782.859H49.1687V781.625H51.7312C52.476 781.625 53.1557 781.75 53.7703 782C54.3849 782.245 54.9135 782.602 55.3562 783.07C55.8042 783.534 56.1479 784.096 56.3875 784.758C56.6271 785.414 56.7469 786.154 56.7469 786.977V787.656C56.7469 788.479 56.6271 789.221 56.3875 789.883C56.1479 790.539 55.8016 791.099 55.3484 791.562C54.9005 792.026 54.3589 792.383 53.7234 792.633C53.0932 792.878 52.3823 793 51.5906 793ZM50.0203 781.625V793H48.5125V781.625H50.0203ZM58.5609 788.867V788.688C58.5609 788.078 58.6495 787.513 58.8266 786.992C59.0036 786.466 59.2589 786.01 59.5922 785.625C59.9255 785.234 60.3292 784.932 60.8031 784.719C61.2771 784.5 61.8083 784.391 62.3969 784.391C62.9906 784.391 63.5245 784.5 63.9984 784.719C64.4776 784.932 64.8839 785.234 65.2172 785.625C65.5557 786.01 65.8135 786.466 65.9906 786.992C66.1677 787.513 66.2562 788.078 66.2562 788.688V788.867C66.2562 789.477 66.1677 790.042 65.9906 790.562C65.8135 791.083 65.5557 791.539 65.2172 791.93C64.8839 792.315 64.4802 792.617 64.0062 792.836C63.5375 793.049 63.0062 793.156 62.4125 793.156C61.8187 793.156 61.2849 793.049 60.8109 792.836C60.337 792.617 59.9307 792.315 59.5922 791.93C59.2589 791.539 59.0036 791.083 58.8266 790.562C58.6495 790.042 58.5609 789.477 58.5609 788.867ZM60.0062 788.688V788.867C60.0062 789.289 60.0557 789.688 60.1547 790.062C60.2536 790.432 60.4021 790.76 60.6 791.047C60.8031 791.333 61.0557 791.56 61.3578 791.727C61.6599 791.888 62.0115 791.969 62.4125 791.969C62.8083 791.969 63.1547 791.888 63.4516 791.727C63.7536 791.56 64.0036 791.333 64.2016 791.047C64.3995 790.76 64.5479 790.432 64.6469 790.062C64.751 789.688 64.8031 789.289 64.8031 788.867V788.688C64.8031 788.271 64.751 787.878 64.6469 787.508C64.5479 787.133 64.3969 786.802 64.1937 786.516C63.9958 786.224 63.7458 785.995 63.4437 785.828C63.1469 785.661 62.7979 785.578 62.3969 785.578C62.001 785.578 61.6521 785.661 61.35 785.828C61.0531 785.995 60.8031 786.224 60.6 786.516C60.4021 786.802 60.2536 787.133 60.1547 787.508C60.0557 787.878 60.0062 788.271 60.0062 788.688ZM69.6641 786.352V793H68.2187V784.547H69.5859L69.6641 786.352ZM69.3203 788.453L68.7187 788.43C68.724 787.852 68.8099 787.318 68.9766 786.828C69.1432 786.333 69.3776 785.904 69.6797 785.539C69.9818 785.174 70.3411 784.893 70.7578 784.695C71.1797 784.492 71.6458 784.391 72.1562 784.391C72.5729 784.391 72.9479 784.448 73.2812 784.562C73.6146 784.672 73.8984 784.849 74.1328 785.094C74.3724 785.339 74.5547 785.656 74.6797 786.047C74.8047 786.432 74.8672 786.904 74.8672 787.461V793H73.4141V787.445C73.4141 787.003 73.349 786.648 73.2187 786.383C73.0885 786.112 72.8984 785.917 72.6484 785.797C72.3984 785.672 72.0911 785.609 71.7266 785.609C71.3672 785.609 71.0391 785.685 70.7422 785.836C70.4505 785.987 70.1979 786.195 69.9844 786.461C69.776 786.727 69.612 787.031 69.4922 787.375C69.3776 787.714 69.3203 788.073 69.3203 788.453ZM78.0484 781V782C78.0484 782.312 77.9937 782.643 77.8844 782.992C77.7802 783.336 77.6266 783.669 77.4234 783.992C77.2203 784.31 76.9755 784.589 76.6891 784.828L75.8609 784.258C76.1057 783.914 76.2906 783.562 76.4156 783.203C76.5458 782.839 76.6109 782.445 76.6109 782.023V781H78.0484ZM83.4797 784.547V785.656H78.9094V784.547H83.4797ZM80.4562 782.492H81.9016V790.906C81.9016 791.193 81.9458 791.409 82.0344 791.555C82.1229 791.701 82.2375 791.797 82.3781 791.844C82.5187 791.891 82.6698 791.914 82.8312 791.914C82.951 791.914 83.076 791.904 83.2062 791.883C83.3417 791.857 83.4432 791.836 83.5109 791.82L83.5187 793C83.4042 793.036 83.2531 793.07 83.0656 793.102C82.8833 793.138 82.662 793.156 82.4016 793.156C82.0474 793.156 81.7219 793.086 81.425 792.945C81.1281 792.805 80.8911 792.57 80.7141 792.242C80.5422 791.909 80.4562 791.461 80.4562 790.898V782.492ZM90.8891 781V793H89.4437V781H90.8891ZM90.5453 788.453L89.9437 788.43C89.949 787.852 90.0349 787.318 90.2016 786.828C90.3682 786.333 90.6026 785.904 90.9047 785.539C91.2068 785.174 91.5661 784.893 91.9828 784.695C92.4047 784.492 92.8708 784.391 93.3812 784.391C93.7979 784.391 94.1729 784.448 94.5062 784.562C94.8396 784.672 95.1234 784.849 95.3578 785.094C95.5974 785.339 95.7797 785.656 95.9047 786.047C96.0297 786.432 96.0922 786.904 96.0922 787.461V793H94.6391V787.445C94.6391 787.003 94.574 786.648 94.4437 786.383C94.3135 786.112 94.1234 785.917 93.8734 785.797C93.6234 785.672 93.3161 785.609 92.9516 785.609C92.5922 785.609 92.2641 785.685 91.9672 785.836C91.6755 785.987 91.4229 786.195 91.2094 786.461C91.001 786.727 90.837 787.031 90.7172 787.375C90.6026 787.714 90.5453 788.073 90.5453 788.453ZM103.391 791.555V787.203C103.391 786.87 103.323 786.581 103.187 786.336C103.057 786.086 102.859 785.893 102.594 785.758C102.328 785.622 102 785.555 101.609 785.555C101.245 785.555 100.924 785.617 100.648 785.742C100.378 785.867 100.164 786.031 100.008 786.234C99.8568 786.438 99.7812 786.656 99.7812 786.891H98.3359C98.3359 786.589 98.4141 786.289 98.5703 785.992C98.7266 785.695 98.9505 785.427 99.2422 785.188C99.5391 784.943 99.8932 784.75 100.305 784.609C100.721 784.464 101.185 784.391 101.695 784.391C102.31 784.391 102.852 784.495 103.32 784.703C103.794 784.911 104.164 785.227 104.43 785.648C104.701 786.065 104.836 786.589 104.836 787.219V791.156C104.836 791.438 104.859 791.737 104.906 792.055C104.958 792.372 105.034 792.646 105.133 792.875V793H103.625C103.552 792.833 103.495 792.612 103.453 792.336C103.411 792.055 103.391 791.794 103.391 791.555ZM103.641 787.875L103.656 788.891H102.195C101.784 788.891 101.417 788.924 101.094 788.992C100.771 789.055 100.5 789.151 100.281 789.281C100.062 789.411 99.8958 789.576 99.7812 789.773C99.6667 789.966 99.6094 790.193 99.6094 790.453C99.6094 790.719 99.6693 790.961 99.7891 791.18C99.9089 791.398 100.089 791.573 100.328 791.703C100.573 791.828 100.872 791.891 101.227 791.891C101.669 791.891 102.06 791.797 102.398 791.609C102.737 791.422 103.005 791.193 103.203 790.922C103.406 790.651 103.516 790.388 103.531 790.133L104.148 790.828C104.112 791.047 104.013 791.289 103.852 791.555C103.69 791.82 103.474 792.076 103.203 792.32C102.937 792.56 102.62 792.76 102.25 792.922C101.885 793.078 101.474 793.156 101.016 793.156C100.443 793.156 99.9401 793.044 99.5078 792.82C99.0807 792.596 98.7474 792.297 98.5078 791.922C98.2734 791.542 98.1562 791.117 98.1562 790.648C98.1562 790.195 98.2448 789.797 98.4219 789.453C98.599 789.104 98.8542 788.815 99.1875 788.586C99.5208 788.352 99.9219 788.174 100.391 788.055C100.859 787.935 101.383 787.875 101.961 787.875H103.641ZM109.705 791.695L112.017 784.547H113.494L110.455 793H109.486L109.705 791.695ZM107.775 784.547L110.158 791.734L110.322 793H109.353L106.291 784.547H107.775ZM118.433 793.156C117.844 793.156 117.31 793.057 116.831 792.859C116.357 792.656 115.948 792.372 115.605 792.008C115.266 791.643 115.006 791.211 114.823 790.711C114.641 790.211 114.55 789.664 114.55 789.07V788.742C114.55 788.055 114.652 787.443 114.855 786.906C115.058 786.365 115.334 785.906 115.683 785.531C116.032 785.156 116.428 784.872 116.87 784.68C117.313 784.487 117.771 784.391 118.245 784.391C118.849 784.391 119.37 784.495 119.808 784.703C120.251 784.911 120.612 785.203 120.894 785.578C121.175 785.948 121.383 786.385 121.519 786.891C121.654 787.391 121.722 787.938 121.722 788.531V789.18H115.409V788H120.277V787.891C120.256 787.516 120.178 787.151 120.042 786.797C119.912 786.443 119.704 786.151 119.417 785.922C119.131 785.693 118.74 785.578 118.245 785.578C117.917 785.578 117.615 785.648 117.339 785.789C117.063 785.924 116.826 786.128 116.628 786.398C116.43 786.669 116.277 787 116.167 787.391C116.058 787.781 116.003 788.232 116.003 788.742V789.07C116.003 789.471 116.058 789.849 116.167 790.203C116.282 790.552 116.446 790.859 116.659 791.125C116.878 791.391 117.141 791.599 117.448 791.75C117.761 791.901 118.115 791.977 118.511 791.977C119.021 791.977 119.454 791.872 119.808 791.664C120.162 791.456 120.472 791.177 120.737 790.828L121.612 791.523C121.43 791.799 121.198 792.062 120.917 792.312C120.636 792.562 120.29 792.766 119.878 792.922C119.472 793.078 118.99 793.156 118.433 793.156ZM132.662 791.555V787.203C132.662 786.87 132.595 786.581 132.459 786.336C132.329 786.086 132.131 785.893 131.866 785.758C131.6 785.622 131.272 785.555 130.881 785.555C130.517 785.555 130.196 785.617 129.92 785.742C129.649 785.867 129.436 786.031 129.28 786.234C129.129 786.438 129.053 786.656 129.053 786.891H127.608C127.608 786.589 127.686 786.289 127.842 785.992C127.998 785.695 128.222 785.427 128.514 785.188C128.811 784.943 129.165 784.75 129.577 784.609C129.993 784.464 130.457 784.391 130.967 784.391C131.582 784.391 132.123 784.495 132.592 784.703C133.066 784.911 133.436 785.227 133.702 785.648C133.972 786.065 134.108 786.589 134.108 787.219V791.156C134.108 791.438 134.131 791.737 134.178 792.055C134.23 792.372 134.306 792.646 134.405 792.875V793H132.897C132.824 792.833 132.767 792.612 132.725 792.336C132.683 792.055 132.662 791.794 132.662 791.555ZM132.912 787.875L132.928 788.891H131.467C131.056 788.891 130.689 788.924 130.366 788.992C130.043 789.055 129.772 789.151 129.553 789.281C129.334 789.411 129.168 789.576 129.053 789.773C128.939 789.966 128.881 790.193 128.881 790.453C128.881 790.719 128.941 790.961 129.061 791.18C129.181 791.398 129.36 791.573 129.6 791.703C129.845 791.828 130.144 791.891 130.498 791.891C130.941 791.891 131.332 791.797 131.67 791.609C132.009 791.422 132.277 791.193 132.475 790.922C132.678 790.651 132.787 790.388 132.803 790.133L133.42 790.828C133.384 791.047 133.285 791.289 133.123 791.555C132.962 791.82 132.746 792.076 132.475 792.32C132.209 792.56 131.892 792.76 131.522 792.922C131.157 793.078 130.746 793.156 130.287 793.156C129.715 793.156 129.212 793.044 128.78 792.82C128.353 792.596 128.019 792.297 127.78 791.922C127.545 791.542 127.428 791.117 127.428 790.648C127.428 790.195 127.517 789.797 127.694 789.453C127.871 789.104 128.126 788.815 128.459 788.586C128.793 788.352 129.194 788.174 129.662 788.055C130.131 787.935 130.655 787.875 131.233 787.875H132.912ZM137.977 786.352V793H136.531V784.547H137.898L137.977 786.352ZM137.633 788.453L137.031 788.43C137.036 787.852 137.122 787.318 137.289 786.828C137.456 786.333 137.69 785.904 137.992 785.539C138.294 785.174 138.654 784.893 139.07 784.695C139.492 784.492 139.958 784.391 140.469 784.391C140.885 784.391 141.26 784.448 141.594 784.562C141.927 784.672 142.211 784.849 142.445 785.094C142.685 785.339 142.867 785.656 142.992 786.047C143.117 786.432 143.18 786.904 143.18 787.461V793H141.727V787.445C141.727 787.003 141.661 786.648 141.531 786.383C141.401 786.112 141.211 785.917 140.961 785.797C140.711 785.672 140.404 785.609 140.039 785.609C139.68 785.609 139.352 785.685 139.055 785.836C138.763 785.987 138.51 786.195 138.297 786.461C138.089 786.727 137.924 787.031 137.805 787.375C137.69 787.714 137.633 788.073 137.633 788.453ZM154.628 791.555V787.203C154.628 786.87 154.56 786.581 154.425 786.336C154.295 786.086 154.097 785.893 153.831 785.758C153.566 785.622 153.237 785.555 152.847 785.555C152.482 785.555 152.162 785.617 151.886 785.742C151.615 785.867 151.402 786.031 151.245 786.234C151.094 786.438 151.019 786.656 151.019 786.891H149.573C149.573 786.589 149.652 786.289 149.808 785.992C149.964 785.695 150.188 785.427 150.48 785.188C150.777 784.943 151.131 784.75 151.542 784.609C151.959 784.464 152.422 784.391 152.933 784.391C153.547 784.391 154.089 784.495 154.558 784.703C155.032 784.911 155.402 785.227 155.667 785.648C155.938 786.065 156.073 786.589 156.073 787.219V791.156C156.073 791.438 156.097 791.737 156.144 792.055C156.196 792.372 156.271 792.646 156.37 792.875V793H154.862C154.79 792.833 154.732 792.612 154.691 792.336C154.649 792.055 154.628 791.794 154.628 791.555ZM154.878 787.875L154.894 788.891H153.433C153.021 788.891 152.654 788.924 152.331 788.992C152.008 789.055 151.737 789.151 151.519 789.281C151.3 789.411 151.133 789.576 151.019 789.773C150.904 789.966 150.847 790.193 150.847 790.453C150.847 790.719 150.907 790.961 151.027 791.18C151.146 791.398 151.326 791.573 151.566 791.703C151.81 791.828 152.11 791.891 152.464 791.891C152.907 791.891 153.297 791.797 153.636 791.609C153.974 791.422 154.243 791.193 154.441 790.922C154.644 790.651 154.753 790.388 154.769 790.133L155.386 790.828C155.349 791.047 155.251 791.289 155.089 791.555C154.928 791.82 154.711 792.076 154.441 792.32C154.175 792.56 153.857 792.76 153.487 792.922C153.123 793.078 152.711 793.156 152.253 793.156C151.68 793.156 151.178 793.044 150.745 792.82C150.318 792.596 149.985 792.297 149.745 791.922C149.511 791.542 149.394 791.117 149.394 790.648C149.394 790.195 149.482 789.797 149.659 789.453C149.836 789.104 150.092 788.815 150.425 788.586C150.758 788.352 151.159 788.174 151.628 788.055C152.097 787.935 152.62 787.875 153.198 787.875H154.878ZM161.88 791.969C162.223 791.969 162.541 791.898 162.833 791.758C163.124 791.617 163.364 791.424 163.552 791.18C163.739 790.93 163.846 790.646 163.872 790.328H165.247C165.221 790.828 165.052 791.294 164.739 791.727C164.432 792.154 164.028 792.5 163.528 792.766C163.028 793.026 162.479 793.156 161.88 793.156C161.244 793.156 160.69 793.044 160.216 792.82C159.747 792.596 159.356 792.289 159.044 791.898C158.736 791.508 158.505 791.06 158.348 790.555C158.197 790.044 158.122 789.505 158.122 788.938V788.609C158.122 788.042 158.197 787.505 158.348 787C158.505 786.49 158.736 786.039 159.044 785.648C159.356 785.258 159.747 784.951 160.216 784.727C160.69 784.503 161.244 784.391 161.88 784.391C162.541 784.391 163.119 784.526 163.614 784.797C164.109 785.062 164.497 785.427 164.778 785.891C165.065 786.349 165.221 786.87 165.247 787.453H163.872C163.846 787.104 163.747 786.789 163.575 786.508C163.408 786.227 163.179 786.003 162.887 785.836C162.601 785.664 162.265 785.578 161.88 785.578C161.437 785.578 161.065 785.667 160.762 785.844C160.466 786.016 160.229 786.25 160.052 786.547C159.88 786.839 159.755 787.164 159.677 787.523C159.604 787.878 159.567 788.24 159.567 788.609V788.938C159.567 789.307 159.604 789.672 159.677 790.031C159.749 790.391 159.872 790.716 160.044 791.008C160.221 791.299 160.458 791.534 160.755 791.711C161.057 791.883 161.432 791.969 161.88 791.969ZM170.405 791.969C170.748 791.969 171.066 791.898 171.358 791.758C171.649 791.617 171.889 791.424 172.077 791.18C172.264 790.93 172.371 790.646 172.397 790.328H173.772C173.746 790.828 173.577 791.294 173.264 791.727C172.957 792.154 172.553 792.5 172.053 792.766C171.553 793.026 171.004 793.156 170.405 793.156C169.769 793.156 169.215 793.044 168.741 792.82C168.272 792.596 167.881 792.289 167.569 791.898C167.261 791.508 167.03 791.06 166.873 790.555C166.722 790.044 166.647 789.505 166.647 788.938V788.609C166.647 788.042 166.722 787.505 166.873 787C167.03 786.49 167.261 786.039 167.569 785.648C167.881 785.258 168.272 784.951 168.741 784.727C169.215 784.503 169.769 784.391 170.405 784.391C171.066 784.391 171.644 784.526 172.139 784.797C172.634 785.062 173.022 785.427 173.303 785.891C173.59 786.349 173.746 786.87 173.772 787.453H172.397C172.371 787.104 172.272 786.789 172.1 786.508C171.933 786.227 171.704 786.003 171.412 785.836C171.126 785.664 170.79 785.578 170.405 785.578C169.962 785.578 169.59 785.667 169.287 785.844C168.991 786.016 168.754 786.25 168.577 786.547C168.405 786.839 168.28 787.164 168.202 787.523C168.129 787.878 168.092 788.24 168.092 788.609V788.938C168.092 789.307 168.129 789.672 168.202 790.031C168.274 790.391 168.397 790.716 168.569 791.008C168.746 791.299 168.983 791.534 169.28 791.711C169.582 791.883 169.957 791.969 170.405 791.969ZM175.164 788.867V788.688C175.164 788.078 175.253 787.513 175.43 786.992C175.607 786.466 175.862 786.01 176.195 785.625C176.529 785.234 176.932 784.932 177.406 784.719C177.88 784.5 178.411 784.391 179 784.391C179.594 784.391 180.128 784.5 180.602 784.719C181.081 784.932 181.487 785.234 181.82 785.625C182.159 786.01 182.417 786.466 182.594 786.992C182.771 787.513 182.859 788.078 182.859 788.688V788.867C182.859 789.477 182.771 790.042 182.594 790.562C182.417 791.083 182.159 791.539 181.82 791.93C181.487 792.315 181.083 792.617 180.609 792.836C180.141 793.049 179.609 793.156 179.016 793.156C178.422 793.156 177.888 793.049 177.414 792.836C176.94 792.617 176.534 792.315 176.195 791.93C175.862 791.539 175.607 791.083 175.43 790.562C175.253 790.042 175.164 789.477 175.164 788.867ZM176.609 788.688V788.867C176.609 789.289 176.659 789.688 176.758 790.062C176.857 790.432 177.005 790.76 177.203 791.047C177.406 791.333 177.659 791.56 177.961 791.727C178.263 791.888 178.615 791.969 179.016 791.969C179.411 791.969 179.758 791.888 180.055 791.727C180.357 791.56 180.607 791.333 180.805 791.047C181.003 790.76 181.151 790.432 181.25 790.062C181.354 789.688 181.406 789.289 181.406 788.867V788.688C181.406 788.271 181.354 787.878 181.25 787.508C181.151 787.133 181 786.802 180.797 786.516C180.599 786.224 180.349 785.995 180.047 785.828C179.75 785.661 179.401 785.578 179 785.578C178.604 785.578 178.255 785.661 177.953 785.828C177.656 785.995 177.406 786.224 177.203 786.516C177.005 786.802 176.857 787.133 176.758 787.508C176.659 787.878 176.609 788.271 176.609 788.688ZM189.994 791.047V784.547H191.447V793H190.064L189.994 791.047ZM190.267 789.266L190.869 789.25C190.869 789.812 190.809 790.333 190.689 790.812C190.574 791.286 190.387 791.698 190.127 792.047C189.866 792.396 189.525 792.669 189.103 792.867C188.681 793.06 188.168 793.156 187.564 793.156C187.153 793.156 186.775 793.096 186.431 792.977C186.093 792.857 185.801 792.672 185.556 792.422C185.311 792.172 185.121 791.846 184.986 791.445C184.856 791.044 184.791 790.562 184.791 790V784.547H186.236V790.016C186.236 790.396 186.278 790.711 186.361 790.961C186.449 791.206 186.567 791.401 186.712 791.547C186.864 791.688 187.03 791.786 187.212 791.844C187.4 791.901 187.593 791.93 187.791 791.93C188.405 791.93 188.892 791.812 189.252 791.578C189.611 791.339 189.869 791.018 190.025 790.617C190.186 790.211 190.267 789.76 190.267 789.266ZM195.245 786.352V793H193.8V784.547H195.167L195.245 786.352ZM194.902 788.453L194.3 788.43C194.305 787.852 194.391 787.318 194.558 786.828C194.724 786.333 194.959 785.904 195.261 785.539C195.563 785.174 195.922 784.893 196.339 784.695C196.761 784.492 197.227 784.391 197.738 784.391C198.154 784.391 198.529 784.448 198.863 784.562C199.196 784.672 199.48 784.849 199.714 785.094C199.954 785.339 200.136 785.656 200.261 786.047C200.386 786.432 200.448 786.904 200.448 787.461V793H198.995V787.445C198.995 787.003 198.93 786.648 198.8 786.383C198.67 786.112 198.48 785.917 198.23 785.797C197.98 785.672 197.672 785.609 197.308 785.609C196.948 785.609 196.62 785.685 196.323 785.836C196.032 785.987 195.779 786.195 195.566 786.461C195.357 786.727 195.193 787.031 195.073 787.375C194.959 787.714 194.902 788.073 194.902 788.453ZM206.333 784.547V785.656H201.762V784.547H206.333ZM203.309 782.492H204.755V790.906C204.755 791.193 204.799 791.409 204.887 791.555C204.976 791.701 205.091 791.797 205.231 791.844C205.372 791.891 205.523 791.914 205.684 791.914C205.804 791.914 205.929 791.904 206.059 791.883C206.195 791.857 206.296 791.836 206.364 791.82L206.372 793C206.257 793.036 206.106 793.07 205.919 793.102C205.736 793.138 205.515 793.156 205.255 793.156C204.901 793.156 204.575 793.086 204.278 792.945C203.981 792.805 203.744 792.57 203.567 792.242C203.395 791.909 203.309 791.461 203.309 790.898V782.492ZM214.672 792.125L217.023 784.547H218.57L215.18 794.305C215.102 794.513 214.997 794.737 214.867 794.977C214.742 795.221 214.581 795.453 214.383 795.672C214.185 795.891 213.945 796.068 213.664 796.203C213.388 796.344 213.057 796.414 212.672 796.414C212.557 796.414 212.411 796.398 212.234 796.367C212.057 796.336 211.932 796.31 211.859 796.289L211.852 795.117C211.893 795.122 211.958 795.128 212.047 795.133C212.141 795.143 212.206 795.148 212.242 795.148C212.57 795.148 212.849 795.104 213.078 795.016C213.307 794.932 213.5 794.789 213.656 794.586C213.818 794.388 213.956 794.115 214.07 793.766L214.672 792.125ZM212.945 784.547L215.141 791.109L215.516 792.633L214.477 793.164L211.367 784.547H212.945ZM223.423 793.156C222.835 793.156 222.301 793.057 221.822 792.859C221.348 792.656 220.939 792.372 220.595 792.008C220.257 791.643 219.996 791.211 219.814 790.711C219.632 790.211 219.541 789.664 219.541 789.07V788.742C219.541 788.055 219.642 787.443 219.845 786.906C220.048 786.365 220.324 785.906 220.673 785.531C221.022 785.156 221.418 784.872 221.861 784.68C222.304 784.487 222.762 784.391 223.236 784.391C223.84 784.391 224.361 784.495 224.798 784.703C225.241 784.911 225.603 785.203 225.884 785.578C226.166 785.948 226.374 786.385 226.509 786.891C226.645 787.391 226.712 787.938 226.712 788.531V789.18H220.4V788H225.267V787.891C225.246 787.516 225.168 787.151 225.033 786.797C224.903 786.443 224.694 786.151 224.408 785.922C224.121 785.693 223.731 785.578 223.236 785.578C222.908 785.578 222.606 785.648 222.33 785.789C222.054 785.924 221.817 786.128 221.619 786.398C221.421 786.669 221.267 787 221.158 787.391C221.048 787.781 220.994 788.232 220.994 788.742V789.07C220.994 789.471 221.048 789.849 221.158 790.203C221.272 790.552 221.436 790.859 221.65 791.125C221.869 791.391 222.132 791.599 222.439 791.75C222.752 791.901 223.106 791.977 223.502 791.977C224.012 791.977 224.444 791.872 224.798 791.664C225.153 791.456 225.462 791.177 225.728 790.828L226.603 791.523C226.421 791.799 226.189 792.062 225.908 792.312C225.627 792.562 225.28 792.766 224.869 792.922C224.462 793.078 223.981 793.156 223.423 793.156ZM232.089 784.547V785.656H227.519V784.547H232.089ZM229.066 782.492H230.511V790.906C230.511 791.193 230.555 791.409 230.644 791.555C230.732 791.701 230.847 791.797 230.988 791.844C231.128 791.891 231.279 791.914 231.441 791.914C231.56 791.914 231.685 791.904 231.816 791.883C231.951 791.857 232.053 791.836 232.12 791.82L232.128 793C232.014 793.036 231.863 793.07 231.675 793.102C231.493 793.138 231.271 793.156 231.011 793.156C230.657 793.156 230.331 793.086 230.034 792.945C229.738 792.805 229.501 792.57 229.323 792.242C229.152 791.909 229.066 791.461 229.066 790.898V782.492ZM237.075 789.797H235.622C235.627 789.297 235.671 788.888 235.755 788.57C235.843 788.247 235.986 787.953 236.184 787.688C236.382 787.422 236.645 787.12 236.973 786.781C237.213 786.536 237.432 786.307 237.63 786.094C237.833 785.875 237.997 785.641 238.122 785.391C238.247 785.135 238.309 784.831 238.309 784.477C238.309 784.117 238.244 783.807 238.114 783.547C237.989 783.286 237.802 783.086 237.552 782.945C237.307 782.805 237.002 782.734 236.637 782.734C236.335 782.734 236.049 782.789 235.778 782.898C235.507 783.008 235.289 783.177 235.122 783.406C234.955 783.63 234.869 783.924 234.864 784.289H233.419C233.429 783.701 233.575 783.195 233.856 782.773C234.143 782.352 234.528 782.029 235.012 781.805C235.497 781.581 236.039 781.469 236.637 781.469C237.299 781.469 237.861 781.589 238.325 781.828C238.794 782.068 239.151 782.411 239.395 782.859C239.64 783.302 239.762 783.828 239.762 784.438C239.762 784.906 239.666 785.339 239.473 785.734C239.286 786.125 239.044 786.492 238.747 786.836C238.45 787.18 238.135 787.508 237.802 787.82C237.515 788.086 237.322 788.385 237.223 788.719C237.124 789.052 237.075 789.411 237.075 789.797ZM235.559 792.273C235.559 792.039 235.632 791.841 235.778 791.68C235.924 791.518 236.135 791.438 236.411 791.438C236.692 791.438 236.906 791.518 237.052 791.68C237.197 791.841 237.27 792.039 237.27 792.273C237.27 792.497 237.197 792.69 237.052 792.852C236.906 793.013 236.692 793.094 236.411 793.094C236.135 793.094 235.924 793.013 235.778 792.852C235.632 792.69 235.559 792.497 235.559 792.273ZM245.68 781.625H249.922C250.792 781.625 251.539 781.755 252.164 782.016C252.794 782.276 253.279 782.661 253.617 783.172C253.956 783.682 254.125 784.31 254.125 785.055C254.125 785.664 254.021 786.188 253.812 786.625C253.609 787.057 253.32 787.419 252.945 787.711C252.576 787.997 252.141 788.227 251.641 788.398L250.898 788.789H247.211L247.195 786.961H249.938C250.349 786.961 250.69 786.888 250.961 786.742C251.232 786.596 251.435 786.393 251.57 786.133C251.711 785.872 251.781 785.57 251.781 785.227C251.781 784.862 251.714 784.547 251.578 784.281C251.443 784.016 251.237 783.812 250.961 783.672C250.685 783.531 250.339 783.461 249.922 783.461H248.023V793H245.68V781.625ZM252.039 793L249.445 787.93L251.922 787.914L254.547 792.891V793H252.039ZM259.83 793.156C259.173 793.156 258.585 793.052 258.064 792.844C257.543 792.63 257.101 792.336 256.736 791.961C256.377 791.586 256.101 791.151 255.908 790.656C255.715 790.156 255.619 789.625 255.619 789.062V788.75C255.619 788.109 255.71 787.523 255.892 786.992C256.074 786.461 256.335 786 256.673 785.609C257.017 785.219 257.434 784.919 257.923 784.711C258.413 784.497 258.965 784.391 259.58 784.391C260.179 784.391 260.71 784.49 261.173 784.688C261.637 784.885 262.025 785.167 262.337 785.531C262.655 785.896 262.895 786.333 263.056 786.844C263.218 787.349 263.298 787.911 263.298 788.531V789.469H256.58V787.969H261.087V787.797C261.087 787.484 261.03 787.206 260.916 786.961C260.806 786.711 260.64 786.513 260.416 786.367C260.192 786.221 259.905 786.148 259.556 786.148C259.259 786.148 259.004 786.214 258.791 786.344C258.577 786.474 258.403 786.656 258.267 786.891C258.137 787.125 258.038 787.401 257.97 787.719C257.908 788.031 257.877 788.375 257.877 788.75V789.062C257.877 789.401 257.923 789.714 258.017 790C258.116 790.286 258.254 790.534 258.431 790.742C258.614 790.951 258.832 791.112 259.087 791.227C259.348 791.341 259.642 791.398 259.97 791.398C260.377 791.398 260.754 791.32 261.103 791.164C261.457 791.003 261.762 790.76 262.017 790.438L263.111 791.625C262.934 791.88 262.692 792.125 262.384 792.359C262.082 792.594 261.718 792.786 261.291 792.938C260.864 793.083 260.377 793.156 259.83 793.156ZM270.081 784.547H272.12V792.719C272.12 793.49 271.948 794.143 271.605 794.68C271.266 795.221 270.792 795.63 270.183 795.906C269.573 796.188 268.865 796.328 268.058 796.328C267.704 796.328 267.329 796.281 266.933 796.188C266.542 796.094 266.167 795.948 265.808 795.75C265.454 795.552 265.157 795.302 264.917 795L265.909 793.672C266.17 793.974 266.472 794.208 266.816 794.375C267.159 794.547 267.54 794.633 267.956 794.633C268.363 794.633 268.706 794.557 268.988 794.406C269.269 794.26 269.485 794.044 269.636 793.758C269.787 793.477 269.863 793.135 269.863 792.734V786.5L270.081 784.547ZM264.394 788.875V788.711C264.394 788.065 264.472 787.479 264.628 786.953C264.79 786.422 265.016 785.966 265.308 785.586C265.605 785.206 265.964 784.911 266.386 784.703C266.808 784.495 267.284 784.391 267.816 784.391C268.378 784.391 268.849 784.495 269.23 784.703C269.61 784.911 269.922 785.208 270.167 785.594C270.412 785.974 270.602 786.424 270.738 786.945C270.878 787.461 270.988 788.026 271.066 788.641V789C270.988 789.589 270.87 790.135 270.714 790.641C270.558 791.146 270.352 791.589 270.097 791.969C269.842 792.344 269.524 792.635 269.144 792.844C268.769 793.052 268.321 793.156 267.8 793.156C267.279 793.156 266.808 793.049 266.386 792.836C265.969 792.622 265.613 792.323 265.316 791.938C265.019 791.552 264.79 791.099 264.628 790.578C264.472 790.057 264.394 789.49 264.394 788.875ZM266.644 788.711V788.875C266.644 789.224 266.678 789.549 266.745 789.852C266.813 790.154 266.917 790.422 267.058 790.656C267.204 790.885 267.383 791.065 267.597 791.195C267.816 791.32 268.073 791.383 268.37 791.383C268.782 791.383 269.118 791.297 269.378 791.125C269.639 790.948 269.834 790.706 269.964 790.398C270.094 790.091 270.17 789.737 270.191 789.336V788.312C270.18 787.984 270.136 787.69 270.058 787.43C269.98 787.164 269.87 786.938 269.73 786.75C269.589 786.562 269.407 786.417 269.183 786.312C268.959 786.208 268.693 786.156 268.386 786.156C268.089 786.156 267.831 786.224 267.613 786.359C267.399 786.49 267.219 786.669 267.073 786.898C266.933 787.128 266.826 787.398 266.753 787.711C266.68 788.018 266.644 788.352 266.644 788.711ZM276.395 784.547V793H274.137V784.547H276.395ZM273.997 782.344C273.997 782.016 274.111 781.745 274.341 781.531C274.57 781.318 274.877 781.211 275.262 781.211C275.643 781.211 275.947 781.318 276.177 781.531C276.411 781.745 276.528 782.016 276.528 782.344C276.528 782.672 276.411 782.943 276.177 783.156C275.947 783.37 275.643 783.477 275.262 783.477C274.877 783.477 274.57 783.37 274.341 783.156C274.111 782.943 273.997 782.672 273.997 782.344ZM282.975 790.664C282.975 790.503 282.928 790.357 282.834 790.227C282.741 790.096 282.566 789.977 282.311 789.867C282.061 789.753 281.699 789.648 281.225 789.555C280.798 789.461 280.399 789.344 280.03 789.203C279.665 789.057 279.347 788.883 279.077 788.68C278.811 788.477 278.603 788.237 278.452 787.961C278.301 787.68 278.225 787.359 278.225 787C278.225 786.646 278.301 786.312 278.452 786C278.608 785.688 278.829 785.411 279.116 785.172C279.407 784.927 279.761 784.737 280.178 784.602C280.6 784.461 281.074 784.391 281.6 784.391C282.334 784.391 282.965 784.508 283.491 784.742C284.022 784.977 284.428 785.299 284.709 785.711C284.996 786.117 285.139 786.581 285.139 787.102H282.889C282.889 786.883 282.842 786.688 282.748 786.516C282.66 786.339 282.519 786.201 282.327 786.102C282.139 785.997 281.894 785.945 281.592 785.945C281.342 785.945 281.126 785.99 280.944 786.078C280.761 786.161 280.621 786.276 280.522 786.422C280.428 786.562 280.381 786.719 280.381 786.891C280.381 787.021 280.407 787.138 280.459 787.242C280.517 787.341 280.608 787.432 280.733 787.516C280.858 787.599 281.019 787.677 281.217 787.75C281.42 787.818 281.67 787.88 281.967 787.938C282.577 788.062 283.121 788.227 283.6 788.43C284.079 788.628 284.459 788.898 284.741 789.242C285.022 789.581 285.162 790.026 285.162 790.578C285.162 790.953 285.079 791.297 284.912 791.609C284.746 791.922 284.506 792.195 284.194 792.43C283.881 792.659 283.506 792.839 283.069 792.969C282.636 793.094 282.149 793.156 281.608 793.156C280.821 793.156 280.155 793.016 279.608 792.734C279.066 792.453 278.655 792.096 278.373 791.664C278.097 791.227 277.959 790.779 277.959 790.32H280.092C280.103 790.628 280.181 790.875 280.327 791.062C280.478 791.25 280.668 791.385 280.897 791.469C281.131 791.552 281.384 791.594 281.655 791.594C281.946 791.594 282.189 791.555 282.381 791.477C282.574 791.393 282.72 791.284 282.819 791.148C282.923 791.008 282.975 790.846 282.975 790.664ZM290.914 784.547V786.141H285.992V784.547H290.914ZM287.211 782.461H289.461V790.453C289.461 790.698 289.492 790.885 289.555 791.016C289.622 791.146 289.721 791.237 289.852 791.289C289.982 791.336 290.146 791.359 290.344 791.359C290.484 791.359 290.609 791.354 290.719 791.344C290.833 791.328 290.93 791.312 291.008 791.297L291.016 792.953C290.823 793.016 290.615 793.065 290.391 793.102C290.167 793.138 289.919 793.156 289.648 793.156C289.154 793.156 288.721 793.076 288.352 792.914C287.987 792.747 287.706 792.482 287.508 792.117C287.31 791.753 287.211 791.273 287.211 790.68V782.461ZM296.236 793.156C295.58 793.156 294.991 793.052 294.47 792.844C293.949 792.63 293.507 792.336 293.142 791.961C292.783 791.586 292.507 791.151 292.314 790.656C292.121 790.156 292.025 789.625 292.025 789.062V788.75C292.025 788.109 292.116 787.523 292.298 786.992C292.481 786.461 292.741 786 293.08 785.609C293.423 785.219 293.84 784.919 294.33 784.711C294.819 784.497 295.371 784.391 295.986 784.391C296.585 784.391 297.116 784.49 297.58 784.688C298.043 784.885 298.431 785.167 298.744 785.531C299.061 785.896 299.301 786.333 299.462 786.844C299.624 787.349 299.705 787.911 299.705 788.531V789.469H292.986V787.969H297.494V787.797C297.494 787.484 297.436 787.206 297.322 786.961C297.212 786.711 297.046 786.513 296.822 786.367C296.598 786.221 296.311 786.148 295.962 786.148C295.666 786.148 295.41 786.214 295.197 786.344C294.983 786.474 294.809 786.656 294.673 786.891C294.543 787.125 294.444 787.401 294.377 787.719C294.314 788.031 294.283 788.375 294.283 788.75V789.062C294.283 789.401 294.33 789.714 294.423 790C294.522 790.286 294.66 790.534 294.837 790.742C295.02 790.951 295.239 791.112 295.494 791.227C295.754 791.341 296.048 791.398 296.377 791.398C296.783 791.398 297.16 791.32 297.509 791.164C297.864 791.003 298.168 790.76 298.423 790.438L299.517 791.625C299.34 791.88 299.098 792.125 298.791 792.359C298.489 792.594 298.124 792.786 297.697 792.938C297.27 793.083 296.783 793.156 296.236 793.156ZM303.386 786.391V793H301.136V784.547H303.253L303.386 786.391ZM305.933 784.492L305.894 786.578C305.784 786.562 305.652 786.549 305.495 786.539C305.344 786.523 305.206 786.516 305.081 786.516C304.764 786.516 304.487 786.557 304.253 786.641C304.024 786.719 303.831 786.836 303.675 786.992C303.524 787.148 303.409 787.339 303.331 787.562C303.258 787.786 303.217 788.042 303.206 788.328L302.753 788.188C302.753 787.641 302.808 787.138 302.917 786.68C303.027 786.216 303.185 785.812 303.394 785.469C303.607 785.125 303.868 784.859 304.175 784.672C304.482 784.484 304.834 784.391 305.23 784.391C305.355 784.391 305.482 784.401 305.612 784.422C305.743 784.438 305.849 784.461 305.933 784.492ZM313.475 781V793H311.225V781H313.475ZM313.155 788.477H312.537C312.543 787.888 312.621 787.346 312.772 786.852C312.923 786.352 313.139 785.919 313.42 785.555C313.702 785.185 314.037 784.898 314.428 784.695C314.824 784.492 315.261 784.391 315.741 784.391C316.157 784.391 316.535 784.451 316.873 784.57C317.217 784.685 317.511 784.872 317.756 785.133C318.006 785.388 318.199 785.724 318.334 786.141C318.47 786.557 318.537 787.062 318.537 787.656V793H316.272V787.641C316.272 787.266 316.217 786.971 316.108 786.758C316.004 786.539 315.85 786.385 315.647 786.297C315.449 786.203 315.204 786.156 314.912 786.156C314.59 786.156 314.314 786.216 314.084 786.336C313.86 786.456 313.681 786.622 313.545 786.836C313.41 787.044 313.311 787.289 313.248 787.57C313.186 787.852 313.155 788.154 313.155 788.477ZM324.289 793.156C323.633 793.156 323.044 793.052 322.523 792.844C322.003 792.63 321.56 792.336 321.195 791.961C320.836 791.586 320.56 791.151 320.367 790.656C320.174 790.156 320.078 789.625 320.078 789.062V788.75C320.078 788.109 320.169 787.523 320.352 786.992C320.534 786.461 320.794 786 321.133 785.609C321.477 785.219 321.893 784.919 322.383 784.711C322.872 784.497 323.424 784.391 324.039 784.391C324.638 784.391 325.169 784.49 325.633 784.688C326.096 784.885 326.484 785.167 326.797 785.531C327.115 785.896 327.354 786.333 327.516 786.844C327.677 787.349 327.758 787.911 327.758 788.531V789.469H321.039V787.969H325.547V787.797C325.547 787.484 325.49 787.206 325.375 786.961C325.266 786.711 325.099 786.513 324.875 786.367C324.651 786.221 324.365 786.148 324.016 786.148C323.719 786.148 323.464 786.214 323.25 786.344C323.036 786.474 322.862 786.656 322.727 786.891C322.596 787.125 322.497 787.401 322.43 787.719C322.367 788.031 322.336 788.375 322.336 788.75V789.062C322.336 789.401 322.383 789.714 322.477 790C322.576 790.286 322.714 790.534 322.891 790.742C323.073 790.951 323.292 791.112 323.547 791.227C323.807 791.341 324.102 791.398 324.43 791.398C324.836 791.398 325.214 791.32 325.562 791.164C325.917 791.003 326.221 790.76 326.477 790.438L327.57 791.625C327.393 791.88 327.151 792.125 326.844 792.359C326.542 792.594 326.177 792.786 325.75 792.938C325.323 793.083 324.836 793.156 324.289 793.156ZM331.439 786.391V793H329.189V784.547H331.306L331.439 786.391ZM333.986 784.492L333.947 786.578C333.838 786.562 333.705 786.549 333.548 786.539C333.397 786.523 333.259 786.516 333.134 786.516C332.817 786.516 332.541 786.557 332.306 786.641C332.077 786.719 331.884 786.836 331.728 786.992C331.577 787.148 331.463 787.339 331.384 787.562C331.311 787.786 331.27 788.042 331.259 788.328L330.806 788.188C330.806 787.641 330.861 787.138 330.97 786.68C331.08 786.216 331.239 785.812 331.447 785.469C331.66 785.125 331.921 784.859 332.228 784.672C332.535 784.484 332.887 784.391 333.283 784.391C333.408 784.391 333.535 784.401 333.666 784.422C333.796 784.438 333.903 784.461 333.986 784.492ZM338.933 793.156C338.277 793.156 337.688 793.052 337.167 792.844C336.646 792.63 336.204 792.336 335.839 791.961C335.48 791.586 335.204 791.151 335.011 790.656C334.818 790.156 334.722 789.625 334.722 789.062V788.75C334.722 788.109 334.813 787.523 334.995 786.992C335.178 786.461 335.438 786 335.777 785.609C336.12 785.219 336.537 784.919 337.027 784.711C337.516 784.497 338.068 784.391 338.683 784.391C339.282 784.391 339.813 784.49 340.277 784.688C340.74 784.885 341.128 785.167 341.441 785.531C341.758 785.896 341.998 786.333 342.159 786.844C342.321 787.349 342.402 787.911 342.402 788.531V789.469H335.683V787.969H340.191V787.797C340.191 787.484 340.133 787.206 340.019 786.961C339.909 786.711 339.743 786.513 339.519 786.367C339.295 786.221 339.008 786.148 338.659 786.148C338.362 786.148 338.107 786.214 337.894 786.344C337.68 786.474 337.506 786.656 337.37 786.891C337.24 787.125 337.141 787.401 337.073 787.719C337.011 788.031 336.98 788.375 336.98 788.75V789.062C336.98 789.401 337.027 789.714 337.12 790C337.219 790.286 337.357 790.534 337.534 790.742C337.717 790.951 337.935 791.112 338.191 791.227C338.451 791.341 338.745 791.398 339.073 791.398C339.48 791.398 339.857 791.32 340.206 791.164C340.56 791.003 340.865 790.76 341.12 790.438L342.214 791.625C342.037 791.88 341.795 792.125 341.487 792.359C341.185 792.594 340.821 792.786 340.394 792.938C339.967 793.083 339.48 793.156 338.933 793.156Z" fill="#BAB4B6"/>
<path d="M244.664 794.562H342.808V795.344H244.664V794.562Z" fill="#BAB4B6"/>
<g filter="url(#filter0_d_531_593)">
<path d="M194.879 150.336C194.879 150.336 196.639 136.168 178.805 136.96C178.805 136.96 180.139 156.379 194.879 150.336Z" fill="#295444"/>
<path d="M195.739 151.145C195.739 151.145 215.63 157.745 219.607 131.845C219.607 131.845 191.269 128.192 195.739 151.145Z" fill="#295444"/>
<path d="M236.874 188.118C235.28 166.951 216.941 151.398 198.016 149.866C197.595 149.832 197.183 149.717 196.819 149.503C196.202 149.14 195.67 148.52 195.67 147.462C195.67 145.423 196.277 140.177 197.418 136.808C197.68 136.032 197.099 135.229 196.28 135.229H194.969H193.64C192.821 135.229 192.24 136.032 192.502 136.808C193.642 140.177 194.249 145.423 194.249 147.462C194.249 148.452 193.783 149.058 193.218 149.43C192.824 149.688 192.365 149.826 191.896 149.862C172.907 151.353 153.954 166.495 153.044 188.118C152.218 207.748 163.023 214.502 183.922 214.502H205.995C226.894 214.502 238.348 207.71 236.873 188.118H236.874Z" fill="url(#paint1_radial_531_593)"/>
<path d="M227.4 190.422C227.4 203.156 217.728 207.342 200.896 207.785C200.105 207.806 189.707 207.785 188.903 207.785C170.953 207.785 162.398 203.753 162.398 190.422C162.398 177.091 179.069 165.212 194.899 165.212C212.049 165.212 227.4 177.091 227.4 190.422Z" fill="#D6EBDD"/>
<mask id="mask0_531_593" style="mask-type:luminance" maskUnits="userSpaceOnUse" x="162" y="165" width="66" height="43">
<path d="M227.402 190.423C227.402 203.157 217.73 207.343 200.898 207.786C200.107 207.807 189.709 207.786 188.905 207.786C170.955 207.786 162.4 203.754 162.4 190.423C162.4 177.092 179.07 165.213 194.901 165.213C212.051 165.213 227.402 177.092 227.402 190.423Z" fill="white"/>
</mask>
<g mask="url(#mask0_531_593)">
<path d="M171.033 206.228C175.669 206.228 179.428 202.469 179.428 197.833C179.428 193.197 175.669 189.438 171.033 189.438C166.396 189.438 162.638 193.197 162.638 197.833C162.638 202.469 166.396 206.228 171.033 206.228Z" fill="#A8D9B8"/>
<path d="M218.765 206.228C223.402 206.228 227.16 202.469 227.16 197.833C227.16 193.197 223.402 189.438 218.765 189.438C214.129 189.438 210.37 193.197 210.37 197.833C210.37 202.469 214.129 206.228 218.765 206.228Z" fill="#A8D9B8"/>
<path d="M167.366 198.981C167.335 198.981 167.305 198.969 167.281 198.946C167.234 198.9 167.234 198.824 167.281 198.777L169.337 196.722C169.384 196.675 169.459 196.675 169.506 196.722C169.553 196.768 169.553 196.844 169.506 196.891L167.45 198.946C167.426 198.97 167.396 198.981 167.365 198.981H167.366Z" fill="#D5F1E4"/>
<path d="M169.714 199.272C169.683 199.272 169.653 199.26 169.629 199.238C169.582 199.191 169.582 199.115 169.629 199.069L172.267 196.43C172.314 196.383 172.39 196.383 172.436 196.43C172.483 196.477 172.483 196.552 172.436 196.599L169.798 199.238C169.774 199.262 169.744 199.272 169.713 199.272H169.714Z" fill="#D5F1E4"/>
<path d="M172.643 198.981C172.612 198.981 172.582 198.969 172.558 198.946C172.511 198.9 172.511 198.824 172.558 198.777L174.613 196.722C174.66 196.675 174.735 196.675 174.782 196.722C174.829 196.768 174.829 196.844 174.782 196.891L172.727 198.946C172.703 198.97 172.673 198.981 172.641 198.981H172.643Z" fill="#D5F1E4"/>
<path d="M222.43 198.98C222.399 198.98 222.369 198.968 222.345 198.945L220.289 196.889C220.242 196.842 220.242 196.767 220.289 196.72C220.336 196.673 220.411 196.673 220.458 196.72L222.514 198.776C222.56 198.822 222.56 198.898 222.514 198.945C222.49 198.969 222.46 198.98 222.429 198.98H222.43Z" fill="#D5F1E4"/>
<path d="M220.082 199.271C220.051 199.271 220.021 199.259 219.997 199.237L217.358 196.598C217.312 196.551 217.312 196.476 217.358 196.429C217.405 196.382 217.481 196.382 217.527 196.429L220.166 199.068C220.213 199.114 220.213 199.19 220.166 199.237C220.142 199.261 220.112 199.271 220.081 199.271H220.082Z" fill="#D5F1E4"/>
<path d="M217.153 198.98C217.122 198.98 217.092 198.968 217.068 198.945L215.013 196.889C214.966 196.842 214.966 196.767 215.013 196.72C215.059 196.673 215.135 196.673 215.182 196.72L217.237 198.776C217.284 198.822 217.284 198.898 217.237 198.945C217.213 198.969 217.183 198.98 217.152 198.98H217.153Z" fill="#D5F1E4"/>
</g>
<g filter="url(#filter1_i_531_593)">
<path d="M227.4 190.422C227.4 203.156 217.728 207.342 200.896 207.785C200.105 207.806 189.707 207.785 188.903 207.785C170.953 207.785 162.398 203.753 162.398 190.422C162.398 177.091 179.069 165.212 194.899 165.212C212.049 165.212 227.4 177.091 227.4 190.422Z" fill="#F2F9ED" fill-opacity="0.01"/>
</g>
<path d="M179.112 196.514C182.556 196.514 185.349 193.722 185.349 190.277C185.349 186.833 182.556 184.041 179.112 184.041C175.668 184.041 172.876 186.833 172.876 190.277C172.876 193.722 175.668 196.514 179.112 196.514Z" fill="white"/>
<path d="M179.112 194.154C181.253 194.154 182.989 192.418 182.989 190.277C182.989 188.137 181.253 186.401 179.112 186.401C176.972 186.401 175.236 188.137 175.236 190.277C175.236 192.418 176.972 194.154 179.112 194.154Z" fill="#39393B"/>
<path d="M210.686 196.514C214.131 196.514 216.923 193.722 216.923 190.277C216.923 186.833 214.131 184.041 210.686 184.041C207.242 184.041 204.45 186.833 204.45 190.277C204.45 193.722 207.242 196.514 210.686 196.514Z" fill="white"/>
<path d="M210.687 194.154C212.827 194.154 214.563 192.418 214.563 190.277C214.563 188.137 212.827 186.401 210.687 186.401C208.546 186.401 206.811 188.137 206.811 190.277C206.811 192.418 208.546 194.154 210.687 194.154Z" fill="#39393B"/>
<path d="M194.898 197.353C193.194 197.353 191.624 196.715 190.478 195.556C189.307 194.374 188.662 192.712 188.662 190.877C188.662 189.22 190.004 187.878 191.66 187.878C193.317 187.878 194.659 189.22 194.659 190.877C194.659 191.149 194.713 191.292 194.737 191.334C194.754 191.341 194.805 191.356 194.898 191.356C194.992 191.356 195.042 191.341 195.06 191.334C195.085 191.292 195.138 191.149 195.138 190.877C195.138 189.22 196.48 187.878 198.136 187.878C199.793 187.878 201.135 189.22 201.135 190.877C201.135 192.712 200.489 194.374 199.319 195.556C198.172 196.715 196.603 197.353 194.898 197.353Z" fill="#EE868C"/>
<path d="M194.898 194.475C192.889 194.475 191.54 193.028 191.54 190.877C191.54 190.811 191.594 190.757 191.66 190.757C191.726 190.757 191.78 190.811 191.78 190.877C191.78 192.886 193.033 194.235 194.898 194.235C196.763 194.235 198.016 192.886 198.016 190.877C198.016 190.811 198.07 190.757 198.136 190.757C198.202 190.757 198.256 190.811 198.256 190.877C198.256 193.028 196.907 194.475 194.898 194.475Z" fill="black"/>
<path d="M172.702 181.307L171.6 182.41C170.991 183.019 170.991 184.006 171.6 184.615C172.208 185.223 173.196 185.223 173.804 184.615L174.907 183.512C175.516 182.903 175.516 181.916 174.907 181.307C174.298 180.698 173.311 180.698 172.702 181.307Z" fill="#39393B"/>
<path d="M217.098 181.307C216.489 180.698 215.502 180.698 214.893 181.307C214.285 181.916 214.285 182.903 214.893 183.512L215.996 184.615C216.605 185.223 217.592 185.223 218.201 184.615C218.81 184.006 218.81 183.019 218.201 182.41L217.098 181.307Z" fill="#39393B"/>
</g>
<defs>
<filter id="filter0_d_531_593" x="147" y="125.632" width="96" height="94.8701" filterUnits="userSpaceOnUse" color-interpolation-filters="sRGB">
<feFlood flood-opacity="0" result="BackgroundImageFix"/>
<feColorMatrix in="SourceAlpha" type="matrix" values="0 0 0 0 0 0 0 0 0 0 0 0 0 0 0 0 0 0 127 0" result="hardAlpha"/>
<feOffset/>
<feGaussianBlur stdDeviation="3"/>
<feComposite in2="hardAlpha" operator="out"/>
<feColorMatrix type="matrix" values="0 0 0 0 0.180764 0 0 0 0 0.316667 0 0 0 0 0.266098 0 0 0 0.2 0"/>
<feBlend mode="normal" in2="BackgroundImageFix" result="effect1_dropShadow_531_593"/>
<feBlend mode="normal" in="SourceGraphic" in2="effect1_dropShadow_531_593" result="shape"/>
</filter>
<filter id="filter1_i_531_593" x="162.398" y="165.212" width="65.001" height="43.5825" filterUnits="userSpaceOnUse" color-interpolation-filters="sRGB">
<feFlood flood-opacity="0" result="BackgroundImageFix"/>
<feBlend mode="normal" in="SourceGraphic" in2="BackgroundImageFix" result="shape"/>
<feColorMatrix in="SourceAlpha" type="matrix" values="0 0 0 0 0 0 0 0 0 0 0 0 0 0 0 0 0 0 127 0" result="hardAlpha"/>
<feOffset dy="1"/>
<feGaussianBlur stdDeviation="5.5"/>
<feComposite in2="hardAlpha" operator="arithmetic" k2="-1" k3="1"/>
<feColorMatrix type="matrix" values="0 0 0 0 0.288889 0 0 0 0 0.541667 0 0 0 0 0.4491 0 0 0 1 0"/>
<feBlend mode="normal" in2="shape" result="effect1_innerShadow_531_593"/>
</filter>
<linearGradient id="paint0_linear_531_593" x1="195" y1="0" x2="195" y2="280" gradientUnits="userSpaceOnUse">
<stop stop-color="#2B7362"/>
<stop offset="1" stop-color="#295444"/>
</linearGradient>
<radialGradient id="paint1_radial_531_593" cx="0" cy="0" r="1" gradientUnits="userSpaceOnUse" gradientTransform="translate(215.684 153.58) rotate(124.798) scale(61.1452 64.7913)">
<stop stop-color="#A1E6B4"/>
<stop offset="1" stop-color="#2B7362"/>
</radialGradient>
</defs>
</svg>
